/* XPM */
static const char *const derivdlg_xpm[] = {
"32 32 6 1",
" 	c None",
".	c #EBF70E",
"+	c #000000",
"@	c #808080",
"#	c #0000FF",
"$	c #FFFFFF",
"      ..                        ",
"      ..                        ",
"++++++..++++++++++++++++++++++++",
"++++++..++++++++++++++++++++++++",
"++..@@..@@..@@@@@@@@@@@@@@@@@@++",
"++..@@..@@..@@@@@@@@@@@@@@@@@@++",
"++@@......##################@@++",
"++@@......##################@@++",
"......@@........@@@@@@@@@@@@@@++",
"......@@........@@@@@@@@@@@@@@++",
"++@@......$$$$$$$$$$$$$$$$$$@@++",
"++@@......$$$$$$$$$$$$$$$$$$@@++",
"++..$$..@@..@@@@@@@@@@@@$$$$@@++",
"++..$$..@@..@@@@@@@@@@@@$$$$@@++",
"++@@$$..@@@@@@@@@@@@@@@@$$$$@@++",
"++@@$$..@@@@@@@@@@@@@@@@$$$$@@++",
"++@@$$..$$$$$$$$$$$$$$$$$$$$@@++",
"++@@$$..$$$$$$$$$$$$$$$$$$$$@@++",
"++@@$$$$$$$$$$$$$$$$$$$$$$$$@@++",
"++@@$$$$$$$$$$$$$$$$$$$$$$$$@@++",
"++@@$$$$$$$$@@@@@@@@$$$$$$$$@@++",
"++@@$$$$$$$$@@@@@@@@$$$$$$$$@@++",
"++@@$$$$$$$$@@@@@@@@$$$$$$$$@@++",
"++@@$$$$$$$$@@@@@@@@$$$$$$$$@@++",
"++@@$$$$$$$$$$$$$$$$$$$$$$$$@@++",
"++@@$$$$$$$$$$$$$$$$$$$$$$$$@@++",
"++@@@@@@@@@@@@@@@@@@@@@@@@@@@@++",
"++@@@@@@@@@@@@@@@@@@@@@@@@@@@@++",
"++++++++++++++++++++++++++++++++",
"++++++++++++++++++++++++++++++++",
"                                ",
"                                "};
