/* XPM */
static const char *const uncenter_xpm[] = {
"32 32 5 1",
" 	c None",
".	c #000000",
"+	c #808080",
"@	c #0000FF",
"#	c #FFFFFF",
"                                ",
"                                ",
"................................",
"................................",
"..++++++++++++++++++++++++++++..",
"..++++++++++++++++++++++++++++..",
"..++@@@@@@@@@@@@@@@@@@@@@@@@++..",
"..++@@@@@@@@@@@@@@@@@@@@@@@@++..",
"..++++++++++++++++++++++++++++..",
"..++++++++++++++++++++++++++++..",
"..++########################++..",
"..++########################++..",
"..++######........##########++..",
"..++######........##########++..",
"..++######....##############++..",
"..++######....##############++..",
"..++######..##..############++..",
"..++######..##..############++..",
"..++######..####..##########++..",
"..++######..####..##########++..",
"..++##############..########++..",
"..++##############..########++..",
"..++################..######++..",
"..++################..######++..",
"..++########################++..",
"..++########################++..",
"..++++++++++++++++++++++++++++..",
"..++++++++++++++++++++++++++++..",
"................................",
"................................",
"                                ",
"                                "};
