/* XPM */
static const char *const variable_xpm[] = {
"16 16 2 1",
" 	c None",
".	c #0E2CEF",
"                ",
"             .  ",
"    ...     ..  ",
"   ....    ..   ",
"  ......  ..    ",
"  .  ... ..     ",
" .   .....      ",
"      ...       ",
"      ....      ",
"     .....    . ",
"    ..  ...  .  ",
"   ..   .....   ",
"  ..     ...    ",
"  .      ...    ",
"                ",
"                "};
