/* XPM */
static const char *const variants_xpm[] = {
"16 16 4 1",
" 	c None",
".	c #0E2CEF",
"-	c #EF2C0E",
"*	c #0EEF2C",
"                ",
"           **** ",
"           **** ",
"           **** ",
"           **** ",
"     ----  **** ",
"     ----  **** ",
"     ----  **** ",
"     ----  **** ",
"...  ----  **** ",
"...  ----  **** ",
"...  ----  **** ",
"...  ----  **** ",
"...  ----  **** ",
"...  ----  **** ",
"                "};
