/* XPM */
static const char * clock_xpm[] = {
"16 16 6 1",
" 	c None",
".	c #c0c0c0",
"X	c #808080",
"o	c Black",
"O	c Gray100",
"+	c #800000",
"     .XXX.      ",
"   .XoooooX.    ",
"  XoooXXXoooX   ",
" XooX.O+O.Xoo.  ",
".ooXO+O+O+OXoX  ",
".oo+OOO+OOO+oo. ",
"XoXOOOO+OOOOoo. ",
"XoX++OO+++++XoX ",
"XoXOOOOOOOOOoo. ",
".oo+OOOOOOO+ooO ",
" XoXO+O+O+OooX  ",
" .ooX.O+O.ooo   ",
"  XooooXoooo.   ",
"   .XoooooX.    ",
"     ..X..      ",
"                "};
