/* XPM */
static const char *const svgbitmap_xpm[] = {
/* columns rows colors chars-per-pixel */
"64 48 256 2",
"   c #550000",
".  c #5c0000",
"X  c #5f000a",
"o  c #5c033a",
"O  c #5a3615",
"+  c #640000",
"@  c #640009",
"#  c #680605",
"$  c #680807",
"%  c #6d0e0e",
"&  c #630015",
"*  c #690717",
"=  c #6d110e",
"-  c #6e1412",
";  c #701513",
":  c #721b16",
">  c #741c1a",
",  c #650021",
"<  c #65022b",
"1  c #65003d",
"2  c #650034",
"3  c #6b1132",
"4  c #711535",
"5  c #76221c",
"6  c #78211e",
"7  c #642939",
"8  c #643929",
"9  c #663336",
"0  c #772220",
"q  c #792522",
"w  c #7b2a23",
"e  c #7d2d29",
"r  c #7f312a",
"t  c #5d004f",
"y  c #560059",
"u  c #5b005c",
"i  c #5a0054",
"p  c #5e0061",
"a  c #64004a",
"s  c #650046",
"d  c #640150",
"f  c #64025d",
"g  c #660d58",
"h  c #671746",
"j  c #651352",
"k  c #640064",
"l  c #640069",
"z  c #6d0e6c",
"x  c #680767",
"c  c #6e0f71",
"v  c #6c106b",
"b  c #6c1665",
"n  c #711a6c",
"m  c #731b72",
"M  c #682847",
"N  c #6d2653",
"B  c #75236d",
"V  c #7c2d74",
"C  c #7d2c7a",
"Z  c #782278",
"A  c #7e3177",
"S  c #565600",
"D  c #5c5c00",
"F  c #5e6100",
"G  c #614416",
"H  c #655f06",
"J  c #655a0b",
"K  c #70463b",
"L  c #6e4538",
"P  c #646400",
"I  c #656a00",
"U  c #6c6c0d",
"Y  c #676708",
"T  c #6d6914",
"R  c #6d720f",
"E  c #707014",
"W  c #78781e",
"Q  c #75771a",
"!  c #75602d",
"~  c #7a7a23",
"^  c #7b7b2d",
"/  c #812e2a",
"(  c #82392d",
")  c #81332d",
"_  c #853a34",
"`  c #843834",
"'  c #833a7b",
"]  c #8a443a",
"[  c #884438",
"{  c #8e4a42",
"}  c #8d4542",
"|  c #8b4055",
" . c #914e48",
".. c #94564a",
"X. c #955250",
"o. c #985b54",
"O. c #995d55",
"+. c #894679",
"@. c #90506f",
"#. c #995c7d",
"$. c #97624d",
"%. c #9e6a5b",
"&. c #9c6756",
"*. c #9e6460",
"=. c #8d6a64",
"-. c #a06a5d",
";. c #a1715d",
":. c #a26a66",
">. c #a97c6c",
",. c #a67568",
"<. c #ac7b74",
"1. c #ab7674",
"2. c #812f81",
"3. c #853a82",
"4. c #823081",
"5. c #8a4284",
"6. c #8d4a84",
"7. c #8f5080",
"8. c #945689",
"9. c #965792",
"0. c #9a6389",
"q. c #9d6397",
"w. c #a2658e",
"e. c #a16a99",
"r. c #a5778f",
"t. c #a77799",
"y. c #ad78aa",
"u. c #a76daa",
"i. c #81812b",
"p. c #878738",
"a. c #888837",
"s. c #8d8d40",
"d. c #919145",
"f. c #919149",
"g. c #979753",
"h. c #9c9c5a",
"j. c #9b9b54",
"k. c #9f8671",
"l. c #9b856c",
"z. c #aa826b",
"x. c #ae8772",
"c. c #b1847a",
"v. c #b08c75",
"b. c #b3897f",
"n. c #b19374",
"m. c #b6997d",
"M. c #a99e77",
"N. c #a1a25b",
"B. c #a4a465",
"V. c #abab73",
"C. c #adad79",
"Z. c #b6a079",
"A. c #b2b278",
"S. c #ab878d",
"D. c #ac8396",
"F. c #b78c86",
"G. c #b69182",
"H. c #b99c83",
"J. c #bc9a8b",
"K. c #bb9592",
"L. c #b183ab",
"P. c #b38ca3",
"I. c #bd98b7",
"U. c #b791a9",
"Y. c #bba385",
"T. c #bca696",
"R. c #bbbb8c",
"E. c #b8b785",
"W. c #bebe94",
"Q. c #bfa5a7",
"!. c #c19c97",
"~. c #c0a88d",
"^. c #c3a896",
"/. c #c3b48f",
"(. c #c7b698",
"). c #c6aba5",
"_. c #c6aab7",
"`. c #ccb7a8",
"'. c #cdb8b5",
"]. c #d0bbab",
"[. c #d1bbb3",
"{. c #c29bc2",
"}. c #caa9c6",
"|. c #d7bfd0",
" X c #d2b8ca",
".X c #c2c28e",
"XX c #c8c294",
"oX c #cbc59c",
"OX c #ccca9b",
"+X c #c4c595",
"@X c #cccaa3",
"#X c #ccc8a7",
"$X c #d0cba5",
"%X c #d3cbab",
"&X c #d1c5aa",
"*X c #d3c3b3",
"=X c #d8c4ba",
"-X c #d8cbbb",
";X c #d5cab7",
":X c #d4d4ab",
">X c #d6dcaa",
",X c #d8dbad",
"<X c #d2d5a3",
"1X c #d8d4b3",
"2X c #dbd4bc",
"3X c #dbdbb4",
"4X c #dcdcbb",
"5X c #d4d4b5",
"6X c #dbe3ab",
"7X c #dce1b4",
"8X c #dee3bb",
"9X c #dee9b8",
"0X c #e0e4bd",
"qX c #e1e8bc",
"wX c #e0e7b5",
"eX c #d9c8c3",
"rX c #dbc8d4",
"tX c #ddd3c1",
"yX c #dddbc2",
"uX c #dedaca",
"iX c #e1cecd",
"pX c #e0dcc4",
"aX c #e2d8cb",
"sX c #e6dcd2",
"dX c #e5d8d7",
"fX c #e1cfe0",
"gX c #e2e2c3",
"hX c #e3e2cb",
"jX c #e3eac3",
"kX c #e6eacb",
"lX c #e8ebcc",
"zX c #e5e4d3",
"xX c #eaead3",
"cX c #eeebde",
"vX c #e9e5d8",
"bX c #eaf1ce",
"nX c #e8f2c7",
"mX c #ebf2d3",
"MX c #eef2da",
"NX c #edf8d4",
"BX c #effad8",
"VX c #f0f6d6",
"CX c #f0f3dd",
"ZX c #f2fbda",
"AX c #edece1",
"SX c #efe6e7",
"DX c #f0ebe5",
"FX c #f2f3e4",
"GX c #f4f4ea",
"HX c #f4fae3",
"JX c #f6fbea",
"KX c #f8fdec",
"LX c #f8fee4",
"PX c #fbfdf4",
"IX c #fefefe",
"UX c #f8f4f2",
/* pixels */
"> % % % ; % % ; % % ; % % ; % % % % % % % ; % % % % % % % % % ; % % % % ; % % % = = % % % % = % % % % % ; % % ; % % ; % % ; % / ",
"% + + + + + + + + + + + + + + + + + + + + + + + + + + + + + + + + + + + + + + + + + + + + + + + + + + + + + + + + + + + + + + # ",
"% + + + + + + + + + + + + + + + + + + = % = = % % % @ + + + + + + + + + + + % % % $ = $ % + + + + + + + # + + + + + + # + + + % ",
"% + + + + + + + + + + + + # + + + + % rXUXSXDXcXcXaX6 . + + + + + + + + + 6 oX$X@XoXXXOXZ.# + + + + + + + + + + + + + + + + + % ",
"% + + + + + + + + + + + + + # + + + . F.IXIXIXIXPXPX,.. + + + + + + + + + %.qX3X6X,X<X>X&.+ + + + + + + + + + + + + + + + + + ; ",
"% + + + + + + + # + + + + + + + + + + ` UXPXaX[.aXPX;X@ + + + + + + + + $ (.0X(.m./.<XOX5 + + + + + + + + + + + + + + + + + + % ",
"% + + + + + + + + + + # + + + + + + + + [.IXK.  ` FXFX_ + + + + + + + . [ 4X,Xw . >.wXM.+ + + + + + + + + + + + + # + + + + + ; ",
"; + + + + + + + + + + + + # + + + + + . :.IXSX- . [.IXG.. + + + + + + + v.nXH.. = XX6X] + + + + + + + + + + + + + + + + + + + % ",
"; + + + + + + + + + + + + + + + + + + + > SXIXO.  *.PXaX; + + + + + + ; %XjX..  ..6X(.= + + + + # + + + + + + + + + + + + + # % ",
"% + + + + + + + # + + + + # + + + + + + + !.IX[.. ; zXJXO.. + + + + . O.kX#X= + m.9Xz.. + + + + + + + + + + + + + + + # + + + % ",
"% + + + + + + + + + + + + + + + + + + + + } IXGXr   J.IX).+ + + + + + ^.bXx.  w :X<Xr   + + + + + + # + + + + + # + + + + + + ; ",
"; + + + + + + + + + + # + + + # + + + + + # eXIXc.  } HXxXe . + + . r 8X8X(   ;.9XY.# + + + + + + + + + + + + + + + + + + + + % ",
"% + + + + + + + + + + + + + + + + + + + +   1.IXiX$ # ;XKX<.. + + + >.mX(.+ $ (.9X$.. + + + + + + + + + + + + + + + + + + + + ; ",
"% + + + + + + + + + + + # + + + + + + + + @ q GXPX .  ,.KX-X$ + + $ #XbX&.  [ 7X$X: + + + + + + + # + + + + + + + + # + + # + % ",
"; + + + + + + + + + + + + + + + + + + + + + + ).IX^.. q vXMX{ . .  .kX5X> . n.jXn.+ + + + + + + + + + + + + + + + + + + + + + ; ",
"% + # + + + + + + + + % > ; $ + + + + + + + . o.PXvX> . ^.KXJ.+ + J.BXH.. : %X8X[ . + + + + + . $ / {  ._ : + + + + + + + + + % ",
"% + + + + + + + > ,.`.aXpXpX].x.( + + + + + + - sXPX:.  ..HXyX; : yXlX]   &.jX(.$ + + + + . ; <.-XxXVXVXkX1XH.[ + + + + + + + % ",
"; + + + + + # 1.vXIXKXxXhXpXlXBX0Xm.: + + + +   F.IX[.+ % tXHXO.%.MX&X% + /.jX;.. + + + + ..sXIXJXaX].^.%XgXNX8Xn.- + + + + + % ",
"% + + + + % ).IXPX`.O.e ; 6 ] v.1XnXoX( + + + + ` GXFX`   c.HX;XyXmX>.  r 8X3Xw + + + . 1.PXPX].X.% @ + + e >.1XjX/.: + + + + % ",
"% + + + @ ^.IXcXo..   + # + +   5 m.qX$X( . + + + [.PXb.  ` lXxXlXgXe   z.nXY.+ + + . :.IXGX,.@   $ w ) ; +   w #X8X/.% + + + % ",
"* + + . 1.IXDX`   > c.].2X%XH.] . . ;.,X(.5 . + . :.PXaX% + `.MXxX^.+ = %XjX..  +   _ PXPXO.  ; c.-XlXlXyX~.[ ;.3X7X>.$ + + + % ",
"v 2 + / UXUX}    .sXHXMXxXlXBXkXm.) ..OX6Xn.+ + . > vXLXX.  &.MXmXO.  ..jX#X; + + # [.IX<.  r eXPXCXpX-XpXMXgXjX3X..+ + + + * g ",
"c l t w.IXDXe   ,.PXFXG.w _ >.1XjX3XqX7X<X+X5 + + + !.PX^.. : pXyX- . Y.bXx.+ + . X.IXeX+ 0 sXPX].] % $ 5 ,.3X%X[ . + + * a k c ",
"c k k l {.IXdX6 . b.LX;Xq X . > ~.1XZ.;.( - $ + + . { HXvXq . T.J.. w 2XgX_ . + + '.IXX.  `.IXJ.# . + + + . ( w . @ < d l l k c ",
"c k k f x }.IXeX3 X J.JX;X: . . = - + . + + + + + + % -XKX,.  ` 6   ,.bX(.$ + + > UXdX+ } IX=X$ + + + @ + + . & 1 f l l l k k c ",
"v k k k p z rXIX}.f d _.LX(.- + + + + + + + + + + + . <.KX*X$ . + $ `.bX;.  +   X.IXK.. !.IXX.. + + + @ , 1 f l l k k l k k k c ",
"c k k k k f m rXPXI.u n [.ZXT.< & @ + + + + + + + + + e vXcX] . . ] kX3X6 + + . 1.IX*.@ sXsX% @ , 2 d f f p p p f p p p f f k c ",
"c k k k k k f ' dXKXP.u n ;XNXP.f f a 1 < , & @ @ + + + (.KXF.. + G.BXH.+ + + . K.IX| 4 KX_.f f l l l l 6.6.6.6.6.+.+.+.+.+.z z ",
"c k k k k k k k 3.vXLXt.y C 2XnXt.p l l l l k k f a a o #.HXuX4 h 2XkX@.o a a t {.IX4.Z PXI.p k k k k z yXjXjX9XqX3X6X>X<XOXB v ",
"c k k k l k k k p 6.cXBX9.y 5.4XqX0.f k k l k l l k l l c aXMX9.9.bX;Xc p l l f {.IX3.m PX_.p l k k f z yX2X).).).T.T.T.XXOXn z ",
"K g l l k k k k k p 9.MXlX6.y 6.0X7X7.p k k k k k k k k f P.ZX=XtXbXt.f k k p u L.IX9.l SXrXx p k k k z yXQ.p f f p k l T.oXc b ",
"R H 8 g l l k x k k f e.BXgX' y 0.wX,X' p k k k k k k k p 3.xXlXlXhX' f k l k u q.IXy.u  XJXC f l k f z yX'.C V A C x z oXR.9 T ",
"U I I H 8 j l p f k l f D.NX-XV y r.9X@XV k k k k k k k k x [.lXlX'.k k k k k f 2.IXrXu e.IXI.u f k k z yXkX4X3X3X`.x ' >XN.I E ",
"U P P P F D G M 2.x p p p U.nX&Xm p S.6X(.B p l k k k k k p e.mXlX0.p l k k k k x fXIXC x dXJX9.u p f z '.*X;X3XqXk.O B.>Xa.H R ",
"R P P U p.B.+XkXDXU.N i u f U.nX).b k K.6XT.b p k k k l l f Z hXpXm k k k k k k p y.IXI.y 9.KXFXq.x p p x A ).jX+XY Q <X+XU P U ",
"U P D C.IXIXIXGXGXKXyXV.=.+.P.0XnXt.u B <X<XA f k l k k l p f _.Q.p k k k l k k p m SXPX5.y y.JXLX XP.t.U.2XlXOXQ D A.3Xj.P P U ",
"U P P ~ AXIXyXp.a.5XGXKXMXlXmXkXE.K h S.6XS.k l l l k l l k k ' C f k k l l l l p p u.IXdXB o l.gXHXLXLXVXgXE.E S j.3X.XU P P U ",
"E P P S g.IXFXg.S P g.+X:X@XE.a.D F h.,XOX! 8 9 M h j j g f f x f f x x g g j h M 7 8 #XIXyX~ S U g.A.A.B.i.D P j.3X,Xa.H P P U ",
"yXf.P P D V.IXPXR.E S D P P D S E A.8X:Xa.P I I I I P Y Y H H J J J H H H P I P I I F E 2XIXvXB.Y S S S S P ~ E.0X3Xf.D P P P f.",
"IXIX5Xf.P D B.GXIXhXE.d.i.i.d.C.:XgX,Xa.P P P P P P P P I P P I P P P I P P I P P P I F T @XPXKXgXE.B.j.B.+X4XlX:Xd.P P P p.#XIX",
"IXIXIXIXyXh.T p.5XGXPXCXkXhXlXxXgX.X^ P P P P P P P P P P P P P P P P P P P P P P P P P D Y h.yXFXJXGXCXFXlX4XA.W H Y j.2XIXIXIX",
"IXIXIXIXIXIXAXE.p.d.R.5XgX3X@XC.a.I P P P P P P P P P P P P P P P P P P P P P P P P P P P P D U d.A.R.W.A.h.~ D ^ A.zXIXIXIXIXIX",
"IXIXIXIXIXIXIXIXIXuXC.p.E U Y P P P P P P P P P P P P P P P P P P P P P P P P P P P P P P P P P H D D P Y ^ V.yXIXIXIXIXIXIXIXIX",
"IXIXIXIXIXIXIXIXIXIXIXIXzXW.h.~ Y P P P P P P P P P P P P P P P P P P P P P P P P P P P P P P P P W g.R.zXPXIXIXIXIXIXIXIXIXIXIX",
"IXIXIXIXIXIXIXIXIXIXIXIXIXIXIXUXzX@XC.f.~ U P P P P P P P P P P P P P P P P P P P P P Y ~ d.V.+XhXPXIXIXIXIXIXIXIXIXIXIXIXIXIXIX",
"IXIXIXIXIXIXIXIXIXIXIXIXIXIXIXIXIXIXIXIXIXAXyX#XW.C.B.h.f.s.p.p.a.a.p.s.f.j.B.C.R.#XyXAXPXIXIXIXIXIXIXIXIXIXIXIXIXIXIXIXIXIXIXIX",
"IXIXIXIXIXIXIXIXIXIXIXIXIXIXIXIXIXIXIXIXIXIXIXIXIXIXIXIXIXIXIXIXIXIXIXIXIXIXIXIXIXIXIXIXIXIXIXIXIXIXIXIXIXIXIXIXIXIXIXIXIXIXIXIX",
"IXIXIXIXIXIXIXIXIXIXIXIXIXIXIXIXIXIXIXIXIXIXIXIXIXIXIXIXIXIXIXIXIXIXIXIXIXIXIXIXIXIXIXIXIXIXIXIXIXIXIXIXIXIXIXIXIXIXIXIXIXIXIXIX"
};
