/* XPM */
static const char * forward_xpm[] = {
"32 32 225 2",
"  	c None",
". 	c #3A7304",
"+ 	c #5B8B2C",
"@ 	c #3C7404",
"# 	c #CBE0B7",
"$ 	c #77A24E",
"% 	c #3B7504",
"& 	c #CDE2B8",
"* 	c #C7DEB0",
"= 	c #8EB469",
"- 	c #3C7605",
"; 	c #C7DFB1",
"> 	c #9EC776",
", 	c #BBD8A0",
"' 	c #9FC280",
") 	c #42790D",
"! 	c #C5DDAD",
"~ 	c #96C36A",
"{ 	c #92C065",
"] 	c #AFD18E",
"^ 	c #AECD91",
"/ 	c #4D821B",
"( 	c #3A7404",
"_ 	c #C2DCA9",
": 	c #92C064",
"< 	c #8CBD5D",
"[ 	c #8BBC5B",
"} 	c #A0C979",
"| 	c #B5D299",
"1 	c #5D8D2E",
"2 	c #3B7503",
"3 	c #B8D59B",
"4 	c #BDD8A2",
"5 	c #BED9A3",
"6 	c #BFD9A4",
"7 	c #BFDAA5",
"8 	c #C0DAA6",
"9 	c #C0DBA6",
"0 	c #C2DCAA",
"a 	c #8DBD5E",
"b 	c #88BB57",
"c 	c #86B954",
"d 	c #85B952",
"e 	c #92C066",
"f 	c #B5D498",
"g 	c #729E46",
"h 	c #B8D69A",
"i 	c #7DB447",
"j 	c #7FB54A",
"k 	c #81B64D",
"l 	c #83B750",
"m 	c #84B851",
"n 	c #86B953",
"o 	c #86BA53",
"p 	c #86BA52",
"q 	c #84B850",
"r 	c #82B74F",
"s 	c #80B64C",
"t 	c #7EB549",
"u 	c #85B853",
"v 	c #B0D18F",
"w 	c #85AF5D",
"x 	c #3C7505",
"y 	c #B5D597",
"z 	c #78B141",
"A 	c #7AB344",
"B 	c #7FB54B",
"C 	c #81B74C",
"D 	c #82B94D",
"E 	c #83BA4D",
"F 	c #84BA4D",
"G 	c #83BA4C",
"H 	c #81B94A",
"I 	c #7FB848",
"J 	c #7DB646",
"K 	c #7AB343",
"L 	c #78B140",
"M 	c #7AB242",
"N 	c #A3CB7E",
"O 	c #97BD70",
"P 	c #427A0E",
"Q 	c #B4D495",
"R 	c #74AF3B",
"S 	c #76B03E",
"T 	c #79B342",
"U 	c #7CB644",
"V 	c #7EB745",
"W 	c #7FB946",
"X 	c #80BB48",
"Y 	c #80BB47",
"Z 	c #7FBA45",
"` 	c #7CB841",
" .	c #71B132",
"..	c #68AB27",
"+.	c #62A61F",
"@.	c #61A41F",
"#.	c #65A625",
"$.	c #91C064",
"%.	c #A1C67D",
"&.	c #4C821A",
"*.	c #B2D292",
"=.	c #70AD35",
"-.	c #71AD37",
";.	c #73AF39",
">.	c #77B23C",
",.	c #79B63E",
"'.	c #7CB940",
").	c #7CBA40",
"!.	c #7EBC41",
"~.	c #7BBB3D",
"{.	c #70B52C",
"].	c #62AD18",
"^.	c #58A80B",
"/.	c #56A508",
"(.	c #54A207",
"_.	c #529F06",
":.	c #509C05",
"<.	c #4E9905",
"[.	c #A8CB85",
"}.	c #598C29",
"|.	c #3B7404",
"1.	c #ADD08B",
"2.	c #66A727",
"3.	c #69A92B",
"4.	c #6EAE30",
"5.	c #6FB02F",
"6.	c #6EB22C",
"7.	c #6DB328",
"8.	c #69B221",
"9.	c #62B015",
"0.	c #5CAD0B",
"a.	c #5BAE0B",
"b.	c #5BAD0A",
"c.	c #5AAC0A",
"d.	c #59A909",
"e.	c #57A608",
"f.	c #54A308",
"g.	c #4F9B05",
"h.	c #A2C97E",
"i.	c #578B25",
"j.	c #A3CA7E",
"k.	c #52A007",
"l.	c #55A408",
"m.	c #58A809",
"n.	c #5CAF0B",
"o.	c #5EB10B",
"p.	c #5EB20C",
"q.	c #5FB20C",
"r.	c #5DB00B",
"s.	c #59AA0A",
"t.	c #57A709",
"u.	c #529E07",
"v.	c #94BE6B",
"w.	c #4B8116",
"x.	c #519E06",
"y.	c #54A307",
"z.	c #5DAF0B",
"A.	c #5FB30C",
"B.	c #61B50D",
"C.	c #62B70D",
"D.	c #61B60D",
"E.	c #60B40C",
"F.	c #5EB10C",
"G.	c #5CAE0B",
"H.	c #59AA09",
"I.	c #5BA810",
"J.	c #8FC25E",
"K.	c #8AB65C",
"L.	c #41790C",
"M.	c #53A007",
"N.	c #61B70D",
"O.	c #63BA0E",
"P.	c #65BC0F",
"Q.	c #64BB0E",
"R.	c #63B90E",
"S.	c #60B50D",
"T.	c #67B31B",
"U.	c #9CCB6D",
"V.	c #7AAA4A",
"W.	c #3B7405",
"X.	c #A4CC7E",
"Y.	c #A6CF7F",
"Z.	c #A8D180",
"`.	c #AAD480",
" +	c #ACD781",
".+	c #ADD982",
"++	c #AFDB82",
"@+	c #B0DD83",
"#+	c #B1DE83",
"$+	c #6CC317",
"%+	c #67BF10",
"&+	c #75BE2B",
"*+	c #A3D075",
"=+	c #689C37",
"-+	c #3A7204",
";+	c #AEDE7D",
">+	c #6FC818",
",+	c #6AC411",
"'+	c #68C010",
")+	c #84C93E",
"!+	c #A4D275",
"~+	c #578B23",
"{+	c #376E03",
"]+	c #AEDF7D",
"^+	c #72CB19",
"/+	c #6DC714",
"(+	c #94D455",
"_+	c #9DCD6E",
":+	c #488016",
"<+	c #336204",
"[+	c #AEE07E",
"}+	c #7AD223",
"|+	c #A2DD67",
"1+	c #91C35E",
"2+	c #41790B",
"3+	c #B2E184",
"4+	c #AFE37C",
"5+	c #7EB24A",
"6+	c #3D7506",
"7+	c #3C7504",
"8+	c #AFDC84",
"9+	c #6A9D39",
"0+	c #3A7305",
"a+	c #50851D",
"b+	c #386F03",
"                                                                ",
"                                                                ",
"                                                                ",
"                                                                ",
"                            .                                   ",
"                            . + @                               ",
"                            . # $ %                             ",
"                            . & * = -                           ",
"                            . ; > , ' )                         ",
"                            . ! ~ { ] ^ /                       ",
"          . ( ( ( ( ( ( ( ( . _ : < [ } | 1 2                   ",
"          . 3 , 4 5 6 7 8 8 9 0 a b c d e f g %                 ",
"          . h i j k l m d n o o p q r s t u v w x               ",
"          . y z A i t B C D E F G H I J K L M N O P             ",
"          . Q R S L T U V W X Y Y Z `  ...+.@.#.$.%.&.          ",
"          . *.=.-.;.>.,.'.).!.~.{.].^./.(._.:.<.<.R [.}.|.      ",
"          . 1.2.3.4.5.6.7.8.9.0.a.b.c.d.e.f._.g.<.=.h.i.|.      ",
"          . j.<.g.k.l.m.c.n.o.p.q.p.r.b.s.t.(.u.t v.w.@         ",
"          . j.<.x.y.t.c.z.A.B.C.C.D.E.F.G.H.I.J.K.L.            ",
"          . j.g.M./.s.n.A.N.O.P.P.Q.R.S.F.T.U.V.W.              ",
"          . j.X.Y.Z.`. +.+++@+#+$+%+P.R.&+*+=+-+                ",
"          . . . . . . . . . . ;+>+,+'+)+!+~+{+                  ",
"                            @ ]+^+/+(+_+:+<+                    ",
"                            @ [+}+|+1+2+                        ",
"                            @ 3+4+5+6+                          ",
"                            7+8+9+0+                            ",
"                            . a+b+                              ",
"                            .                                   ",
"                                                                ",
"                                                                ",
"                                                                ",
"                                                                "};
