/* XPM */
static char *linearrow_xpm[] = {
/* width height num_colors chars_per_pixel */
"    16    15        3            1",
/* colors */
". c #000000",
"# c #800000",
"a c #c0c0c0",
/* pixels */
"aaaaaaaaaaaaaaaa",
"aaaaa#aaaaaaaaaa",
"aaaaa##aaaaaaaaa",
"aaaaa###aaaaaaaa",
"aaaaa####aaaaaaa",
"aaaaa#####aaaaaa",
".....######.....",
".....######.....",
"aaaaa#####aaaaaa",
"aaaaa####aaaaaaa",
"aaaaa###aaaaaaaa",
"aaaaa##aaaaaaaaa",
"aaaaa#aaaaaaaaaa",
"aaaaaaaaaaaaaaaa",
"aaaaaaaaaaaaaaaa"
};
