/* XPM */
static char * center_xpm[] = {
"16 16 3 1",
" 	c None",
".	c Black",
"X	c Yellow",
"                ",
"                ",
"                ",
"      ....      ",
"     .XXXX.     ",
"    .XXXXXX.    ",
"   .XXXXXXXX.   ",
"   .XXXXXXXX.   ",
"   .XXXXXXXX.   ",
"   .XXXXXXXX.   ",
"    .XXXXXX.    ",
"     .XXXX.     ",
"      ....      ",
"                ",
"                ",
"                "};
