/* XPM */
static const char * info_xpm[] = {
/* columns rows colors chars-per-pixel */
"16 16 2 1",
"  c None",
". c Blue",
/* pixels */
"                ",
"      ....      ",
"     ......     ",
"     ......     ",
"      ....      ",
"                ",
"                ",
"    .......     ",
"      .....     ",
"      .....     ",
"      .....     ",
"      .....     ",
"      .....     ",
"      .....     ",
"      .....     ",
"    .........   "
};
