/* XPM */
static char * south_xpm[] = {
"16 16 3 1",
" 	c None",
".	c Black",
"X	c Yellow",
"                ",
"                ",
" ..          .. ",
" .X..      ..X. ",
"  .XX......XX.  ",
"  .XXXXXXXXXX.  ",
"   .XXXXXXXX.   ",
"   .XXXXXXXX.   ",
"    .XXXXXX.    ",
"    .XXXXXX.    ",
"     .XXXX.     ",
"     .XXXX.     ",
"      .XX.      ",
"      .XX.      ",
"       ..       ",
"                "};
