/* XPM */
static char * west_xpm[] = {
"16 16 3 1",
" 	c None",
".	c Black",
"X	c Yellow",
"                ",
"            ..  ",
"          ..X.  ",
"        ..XX.   ",
"      ..XXXX.   ",
"    ..XXXXX.    ",
"  ..XXXXXXX.    ",
" .XXXXXXXXX.    ",
" .XXXXXXXXX.    ",
"  ..XXXXXXX.    ",
"    ..XXXXX.    ",
"      ..XXXX.   ",
"        ..XX.   ",
"          ..X.  ",
"            ..  ",
"                "};
