/* XPM */
static char * book_xpm[] = {
"16 16 21 1",
" 	c None",
".	c #007F7F",
"+	c #660000",
"@	c #CC0000",
"#	c #E50000",
"$	c #FF0000",
"%	c #F20000",
"&	c #D80000",
"*	c #720000",
"=	c #7F0000",
"-	c #BFBFBF",
";	c #E57F7F",
">	c #7F7F7F",
",	c #FFFFFF",
"'	c #F2BFBF",
")	c #723F3F",
"!	c #A5A5A5",
"~	c #E5E5E5",
"{	c #B2B2B2",
"]	c #003F3F",
"^	c #000000",
"                ",
"  .........     ",
" +@#$$$$$%&+    ",
" +##$$$$$$$*    ",
" +##$$$$$$$=-   ",
" +##$$$$$$$=;>  ",
" +##$$$$$$$=;,. ",
" +##$$$$$$$=;,. ",
" +##$$$$$$$=''. ",
" +##$$$$$$$=,;. ",
" +##$$$$$$%+,;. ",
" +&++++++++),;. ",
" ++!~~~~~~~~~,. ",
" ++!~~~~~~~~~{. ",
"  ]^^^^^^^^^^^  ",
"                "};
