/* XPM */
static char * wbkdel_xpm[] = {
"16 16 3 1",
" 	c None",
".	c #FF0000",
"+	c #000000",
"                ",
" ...         .  ",
" ....      ..+  ",
" +....    ..+   ",
"  ++...  ..+    ",
"    +.....+     ",
"     +...+      ",
"     .....      ",
"    ...++..     ",
"   ...+  +..    ",
"  ...+    +.    ",
" ....      +.   ",
" ...+       +   ",
" +.+         .  ",
"  +          +  ",
"                "};
