/* XPM */
static char * wdown_xpm[] = {
"16 16 5 1",
" 	c None",
".	c #000000",
"+	c #808080",
"@	c #C0E4CB",
"#	c #77C490",
"                ",
"     .....+     ",
"     .@##.+     ",
"     .@##.+     ",
"     .@##.+     ",
"     .@##.+     ",
"     .@##.+     ",
"     .@##.+++++ ",
"  ....@##....+  ",
"   .@@####@.+   ",
"    .@@##@.+    ",
"     .@@@.+     ",
"      .@.+      ",
"       .        ",
"                ",
"                "};
