/* XPM */
static char * wfolder_xpm[] = {
"16 16 31 1",
" 	c None",
".	c #000000",
"+	c #7F6E54",
"@	c #555555",
"#	c #7F6140",
"$	c #FFCF94",
"%	c #FFFFFF",
"&	c #D5D5D5",
"*	c #4B4336",
"=	c #FFDCA8",
"-	c #BFA57E",
";	c #EFEFEF",
">	c #DFDFDF",
",	c #B8B8B9",
"'	c #6E6E6F",
")	c #BF7E42",
"!	c #FFA858",
"~	c #FFC280",
"{	c #CFCFCF",
"]	c #55402C",
"^	c #3C2C2C",
"/	c #7F542C",
"(	c #C0C0C0",
"_	c #B0B0B2",
":	c #969698",
"<	c #A8A8AB",
"[	c #A0A0A4",
"}	c #2C2C2C",
"|	c #7C7C7E",
"1	c #161616",
"2	c #3F2A16",
" .+.            ",
".@#$+.          ",
".%&@#$+.+*      ",
".%%%&@#$==-.    ",
".%%;>,')!~$+    ",
".%;>{{,']^/~.   ",
".;>{{((,,_:]/   ",
".>{{((,,_<[}/   ",
".{{((,,_<[[^/   ",
"._((,,_<[[[}/   ",
" }|_,_<[[[[}/   ",
"  .}|<[[[[[}/   ",
"    .}|[[[[}/   ",
"      .}|[[}/.. ",
"        .}|}/.. ",
"          .12.  "};
