/* XPM */
static char * wup_xpm[] = {
"16 16 5 1",
" 	c None",
".	c #000000",
"+	c #C0E4CB",
"@	c #808080",
"#	c #77C490",
"                ",
"       .        ",
"      .+.@      ",
"     .+++.@     ",
"    .++##+.@    ",
"   .++####+.@   ",
"  ....+##....@  ",
"     .+##.@@@@@ ",
"     .+##.@     ",
"     .+##.@     ",
"     .+##.@     ",
"     .+##.@     ",
"     .+##.@     ",
"     .....@     ",
"                ",
"                "};
