/* XPM */
static char* COL_xpm[] = {
"16 16 4 1",
"  c #000000",
"! c #000080",
"# c #C0C0C0",
"$ c #808080",
"$$$$$$$     $$$$",
"$######!!!!!### ",
"$######!!!!!### ",
"$######!!!!!### ",
"$######!###!### ",
"$#    #!$$$!# # ",
"$# ####!   !### ",
"$#    #! ! !# # ",
"$# ####!   !### ",
"$#    #! ! !# # ",
"$# ####!   !### ",
"$#    #! ! !# # ",
"$$$$$$#!   !### ",
"      #!   !#   ",
"      #!!!!!#   ",
"                "};
