/* XPM */
static char* DsnOpen_xpm[] = {
"16 16 4 1",
"  c #000000",
"! c #C0C0C0",
"# c #808080",
"$ c #00FF00",
" $  $##$###     ",
"  $#$!$!!!!##   ",
"  #!$!!!!!!!!#  ",
"$$$ !!$$$!!!!#  ",
"  # $!!!!!!!!#  ",
"  $!$!$!!!###   ",
" $!!$!#!$ ##    ",
"  # $!!#### #   ",
"  #  !### ##    ",
"  # !!!#### #   ",
"  #  !### ##    ",
"  # !!!#### #   ",
"  #  !### ##    ",
"  # !!!#### #   ",
"  ## !### ##    ",
"    ########    "};
