/* XPM */
static const char * FolderOpen_xpm[] = {
/* columns rows colors chars-per-pixel */
"16 15 57 1",
"u c #83A5DD",
"h c #83A5DE",
"> c #DAE3F2",
": c #F3F7FC",
"t c #4A79C6",
"s c #274E8F",
"n c #4D71AB",
"5 c #C2D0E8",
"9 c #84A6DE",
"x c #3761A5",
"p c #ACC3E8",
"$ c #ACC3E9",
"= c #D9E4F5",
"o c #91AFE2",
"f c #5886D1",
"2 c #B9CCEC",
"& c #C3D4EF",
"; c #EBF1FA",
"7 c #4270BC",
"# c #9EB8E5",
"0 c #ADC4E9",
"y c #658FD5",
"  c None",
"@ c #688DCA",
"< c #779CDA",
"r c #2A5498",
"l c #254A87",
"g c #6690D5",
"M c #5778AE",
"m c #5274AD",
"a c #D6E2F4",
", c #4672BA",
"v c #4168A8",
"c c #3C64A7",
". c #416BB2",
"- c #E3EBF8",
"z c #305CA3",
"X c #446CAE",
"O c #5882C8",
"N c #5D7DB0",
"3 c #C3D3EF",
"b c #476DAA",
"k c #ADC3E9",
"e c #E4ECF8",
"d c #4576C7",
"q c #C4D4EF",
"* c #CEDCF2",
"i c #90AFE1",
"4 c #ECF1FA",
"B c #4D72AE",
"% c #B8CCEC",
"8 c #759BDA",
"+ c #617FB1",
"1 c #9DB8E4",
"j c #9DB8E5",
"6 c #3762AA",
"w c #CFDDF2",
/* pixels */
"                ",
"                ",
" ....           ",
" Xooo.          ",
" Xoooo.......   ",
" Xoooooooooo.   ",
" XoOOOOOOOOOOO+ ",
" Xo@#$%&*=-;:>+ ",
" X,<o1$23*=-45+ ",
" 6789o#02qw=e+  ",
" rty8ui#p%&*a+  ",
" sdfg8hojk2&+   ",
" lzxcvbnmMN+B   ",
"                ",
"                "
};
