/* XPM */
static const char * key_xpm[] = {
/* columns rows colors chars-per-pixel */
"16 16 11 1",
"O c Black",
". c #C0C000",
"+ c #363636",
"# c #A0A0A0",
"  c None",
"% c #404040",
"& c #757575",
"o c #C0C0C0",
"X c #808000",
"$ c #606060",
"@ c #959595",
/* pixels */
"   .XX          ",
" .....XX        ",
" ..   .X        ",
"..     .X       ",
"..     .X       ",
"..     .X       ",
" ..   ..        ",
" .....XX        ",
"   ..X  oOOOO+  ",
"   .X   oO@o#O$ ",
"   ..X  oOo  %% ",
"   .X   oO@o#O& ",
"   ..X  oOOOO$  ",
"   .X.  oOo     ",
"   ..X  oOo     ",
"   .    oOo     "
};
