/* XPM */
static const char * keyf_xpm[] = {
/* columns rows colors chars-per-pixel */
"16 16 12 1",
"O c Black",
"& c #808080",
". c #C0C000",
"$ c #6B6B6B",
"* c #A0A0A0",
"  c None",
"# c #404040",
"o c #C0C0C0",
"@ c #2B2B2B",
"X c #808000",
"% c #606060",
"+ c #959595",
/* pixels */
"   .XX          ",
" .....XX        ",
" ..   .X        ",
"..     .X       ",
"..     .X       ",
"..     .X       ",
" ..   ..        ",
" .....XX        ",
"   ..X   oOOOOO ",
"   .X    oO+ooo ",
"   ..X   oOo    ",
"   .X    oO@##$ ",
"   ..X   oO%&&* ",
"   .X.   oOo    ",
"   ..X   oOo    ",
"   .     oOo    "
};
