/* XPM */
static char* XpmKEYF_xpm[] = {
"16 16 7 1",
"  c #000000",
"! c #808000",
"# c #000080",
"$ c #C0C0C0",
"% c #808080",
"& c #FFFF00",
"' c #0000FF",
"    %%          ",
"  !! !%$        ",
" !&% #&!%       ",
"!&&%  #&!$      ",
"!&&%  $&!%      ",
" !&&&&&$!$      ",
" !!$$$&!$       ",
"   !$&!$        ",
"   !&!%  '''''' ",
"  $!&!!   ''  ' ",
"   !!!%   ''    ",
"   !&!!   '''   ",
"   !!!%   ''    ",
"   !&!%   ''    ",
"   !$!%  ''''   ",
"    %$          "};