/* XPM */
static char* TAB[] = {
"16 16 7 1",
"  c #000000",
"! c #800080",
"# c #008080",
"$ c #C0C0C0",
"% c #808080",
"& c #0000FF",
"' c #00FFFF",
"                ",
"                ",
"!!!!!!!!!!!!!!!!",
"!&&&&&&&&&&&&&&!",
"!!!!!!!!!!!!!!!!",
"!'$'#$'$$$#$$$$!",
"!$'$#'$$$$#$$$$!",
"!##############!",
"!$'$#$$$$$#$$%$!",
"!'$$#$$$$$#$%$%!",
"!##############!",
"!$$$#$$%$$#%%%%!",
"!$$%#$%$%%#%%%%!",
"!!!!!!!!!!!!!!!!",
"                ",
"                "};
