/* XPM */
static char* VIEW_xpm[] = {
"16 16 5 1",
"  c #000000",
"! c #000080",
"# c #C0C0C0",
"$ c #808080",
"% c #FFFFFF",
"$$$$$$$$$$$$$$$$",
"$$$$$$$$$$$$$$$$",
"$#############$ ",
"$#$$$$$$$$$$$$$ ",
"$$$$$$$$$$$$$$$ ",
"$$############# ",
"$$#$$$$$$$$$$$$ ",
"$$#$$$$$$$$$$$$ ",
"$$#$$$$$$$$$$$$ ",
"$$#%%%%%%%%%%%$ ",
"$$#%!!!%!!!%!%$ ",
"$$#%%%%%%%%%%%$ ",
"$$#%!!!%!!!%!%$ ",
"$$#%%%%%%%%%%%$ ",
" $#%!!!%!!!%!%  ",
"%$$$$$$$$$$$$$$$"};
