/* XPM */
static const char * view_xpm[] = {
/* columns rows colors chars-per-pixel */
"16 15 5 1",
"  c Black",
"O c #FFFFFF",
"o c #808080",
". c None",
"X c #C0C0C0",
/* pixels */
"              ..",
" XXoXXoXXoXXo ..",
" XXoXXoXXoXXo ..",
" o             .",
" O XXoXXoXXoXX .",
" O XXoXXoXXoXX .",
" O ooooooooooo .",
" o OOoOOoOOoOO .",
" O OOoOOoOOoOO .",
" O OOoOOoOOoOO .",
" O ooooooooooo .",
"   OOoOOoOOoOO .",
".. OOoOOoOOoOO .",
".. OOoOOoOOoOO .",
"..             ."
};
