<?xml version="1.0" encoding="UTF-8" standalone="no"?>
<!-- Created with Inkscape (http://www.inkscape.org/) -->

<svg
   xmlns:dc="http://purl.org/dc/elements/1.1/"
   xmlns:cc="http://creativecommons.org/ns#"
   xmlns:rdf="http://www.w3.org/1999/02/22-rdf-syntax-ns#"
   xmlns:svg="http://www.w3.org/2000/svg"
   xmlns="http://www.w3.org/2000/svg"
   xmlns:xlink="http://www.w3.org/1999/xlink"
   xmlns:sodipodi="http://sodipodi.sourceforge.net/DTD/sodipodi-0.dtd"
   xmlns:inkscape="http://www.inkscape.org/namespaces/inkscape"
   width="427.61838"
   height="100.55876"
   id="svg1336"
   sodipodi:version="0.32"
   inkscape:version="0.48.5 r10040"
   version="1.0"
   sodipodi:docname="title.svg"
   inkscape:export-filename="/home/bryan/Projects/wxwebsite/downloads/logos/title.png"
   inkscape:export-xdpi="100"
   inkscape:export-ydpi="100">
  <defs
     id="defs1338">
    <linearGradient
       id="linearGradient8721">
      <stop
         id="stop12145"
         offset="0"
         style="stop-color:#ff0000;stop-opacity:1;" />
      <stop
         style="stop-color:#ffe0e0;stop-opacity:1;"
         offset="1"
         id="stop8725" />
    </linearGradient>
    <linearGradient
       id="linearGradient4073">
      <stop
         id="stop4075"
         offset="0"
         style="stop-color:#ffffff;stop-opacity:1;" />
      <stop
         id="stop4077"
         offset="1"
         style="stop-color:#ffffff;stop-opacity:0;" />
    </linearGradient>
    <linearGradient
       id="linearGradient6848">
      <stop
         id="stop6850"
         offset="0"
         style="stop-color:#0000ff;stop-opacity:1;" />
      <stop
         id="stop6852"
         offset="1"
         style="stop-color:#e0e0ff;stop-opacity:1;" />
    </linearGradient>
    <linearGradient
       id="linearGradient6854">
      <stop
         id="stop6856"
         offset="0"
         style="stop-color:#ffffe0;stop-opacity:1;" />
      <stop
         id="stop6858"
         offset="1"
         style="stop-color:#ffff00;stop-opacity:1;" />
    </linearGradient>
    <linearGradient
       inkscape:collect="always"
       xlink:href="#linearGradient8721"
       id="linearGradient1686"
       gradientUnits="userSpaceOnUse"
       gradientTransform="matrix(1.000031,0,0,1.000031,-45.00832,-319.1057)"
       x1="221.01576"
       y1="674.0849"
       x2="119.92342"
       y2="474.09103" />
    <linearGradient
       inkscape:collect="always"
       xlink:href="#linearGradient4073"
       id="linearGradient1688"
       gradientUnits="userSpaceOnUse"
       gradientTransform="matrix(0.545556,0,0,0.350255,-38.51666,72.6073)"
       x1="139.43112"
       y1="520.74255"
       x2="222.73912"
       y2="520.74255" />
    <linearGradient
       inkscape:collect="always"
       xlink:href="#linearGradient6848"
       id="linearGradient1690"
       gradientUnits="userSpaceOnUse"
       gradientTransform="matrix(1.334164,0,0,1.334164,-90.28301,-537.514)"
       x1="296.20334"
       y1="571.52942"
       x2="220.84492"
       y2="421.62283" />
    <linearGradient
       inkscape:collect="always"
       xlink:href="#linearGradient4073"
       id="linearGradient1692"
       gradientUnits="userSpaceOnUse"
       gradientTransform="matrix(0.545558,0,0,0.350255,91.4834,-57.3926)"
       x1="139.62971"
       y1="520.74225"
       x2="222.73819"
       y2="520.74225" />
    <linearGradient
       inkscape:collect="always"
       xlink:href="#linearGradient6854"
       id="linearGradient1694"
       gradientUnits="userSpaceOnUse"
       gradientTransform="matrix(1.334164,0,0,1.334164,54.71699,-442.514)"
       x1="221.02206"
       y1="421.6228"
       x2="296.72556"
       y2="571.52942" />
    <linearGradient
       inkscape:collect="always"
       xlink:href="#linearGradient4073"
       id="linearGradient1696"
       gradientUnits="userSpaceOnUse"
       gradientTransform="matrix(0.545558,0,0,0.350255,236.4833,37.6074)"
       x1="139.43103"
       y1="520.74225"
       x2="222.73837"
       y2="520.74225" />
    <linearGradient
       inkscape:collect="always"
       xlink:href="#linearGradient8721"
       id="linearGradient3042"
       gradientUnits="userSpaceOnUse"
       gradientTransform="matrix(1.000031,0,0,1.000031,-45.00832,-319.1057)"
       x1="221.01576"
       y1="674.0849"
       x2="119.92342"
       y2="474.09103" />
    <linearGradient
       inkscape:collect="always"
       xlink:href="#linearGradient4073"
       id="linearGradient3044"
       gradientUnits="userSpaceOnUse"
       gradientTransform="matrix(0.545556,0,0,0.350255,-38.51666,72.6073)"
       x1="139.43112"
       y1="520.74255"
       x2="222.73912"
       y2="520.74255" />
    <linearGradient
       inkscape:collect="always"
       xlink:href="#linearGradient6848"
       id="linearGradient3046"
       gradientUnits="userSpaceOnUse"
       gradientTransform="matrix(1.334164,0,0,1.334164,-90.28301,-537.514)"
       x1="296.20334"
       y1="571.52942"
       x2="220.84492"
       y2="421.62283" />
    <linearGradient
       inkscape:collect="always"
       xlink:href="#linearGradient4073"
       id="linearGradient3048"
       gradientUnits="userSpaceOnUse"
       gradientTransform="matrix(0.545558,0,0,0.350255,91.4834,-57.3926)"
       x1="139.62971"
       y1="520.74225"
       x2="222.73819"
       y2="520.74225" />
    <linearGradient
       inkscape:collect="always"
       xlink:href="#linearGradient6854"
       id="linearGradient3050"
       gradientUnits="userSpaceOnUse"
       gradientTransform="matrix(1.334164,0,0,1.334164,54.71699,-442.514)"
       x1="221.02206"
       y1="421.6228"
       x2="296.72556"
       y2="571.52942" />
    <linearGradient
       inkscape:collect="always"
       xlink:href="#linearGradient4073"
       id="linearGradient3052"
       gradientUnits="userSpaceOnUse"
       gradientTransform="matrix(0.545558,0,0,0.350255,236.4833,37.6074)"
       x1="139.43103"
       y1="520.74225"
       x2="222.73837"
       y2="520.74225" />
  </defs>
  <sodipodi:namedview
     inkscape:document-units="px"
     pagecolor="#ffffff"
     bordercolor="#666666"
     borderopacity="1.0"
     inkscape:pageopacity="0.0"
     inkscape:pageshadow="2"
     inkscape:zoom="2"
     inkscape:cx="176.65684"
     inkscape:cy="29.610281"
     inkscape:current-layer="layer1"
     id="namedview1340"
     showguides="true"
     inkscape:guide-bbox="true"
     inkscape:window-width="1920"
     inkscape:window-height="1014"
     inkscape:window-x="0"
     inkscape:window-y="27"
     showgrid="false"
     units="px"
     guidetolerance="20"
     objecttolerance="20"
     inkscape:snap-global="true"
     inkscape:snap-bbox="false"
     inkscape:snap-page="true"
     inkscape:bbox-paths="true"
     gridtolerance="10"
     fit-margin-top="18"
     fit-margin-left="18"
     fit-margin-right="18"
     fit-margin-bottom="18"
     inkscape:window-maximized="1" />
  <metadata
     id="metadata1342">
    <rdf:RDF>
      <cc:Work
         rdf:about="">
        <dc:format>image/svg+xml</dc:format>
        <dc:type
           rdf:resource="http://purl.org/dc/dcmitype/StillImage" />
        <dc:title />
        <cc:license
           rdf:resource="https://creativecommons.org/licenses/sa/1.0/" />
      </cc:Work>
    </rdf:RDF>
  </metadata>
  <g
     inkscape:label="Layer 1"
     inkscape:groupmode="layer"
     id="layer1"
     transform="translate(3.6000067,-258.22724)">
    <g
       id="g1457"
       transform="matrix(0.16842101,0,0,0.16842101,10.189468,276.50663)">
      <g
         style="display:inline"
         inkscape:label="Red"
         id="layer2">
        <path
           id="rect1393"
           d="m 69.33962,154.99997 111.32077,0 c 24.56415,0 44.33961,19.77547 44.33961,44.33962 l 0,111.32078 c 0,24.56414 -19.77546,44.33961 -44.33961,44.33961 l -111.32077,0 C 44.775476,354.99998 25,335.22451 25,310.66037 l 0,-111.32078 c 0,-24.56415 19.775476,-44.33962 44.33962,-44.33962 z"
           style="fill:url(#linearGradient3042);fill-opacity:1;fill-rule:nonzero;stroke:none;stroke-width:38;marker-start:none"
           inkscape:connector-curvature="0" />
        <path
           id="path2231"
           d="m 182.05654,230.00562 c -48.53089,0.52516 -61.79585,56.69111 -104.89889,57.24964 -18.6358,0.23541 -34.530378,-12.5544 -52.157599,-27.69878 l 0,51.65226 c 0,24.24869 19.796853,43.79127 44.361069,43.79124 l 111.31955,0 c 24.56422,0 44.31938,-19.54253 44.31938,-43.79124 l 0,-70.25531 c -12.03236,-6.60668 -25.96585,-11.13587 -42.94351,-10.94781 z"
           style="opacity:0.25;fill:#ff0000;fill-opacity:1;fill-rule:evenodd;stroke:none"
           inkscape:connector-curvature="0" />
        <rect
           rx="17.843672"
           ry="17.843672"
           y="179.99998"
           x="50"
           height="150"
           width="33"
           id="rect3182"
           style="fill:url(#linearGradient3044);fill-opacity:1;fill-rule:nonzero;stroke:none" />
        <path
           sodipodi:nodetypes="ccccccccc"
           id="path37247"
           d="m 69.46811,161.34322 111.19211,0 c 21.12816,0 37.9969,16.87873 37.9969,38.00595 l 0,111.32031 c 0,21.13499 -16.86549,37.98752 -37.9969,37.98752 l -111.32032,0 c -21.131502,0 -37.9969,-16.86042 -37.9969,-37.98752 l 0,-111.35844 c 0,-21.13196 16.99051,-37.96782 38.12511,-37.96782 z"
           style="fill:none;stroke:#800000;stroke-width:12.68599987;stroke-linecap:butt;stroke-linejoin:round;stroke-miterlimit:20;stroke-opacity:0.50196078;stroke-dasharray:none;stroke-dashoffset:0;marker-start:none"
           inkscape:connector-curvature="0" />
      </g>
      <g
         style="display:inline"
         inkscape:label="Blue"
         id="layer3">
        <path
           id="path5922"
           d="m 199.33962,24.99998 111.32078,0 c 24.56415,0 44.3396,19.77547 44.3396,44.3396 l 0,111.32079 c 0,24.56414 -19.77545,44.33961 -44.3396,44.33961 l -111.32078,0 C 174.77548,224.99998 155,205.22451 155,180.66037 l 0,-111.32079 c 0,-24.56413 19.77548,-44.3396 44.33962,-44.3396 z"
           style="fill:url(#linearGradient3046);fill-opacity:1;fill-rule:nonzero;stroke:none;stroke-width:38.28099823;marker-start:none"
           inkscape:connector-curvature="0" />
        <path
           id="path5924"
           d="M 312.05649,100.00562 C 263.5256,100.5308 250.26065,156.69674 207.1576,157.25527 188.52179,157.49067 172.62722,144.70086 155,129.55648 l 0,51.65227 c 0,24.24868 19.79685,43.79126 44.36106,43.79123 l 111.31957,0 c 24.5642,0 44.31937,-19.54253 44.31937,-43.79123 l 0,-70.25531 c -12.03236,-6.60669 -25.96585,-11.13588 -42.94351,-10.94782 z"
           style="opacity:0.25;fill:#0000ff;fill-opacity:1;fill-rule:evenodd;stroke:none"
           inkscape:connector-curvature="0" />
        <rect
           rx="17.843672"
           ry="17.843672"
           y="49.999981"
           x="180"
           height="150"
           width="33"
           id="rect5926"
           style="fill:url(#linearGradient3048);fill-opacity:1;fill-rule:nonzero;stroke:none" />
        <path
           style="fill:none;stroke:#000080;stroke-width:12.68599987;stroke-linecap:butt;stroke-linejoin:round;stroke-miterlimit:20;stroke-opacity:0.50196078;stroke-dasharray:none;stroke-dashoffset:0;marker-start:none;display:inline"
           d="m 199.46811,31.34322 111.19211,0 c 21.12816,0 37.9969,16.87873 37.9969,38.00595 l 0,111.32031 c 0,21.13499 -16.86549,37.98752 -37.9969,37.98752 l -111.32032,0 c -21.1315,0 -37.9969,-16.86042 -37.9969,-37.98752 l 0,-111.35844 c 0,-21.13196 16.99051,-37.96782 38.12511,-37.96782 z"
           id="path41636"
           sodipodi:nodetypes="ccccccccc"
           inkscape:connector-curvature="0" />
      </g>
      <g
         inkscape:label="Yellow"
         id="layer4">
        <path
           id="path5936"
           d="m 344.33962,119.99997 111.32077,0 c 24.56415,0 44.33961,19.77547 44.33961,44.33962 l 0,111.32078 c 0,24.56414 -19.77546,44.33961 -44.33961,44.33961 l -111.32077,0 C 319.77547,319.99998 300,300.22451 300,275.66037 l 0,-111.32078 c 0,-24.56415 19.77547,-44.33962 44.33962,-44.33962 z"
           style="fill:url(#linearGradient3050);fill-opacity:1;fill-rule:nonzero;stroke:none;stroke-width:38.28144073;marker-start:none;display:inline"
           inkscape:connector-curvature="0" />
        <path
           id="path5938"
           d="M 457.05649,195.00562 C 408.5256,195.53079 395.26065,251.69673 352.1576,252.25526 333.52179,252.49067 317.62722,239.70086 300,224.55647 l 0,51.65228 c 0,24.24868 19.79685,43.79126 44.36106,43.79123 l 111.31957,0 C 480.24484,319.99998 500,300.45745 500,276.20875 l 0,-70.25532 c -12.03236,-6.60669 -25.96584,-11.13587 -42.94351,-10.94781 z"
           style="opacity:0.25;fill:#c0c000;fill-opacity:1;fill-rule:evenodd;stroke:none;display:inline"
           inkscape:connector-curvature="0" />
        <rect
           rx="17.843672"
           ry="17.843672"
           y="144.99998"
           x="325"
           height="150"
           width="33"
           id="rect5940"
           style="fill:url(#linearGradient3052);fill-opacity:1;fill-rule:nonzero;stroke:none;display:inline" />
        <path
           sodipodi:nodetypes="ccccccccc"
           id="path42512"
           d="m 344.46811,126.34322 111.19211,0 c 21.12816,0 37.9969,16.87873 37.9969,38.00595 l 0,111.32031 c 0,21.13499 -16.86549,37.98752 -37.9969,37.98752 l -111.32032,0 c -21.1315,0 -37.9969,-16.86042 -37.9969,-37.98752 l 0,-111.35844 c 0,-21.13196 16.99051,-37.96782 38.12511,-37.96782 z"
           style="fill:none;stroke:#808000;stroke-width:12.68599987;stroke-linecap:butt;stroke-linejoin:round;stroke-miterlimit:20;stroke-opacity:0.50196078;stroke-dasharray:none;stroke-dashoffset:0;marker-start:none;display:inline"
           inkscape:connector-curvature="0" />
      </g>
    </g>
    <g
       id="g3057"
       transform="matrix(0.9222683,0,0,0.9222683,-0.2043768,23.980744)"
       style="fill:#333333">
      <g
         id="text1576"
         style="font-size:3.08242559px;font-style:normal;font-variant:normal;font-weight:normal;font-stretch:normal;text-align:start;line-height:100%;writing-mode:lr-tb;text-anchor:start;fill:#333333;fill-opacity:1;stroke:none;font-family:Bitstream Vera Sans">
        <path
           id="path3041"
           style="font-size:47.44670868px;line-height:100%;fill:#333333;font-family:Sansita One;-inkscape-font-specification:Sansita One"
           d="m 161.22384,300.21913 c -2.08769,2.87844 -4.14371,5.0768 -6.16807,6.59509 -1.99279,1.5183 -4.033,2.27744 -6.12063,2.27744 -2.05604,0 -3.44781,-0.2056 -4.17531,-0.6168 l 0,-10.43828 c -1.80299,4.80794 -4.31766,8.14502 -7.54402,10.01126 -1.17037,0.69588 -2.30909,1.04382 -3.41617,1.04382 -2.11929,0 -3.63758,-0.2056 -4.55488,-0.6168 -0.22142,-7.24353 -0.42702,-11.86167 -0.61681,-13.85444 -0.18979,-2.02438 -0.36376,-3.65338 -0.52191,-4.88701 -0.31631,-2.46721 -1.0122,-4.20692 -2.08766,-5.21914 1.36014,-1.01217 2.98914,-1.51827 4.88702,-1.51829 3.6692,2e-5 5.75685,2.27746 6.26296,6.83232 0.12651,1.07548 0.18978,2.18257 0.18979,3.32127 -1e-5,1.7081 -0.1898,5.53546 -0.56936,11.4821 0.75913,-0.34793 1.53409,-1.13871 2.32489,-2.37233 0.82239,-1.26524 1.56572,-2.7519 2.22999,-4.45999 1.48665,-3.95388 2.22998,-7.6389 2.23,-11.05508 -2e-5,-0.53771 -0.0791,-1.09126 -0.23724,-1.66064 -0.12654,-0.56934 -0.26888,-0.93309 -0.42702,-1.09127 1.10707,-0.66423 2.49884,-0.99636 4.17531,-0.99638 1.70806,2e-5 2.95749,0.5852 3.74829,1.75552 0.82239,1.13875 1.3443,2.76775 1.56574,4.88701 0.25303,2.68867 0.37955,4.83958 0.37958,6.45276 -3e-5,2.24582 -0.11074,5.02935 -0.33213,8.35062 1.58153,-1.13872 3.02074,-3.57431 4.31765,-7.3068 1.29684,-3.73246 1.94528,-6.9272 1.94532,-9.58423 -4e-5,-1.17033 -0.0949,-2.10345 -0.28468,-2.79936 1.04379,-1.17032 2.46719,-1.7555 4.2702,-1.75552 1.10705,2e-5 2.05598,0.30052 2.8468,0.90148 0.82237,0.60102 1.23358,1.47087 1.23362,2.60957 -4e-5,1.10711 -0.17402,2.26165 -0.52192,3.46361 -0.31635,1.202 -0.74337,2.4198 -1.28106,3.6534 -1.04386,2.46724 -2.29329,4.6656 -3.74829,6.59509"
           inkscape:connector-curvature="0" />
        <path
           id="path3043"
           style="font-size:47.44670868px;line-height:100%;fill:#333333;font-family:Sansita One;-inkscape-font-specification:Sansita One"
           d="m 174.39623,308.28507 c -1.0122,0.53773 -2.21418,0.80659 -3.60595,0.80659 -1.39177,0 -2.46723,-0.34794 -3.22637,-1.04382 -0.75915,-0.72752 -1.13872,-1.77134 -1.13872,-3.13149 0,-1.39176 0.47446,-2.7519 1.4234,-4.08041 0.98056,-1.36013 2.18254,-2.41977 3.60595,-3.17893 1.45503,-0.75914 2.68864,-1.36013 3.70084,-1.80298 l -2.98914,-6.87977 c -0.53773,-1.17033 -1.3127,-1.75551 -2.32489,-1.75553 l -0.37957,0.0475 -0.14234,0 c 0.18978,-1.10707 0.93311,-2.08763 2.22999,-2.9417 1.29687,-0.88564 2.68864,-1.32848 4.17531,-1.3285 2.40396,2e-5 4.15948,1.202 5.26659,3.60594 l 0.37957,0.75915 2.04021,5.02935 c 0.85402,-0.37955 1.45501,-0.91728 1.80297,-1.61318 0.37956,-0.7275 0.56935,-1.78714 0.56936,-3.17893 -1e-5,-1.42338 -0.37959,-2.57792 -1.13872,-3.46361 1.20197,-0.75913 2.59374,-1.1387 4.17531,-1.13872 2.84678,2e-5 4.27018,1.37597 4.27021,4.12786 -3e-5,3.00497 -1.88208,5.37731 -5.64616,7.11701 l -2.8468,1.3285 2.56212,6.5951 c 0.50608,1.32851 1.21778,2.27744 2.1351,2.8468 0.37955,0.25305 0.79076,0.39539 1.23362,0.42702 -0.94896,1.54993 -2.45144,2.67283 -4.50744,3.36871 -0.63264,0.18979 -1.37597,0.28468 -2.23,0.28468 -0.85405,0 -1.77136,-0.30049 -2.75191,-0.90148 -0.98057,-0.56936 -1.64483,-1.31269 -1.99276,-2.23 l -2.60957,-6.78488 c -1.77135,0.79079 -2.65702,2.62539 -2.65701,5.50382 -1e-5,1.32851 0.20559,2.53049 0.6168,3.60595"
           inkscape:connector-curvature="0" />
        <path
           id="path3045"
           style="font-size:47.44670868px;line-height:100%;fill:#333333;font-family:Sansita One;-inkscape-font-specification:Sansita One"
           d="m 195.12674,278.72577 c 0.44284,-0.88564 1.13872,-1.56571 2.08766,-2.04021 0.98056,-0.50606 2.13509,-0.75911 3.46361,-0.75914 2.08764,3e-5 3.74828,0.75917 4.9819,2.27744 1.26523,1.48669 1.89785,3.87484 1.89787,7.16445 l 0,16.93848 10.8653,-25.43144 5.59871,0 1.28106,24.00803 -0.14234,1.37596 11.29231,-25.38399 6.5002,0 -15.18294,31.26738 -10.10615,0 -0.94894,-14.4238 -6.26296,14.4238 -11.43466,0 -1.4234,-22.77442 c -0.0949,-1.70806 -0.37958,-3.11564 -0.85404,-4.22276 -0.44284,-1.13869 -0.98057,-1.94528 -1.61319,-2.41978"
           inkscape:connector-curvature="0" />
        <path
           id="path3047"
           style="font-size:47.44670868px;line-height:100%;fill:#333333;font-family:Sansita One;-inkscape-font-specification:Sansita One"
           d="m 252.31114,305.53316 c -0.98057,2.37234 -3.03659,3.5585 -6.16807,3.5585 -1.61319,0 -2.92588,-0.55354 -3.93807,-1.66063 -0.85405,-0.98056 -1.28107,-1.96113 -1.28107,-2.9417 0,-2.56211 0.58518,-6.34203 1.75553,-11.33976 l 1.75553,-9.20466 9.63168,-0.94893 -2.89425,14.99316 c -0.53774,2.34071 -0.8066,3.92226 -0.80659,4.74467 -10e-6,1.80297 0.64843,2.73609 1.94531,2.79935 m -7.02211,-28.18334 c 0,-1.23359 0.50609,-2.18252 1.5183,-2.84681 1.04382,-0.66422 2.30906,-0.99634 3.79573,-0.99638 1.48665,4e-5 2.67282,0.33216 3.55851,0.99638 0.91728,0.66429 1.37593,1.61322 1.37595,2.84681 -2e-5,1.23364 -0.50611,2.16676 -1.51829,2.79935 -0.98058,0.63265 -2.2142,0.94896 -3.70085,0.94894 -1.48667,2e-5 -2.70447,-0.31629 -3.65339,-0.94894 -0.91731,-0.63259 -1.37596,-1.56571 -1.37596,-2.79935"
           inkscape:connector-curvature="0" />
        <path
           id="path3049"
           style="font-size:47.44670868px;line-height:100%;fill:#333333;font-family:Sansita One;-inkscape-font-specification:Sansita One"
           d="m 271.25277,282.99598 c 1.1387,2e-5 2.15089,0.12654 3.03658,0.37957 0.0316,-0.1265 0.0791,-0.36373 0.14234,-0.7117 l 0.23724,-1.47085 c 0.1265,-0.6326 0.28466,-1.47082 0.47447,-2.51468 l 0.75914,-3.74829 9.4419,-0.94893 -5.26659,27.51909 c -0.0317,0.18979 -0.0475,0.44284 -0.0474,0.75915 l 0,0.75915 c -3e-5,0.69589 0.17394,1.31269 0.52191,1.85042 0.34792,0.5061 0.80657,0.75915 1.37595,0.75915 -0.63264,1.48666 -1.9137,2.5463 -3.84318,3.17892 -0.66427,0.18979 -1.47087,0.28468 -2.41978,0.28468 -0.91732,0 -1.80299,-0.25304 -2.65702,-0.75914 -0.85405,-0.47447 -1.4076,-1.12291 -1.66063,-1.94532 -0.50612,0.82241 -1.26526,1.47085 -2.27744,1.94532 -1.01221,0.5061 -2.26164,0.75914 -3.74829,0.75914 -1.45504,0 -2.79937,-0.18978 -4.03297,-0.56936 -1.20199,-0.37957 -2.18256,-0.98056 -2.9417,-1.80297 -1.39177,-1.61319 -2.08766,-4.25438 -2.08765,-7.9236 -1e-5,-4.74466 1.39176,-8.55621 4.17531,-11.43466 2.78353,-2.91004 6.38947,-4.36507 10.81785,-4.36509 m -0.33213,2.8468 c -1.17037,2e-5 -2.07185,0.63264 -2.70446,1.89787 -0.63264,1.26526 -1.28108,3.46362 -1.94532,6.59509 -0.63263,3.13149 -0.94894,6.10482 -0.94893,8.91998 -1e-5,1.9295 0.56935,2.89425 1.70808,2.89425 1.01218,0 1.86622,-0.5061 2.56212,-1.5183 0.7275,-1.01219 1.2336,-2.35651 1.51829,-4.03297 l 2.56213,-13.90188 c -0.66427,-0.56934 -1.58158,-0.85402 -2.75191,-0.85404"
           inkscape:connector-curvature="0" />
        <path
           id="path3051"
           style="font-size:47.44670868px;line-height:100%;fill:#333333;font-family:Sansita One;-inkscape-font-specification:Sansita One"
           d="m 289.32996,288.31001 c 1.07545,-1.51828 2.41977,-2.78352 4.03297,-3.79574 1.64481,-1.01217 3.4636,-1.51827 5.45637,-1.51829 1.99275,2e-5 3.46359,0.31633 4.41254,0.94893 l 9.29956,-0.94893 -3.22638,18.21953 c -1.10711,6.19971 -2.83101,10.51735 -5.17169,12.95295 -2.24583,2.30907 -5.55128,3.4636 -9.91636,3.46361 -3.32128,-10e-6 -5.93084,-0.52192 -7.82871,-1.56574 -1.89787,-1.04383 -2.8468,-2.4356 -2.8468,-4.17531 0,-1.29688 0.49028,-2.32489 1.47085,-3.08404 0.98056,-0.72751 2.22999,-1.09127 3.74829,-1.09127 1.3285,0 2.49885,0.3005 3.51105,0.90149 0.60099,0.31631 1.04382,0.69588 1.32851,1.13872 -0.72752,0.63262 -1.09128,1.47084 -1.09127,2.51467 -1e-5,1.36014 0.63261,2.04021 1.89787,2.04021 2.11927,0 3.7799,-2.49886 4.9819,-7.49658 0.34793,-1.36013 0.66424,-2.72027 0.94893,-4.08041 -1.42341,1.73971 -3.7483,2.60957 -6.97466,2.60956 -2.24582,1e-5 -4.01716,-0.53772 -5.31403,-1.61318 -1.29688,-1.07546 -1.94532,-2.87843 -1.94532,-5.40893 0,-1.58154 0.26887,-3.25799 0.8066,-5.02935 0.53772,-1.80296 1.34432,-3.46359 2.41978,-4.9819 m 6.16807,10.15359 c -1e-5,2.15093 0.55353,3.22638 1.66064,3.22638 0.75913,0 1.50246,-0.4112 2.22999,-1.23362 0.56935,-0.66424 0.96473,-1.48665 1.18617,-2.46722 l 2.41978,-12.19381 c -0.15817,-0.0316 -0.31633,-0.079 -0.47447,-0.14234 -0.31633,-0.1265 -0.68008,-0.18976 -1.09127,-0.18979 -1.92951,3e-5 -3.46362,1.58158 -4.60233,4.74467 -0.88568,2.46725 -1.32852,5.21916 -1.32851,8.25573"
           inkscape:connector-curvature="0" />
        <path
           id="path3053"
           style="font-size:47.44670868px;line-height:100%;fill:#333333;font-family:Sansita One;-inkscape-font-specification:Sansita One"
           d="m 333.62665,300.12424 c 0.79076,0.53773 1.18615,1.40759 1.18617,2.60957 -2e-5,1.17035 -0.30052,2.1351 -0.90149,2.89425 -0.60101,0.75914 -1.39179,1.39177 -2.37233,1.89786 -2.02441,1.04383 -4.12788,1.56574 -6.31042,1.56574 -2.18255,0 -3.92226,-0.23723 -5.21913,-0.7117 -1.26525,-0.47446 -2.3249,-1.15453 -3.17893,-2.0402 -1.67645,-1.67645 -2.51468,-4.04878 -2.51468,-7.11701 0,-4.77629 1.29688,-8.61947 3.89063,-11.52955 2.78353,-3.13146 6.59508,-4.6972 11.43466,-4.69722 3.00494,2e-5 5.25075,0.63264 6.73743,1.89786 1.10707,0.94896 1.66061,2.19839 1.66064,3.74829 -3e-5,5.5671 -4.80796,8.35064 -14.4238,8.35062 -0.12654,0.82242 -0.1898,1.58157 -0.18979,2.27745 -1e-5,1.45504 0.3163,2.46723 0.94893,3.03659 0.66425,0.53773 1.59736,0.80659 2.79936,0.80659 1.20197,0 2.43558,-0.26886 3.70084,-0.80659 1.29686,-0.56936 2.21416,-1.29687 2.75191,-2.18255 m -9.67913,-5.17169 c 2.2458,1e-5 4.01714,-0.69588 5.31404,-2.08766 1.29685,-1.32849 1.94529,-3.05239 1.94531,-5.17169 -2e-5,-0.7275 -0.14236,-1.28104 -0.42702,-1.66064 -0.25307,-0.41118 -0.64846,-0.61678 -1.18617,-0.6168 -0.53774,2e-5 -1.04384,0.11073 -1.51829,0.33212 -0.44285,0.18981 -0.9015,0.63265 -1.37596,1.32851 -1.17036,1.58158 -2.08766,4.20696 -2.75191,7.87616"
           inkscape:connector-curvature="0" />
        <path
           id="path3055"
           style="font-size:47.44670868px;line-height:100%;fill:#333333;font-family:Sansita One;-inkscape-font-specification:Sansita One"
           d="m 340.37594,303.39806 c 0,-0.85404 0.22141,-2.35651 0.66425,-4.50744 l 2.51468,-12.81061 -2.79936,0 0.18979,-1.4234 c 3.79573,-1.1387 7.5282,-3.09983 11.19742,-5.88339 l 2.27744,0 -1.13872,5.17169 3.70085,0 -0.42703,2.1351 -3.65339,0 -2.41978,12.81061 c -0.41122,1.96114 -0.61682,3.27383 -0.61681,3.93808 -10e-6,1.5183 0.66424,2.4356 1.99276,2.75191 -0.31632,1.07546 -1.04384,1.9295 -2.18255,2.56212 -1.13873,0.63262 -2.51468,0.94893 -4.12786,0.94893 -1.61319,0 -2.87844,-0.50609 -3.79574,-1.51829 -0.9173,-1.01219 -1.37595,-2.40396 -1.37595,-4.17531"
           inkscape:connector-curvature="0" />
        <path
           id="path3057"
           style="font-size:47.44670868px;line-height:100%;fill:#333333;font-family:Sansita One;-inkscape-font-specification:Sansita One"
           d="m 370.94719,291.48894 c 0.44282,-1.17034 0.66423,-2.26161 0.66425,-3.27383 -2e-5,-1.86621 -0.75916,-2.79933 -2.27744,-2.79935 -0.79079,2e-5 -1.51831,0.36378 -2.18255,1.09127 -0.63263,0.69591 -0.94895,1.48669 -0.94894,2.37234 -1e-5,0.63264 0.25304,1.202 0.75915,1.70808 0.72751,0.6959 2.02438,1.6132 3.89063,2.75191 1.86622,1.13873 3.14728,2.18256 3.84319,3.13148 0.72749,0.91731 1.09125,2.0244 1.09127,3.32127 -2e-5,1.26525 -0.31633,2.48305 -0.94893,3.6534 -0.60101,1.17035 -1.45505,2.16673 -2.56213,2.98914 -2.37235,1.77134 -5.45638,2.65701 -9.25211,2.65701 -2.05602,0 -3.87481,-0.53772 -5.45637,-1.61318 -1.58155,-1.04383 -2.37233,-2.18255 -2.37233,-3.41617 0,-1.23361 0.44283,-2.21417 1.32851,-2.94169 0.9173,-0.72751 2.0402,-1.09127 3.36871,-1.09128 1.3285,1e-5 2.40396,0.25306 3.22638,0.75915 -0.41121,1.04383 -0.61682,1.91369 -0.61681,2.60957 -10e-6,2.08766 0.88567,3.13148 2.65702,3.13148 0.75913,0 1.39176,-0.23723 1.89787,-0.7117 0.50608,-0.47446 0.75913,-1.1229 0.75914,-1.94531 -10e-6,-1.61319 -1.36015,-3.27382 -4.08041,-4.98191 -2.21419,-1.45502 -3.57433,-2.46721 -4.08042,-3.03659 -0.85405,-1.01218 -1.28107,-2.1509 -1.28106,-3.41616 -10e-6,-1.26523 0.30049,-2.49884 0.90148,-3.70084 0.60099,-1.20197 1.45503,-2.22998 2.56213,-3.08404 2.30906,-1.77132 5.47217,-2.65699 9.48934,-2.65701 2.05601,2e-5 3.68501,0.41122 4.88701,1.23361 1.23359,0.82243 1.8504,1.92952 1.85042,3.32127 -2e-5,1.39179 -0.42704,2.48306 -1.28106,3.27382 -0.82243,0.7908 -1.99278,1.18619 -3.51106,1.18617 -1.04384,2e-5 -1.8188,-0.17396 -2.32488,-0.52191"
           inkscape:connector-curvature="0" />
      </g>
      <g
         id="text1580"
         style="font-size:3.08242559px;font-style:normal;font-variant:normal;font-weight:normal;font-stretch:normal;text-align:start;line-height:100%;writing-mode:lr-tb;text-anchor:start;fill:#333333;fill-opacity:1;stroke:none;font-family:Bitstream Vera Sans">
        <path
           id="path3060"
           style="font-size:23.72335434px;line-height:100%;fill:#333333;font-family:Sansita One;-inkscape-font-specification:Sansita One"
           d="m 138.18608,333.82749 c 0.41119,0.3005 0.61679,0.77496 0.61681,1.4234 -2e-5,0.63262 -0.14236,1.17826 -0.42702,1.63691 -0.26888,0.44284 -0.67218,0.83822 -1.20989,1.18617 -1.15455,0.74333 -2.74401,1.11499 -4.7684,1.11499 -2.00858,0 -3.56641,-0.52191 -4.6735,-1.56574 -1.09127,-1.05964 -1.63691,-2.52258 -1.63691,-4.38882 0,-2.64119 0.68798,-4.96608 2.06393,-6.97466 1.04383,-1.48665 2.49886,-2.5463 4.3651,-3.17893 0.96474,-0.3163 1.92158,-0.47445 2.87052,-0.47447 0.94893,2e-5 1.71598,0.0633 2.30117,0.18979 0.58516,0.12654 1.09917,0.31632 1.54202,0.56936 0.96473,0.55356 1.44711,1.27316 1.44712,2.15882 -1e-5,0.80661 -0.37959,1.5104 -1.13872,2.11138 -0.6959,0.53774 -1.32852,0.8066 -1.89787,0.80659 -0.56937,1e-5 -0.97267,-0.0395 -1.20989,-0.11861 0.0632,-0.56935 0.0949,-1.03591 0.0949,-1.39968 -2e-5,-0.37956 -0.008,-0.70378 -0.0237,-0.97266 -0.0158,-0.26885 -0.0633,-0.52981 -0.14234,-0.78287 -0.15816,-0.58516 -0.48238,-0.87775 -0.97266,-0.87776 -0.47447,10e-6 -0.95685,0.22934 -1.44712,0.68797 -0.47447,0.44285 -0.91731,1.04385 -1.32851,1.80298 -0.93312,1.72391 -1.39968,3.60596 -1.39968,5.64616 0,0.98057 0.27677,1.75553 0.83032,2.32489 0.55354,0.55355 1.4234,0.83032 2.60957,0.83031 0.88566,10e-6 1.74761,-0.29258 2.58585,-0.87776 0.36374,-0.25304 0.68005,-0.54563 0.94893,-0.87776"
           inkscape:connector-curvature="0" />
        <path
           id="path3062"
           style="font-size:23.72335434px;line-height:100%;fill:#333333;font-family:Sansita One;-inkscape-font-specification:Sansita One"
           d="m 148.194,332.07196 c 0.56935,-1.01219 0.85403,-2.03229 0.85404,-3.06032 -10e-6,-0.68005 -0.24515,-1.02009 -0.73542,-1.0201 -0.37958,1e-5 -0.76707,0.32423 -1.16245,0.97266 -0.41121,0.64845 -0.68007,1.39178 -0.80659,2.22999 l -1.23362,7.54403 -4.91073,0.47447 2.41978,-12.57338 3.91436,-0.47447 -0.42702,2.39606 c 0.77495,-1.59736 2.03229,-2.39605 3.77201,-2.39606 0.91729,10e-6 1.62108,0.23725 2.11138,0.7117 0.50608,0.47448 0.75913,1.202 0.75914,2.18255 -1e-5,0.96476 -0.32423,1.75554 -0.97265,2.37234 -0.63264,0.61681 -1.49458,0.92521 -2.58585,0.92521 -0.47447,0 -0.8066,-0.0949 -0.99638,-0.28468"
           inkscape:connector-curvature="0" />
        <path
           id="path3064"
           style="font-size:23.72335434px;line-height:100%;fill:#333333;font-family:Sansita One;-inkscape-font-specification:Sansita One"
           d="m 158.31164,339.21269 c -3.47943,0 -5.21914,-1.63691 -5.21914,-4.91074 0,-2.32488 0.64053,-4.23856 1.92159,-5.74105 1.36014,-1.59736 3.21847,-2.39605 5.57499,-2.39606 1.70807,10e-6 2.99704,0.3954 3.86691,1.18617 0.86984,0.79079 1.30477,2.01649 1.30478,3.67712 -1e-5,2.5305 -0.68008,4.53116 -2.0402,6.00201 -1.32852,1.45503 -3.1315,2.18255 -5.40893,2.18255 m 0.61681,-10.31966 c -0.18979,0.42703 -0.36377,0.96476 -0.52192,1.61319 -0.14234,0.63263 -0.3084,1.45504 -0.49819,2.46723 -0.18979,1.0122 -0.28468,2.14301 -0.28468,3.39243 0,0.41121 0.0633,0.75125 0.18979,1.02011 0.14234,0.26886 0.39538,0.4033 0.75915,0.4033 0.36375,0 0.65634,-0.087 0.87776,-0.26096 0.23723,-0.17397 0.44283,-0.46656 0.61681,-0.87776 0.3163,-0.72752 0.60098,-1.76344 0.85404,-3.10776 0.25304,-1.36014 0.38747,-2.33279 0.4033,-2.91798 0.0316,-0.58516 0.0474,-1.09126 0.0474,-1.51829 -1e-5,-0.44283 -0.0633,-0.80659 -0.18978,-1.09128 -0.12654,-0.28467 -0.37168,-0.42701 -0.73543,-0.42702 -0.34795,1e-5 -0.64054,0.11072 -0.87776,0.33213 -0.23724,0.22143 -0.45075,0.54565 -0.64053,0.97266"
           inkscape:connector-curvature="0" />
        <path
           id="path3066"
           style="font-size:23.72335434px;line-height:100%;fill:#333333;font-family:Sansita One;-inkscape-font-specification:Sansita One"
           d="m 174.27264,330.41132 c 0.22141,-0.58516 0.33212,-1.1308 0.33213,-1.63691 -1e-5,-0.93311 -0.37959,-1.39967 -1.13873,-1.39968 -0.39539,10e-6 -0.75915,0.18189 -1.09127,0.54564 -0.31632,0.34795 -0.47447,0.74334 -0.47447,1.18617 0,0.31632 0.12652,0.601 0.37958,0.85404 0.36375,0.34795 1.01219,0.8066 1.94531,1.37595 0.93311,0.56937 1.57364,1.09128 1.92159,1.56575 0.36375,0.45865 0.54563,1.0122 0.54564,1.66063 -1e-5,0.63263 -0.15817,1.24152 -0.47447,1.8267 -0.3005,0.58518 -0.72752,1.08337 -1.28106,1.49457 -1.18617,0.88567 -2.72819,1.32851 -4.62605,1.32851 -1.02802,0 -1.93741,-0.26887 -2.72819,-0.8066 -0.79078,-0.52191 -1.18617,-1.09127 -1.18617,-1.70808 0,-0.6168 0.22142,-1.10708 0.66426,-1.47085 0.45865,-0.36375 1.0201,-0.54563 1.68436,-0.54563 0.66425,0 1.20198,0.12653 1.61318,0.37957 -0.2056,0.52192 -0.3084,0.95684 -0.3084,1.30478 0,1.04383 0.44283,1.56575 1.32851,1.56575 0.37957,0 0.69588,-0.11862 0.94893,-0.35585 0.25305,-0.23724 0.37957,-0.56146 0.37958,-0.97266 -1e-5,-0.80659 -0.68008,-1.63691 -2.04021,-2.49095 -1.10709,-0.72751 -1.78716,-1.23361 -2.04021,-1.5183 -0.42702,-0.50609 -0.64053,-1.07545 -0.64053,-1.70808 0,-0.63261 0.15025,-1.24942 0.45074,-1.85042 0.3005,-0.60098 0.72752,-1.11499 1.28106,-1.54202 1.15454,-0.88566 2.73609,-1.3285 4.74468,-1.32851 1.028,10e-6 1.8425,0.20562 2.4435,0.61681 0.6168,0.41122 0.9252,0.96476 0.92521,1.66063 -1e-5,0.6959 -0.21352,1.24154 -0.64053,1.63692 -0.41121,0.39539 -0.99639,0.59309 -1.75553,0.59308 -0.52192,10e-6 -0.9094,-0.087 -1.16244,-0.26096"
           inkscape:connector-curvature="0" />
        <path
           id="path3068"
           style="font-size:23.72335434px;line-height:100%;fill:#333333;font-family:Sansita One;-inkscape-font-specification:Sansita One"
           d="m 185.80997,330.41132 c 0.22141,-0.58516 0.33212,-1.1308 0.33213,-1.63691 -1e-5,-0.93311 -0.37958,-1.39967 -1.13872,-1.39968 -0.3954,10e-6 -0.75915,0.18189 -1.09128,0.54564 -0.31631,0.34795 -0.47447,0.74334 -0.47446,1.18617 -10e-6,0.31632 0.12652,0.601 0.37957,0.85404 0.36375,0.34795 1.01219,0.8066 1.94532,1.37595 0.93311,0.56937 1.57364,1.09128 1.92159,1.56575 0.36375,0.45865 0.54562,1.0122 0.54563,1.66063 -1e-5,0.63263 -0.15816,1.24152 -0.47446,1.8267 -0.30051,0.58518 -0.72753,1.08337 -1.28106,1.49457 -1.18618,0.88567 -2.72819,1.32851 -4.62606,1.32851 -1.02801,0 -1.93741,-0.26887 -2.72818,-0.8066 -0.79078,-0.52191 -1.18617,-1.09127 -1.18617,-1.70808 0,-0.6168 0.22142,-1.10708 0.66425,-1.47085 0.45865,-0.36375 1.02011,-0.54563 1.68436,-0.54563 0.66425,0 1.20198,0.12653 1.61319,0.37957 -0.20561,0.52192 -0.30841,0.95684 -0.3084,1.30478 -1e-5,1.04383 0.44283,1.56575 1.3285,1.56575 0.37957,0 0.69588,-0.11862 0.94894,-0.35585 0.25304,-0.23724 0.37957,-0.56146 0.37957,-0.97266 0,-0.80659 -0.68007,-1.63691 -2.04021,-2.49095 -1.10709,-0.72751 -1.78716,-1.23361 -2.04021,-1.5183 -0.42702,-0.50609 -0.64053,-1.07545 -0.64053,-1.70808 0,-0.63261 0.15025,-1.24942 0.45075,-1.85042 0.30049,-0.60098 0.72751,-1.11499 1.28106,-1.54202 1.15453,-0.88566 2.73609,-1.3285 4.74467,-1.32851 1.028,10e-6 1.8425,0.20562 2.4435,0.61681 0.6168,0.41122 0.9252,0.96476 0.92522,1.66063 -2e-5,0.6959 -0.21353,1.24154 -0.64053,1.63692 -0.41122,0.39539 -0.9964,0.59309 -1.75553,0.59308 -0.52192,10e-6 -0.90941,-0.087 -1.16245,-0.26096"
           inkscape:connector-curvature="0" />
        <path
           id="path3070"
           style="font-size:23.72335434px;line-height:100%;fill:#333333;font-family:Sansita One;-inkscape-font-specification:Sansita One"
           d="m 191.13179,334.89504 c -0.5061,-0.36376 -0.75915,-0.89358 -0.75915,-1.58947 0,-0.37957 0.0949,-0.7196 0.28468,-1.0201 0.18979,-0.31631 0.47447,-0.49819 0.85405,-0.54564 l 4.6735,0 c 0.5219,1e-5 0.86194,-0.15815 1.0201,-0.47447 0.25304,0.14235 0.43492,0.36377 0.54564,0.66426 0.1107,0.3005 0.16605,0.6089 0.16606,0.92521 -1e-5,0.31632 -0.12653,0.63263 -0.37957,0.94893 -0.23724,0.3005 -0.53774,0.46657 -0.90149,0.49819 l -4.34137,0 c -0.33213,1e-5 -0.57727,0.0554 -0.73543,0.16607 -0.15815,0.0949 -0.30049,0.23723 -0.42702,0.42702"
           inkscape:connector-curvature="0" />
        <path
           id="path3072"
           style="font-size:23.72335434px;line-height:100%;fill:#333333;font-family:Sansita One;-inkscape-font-specification:Sansita One"
           d="m 208.84312,322.91474 c 3.8748,2e-5 5.81221,1.36806 5.81222,4.10414 -1e-5,1.50249 -0.48239,2.70447 -1.44712,3.60595 -0.94895,0.9015 -2.25373,1.35224 -3.91435,1.35223 -0.77498,1e-5 -1.46295,-0.22141 -2.06394,-0.66425 -0.28468,-0.18978 -0.52192,-0.4112 -0.7117,-0.66425 1.15453,0 2.03229,-0.34794 2.6333,-1.04383 0.61679,-0.71169 0.9252,-1.75552 0.92521,-3.13148 -1e-5,-1.37594 -0.68008,-2.06392 -2.04021,-2.06394 l -0.56936,0 c -0.0949,2e-5 -0.18189,0.008 -0.26096,0.0237 l -2.72818,14.30518 -5.14797,0 2.91797,-15.5388 c 1.69226,-0.15814 3.02868,-0.24512 4.00925,-0.26095 0.98055,-0.0158 1.8425,-0.0237 2.58584,-0.0237"
           inkscape:connector-curvature="0" />
        <path
           id="path3074"
           style="font-size:23.72335434px;line-height:100%;fill:#333333;font-family:Sansita One;-inkscape-font-specification:Sansita One"
           d="m 220.43495,337.43344 c -0.49029,1.18616 -1.5183,1.77925 -3.08404,1.77925 -0.79078,0 -1.43922,-0.27678 -1.94531,-0.83032 -0.41121,-0.45865 -0.61681,-0.94893 -0.61681,-1.47085 0,-1.18616 0.27677,-3.07612 0.83032,-5.66988 l 1.7318,-9.10977 4.81584,-0.47446 -2.30116,12.00401 c -0.26887,1.17036 -0.4033,1.96114 -0.4033,2.37234 0,0.90149 0.32422,1.36805 0.97266,1.39968"
           inkscape:connector-curvature="0" />
        <path
           id="path3076"
           style="font-size:23.72335434px;line-height:100%;fill:#333333;font-family:Sansita One;-inkscape-font-specification:Sansita One"
           d="m 223.47673,338.02652 c -0.36376,-0.4112 -0.63262,-0.94103 -0.80659,-1.58947 -0.15816,-0.64843 -0.23724,-1.50247 -0.23724,-2.56212 0,-1.05963 0.18188,-2.07183 0.54564,-3.03659 0.36376,-0.96474 0.87776,-1.79505 1.54202,-2.49095 1.36013,-1.45502 3.16311,-2.18254 5.40892,-2.18255 0.80659,10e-6 1.50247,0.13445 2.08766,0.4033 l 4.05669,-0.4033 -1.75553,9.25211 c -0.0475,0.18979 -0.0712,0.45865 -0.0712,0.80659 -1e-5,0.34795 0.10279,0.63263 0.30841,0.85405 0.2214,0.22141 0.49027,0.34794 0.80659,0.37957 -0.15817,0.53773 -0.52983,0.96475 -1.115,1.28106 -0.56937,0.31631 -1.17827,0.47447 -1.82669,0.47447 -0.64845,0 -1.19409,-0.12653 -1.63692,-0.37958 -0.42702,-0.23723 -0.7038,-0.56145 -0.83031,-0.97265 -0.25306,0.39539 -0.64845,0.7196 -1.18617,0.97265 -0.53774,0.25305 -1.17036,0.37958 -1.89787,0.37958 -0.7117,0 -1.36014,-0.0949 -1.94531,-0.28468 -0.58518,-0.18979 -1.06756,-0.49029 -1.44713,-0.90149 m 5.00563,-9.63168 c -0.17398,0.28469 -0.34004,0.67217 -0.49819,1.16244 -0.15816,0.47448 -0.37167,1.36015 -0.64053,2.65702 -0.25306,1.28106 -0.37958,2.38025 -0.37958,3.29754 0,0.91731 0.0712,1.51039 0.21351,1.77926 0.14234,0.26886 0.34003,0.40329 0.59309,0.40329 0.50609,0 0.94102,-0.23723 1.30478,-0.7117 0.37957,-0.49028 0.64053,-1.16244 0.78287,-2.01648 l 1.25734,-6.95095 c -0.33213,-0.28467 -0.69589,-0.42701 -1.09127,-0.42702 -0.37958,1e-5 -0.68799,0.0633 -0.92521,0.18979 -0.22143,0.12654 -0.42703,0.33214 -0.61681,0.61681"
           inkscape:connector-curvature="0" />
        <path
           id="path3078"
           style="font-size:23.72335434px;line-height:100%;fill:#333333;font-family:Sansita One;-inkscape-font-specification:Sansita One"
           d="m 237.75596,336.36588 c 0,-0.42701 0.11071,-1.17825 0.33213,-2.25371 l 1.25734,-6.40531 -1.39968,0 0.0949,-0.7117 c 1.89787,-0.56935 3.7641,-1.54991 5.59871,-2.9417 l 1.13872,0 -0.56936,2.58585 1.85043,0 -0.21351,1.06755 -1.8267,0 -1.20989,6.40531 c -0.20561,0.98057 -0.30841,1.63691 -0.30841,1.96903 0,0.75915 0.33212,1.2178 0.99638,1.37596 -0.15816,0.53773 -0.52192,0.96475 -1.09127,1.28106 -0.56937,0.31631 -1.25734,0.47447 -2.06393,0.47447 -0.8066,0 -1.43922,-0.25305 -1.89787,-0.75915 -0.45865,-0.5061 -0.68798,-1.20198 -0.68798,-2.08766"
           inkscape:connector-curvature="0" />
        <path
           id="path3080"
           style="font-size:23.72335434px;line-height:100%;fill:#333333;font-family:Sansita One;-inkscape-font-specification:Sansita One"
           d="m 255.20041,324.97867 c 0.22141,-0.37955 0.33212,-0.77494 0.33213,-1.18616 -1e-5,-0.7275 -0.22143,-1.09126 -0.66426,-1.09128 -0.68007,2e-5 -1.16245,0.6959 -1.44712,2.08766 l -0.35585,1.85042 2.15882,0 -0.14234,1.06755 -2.22999,0 -2.1351,11.03136 -4.79212,0.47447 2.27744,-11.50583 -1.68436,0 0.21351,-1.06755 1.66064,0 0.49819,-1.87415 c 0.28468,-1.15452 1.03591,-2.00065 2.25372,-2.53839 0.88566,-0.37956 2.07183,-0.56935 3.5585,-0.56936 1.48665,10e-6 2.56211,0.1898 3.22638,0.56936 0.66424,0.37959 0.99636,0.82242 0.99638,1.3285 -2e-5,0.50612 -0.19771,0.91732 -0.59309,1.23362 -0.3954,0.31632 -0.81451,0.47448 -1.25733,0.47446 -0.86987,2e-5 -1.49459,-0.0949 -1.87415,-0.28468"
           inkscape:connector-curvature="0" />
        <path
           id="path3082"
           style="font-size:23.72335434px;line-height:100%;fill:#333333;font-family:Sansita One;-inkscape-font-specification:Sansita One"
           d="m 260.01625,339.21269 c -3.47943,0 -5.21914,-1.63691 -5.21914,-4.91074 0,-2.32488 0.64053,-4.23856 1.92159,-5.74105 1.36014,-1.59736 3.21847,-2.39605 5.57499,-2.39606 1.70807,10e-6 2.99704,0.3954 3.86691,1.18617 0.86984,0.79079 1.30477,2.01649 1.30478,3.67712 -10e-6,2.5305 -0.68008,4.53116 -2.04021,6.00201 -1.32851,1.45503 -3.13149,2.18255 -5.40892,2.18255 m 0.61681,-10.31966 c -0.1898,0.42703 -0.36377,0.96476 -0.52192,1.61319 -0.14234,0.63263 -0.30841,1.45504 -0.49819,2.46723 -0.18979,1.0122 -0.28468,2.14301 -0.28468,3.39243 0,0.41121 0.0633,0.75125 0.18979,1.02011 0.14233,0.26886 0.39538,0.4033 0.75915,0.4033 0.36375,0 0.65634,-0.087 0.87776,-0.26096 0.23723,-0.17397 0.44283,-0.46656 0.61681,-0.87776 0.3163,-0.72752 0.60098,-1.76344 0.85404,-3.10776 0.25304,-1.36014 0.38747,-2.33279 0.4033,-2.91798 0.0316,-0.58516 0.0474,-1.09126 0.0474,-1.51829 -1e-5,-0.44283 -0.0633,-0.80659 -0.18978,-1.09128 -0.12654,-0.28467 -0.37168,-0.42701 -0.73543,-0.42702 -0.34795,1e-5 -0.64054,0.11072 -0.87776,0.33213 -0.23724,0.22143 -0.45075,0.54565 -0.64053,0.97266"
           inkscape:connector-curvature="0" />
        <path
           id="path3084"
           style="font-size:23.72335434px;line-height:100%;fill:#333333;font-family:Sansita One;-inkscape-font-specification:Sansita One"
           d="m 276.30938,332.07196 c 0.56935,-1.01219 0.85403,-2.03229 0.85404,-3.06032 -10e-6,-0.68005 -0.24515,-1.02009 -0.73542,-1.0201 -0.37958,1e-5 -0.76706,0.32423 -1.16245,0.97266 -0.41121,0.64845 -0.68007,1.39178 -0.80659,2.22999 l -1.23361,7.54403 -4.91074,0.47447 2.41978,-12.57338 3.91436,-0.47447 -0.42702,2.39606 c 0.77495,-1.59736 2.03229,-2.39605 3.77201,-2.39606 0.91729,10e-6 1.62108,0.23725 2.11138,0.7117 0.50608,0.47448 0.75913,1.202 0.75915,2.18255 -2e-5,0.96476 -0.32424,1.75554 -0.97266,2.37234 -0.63264,0.61681 -1.49458,0.92521 -2.58585,0.92521 -0.47447,0 -0.8066,-0.0949 -0.99638,-0.28468"
           inkscape:connector-curvature="0" />
        <path
           id="path3086"
           style="font-size:23.72335434px;line-height:100%;fill:#333333;font-family:Sansita One;-inkscape-font-specification:Sansita One"
           d="m 298.33614,339.21269 c -1.9137,0 -2.87054,-0.74333 -2.87053,-2.23 -1e-5,-0.64843 0.13442,-1.59737 0.4033,-2.8468 0.28467,-1.26524 0.47445,-2.15091 0.56936,-2.65702 0.2214,-1.15452 0.33211,-1.91367 0.33213,-2.27744 -2e-5,-0.80658 -0.30051,-1.20988 -0.90149,-1.20989 -0.3954,1e-5 -0.78288,0.27678 -1.16244,0.83032 -0.37959,0.53774 -0.65636,1.35224 -0.83032,2.4435 l -1.47085,7.47286 -4.62605,0.47447 1.28106,-6.45276 c 0.14233,-0.71169 0.27676,-1.47084 0.4033,-2.27744 0.12651,-0.80658 0.18977,-1.27314 0.18978,-1.39968 -10e-6,-0.7275 -0.26887,-1.09126 -0.80659,-1.09127 -0.36377,1e-5 -0.74334,0.26888 -1.13872,0.80659 -0.3954,0.53774 -0.7038,1.36015 -0.92521,2.46723 l -1.44713,7.47286 -4.6735,0.47447 2.49095,-12.57338 3.86691,-0.47447 -0.4033,2.39606 c 0.4112,-0.85403 0.99638,-1.46293 1.75553,-1.8267 0.75914,-0.37956 1.7318,-0.56935 2.91797,-0.56936 0.68006,10e-6 1.24151,0.16608 1.68436,0.49819 0.44283,0.33214 0.73541,0.76707 0.87777,1.30479 0.26885,-0.55354 0.74331,-0.98846 1.4234,-1.30479 0.69587,-0.33211 1.46292,-0.49818 2.30116,-0.49819 0.85403,10e-6 1.48665,0.0949 1.89787,0.28468 0.427,0.17399 0.76704,0.41122 1.02011,0.7117 0.427,0.55356 0.64051,1.33643 0.64053,2.34862 -2e-5,0.99638 -0.21353,2.53049 -0.64053,4.60233 -0.22144,1.0122 -0.33215,1.70808 -0.33213,2.08765 -2e-5,0.36376 0.10278,0.65635 0.3084,0.87777 0.2214,0.22141 0.49026,0.34794 0.8066,0.37957 -0.15818,0.53773 -0.51403,0.96475 -1.06755,1.28106 -0.53775,0.31631 -1.16247,0.47447 -1.87415,0.47447"
           inkscape:connector-curvature="0" />
        <path
           id="path3088"
           style="font-size:23.72335434px;line-height:100%;fill:#333333;font-family:Sansita One;-inkscape-font-specification:Sansita One"
           d="m 322.39051,330.67228 c -1.13874,2.49887 -1.7081,5.19542 -1.70808,8.08966 -0.42704,0.3005 -0.95686,0.45075 -1.58947,0.45075 -0.61682,0 -1.12291,-0.15025 -1.51829,-0.45075 -0.3954,-0.28468 -0.63263,-0.57726 -0.7117,-0.87776 -0.3954,0.4112 -0.91731,0.73542 -1.56574,0.97266 -0.63263,0.23723 -1.28898,0.35585 -1.96904,0.35585 -0.68008,0 -1.32061,-0.11071 -1.92159,-0.33213 -0.58518,-0.22142 -1.1071,-0.57727 -1.56575,-1.06755 -1.01219,-1.07546 -1.51829,-2.63329 -1.51829,-4.6735 0,-3.16311 0.84613,-5.6936 2.5384,-7.59147 1.73971,-1.96112 4.15158,-2.94168 7.23562,-2.9417 2.13509,2e-5 3.58221,0.55356 4.34138,1.66063 0.23721,0.34796 0.35583,0.73544 0.35585,1.16245 -2e-5,0.41122 -0.0949,0.7987 -0.28468,1.16244 -0.17399,0.34796 -0.40332,0.66427 -0.68798,0.94894 -0.68009,0.63263 -1.43923,0.94894 -2.27744,0.94893 -0.33214,10e-6 -0.65636,-0.0553 -0.97266,-0.16606 0.0632,-0.47446 0.0949,-0.98846 0.0949,-1.54202 -1e-5,-0.55353 -0.0237,-0.95683 -0.0712,-1.20989 -0.0316,-0.25304 -0.0949,-0.48236 -0.18979,-0.68798 -0.20561,-0.427 -0.53773,-0.64051 -0.99638,-0.64053 -0.44284,2e-5 -0.91731,0.24516 -1.4234,0.73542 -0.49029,0.47449 -0.93312,1.10711 -1.32851,1.89787 -0.86986,1.77136 -1.30479,3.72458 -1.30478,5.85967 -1e-5,0.98057 0.18978,1.8188 0.56936,2.51468 0.4112,0.75915 0.98056,1.13872 1.70808,1.13872 0.25304,0 0.49028,-0.0633 0.7117,-0.18979 0.23723,-0.12652 0.40329,-0.23723 0.49819,-0.33213 l 0.75915,-4.76839 4.79212,-0.42702"
           inkscape:connector-curvature="0" />
        <path
           id="path3090"
           style="font-size:23.72335434px;line-height:100%;fill:#333333;font-family:Sansita One;-inkscape-font-specification:Sansita One"
           d="m 324.00963,335.22716 c 0,-0.6168 0.0791,-1.32059 0.23723,-2.11137 l 1.92159,-10.03498 5.24286,0 -1.89786,10.10615 c -0.14235,0.74333 -0.21352,1.39177 -0.21351,1.94531 -10e-6,0.53773 0.1107,0.94894 0.33212,1.23361 0.23723,0.28469 0.56936,0.42703 0.99638,0.42703 0.42702,0 0.77496,-0.0554 1.04383,-0.16607 0.26886,-0.11071 0.514,-0.30049 0.73542,-0.56936 0.42702,-0.53772 0.77496,-1.49457 1.04383,-2.87052 l 1.92159,-10.10615 3.58223,0 -1.89787,10.08242 c -0.44285,2.24582 -1.27316,3.81946 -2.49095,4.72095 -1.18618,0.88567 -2.94961,1.32851 -5.29031,1.32851 -1.75553,0 -3.09985,-0.37958 -4.03297,-1.13872 -0.82241,-0.66426 -1.23361,-1.61319 -1.23361,-2.84681"
           inkscape:connector-curvature="0" />
        <path
           id="path3092"
           style="font-size:23.72335434px;line-height:100%;fill:#333333;font-family:Sansita One;-inkscape-font-specification:Sansita One"
           d="m 339.19072,338.73822 3.01286,-15.65741 5.21914,0 -3.06031,15.65741 -5.17169,0"
           inkscape:connector-curvature="0" />
        <path
           id="path3094"
           style="font-size:23.72335434px;line-height:100%;fill:#333333;font-family:Sansita One;-inkscape-font-specification:Sansita One"
           d="m 362.71243,335.08482 c 0.30048,0.37958 0.45073,0.94103 0.45074,1.68436 -10e-6,0.72752 -0.28469,1.3206 -0.85404,1.77925 -0.55355,0.44284 -1.32061,0.66426 -2.30116,0.66426 -0.56937,0 -1.29689,-0.0633 -2.18255,-0.18979 -1.73972,-0.26886 -2.86262,-0.4033 -3.36872,-0.4033 -0.49028,0 -0.83823,0.0158 -1.04383,0.0475 -0.2056,0.0158 -0.47446,0.0395 -0.80659,0.0712 l 2.87052,-15.65741 5.19542,0 -2.37234,13.04784 c 0.2056,0.0316 0.40329,0.0475 0.59309,0.0475 l 0.59308,0 c 1.3285,0 2.40396,-0.36376 3.22638,-1.09128"
           inkscape:connector-curvature="0" />
        <path
           id="path3096"
           style="font-size:23.72335434px;line-height:100%;fill:#333333;font-family:Sansita One;-inkscape-font-specification:Sansita One"
           d="m 370.44402,337.43344 c -0.49029,1.18616 -1.5183,1.77925 -3.08404,1.77925 -0.8066,0 -1.46294,-0.27678 -1.96904,-0.83032 -0.42702,-0.49028 -0.64053,-0.98056 -0.64053,-1.47085 0,-1.28106 0.29259,-3.17101 0.87777,-5.66988 l 0.87776,-4.60233 4.81584,-0.47447 -1.44712,7.49658 c -0.26887,1.17036 -0.40331,1.96114 -0.4033,2.37234 -1e-5,0.90149 0.32421,1.36805 0.97266,1.39968 m -3.51106,-14.09168 c 0,-0.61679 0.25305,-1.09125 0.75915,-1.4234 0.52191,-0.33211 1.15453,-0.49817 1.89787,-0.49819 0.74332,2e-5 1.3364,0.16608 1.77925,0.49819 0.45864,0.33215 0.68797,0.80661 0.68797,1.4234 0,0.61683 -0.25305,1.08338 -0.75914,1.39968 -0.49029,0.31633 -1.1071,0.47448 -1.85042,0.47447 -0.74334,10e-6 -1.35224,-0.15814 -1.8267,-0.47447 -0.45866,-0.3163 -0.68798,-0.78285 -0.68798,-1.39968"
           inkscape:connector-curvature="0" />
        <path
           id="path3098"
           style="font-size:23.72335434px;line-height:100%;fill:#333333;font-family:Sansita One;-inkscape-font-specification:Sansita One"
           d="m 372.13357,337.5995 2.94169,-15.46763 4.81584,-0.47446 -0.73542,3.62967 c -0.17398,0.74334 -0.37167,1.37596 -0.59308,1.89787 0.34793,-0.44283 0.90148,-0.75123 1.66063,-0.92521 0.22141,-0.0633 0.46655,-0.0949 0.73542,-0.0949 1.47084,10e-6 2.60956,0.45076 3.41617,1.35223 0.80658,0.88569 1.20988,2.19047 1.20989,3.91436 -10e-6,2.24581 -0.64054,4.07251 -1.92159,5.48009 -1.37597,1.53411 -3.31337,2.30117 -5.81222,2.30117 -1.72391,0 -3.23429,-0.28468 -4.53117,-0.85404 -0.45865,-0.20561 -0.85404,-0.45865 -1.18616,-0.75915 m 4.76839,-0.21351 c 0.33212,0.28468 0.70379,0.42702 1.115,0.42702 0.4112,0 0.73542,-0.0791 0.97266,-0.23723 0.23722,-0.15816 0.44282,-0.39539 0.6168,-0.7117 0.47446,-0.85404 0.90148,-2.58585 1.28106,-5.19542 0.1107,-0.74332 0.16606,-1.48665 0.16607,-2.22999 -10e-6,-0.74333 -0.087,-1.23361 -0.26096,-1.47085 -0.15816,-0.23723 -0.3954,-0.35584 -0.7117,-0.35585 -0.96476,1e-5 -1.60529,0.94103 -1.92159,2.82308 l -1.25734,6.95094"
           inkscape:connector-curvature="0" />
        <path
           id="path3100"
           style="font-size:23.72335434px;line-height:100%;fill:#333333;font-family:Sansita One;-inkscape-font-specification:Sansita One"
           d="m 394.41647,332.07196 c 0.56935,-1.01219 0.85403,-2.03229 0.85404,-3.06032 -10e-6,-0.68005 -0.24515,-1.02009 -0.73543,-1.0201 -0.37958,1e-5 -0.76706,0.32423 -1.16244,0.97266 -0.41121,0.64845 -0.68008,1.39178 -0.80659,2.22999 l -1.23362,7.54403 -4.91073,0.47447 2.41978,-12.57338 3.91435,-0.47447 -0.42702,2.39606 c 0.77496,-1.59736 2.0323,-2.39605 3.77202,-2.39606 0.91729,10e-6 1.62108,0.23725 2.11137,0.7117 0.50609,0.47448 0.75914,1.202 0.75915,2.18255 -10e-6,0.96476 -0.32423,1.75554 -0.97266,2.37234 -0.63263,0.61681 -1.49458,0.92521 -2.58584,0.92521 -0.47448,0 -0.8066,-0.0949 -0.99638,-0.28468"
           inkscape:connector-curvature="0" />
        <path
           id="path3102"
           style="font-size:23.72335434px;line-height:100%;fill:#333333;font-family:Sansita One;-inkscape-font-specification:Sansita One"
           d="m 400.38253,338.02652 c -0.36376,-0.4112 -0.63262,-0.94103 -0.80659,-1.58947 -0.15816,-0.64843 -0.23724,-1.50247 -0.23724,-2.56212 0,-1.05963 0.18188,-2.07183 0.54564,-3.03659 0.36376,-0.96474 0.87776,-1.79505 1.54202,-2.49095 1.36013,-1.45502 3.16311,-2.18254 5.40892,-2.18255 0.80659,10e-6 1.50247,0.13445 2.08766,0.4033 l 4.05669,-0.4033 -1.75553,9.25211 c -0.0475,0.18979 -0.0712,0.45865 -0.0712,0.80659 -10e-6,0.34795 0.10279,0.63263 0.30841,0.85405 0.2214,0.22141 0.49027,0.34794 0.80659,0.37957 -0.15817,0.53773 -0.52983,0.96475 -1.115,1.28106 -0.56937,0.31631 -1.17827,0.47447 -1.82669,0.47447 -0.64845,0 -1.19409,-0.12653 -1.63692,-0.37958 -0.42702,-0.23723 -0.7038,-0.56145 -0.83031,-0.97265 -0.25306,0.39539 -0.64845,0.7196 -1.18617,0.97265 -0.53774,0.25305 -1.17036,0.37958 -1.89787,0.37958 -0.7117,0 -1.36014,-0.0949 -1.94531,-0.28468 -0.58518,-0.18979 -1.06756,-0.49029 -1.44713,-0.90149 m 5.00563,-9.63168 c -0.17398,0.28469 -0.34004,0.67217 -0.49819,1.16244 -0.15816,0.47448 -0.37167,1.36015 -0.64053,2.65702 -0.25306,1.28106 -0.37958,2.38025 -0.37958,3.29754 0,0.91731 0.0712,1.51039 0.21351,1.77926 0.14234,0.26886 0.34003,0.40329 0.59309,0.40329 0.50609,0 0.94102,-0.23723 1.30478,-0.7117 0.37957,-0.49028 0.64053,-1.16244 0.78287,-2.01648 l 1.25734,-6.95095 c -0.33213,-0.28467 -0.69589,-0.42701 -1.09127,-0.42702 -0.37958,1e-5 -0.68799,0.0633 -0.92521,0.18979 -0.22143,0.12654 -0.42703,0.33214 -0.61681,0.61681"
           inkscape:connector-curvature="0" />
        <path
           id="path3104"
           style="font-size:23.72335434px;line-height:100%;fill:#333333;font-family:Sansita One;-inkscape-font-specification:Sansita One"
           d="m 421.70761,332.07196 c 0.56935,-1.01219 0.85403,-2.03229 0.85404,-3.06032 -10e-6,-0.68005 -0.24515,-1.02009 -0.73543,-1.0201 -0.37958,1e-5 -0.76706,0.32423 -1.16244,0.97266 -0.41121,0.64845 -0.68008,1.39178 -0.8066,2.22999 l -1.23361,7.54403 -4.91073,0.47447 2.41978,-12.57338 3.91435,-0.47447 -0.42702,2.39606 c 0.77496,-1.59736 2.03229,-2.39605 3.77201,-2.39606 0.9173,10e-6 1.62109,0.23725 2.11138,0.7117 0.50609,0.47448 0.75914,1.202 0.75915,2.18255 -1e-5,0.96476 -0.32423,1.75554 -0.97266,2.37234 -0.63263,0.61681 -1.49458,0.92521 -2.58584,0.92521 -0.47448,0 -0.80661,-0.0949 -0.99638,-0.28468"
           inkscape:connector-curvature="0" />
        <path
           id="path3106"
           style="font-size:23.72335434px;line-height:100%;fill:#333333;font-family:Sansita One;-inkscape-font-specification:Sansita One"
           d="m 434.19756,336.05748 c -0.82242,0.85404 -1.98486,1.28106 -3.48733,1.28106 -1.88206,0 -3.02078,-0.68797 -3.41617,-2.06393 -0.12652,-0.4112 -0.18978,-0.84613 -0.18978,-1.30478 0,-0.45865 0.0474,-0.92521 0.14234,-1.39968 l 1.115,-5.93084 4.81584,-0.47447 -1.30479,6.9035 c -0.0316,0.20561 -0.0712,0.41912 -0.11862,0.64053 -0.0475,0.22142 -0.0712,0.45075 -0.0712,0.68798 0,0.22142 0.0395,0.41121 0.11862,0.56936 0.0791,0.14234 0.17397,0.26096 0.28468,0.35585 0.18978,0.12653 0.45074,0.18979 0.78287,0.18978 0.34794,10e-6 0.66425,-0.20559 0.94894,-0.6168 0.30048,-0.4112 0.5219,-0.97266 0.66425,-1.68436 l 1.30478,-6.57137 4.67351,-0.47447 -1.77926,9.32328 c -0.58518,3.03659 -1.47876,5.15587 -2.68073,6.35786 -0.61682,0.6168 -1.32852,1.04382 -2.13511,1.28106 -0.79078,0.25305 -1.70018,0.37957 -2.72818,0.37957 -1.66064,0 -2.96542,-0.26096 -3.91436,-0.78287 -0.94893,-0.52191 -1.4234,-1.2178 -1.4234,-2.08765 0,-0.64844 0.24514,-1.16245 0.73543,-1.54202 0.49028,-0.36376 1.11499,-0.54564 1.87414,-0.54564 0.66425,0 1.24943,0.14234 1.75553,0.42702 0.30049,0.17397 0.52191,0.37167 0.66425,0.59309 -0.36376,0.31631 -0.54564,0.73542 -0.54563,1.25734 -1e-5,0.69588 0.3163,1.04382 0.94893,1.04382 1.04382,0 1.86623,-1.20198 2.46723,-3.60595 0.17396,-0.7117 0.34003,-1.44712 0.49819,-2.20627"
           inkscape:connector-curvature="0" />
      </g>
    </g>
  </g>
</svg>
