/* XPM */
static const char *const magick[] = {
/* columns rows colors chars-per-pixel */
"16 15 16 1",
"  c Gray0",
". c #808000",
"X c #000080",
"o c #808080",
"O c #000000",
"+ c #808000",
"@ c #000080",
"# c #808080",
"$ c none",
"% c Red",
"& c Green",
"* c Yellow",
"= c Blue",
"- c Magenta",
"; c Cyan",
": c Gray100",
/* pixels */
"                ",
" $$$$$$$$$$$$$$ ",
" $$$# #$$$#  #$ ",
" $$$ $ $$$ $$ $ ",
" $#  $ $$$ $$ $ ",
" $ $ $   $#  #$ ",
" $ $ $  $ $$$$$ ",
" $# $$  $ $$$$$ ",
"     $ $        ",
" $$$ $$ $$$$$$$ ",
" $$$ $ $$  $  $ ",
" $$$ $ $ $$ $$$ ",
" $$    $    $$$ ",
" $    $$$$$$$$$ ",
"                "
};
