/* XPM */
static char *button_xpm[] = {
/* columns rows colors chars-per-pixel */
"32 32 16 1",
"  c Gray0",
". c #808000000000",
"X c #000080800000",
"o c #808080800000",
"O c #000000008080",
"+ c #808000008080",
"@ c #000080808080",
"# c #c0c0c0c0c0c0",
"$ c #808080808080",
"% c Red",
"& c Green",
"* c Yellow",
"= c Blue",
"- c Magenta",
"; c Cyan",
": c Gray100",
/* pixels */
"################################",
"################################",
"################################",
"################################",
"################################",
"################################",
"#####                      #####",
"#### :::::::::::::::::::::: ####",
"### :::::::::::::::::::::::$ ###",
"## ::######################$$ ##",
"## ::######################$$ ##",
"## ::######################$$ ##",
"## ::######################$$ ##",
"## ::######################$$ ##",
"## ::######################$$ ##",
"## ::######################$$ ##",
"## ::######################$$ ##",
"## ::######################$$ ##",
"## ::######################$$ ##",
"## ::######################$$ ##",
"## ::######################$$ ##",
"## ::######################$$ ##",
"### $$$$$$$$$$$$$$$$$$$$$$$$ ###",
"#### $$$$$$$$$$$$$$$$$$$$$$ ####",
"#####                      #####",
"################################",
"################################",
"################################",
"################################",
"################################",
"################################",
"################################"
};
