/* XPM */
static const char * spinbtn_xpm[] = {
/* columns rows colors chars-per-pixel */
"32 32 2 1",
"$ c None",
"  c Black",
/* pixels */
"$$$$$$$$$$$$$$$$$$$$$$$$$$$$$$$$",
"$$$$$$$$$$$$$$$$$$$$$$$$$$$$$$$$",
"$$$$$$$$$$$$$$$$$$$$$$$$$$$$$$$$",
"$$$$$$$$$$$$$$$$$$$$$$$$$$$$$$$$",
"$$$$$$$$$$$$$$$$$$$$$$$$$$$$$$$$",
"$$$$$$$$$$$$$$$$$$$$$$$$$$$$$$$$",
"$$$$$$$$$$$$$$$$$$$$$$$$$$$$$$$$",
"$$                          $$$$",
"$$                          $$$$",
"$$  $$$$$$$$$$  $$$$$$$$$$  $$$$",
"$$  $$$$$$$$$$  $$$$$$$$$$  $$$$",
"$$  $$$$$$  $$  $$  $$$$$$  $$$$",
"$$  $$$$$$  $$  $$  $$$$$$  $$$$",
"$$  $$$$    $$  $$    $$$$  $$$$",
"$$  $$$$    $$  $$    $$$$  $$$$",
"$$  $$      $$  $$      $$  $$$$",
"$$  $$      $$  $$      $$  $$$$",
"$$  $$$$    $$  $$    $$$$  $$$$",
"$$  $$$$    $$  $$    $$$$  $$$$",
"$$  $$$$$$  $$  $$  $$$$$$  $$$$",
"$$  $$$$$$  $$  $$  $$$$$$  $$$$",
"$$  $$$$$$$$$$  $$$$$$$$$$  $$$$",
"$$  $$$$$$$$$$  $$$$$$$$$$  $$$$",
"$$                          $$$$",
"$$                          $$$$",
"$$$$$$$$$$$$$$$$$$$$$$$$$$$$$$$$",
"$$$$$$$$$$$$$$$$$$$$$$$$$$$$$$$$",
"$$$$$$$$$$$$$$$$$$$$$$$$$$$$$$$$",
"$$$$$$$$$$$$$$$$$$$$$$$$$$$$$$$$",
"$$$$$$$$$$$$$$$$$$$$$$$$$$$$$$$$",
"$$$$$$$$$$$$$$$$$$$$$$$$$$$$$$$$",
"$$$$$$$$$$$$$$$$$$$$$$$$$$$$$$$$"
};
