/* XPM */
static const char * statbox_xpm[] = {
/* columns rows colors chars-per-pixel */
"32 32 16 1",
"  c Gray0",
". c #808000",
"X c #000080",
"o c #808080",
"O c #000000",
"+ c #808000",
"@ c #000080",
"# c none",
"$ c #808080",
"% c Red",
"& c Green",
"* c Yellow",
"= c Blue",
"- c Magenta",
"; c Cyan",
": c Gray100",
/* pixels */
"################################",
"################################",
"################################",
"######## ### # ### #    ########",
"######## ### # ### #### ########",
"######### # ### # #### #########",
"##    #### ##### #### ####    ##",
"## ###### # #### ### ######## ##",
"## ##### ### ### ### ######## ##",
"## ##### ### ### ###    ##### ##",
"## ########################## ##",
"## ########################## ##",
"## ########################## ##",
"## ########################## ##",
"## ########################## ##",
"## ########################## ##",
"## ########################## ##",
"## ########################## ##",
"## ########################## ##",
"## ########################## ##",
"## ########################## ##",
"## ########################## ##",
"## ########################## ##",
"## ########################## ##",
"## ########################## ##",
"## ########################## ##",
"## ########################## ##",
"## ########################## ##",
"##                            ##",
"################################",
"################################",
"################################"
};
