#define Symbols_width 79
#define Symbols_height 50
static char Symbols_bits[] = {
 0x08,0x84,0x0d,0x01,0x00,0x00,0x00,0x00,0x00,0x80,0x1c,0xce,0x9f,0x03,0x00,
 0x00,0x00,0x00,0x00,0x80,0x2a,0xdf,0xdf,0x07,0x00,0x00,0x00,0x00,0x00,0x80,
 0xff,0xff,0xff,0x0f,0x00,0x00,0x00,0x00,0x00,0x80,0x2a,0x9f,0xcf,0x07,0x00,
 0x00,0x00,0x00,0x00,0x80,0x08,0x0e,0x07,0x01,0x00,0x00,0x00,0x00,0x00,0x80,
 0x1c,0x04,0x82,0x03,0x00,0x00,0x00,0x00,0x00,0x80,0x1c,0x04,0x82,0x03,0x00,
 0x00,0x00,0x00,0x00,0x80,0x08,0x0e,0x07,0x01,0x00,0x00,0x00,0x00,0x00,0x80,
 0x2a,0x9f,0xcf,0x07,0x00,0x00,0x00,0x00,0x00,0x80,0xff,0xff,0xff,0x0f,0x00,
 0x00,0x00,0x00,0x00,0x80,0x2a,0xdf,0xdf,0x07,0x00,0x00,0x00,0x00,0x00,0x80,
 0x1c,0xce,0x9f,0x03,0x00,0x00,0x00,0x00,0x00,0x80,0x08,0x84,0x0d,0x01,0x00,
 0x00,0x00,0x00,0x00,0x80,0x70,0x00,0x01,0x63,0x40,0x00,0x00,0x00,0x00,0x80,
 0xf8,0x80,0x83,0xf7,0xe0,0x00,0x00,0x00,0x00,0x80,0xf8,0x80,0xc3,0xff,0xf1,
 0x01,0x00,0x00,0x00,0x80,0x70,0xc0,0xc7,0xff,0xf9,0x03,0x00,0x00,0x00,0x80,
 0x26,0xe3,0xcf,0xff,0xfd,0x07,0x00,0x00,0x00,0x80,0xaf,0xf7,0xdf,0xff,0xff,
 0x0f,0x00,0x00,0x00,0x80,0xff,0xe7,0x8f,0xff,0xfe,0x0f,0x00,0x00,0x00,0x80,
 0xaf,0xc7,0x07,0x7f,0x5e,0x0f,0x00,0x00,0x00,0x80,0x26,0x83,0x03,0x3e,0x4c,
 0x06,0x00,0x00,0x00,0x80,0x70,0x80,0x03,0x1c,0xe0,0x00,0x00,0x00,0x00,0x80,
 0xfc,0x01,0x01,0x08,0xf8,0x03,0x00,0x00,0x00,0x80,0xfc,0x01,0x01,0x08,0xf8,
 0x03,0x00,0x00,0x00,0x80,0x70,0x80,0x03,0x1c,0xe0,0x00,0x00,0x00,0x00,0x80,
 0x26,0x83,0x03,0x3e,0x4c,0x06,0x00,0x00,0x00,0x80,0xaf,0xc7,0x07,0x7f,0x5e,
 0x0f,0x00,0x00,0x00,0x80,0xff,0xe7,0x8f,0xff,0xfe,0x0f,0x00,0x00,0x00,0x80,
 0xaf,0xf7,0xdf,0xff,0xff,0x0f,0x00,0x00,0x00,0x80,0x26,0xe3,0xcf,0xff,0xfd,
 0x07,0x00,0x00,0x00,0x80,0x70,0xc0,0xc7,0xff,0xf9,0x03,0x00,0x00,0x00,0x80,
 0xf8,0x80,0xc3,0xff,0xf1,0x01,0x00,0x00,0x00,0x80,0xf8,0x80,0x83,0xf7,0xe0,
 0x00,0x00,0x00,0x00,0x80,0x70,0x00,0x01,0x63,0x40,0x00,0x00,0x00,0x00,0x80,
 0x0c,0xe7,0x43,0x3e,0xe7,0x73,0x5c,0xe6,0x73,0xa2,0x92,0x08,0x61,0x82,0x00,
 0x8a,0x62,0x09,0x89,0x92,0x21,0x88,0x50,0x9e,0x00,0x89,0x62,0x09,0x89,0x8a,
 0x21,0xc6,0x49,0xa0,0x87,0x70,0x7c,0x09,0x89,0x86,0x3f,0x01,0xfa,0xa0,0x88,
 0x88,0x60,0x09,0xa9,0x8a,0xa1,0x20,0x42,0xa2,0x88,0x88,0x50,0x29,0x49,0x92,
 0xa1,0xcf,0x41,0x1c,0x87,0x70,0x48,0xc6,0xb0,0xa2,0xa1,0xcf,0x11,0x1c,0x87,
 0x70,0x88,0x89,0x69,0xa2,0x21,0x28,0x12,0xa2,0x88,0x88,0x44,0x4a,0x92,0xa4,
 0x3f,0x24,0xf8,0x82,0x88,0x88,0x42,0x4a,0xa8,0xa8,0x21,0xc3,0x91,0x82,0x8f,
 0x70,0x5e,0x4a,0x88,0xb0,0xa1,0x80,0x50,0x3c,0x48,0x88,0x62,0x4a,0x88,0xa8,
 0x92,0x48,0x30,0x20,0x28,0x88,0x62,0x4a,0x88,0xa4,0x0c,0xe7,0x13,0x3e,0xe7,
 0x73,0x9c,0xe9,0x73,0xa2};
