#define Symbols_width 117
#define Symbols_height 70
static char Symbols_bits[] = {
0x08, 0x84, 0x0d, 0x01, 0x00, 0x00, 0x00, 0x00, 0x00, 0x00, 0x00, 0x00, 0x00, 0x00, 0x00, 
0x1c, 0xce, 0x9f, 0x03, 0x00, 0x00, 0x00, 0x00, 0x00, 0x00, 0x00, 0x00, 0x00, 0x00, 0x00, 
0x2a, 0xdf, 0xdf, 0x07, 0x00, 0x00, 0x00, 0x00, 0x00, 0x00, 0x00, 0x00, 0x00, 0x00, 0x00, 
0xff, 0xff, 0xff, 0x0f, 0x00, 0x00, 0x00, 0x00, 0x00, 0x00, 0x00, 0x00, 0x00, 0x00, 0x00, 
0x2a, 0x9f, 0xcf, 0x07, 0x00, 0x00, 0x00, 0x00, 0x00, 0x00, 0x00, 0x00, 0x00, 0x00, 0x00, 
0x08, 0x0e, 0x07, 0x01, 0x00, 0x00, 0x00, 0x00, 0x00, 0x00, 0x00, 0x00, 0x00, 0x00, 0x00, 
0x1c, 0x04, 0x82, 0x03, 0x00, 0x00, 0x00, 0x00, 0x00, 0x00, 0x00, 0x00, 0x00, 0x00, 0x00, 
0x1c, 0x04, 0x82, 0x03, 0x00, 0x00, 0x00, 0x00, 0x00, 0x00, 0x00, 0x00, 0x00, 0x00, 0x00, 
0x08, 0x0e, 0x07, 0x01, 0x00, 0x00, 0x00, 0x00, 0x00, 0x00, 0x00, 0x00, 0x00, 0x00, 0x00, 
0x2a, 0x9f, 0xcf, 0x07, 0x00, 0x00, 0x00, 0x00, 0x00, 0x00, 0x00, 0x00, 0x00, 0x00, 0x00, 
0xff, 0xff, 0xff, 0x0f, 0x00, 0x00, 0x00, 0x00, 0x00, 0x00, 0x00, 0x00, 0x00, 0x00, 0x00, 
0x2a, 0xdf, 0xdf, 0x07, 0x00, 0x00, 0x00, 0x00, 0x00, 0x00, 0x00, 0x00, 0x00, 0x00, 0x00, 
0x1c, 0xce, 0x9f, 0x03, 0x00, 0x00, 0x00, 0x00, 0x00, 0x00, 0x00, 0x00, 0x00, 0x00, 0x00, 
0x08, 0x84, 0x0d, 0x01, 0x00, 0x00, 0x00, 0x00, 0x00, 0x00, 0x00, 0x00, 0x00, 0x00, 0x00, 
0x70, 0x00, 0x01, 0x63, 0x40, 0x00, 0x00, 0x00, 0x00, 0x00, 0x00, 0x00, 0x00, 0x00, 0x00, 
0xf8, 0x80, 0x83, 0xf7, 0xe0, 0x00, 0x00, 0x00, 0x00, 0x00, 0x00, 0x00, 0x00, 0x00, 0x00, 
0xf8, 0x80, 0xc3, 0xff, 0xf1, 0x01, 0x00, 0x00, 0x00, 0x00, 0x00, 0x00, 0x00, 0x00, 0x00, 
0x70, 0xc0, 0xc7, 0xff, 0xf9, 0x03, 0x00, 0x00, 0x00, 0x00, 0x00, 0x00, 0x00, 0x00, 0x00, 
0x26, 0xe3, 0xcf, 0xff, 0xfd, 0x07, 0x00, 0x00, 0x00, 0x00, 0x00, 0x00, 0x00, 0x00, 0x00, 
0xaf, 0xf7, 0xdf, 0xff, 0xff, 0x0f, 0x00, 0x00, 0x00, 0x00, 0x00, 0x00, 0x00, 0x00, 0x00, 
0xff, 0xe7, 0x8f, 0xff, 0xfe, 0x0f, 0x00, 0x00, 0x00, 0x00, 0x00, 0x00, 0x00, 0x00, 0x00, 
0xaf, 0xc7, 0x07, 0x7f, 0x5e, 0x0f, 0x00, 0x00, 0x00, 0x00, 0x00, 0x00, 0x00, 0x00, 0x00, 
0x26, 0x83, 0x03, 0x3e, 0x4c, 0x06, 0x00, 0x00, 0x00, 0x00, 0x00, 0x00, 0x00, 0x00, 0x00, 
0x70, 0x80, 0x03, 0x1c, 0xe0, 0x00, 0x00, 0x00, 0x00, 0x00, 0x00, 0x00, 0x00, 0x00, 0x00, 
0xfc, 0x01, 0x01, 0x08, 0xf8, 0x03, 0x00, 0x00, 0x00, 0x00, 0x00, 0x00, 0x00, 0x00, 0x00, 
0xfc, 0x01, 0x01, 0x08, 0xf8, 0x03, 0x00, 0x00, 0x00, 0x00, 0x00, 0x00, 0x00, 0x00, 0x00, 
0x70, 0x80, 0x03, 0x1c, 0xe0, 0x00, 0x00, 0x00, 0x00, 0x00, 0x00, 0x00, 0x00, 0x00, 0x00, 
0x26, 0x83, 0x03, 0x3e, 0x4c, 0x06, 0x00, 0x00, 0x00, 0x00, 0x00, 0x00, 0x00, 0x00, 0x00, 
0xaf, 0xc7, 0x07, 0x7f, 0x5e, 0x0f, 0x00, 0x00, 0x00, 0x00, 0x00, 0x00, 0x00, 0x00, 0x00, 
0xff, 0xe7, 0x8f, 0xff, 0xfe, 0x0f, 0x00, 0x00, 0x00, 0x00, 0x00, 0x00, 0x00, 0x00, 0x00, 
0xaf, 0xf7, 0xdf, 0xff, 0xff, 0x0f, 0x00, 0x00, 0x00, 0x00, 0x00, 0x00, 0x00, 0x00, 0x00, 
0x26, 0xe3, 0xcf, 0xff, 0xfd, 0x07, 0x00, 0x00, 0x00, 0x00, 0x00, 0x00, 0x00, 0x00, 0x00, 
0x70, 0xc0, 0xc7, 0xff, 0xf9, 0x03, 0x00, 0x00, 0x00, 0x00, 0x00, 0x00, 0x00, 0x00, 0x00, 
0xf8, 0x80, 0xc3, 0xff, 0xf1, 0x01, 0x00, 0x00, 0x00, 0x00, 0x00, 0x00, 0x00, 0x00, 0x00, 
0xf8, 0x80, 0x83, 0xf7, 0xe0, 0x00, 0x00, 0x00, 0x00, 0x00, 0x00, 0x00, 0x00, 0x00, 0x00, 
0x70, 0x00, 0x01, 0x63, 0x40, 0x00, 0x00, 0x00, 0x00, 0x00, 0x00, 0x00, 0x00, 0x00, 0x00, 
0x0c, 0xe7, 0x43, 0x3e, 0xe7, 0x73, 0x5c, 0xe6, 0x73, 0x22, 0x00, 0x00, 0x00, 0x00, 0x00, 
0x92, 0x08, 0x61, 0x82, 0x00, 0x8a, 0x62, 0x09, 0x89, 0x12, 0x00, 0x00, 0x00, 0x00, 0x00, 
0x21, 0x88, 0x50, 0x9e, 0x00, 0x89, 0x62, 0x09, 0x89, 0x0a, 0x00, 0x00, 0x00, 0x00, 0x00, 
0x21, 0xc6, 0x49, 0xa0, 0x87, 0x70, 0x7c, 0x09, 0x89, 0x06, 0x00, 0x00, 0x00, 0x00, 0x00, 
0x3f, 0x01, 0xfa, 0xa0, 0x88, 0x88, 0x60, 0x09, 0xa9, 0x0a, 0x00, 0x00, 0x00, 0x00, 0x00, 
0xa1, 0x20, 0x42, 0xa2, 0x88, 0x88, 0x50, 0x29, 0x49, 0x12, 0x00, 0x00, 0x00, 0x00, 0x00, 
0xa1, 0xcf, 0x41, 0x1c, 0x87, 0x70, 0x48, 0xc6, 0xb0, 0x22, 0x00, 0x00, 0x00, 0x00, 0x00, 
0xa1, 0xcf, 0x11, 0x1c, 0x87, 0x70, 0x88, 0x89, 0x69, 0x22, 0x00, 0x00, 0x00, 0x00, 0x00, 
0x21, 0x28, 0x12, 0xa2, 0x88, 0x88, 0x44, 0x4a, 0x92, 0x24, 0x00, 0x00, 0x00, 0x00, 0x00, 
0x3f, 0x24, 0xf8, 0x82, 0x88, 0x88, 0x42, 0x4a, 0xa8, 0x28, 0x00, 0x00, 0x00, 0x00, 0x00, 
0x21, 0xc3, 0x91, 0x82, 0x8f, 0x70, 0x5e, 0x4a, 0x88, 0x30, 0x00, 0x00, 0x00, 0x00, 0x00, 
0xa1, 0x80, 0x50, 0x3c, 0x48, 0x88, 0x62, 0x4a, 0x88, 0x28, 0x00, 0x00, 0x00, 0x00, 0x00, 
0x92, 0x48, 0x30, 0x20, 0x28, 0x88, 0x62, 0x4a, 0x88, 0x24, 0x00, 0x00, 0x00, 0x00, 0x00, 
0x0c, 0xe7, 0x13, 0x3e, 0xe7, 0x73, 0x9c, 0xe9, 0x73, 0x22, 0x00, 0x00, 0x00, 0x00, 0x00, 
0x18, 0xf8, 0xf8, 0x03, 0xe3, 0x0f, 0x8f, 0x3f, 0x3e, 0x7c, 0xe6, 0xf8, 0xe3, 0x63, 0x08, 
0x3c, 0xfc, 0xf9, 0x81, 0xe3, 0x8f, 0x8f, 0x3f, 0x7f, 0xfe, 0xf6, 0xf9, 0xf3, 0x67, 0x0c, 
0x7e, 0x8c, 0xc1, 0xc0, 0x63, 0xc0, 0x01, 0x38, 0x63, 0xc6, 0xb6, 0x81, 0x31, 0x66, 0x0e, 
0xe7, 0xc0, 0x61, 0xe0, 0xe3, 0xc7, 0x00, 0x1c, 0x77, 0xc6, 0xb6, 0x81, 0x31, 0x66, 0x07, 
0xc3, 0xf0, 0xf0, 0x70, 0xe3, 0xcf, 0x0f, 0x0e, 0x3e, 0xfe, 0xb6, 0x81, 0x31, 0xe6, 0x03, 
0xff, 0x78, 0xf0, 0x31, 0x03, 0xcc, 0x1f, 0x06, 0x3e, 0xfc, 0xb6, 0x81, 0x31, 0xe6, 0x01, 
0xff, 0x1c, 0x80, 0xf3, 0x07, 0xcc, 0x18, 0x06, 0x77, 0xe0, 0xb6, 0x81, 0xf1, 0xe6, 0x03, 
0xc3, 0x0c, 0x18, 0xf3, 0x67, 0xcc, 0x18, 0x06, 0x63, 0x70, 0xb6, 0x99, 0xb1, 0x67, 0x07, 
0xc3, 0xfc, 0xf9, 0x03, 0xe3, 0xcf, 0x1f, 0x06, 0x7f, 0x38, 0xf6, 0xf9, 0xf1, 0x63, 0x0e, 
0xc3, 0xfc, 0xf1, 0x01, 0xc3, 0x87, 0x0f, 0x06, 0x3e, 0x1c, 0xe6, 0xf0, 0xe0, 0x67, 0x0c, 
0x86, 0xfd, 0xf1, 0x61, 0xc0, 0x87, 0x0f, 0x0c, 0x3e, 0x70, 0x38, 0xe3, 0xf1, 0x63, 0x0c, 
0x86, 0xfd, 0xf9, 0x63, 0xe0, 0xcf, 0x1f, 0x0c, 0x7f, 0x38, 0x7c, 0xf3, 0xe3, 0xe7, 0x0c, 
0x86, 0x81, 0x19, 0xf3, 0x67, 0xcc, 0x18, 0x0c, 0x63, 0x1c, 0x6c, 0x33, 0xf3, 0xc6, 0x0d, 
0xfe, 0xc1, 0x39, 0xf0, 0x67, 0xc0, 0x18, 0x0c, 0x77, 0x0e, 0x6c, 0x33, 0xb0, 0x87, 0x0f, 
0xfe, 0xf1, 0xf0, 0x61, 0x66, 0xc0, 0x1f, 0x0c, 0x3e, 0x7e, 0x6c, 0x33, 0x30, 0x06, 0x0f, 
0x86, 0x79, 0xe0, 0x61, 0xe7, 0x8f, 0x1f, 0x0e, 0x3e, 0xfe, 0x6c, 0x33, 0x30, 0x86, 0x0f, 
0xce, 0x1d, 0xc0, 0xe0, 0xc3, 0x0f, 0x18, 0x07, 0x77, 0xc6, 0x6c, 0x33, 0x30, 0xc6, 0x0d, 
0xfc, 0x8c, 0x61, 0xe0, 0x01, 0x0c, 0x9c, 0x03, 0x63, 0xc6, 0x6c, 0x33, 0x30, 0xe6, 0x0c, 
0x78, 0xfc, 0xf1, 0xe3, 0xe0, 0x8f, 0x8f, 0x3f, 0x7f, 0xfe, 0x7c, 0xfb, 0xf3, 0x67, 0x0c, 
0x30, 0xf8, 0xf8, 0x63, 0xe0, 0x8f, 0x87, 0x3f, 0x3e, 0x7c, 0x38, 0xfb, 0xe3, 0x23, 0x0c, 
}; 

