#define dirplain_width 32
#define dirplain_height 32
static char dirplain_bits[] = {
   0x00, 0x00, 0x00, 0x00, 0x00, 0x00, 0x00, 0x00, 0x00, 0x00, 0x00, 0x00,
   0x00, 0x00, 0x00, 0x00, 0x00, 0x00, 0x00, 0x00, 0x00, 0x00, 0x00, 0x00,
   0x00, 0x00, 0xfc, 0x01, 0x00, 0x00, 0x02, 0x02, 0x00, 0x00, 0x01, 0x04,
   0xfc, 0xff, 0xff, 0x1f, 0x02, 0x00, 0x00, 0x20, 0x02, 0x00, 0x00, 0x60,
   0x02, 0x00, 0x00, 0x60, 0x02, 0x00, 0x00, 0x60, 0x02, 0x00, 0x00, 0x60,
   0x02, 0x00, 0x00, 0x60, 0x02, 0x00, 0x00, 0x60, 0x02, 0x00, 0x00, 0x60,
   0x02, 0x00, 0x00, 0x60, 0x02, 0x00, 0x00, 0x60, 0x02, 0x00, 0x00, 0x60,
   0x02, 0x00, 0x00, 0x60, 0x02, 0x00, 0x00, 0x60, 0x02, 0x00, 0x00, 0x60,
   0x02, 0x00, 0x00, 0x60, 0x02, 0x00, 0x00, 0x60, 0x02, 0x00, 0x00, 0x60,
   0x02, 0x00, 0x00, 0x60, 0x02, 0x00, 0x00, 0x60, 0x02, 0x00, 0x00, 0x60,
   0xfe, 0xff, 0xff, 0x7f, 0xfc, 0xff, 0xff, 0x7f};
