#define drawing_width 32
#define drawing_height 32
static char drawing_bits[] = {
   0x00, 0x80, 0x00, 0x00, 0x00, 0x40, 0x01, 0x00, 0x00, 0x20, 0x02, 0x00,
   0x00, 0x10, 0x04, 0x00, 0x00, 0x08, 0x08, 0x00, 0x00, 0x04, 0x10, 0x00,
   0x00, 0x82, 0x20, 0x00, 0x00, 0xc1, 0x41, 0x00, 0x80, 0xa0, 0x82, 0x00,
   0x40, 0x90, 0x04, 0x01, 0x20, 0x88, 0x08, 0x02, 0x10, 0x84, 0x10, 0x04,
   0x08, 0x42, 0x21, 0x08, 0x04, 0x21, 0x22, 0x10, 0x02, 0x11, 0xfc, 0x20,
   0x11, 0x09, 0x02, 0x41, 0x0a, 0x05, 0x01, 0x82, 0x04, 0x83, 0x0c, 0x44,
   0x08, 0x81, 0x13, 0x28, 0x10, 0x72, 0xfe, 0xf1, 0x20, 0x44, 0x0c, 0xe0,
   0x40, 0x88, 0x00, 0xe0, 0x80, 0x10, 0x01, 0xe0, 0x00, 0xa1, 0x06, 0xe0,
   0x00, 0x42, 0xf8, 0xe7, 0x00, 0x04, 0x40, 0xf8, 0x00, 0x08, 0x20, 0xe0,
   0x00, 0x10, 0x10, 0x00, 0x00, 0x20, 0x08, 0x00, 0x00, 0x40, 0x04, 0x00,
   0x00, 0x80, 0x02, 0x00, 0x00, 0x00, 0x01, 0x00};
