#define flowchart_width 32
#define flowchart_height 32
static char flowchart_bits[] = {
   0x00, 0x80, 0x00, 0x00, 0x00, 0x40, 0x01, 0x00, 0x00, 0x20, 0x02, 0x00,
   0x00, 0x10, 0x04, 0x00, 0x00, 0x88, 0x08, 0x00, 0x00, 0x44, 0x11, 0x00,
   0x00, 0x22, 0x22, 0x00, 0x00, 0x11, 0x44, 0x00, 0x80, 0x08, 0x82, 0x00,
   0x40, 0x10, 0x01, 0x01, 0x20, 0xaa, 0x00, 0x02, 0x10, 0x45, 0x00, 0x04,
   0x88, 0x08, 0x00, 0x08, 0x44, 0x10, 0x00, 0x10, 0x22, 0x08, 0xfc, 0x20,
   0x41, 0x04, 0x02, 0x41, 0x82, 0x02, 0x01, 0x82, 0x04, 0x81, 0x0c, 0x44,
   0x08, 0x81, 0x13, 0x28, 0x10, 0x71, 0xfe, 0xf1, 0xa0, 0x4a, 0x0c, 0xe0,
   0x40, 0x9c, 0x00, 0xe0, 0x80, 0x20, 0x01, 0xe0, 0x00, 0x41, 0x06, 0xe0,
   0x00, 0x82, 0xf8, 0xe7, 0x00, 0x04, 0x41, 0xf8, 0x00, 0x08, 0x22, 0xe0,
   0x00, 0x10, 0x14, 0x00, 0x00, 0x20, 0x08, 0x00, 0x00, 0x40, 0x04, 0x00,
   0x00, 0x80, 0x02, 0x00, 0x00, 0x00, 0x01, 0x00};
