/* XPM */
static const char *const new_xpm[] = {
/* columns rows colors chars-per-pixel */
"16 15 31 1",
". c #7198D9",
"2 c #DCE6F6",
", c #FFFFFF",
"= c #9AB6E4",
"6 c #EAF0FA",
"w c #6992D7",
"0 c #5886D2",
"7 c #F7F9FD",
"5 c #F0F5FC",
"* c #A8C0E8",
"  c None",
"8 c #FDFEFF",
"% c #C4D5F0",
"3 c #E2EAF8",
"+ c #4377CD",
"O c #487BCE",
"; c #6B94D7",
"- c #89A9DF",
": c #5584D1",
"# c #3569BF",
"@ c #3A70CA",
"1 c #D2DFF4",
"> c #3366BB",
"$ c #2E5CA8",
"9 c #FAFCFE",
"4 c #F5F8FD",
"q c #638ED5",
"o c #5282D0",
"& c #B8CCEC",
"X c #376EC9",
"< c #ACE95B",
/* pixels */
"   .XoO+@#$.    ",
"   .%%&*=-O;:   ",
"  >>>>%&*=O,=o  ",
"  ><<>%%&*O,,=o ",
">>><<>>>%&OOo+@ ",
"><<<<<<>1%&*=-@ ",
"><<<<<<>21%&*=@ ",
">>><<>>>321%&*+ ",
"  ><<>456321%&O ",
"  >>>>7456321%o ",
"   .,8974563210 ",
"   .,,897456320 ",
"   .,,,8974563q ",
"   .,,,,897456w ",
"   ............ "
};
