/* XPM */
static char *checkedfolder_xpm[] = {
"16 16 6 1",
" 	c None",
".	c #808080",
"X	c #FFFF00",
"o	c #C0C0C0",
"O	c #FFFFFF",
"+	c #000000",
"                ",
"   .....        ",
"  .XoXoX.       ",
" .XoXoXoX...... ",
" .OOOOOOOOOOOO.+",
" .OXoXoXoXo+oX.+",
" .OoXoXoXo++Xo.+",
" .OXo+oXo+++oX.+",
" .OoX++o+++oXo.+",
" .OXo+++++oXoX.+",
" .OoXo+++oXoXo.+",
" .OXoXo+oXoXoX.+",
" ..............+",
"  ++++++++++++++",
"                ",
"                "};
