/* XPM */
static char *closedfolder_xpm[] = {
/* columns rows colors chars-per-pixel */
"16 16 22 1",
"+ c #B9CDED",
"1 c #608CD4",
"X c #C6D6F0",
"3 c #4A7CCE",
", c #6E96D8",
"@ c #C3D4EF",
"* c #F0F5FC",
"$ c #DAE5F6",
"  c None",
"> c #81A4DD",
"o c #9FB9E5",
"O c #AEC5EA",
"# c #CCDAF2",
": c #89A9DF",
"; c #98B5E4",
"2 c #5584D1",
"& c #E8EFFA",
". c #3366B9",
"- c #FAFCFE",
"= c #F5F8FD",
"% c #DFE8F7",
"< c #E5EDF9",
/* pixels */
"                ",
"  .....         ",
"  .XXXX.        ",
"  ............. ",
"  .oO+@#$%&*=-. ",
"  .oO+@#$%&*=-. ",
"  .;oO+X#$%&*=. ",
"  .:;oO+X#$%&*. ",
"  .>:;oO+X#$%&. ",
"  .,>:;oO+X#$<. ",
"  .1,>:;oO+X#$. ",
"  .21,>:;oO+X#. ",
"  .321,>:;oO+X. ",
"  ............. ",
"                ",
"                "
};
