/* XPM */
static char *closedfolder_dis_xpm[] = {
"16 16 4 1",
" 	c None",
".	c #808080",
"X	c #C0C0C0",
"o	c #000000",
"                ",
"   .....        ",
"  .XXXXX.       ",
" .XXXXXXX...... ",
" .XXXXXXXXXXXX.o",
" .XXXXXXXXXXXX.o",
" .XXXXXXXXXXXX.o",
" .XXXXXXXXXXXX.o",
" .XXXXXXXXXXXX.o",
" .XXXXXXXXXXXX.o",
" .XXXXXXXXXXXX.o",
" .XXXXXXXXXXXX.o",
" ..............o",
"  oooooooooooooo",
"                ",
"                "};
