/* XPM */
static char *helpcs_xpm[] = {
/* columns rows colors chars-per-pixel */
"16 15 16 1",
"@ c Black",
"% c #000080",
"O c #D34B4B",
". c #0206BA",
"- c #CB2B2B",
"  c None",
"X c #E08080",
"& c #CD3636",
"o c #D04040",
"= c #EDB5B5",
"$ c #C51616",
"+ c #E28B8B",
"; c #C82020",
"* c #E59595",
"# c #C00000",
": c #DD7575",
/* pixels */
" .       XooO+  ",
" .@     ######$ ",
" .%@   $#######&",
" .%%@  ###* O###",
" .%%%@  =X  -##&",
" .%%%%@    ;##$ ",
" .%%%%%@  $##-  ",
" .%%%%%%%:##;   ",
" .%%%@          ",
" .. %%    oo    ",
" .   %@  o##o   ",
"     %@  o##o   ",
"      %@  oo    ",
"      %@        ",
"                "
};
