/* XPM */
static char * radiooff_xpm[] = {
"16 16 4 1",
" 	c None",
".	c #808080",
"X	c Black",
"o	c #c0c0c0",
"                ",
"                ",
"      ....      ",
"    ..XXXX..    ",
"   .XX    XXo   ",
"   .X      oo   ",
"  .X        oo  ",
"  .X        oo  ",
"  .X        oo  ",
"  .X        oo  ",
"   .X      oo   ",
"   .oo    ooo   ",
"    oooooooo    ",
"      oooo      ",
"                ",
"                "};
