/* XPM */
static char * radioon_dis_xpm[] = {
"16 16 4 1",
" 	c None",
".	c #808080",
"X	c Black",
"o	c #c0c0c0",
"                ",
"                ",
"      ....      ",
"    ..XXXX..    ",
"   .XXooooXXo   ",
"   .Xoooooooo   ",
"  .Xooo..ooooo  ",
"  .Xoo....oooo  ",
"  .Xoo....oooo  ",
"  .Xooo..ooooo  ",
"   .Xoooooooo   ",
"   .ooooooooo   ",
"    oooooooo    ",
"      oooo      ",
"                ",
"                "};
