/* XPM */
static char * radiooff_dis_xpm[] = {
"16 16 4 1",
" 	c None",
".	c #808080",
"X	c Black",
"o	c #c0c0c0",
"                ",
"                ",
"      ....      ",
"    ..XXXX..    ",
"   .XXooooXXo   ",
"   .Xoooooooo   ",
"  .Xoooooooooo  ",
"  .Xoooooooooo  ",
"  .Xoooooooooo  ",
"  .Xoooooooooo  ",
"   .Xoooooooo   ",
"   .ooooooooo   ",
"    oooooooo    ",
"      oooo      ",
"                ",
"                "};
