/* XPM */
static char *radiofolderon_xpm[] = {
"16 16 6 1",
" 	c None",
".	c #808080",
"X	c #FFFF00",
"o	c #C0C0C0",
"O	c #FFFFFF",
"+	c #000000",
"                ",
"   .....        ",
"  .XoXoX.       ",
" .XoXoXoX...... ",
" .OOOOOOOOOOOO.+",
" .OXoX...XoXoX.+",
" .OoX.OOO.XoXo.+",
" .OX.O+++O.XoX.+",
" .Oo.O+++O.oXo.+",
" .OX.O+++O.XoX.+",
" .OoX.OOO.XoXo.+",
" .OXoX...XoXoX.+",
" ..............+",
"  ++++++++++++++",
"                ",
"                "};
