/* XPM */
static char *radiofolderon_dis_xpm[] = {
"16 16 4 1",
" 	c None",
".	c #808080",
"X	c #C0C0C0",
"o	c #000000",
"                ",
"   .....        ",
"  .XXXXX.       ",
" .XXXXXXX...... ",
" .XXXXXXXXXXXX.o",
" .XXXX...XXXXX.o",
" .XXX.XXX.XXXX.o",
" .XX.X...X.XXX.o",
" .XX.X...X.XXX.o",
" .XX.X...X.XXX.o",
" .XXX.XXX.XXXX.o",
" .XXXX...XXXXX.o",
" ..............o",
"  oooooooooooooo",
"                ",
"                "};
