/* XPM */
static char *uncheckedfolder_dis_xpm[] = {
/* columns rows colors chars-per-pixel */
"16 16 4 1",
". c #547897",
"o c #808080",
"  c None",
"X c #C0C0C0",
/* pixels */
"                ",
"  .....         ",
"  .XXXX.        ",
"  ............. ",
"  .XXXXXXXXXXX. ",
"  .XXXXXXXXXXX. ",
"  .XXooXXooXXX. ",
"  .XXXooooXXXX. ",
"  .XXXXooXXXXX. ",
"  .XXXooooXXXX. ",
"  .XXooXXooXXX. ",
"  .XXXXXXXXXXX. ",
"  .XXXXXXXXXXX. ",
"  ............. ",
"                ",
"                "
};
