/* XPM */
static const char * alignt_xpm[] = {
/* columns rows colors chars-per-pixel */
"16 15 3 1",
"  c None",
". c Black",
"X c Yellow",
/* pixels */
"                ",
" .....  ........",
" .XXX.  .XXXXXX.",
" .XXX.  .XXXXXX.",
" .XXX.  .XXXXXX.",
" .XXX.  .XXXXXX.",
" .....  .XXXXXX.",
"        .XXXXXX.",
"        .XXXXXX.",
"        .XXXXXX.",
"        .XXXXXX.",
"        .XXXXXX.",
"        ........",
"                ",
"                "
};
