/* XPM */
static const char * redo_xpm[] = {
/* columns rows colors chars-per-pixel */
"16 15 37 1",
"2 c #4E7FD0",
"i c #3365B7",
"e c #8DADE1",
": c #3162B3",
", c #4A7CCE",
"% c #779DDB",
"6 c #7FA2DD",
"0 c #6992D7",
"3 c #6E96D8",
"7 c #356AC1",
". c #9BB7E5",
"@ c #5886D2",
"u c #BED0EE",
"r c #C3D4EF",
"5 c #85A7DF",
"+ c #ADC4E9",
"y c #DAE5F6",
"  c None",
"O c #487BCE",
"t c #9FB9E5",
"o c #254A87",
"w c #AEC5EA",
"q c #89A9DF",
"8 c #98B5E4",
"> c #3A70CA",
"- c #3569BF",
"& c #305FAC",
"1 c #5D89D3",
"= c #3366B9",
"9 c #2E5CA8",
"< c #638ED5",
"4 c #3467BC",
"X c #2F5DA9",
"# c #2A5398",
"$ c #376EC9",
"* c #2D5AA5",
"; c #8CACE0",
/* pixels */
"  .XoooO+       ",
" @o#####o$    @ ",
"%#&&*#*&&*#  @o ",
"X=-#@;@#=-:#$*# ",
"#>-@    #->-=># ",
"*,>%     #>,,,# ",
"*<1X     X,<<<* ",
"@234;   #13333* ",
" X56X  $#7O155X ",
" O2869    .0$*o ",
"  :qwe9         ",
"   9.rt9        ",
"    9+y@u       ",
"     i$$        ",
"                "
};
