/* XPM */
static char *tofront_xpm[] = {
/* columns rows colors chars-per-pixel */
"16 15 4 1",
"  c None",
". c Black",
"X c #808080",
"o c Yellow",
/* pixels */
" .......        ",
" .XXXXX.        ",
" .XX.........   ",
" .XX.ooooooo.   ",
" .XX.ooooooo.   ",
" .XX.ooooooo.   ",
" ....ooooooo.   ",
"    .ooooooo....",
"    .ooooooo.XX.",
"    .ooooooo.XX.",
"    .........XX.",
"         .XXXXX.",
"         .XXXXX.",
"         .......",
"                "
};
