/* XPM */
static const char * undo_xpm[] = {
/* columns rows colors chars-per-pixel */
"16 15 37 1",
"4 c #4E7FD0",
"i c #3365B7",
"q c #8DADE1",
"= c #3162B3",
", c #4A7CCE",
"* c #779DDB",
"7 c #7FA2DD",
"8 c #6992D7",
"2 c #6E96D8",
"6 c #356AC1",
"+ c #9BB7E5",
"@ c #5886D2",
"y c #BED0EE",
"t c #C3D4EF",
"5 c #85A7DF",
". c #ADC4E9",
"u c #DAE5F6",
"  c None",
"X c #487BCE",
"r c #9FB9E5",
"o c #254A87",
"w c #AEC5EA",
"e c #89A9DF",
"0 c #98B5E4",
"> c #3A70CA",
"- c #3569BF",
"& c #305FAC",
"1 c #5D89D3",
"; c #3366B9",
"9 c #2E5CA8",
"< c #638ED5",
"3 c #3467BC",
"O c #2F5DA9",
"$ c #2A5398",
"# c #376EC9",
"% c #2D5AA5",
": c #8CACE0",
/* pixels */
"      .XoooO+   ",
"@    #o$$$$$o@  ",
"o@  $%&&%$%&&$* ",
"$%#$=-;$@:@$-;O ",
"$>;->-$    @->$ ",
"$,,,>$     *>,% ",
"%<<<,O     O1<% ",
"%22221$   :324@ ",
"O551X6$#  O75O  ",
"o%#8+    9704X  ",
"        9qwe=   ",
"       9rt+9    ",
"      y@u.9     ",
"       ##i      ",
"                "
};
