/* XPM */
static const char * mondrian_xpm[] = {
/* columns rows colors chars-per-pixel */
"32 32 7 1",
"  c Black",
". c Blue",
"X c #00bf00",
"o c Red",
"O c Yellow",
"+ c Gray100",
"a c None",
/* pixels */
"                                ",
" oooooo +++++++++++++++++++++++ ",
" oooooo +++++++++++++++++++++++ ",
" oooooo +++++++++++++++++++++++ ",
" oooooo +++++++++++++++++++++++ ",
" oooooo +++++++++++++++++++++++ ",
" oooooo +++++++++++++++++++++++ ",
" oooooo +++++++++++++++++++++++ ",
"                                ",
" ++++++ ++++++++++++++++++ .... ",
" ++++++ ++++++++++++++++++ .... ",
" ++++++ +aaaaaaaaaaaaaaaa+ .... ",
" ++++++ +aaaaaaaaaaaaaaaa+ .... ",
" ++++++ ++++++++++++++++++ .... ",
" ++++++ +aaaaaaaaaaaaaaaa+      ",
" ++++++ +aaaaaaaaaaaaaaaa+ ++++ ",
" ++++++ +aaaaaaaaaaaaaaaa+ ++++ ",
" ++++++ +aaaaaaaaaaaaaaaa+ ++++ ",
" ++++++ ++++++++++++++++++ ++++ ",
" ++++++ ++++++++++++++++++ ++++ ",
" ++++++ ++++++++++++++++++ ++++ ",
" ++++++ ++++++++++++++++++ ++++ ",
" ++++++ ++++++++++++++++++ ++++ ",
" ++++++ ++++++++++++++++++ ++++ ",
" ++++++                    ++++ ",
" ++++++ OOOOOOOOOOOO XXXXX ++++ ",
" ++++++ OOOOOOOOOOOO XXXXX ++++ ",
" ++++++ OOOOOOOOOOOO XXXXX ++++ ",
" ++++++ OOOOOOOOOOOO XXXXX ++++ ",
" ++++++ OOOOOOOOOOOO XXXXX ++++ ",
" ++++++ OOOOOOOOOOOO XXXXX ++++ ",
"                                "
};
