/* XPM */
static char * error_xpm[] = {
"48 48 471 2",
"  	c None",
". 	c #FD3819",
"+ 	c #FD3319",
"@ 	c #FA3019",
"# 	c #F33119",
"$ 	c #EE301A",
"% 	c #EB311B",
"& 	c #E9301A",
"* 	c #E9321C",
"= 	c #EB331E",
"- 	c #FF3A1A",
"; 	c #FF3318",
"> 	c #ED2E17",
", 	c #D32914",
"' 	c #C32714",
") 	c #BA2614",
"! 	c #B52514",
"~ 	c #B22514",
"{ 	c #B12615",
"] 	c #B42717",
"^ 	c #BC2A18",
"/ 	c #C62C1A",
"( 	c #CD2E1C",
"_ 	c #CF2F1C",
": 	c #FF3216",
"< 	c #DD2A14",
"[ 	c #C32613",
"} 	c #B32311",
"| 	c #AE2312",
"1 	c #AB2313",
"2 	c #A82212",
"3 	c #A52212",
"4 	c #961F11",
"5 	c #952011",
"6 	c #A22314",
"7 	c #A72516",
"8 	c #A92718",
"9 	c #AB2719",
"0 	c #B32A1A",
"a 	c #BD2C1D",
"b 	c #B52A1C",
"c 	c #FD3518",
"d 	c #EB2D14",
"e 	c #C32512",
"f 	c #B12311",
"g 	c #AC2211",
"h 	c #A92211",
"i 	c #A82312",
"j 	c #A62212",
"k 	c #9F2112",
"l 	c #A32313",
"m 	c #A72415",
"n 	c #A62617",
"o 	c #A32518",
"p 	c #A62718",
"q 	c #A62719",
"r 	c #A8291B",
"s 	c #AD2A1B",
"t 	c #AB291C",
"u 	c #FE3317",
"v 	c #D82914",
"w 	c #B92311",
"x 	c #A92111",
"y 	c #A72212",
"z 	c #962011",
"A 	c #A02214",
"B 	c #A72517",
"C 	c #A62618",
"D 	c #A2271A",
"E 	c #A5281B",
"F 	c #A5291B",
"G 	c #A82A1D",
"H 	c #A5291D",
"I 	c #FF3417",
"J 	c #D02813",
"K 	c #B32310",
"L 	c #A92110",
"M 	c #A82211",
"N 	c #A82313",
"O 	c #A42313",
"P 	c #9B2013",
"Q 	c #A62517",
"R 	c #AB3326",
"S 	c #A5281A",
"T 	c #A2281C",
"U 	c #A42A1D",
"V 	c #98271C",
"W 	c #FD3517",
"X 	c #D52913",
"Y 	c #A82314",
"Z 	c #A72414",
"` 	c #A42415",
" .	c #9D2214",
"..	c #A02416",
"+.	c #A52516",
"@.	c #A52719",
"#.	c #AA3427",
"$.	c #AA3428",
"%.	c #A4291C",
"&.	c #9B281C",
"*.	c #A1291D",
"=.	c #A1291E",
"-.	c #9E2A1E",
";.	c #852319",
">.	c #FC391A",
",.	c #E22B15",
"'.	c #B62412",
").	c #AC3021",
"!.	c #AC3022",
"~.	c #9C2316",
"{.	c #992416",
"].	c #A22618",
"^.	c #A5271A",
"/.	c #AA3529",
"(.	c #A93529",
"_.	c #A9362A",
":.	c #A42A1E",
"<.	c #A42B1E",
"[.	c #A02A1F",
"}.	c #A02A20",
"|.	c #99291E",
"1.	c #671C16",
"2.	c #FC3017",
"3.	c #BE2512",
"4.	c #AA2F20",
"5.	c #A92F20",
"6.	c #AC3123",
"7.	c #A02518",
"8.	c #962417",
"9.	c #9C2518",
"0.	c #A5291C",
"a.	c #A9362B",
"b.	c #A9372B",
"c.	c #A32B1F",
"d.	c #A32C20",
"e.	c #A02B20",
"f.	c #9E2A20",
"g.	c #8C271D",
"h.	c #FA3619",
"i.	c #AE2212",
"j.	c #A82414",
"k.	c #941F12",
"l.	c #9E2E20",
"m.	c #AB3224",
"n.	c #AB3225",
"o.	c #A3271A",
"p.	c #942417",
"q.	c #962418",
"r.	c #A1281C",
"s.	c #A42B1F",
"t.	c #A8372C",
"u.	c #A8382D",
"v.	c #A32C21",
"w.	c #A02C20",
"x.	c #A02C21",
"y.	c #962920",
"z.	c #5B1A13",
"A.	c #FA3118",
"B.	c #BB2513",
"C.	c #A42212",
"D.	c #981F11",
"E.	c #9D2314",
"F.	c #AA3326",
"G.	c #A3281B",
"H.	c #922519",
"I.	c #902419",
"J.	c #9D271B",
"K.	c #A8382E",
"L.	c #A8392E",
"M.	c #A22D22",
"N.	c #A02D22",
"O.	c #9B2C21",
"P.	c #7D231C",
"Q.	c #DD2D17",
"R.	c #AF2413",
"S.	c #A62213",
"T.	c #9C2112",
"U.	c #AA3327",
"V.	c #AF3F33",
"W.	c #A2291C",
"X.	c #99271B",
"Y.	c #92251B",
"Z.	c #9B281D",
"`.	c #A22D21",
" +	c #A7392F",
".+	c #A93F2F",
"++	c #A12F22",
"@+	c #A02E23",
"#+	c #88281F",
"$+	c #300E0B",
"%+	c #F6361B",
"&+	c #C72816",
"*+	c #A92413",
"=+	c #D48D1D",
"-+	c #E4AF21",
";+	c #E3AF22",
">+	c #E1AE24",
",+	c #E0AD25",
"'+	c #DFAE28",
")+	c #DEAD29",
"!+	c #DDA82A",
"~+	c #DDAC2A",
"{+	c #DEB139",
"]+	c #DFB445",
"^+	c #DDB03A",
"/+	c #DAAC2F",
"(+	c #D9A832",
"_+	c #D9AC32",
":+	c #D8A733",
"<+	c #D2A332",
"[+	c #C89B30",
"}+	c #D1A333",
"|+	c #D4A637",
"1+	c #D3A638",
"2+	c #C1782E",
"3+	c #A12D22",
"4+	c #9F2E24",
"5+	c #902B22",
"6+	c #41130F",
"7+	c #F7321B",
"8+	c #BD2716",
"9+	c #DCAD2D",
"0+	c #DBAC2E",
"a+	c #DAAE39",
"b+	c #DBAF3A",
"c+	c #DBAD3E",
"d+	c #D7A734",
"e+	c #D5A634",
"f+	c #D2A436",
"g+	c #D3A63A",
"h+	c #D2A539",
"i+	c #A12F25",
"j+	c #9F2F25",
"k+	c #952C23",
"l+	c #4D1712",
"m+	c #F1321B",
"n+	c #B52615",
"o+	c #E2B232",
"p+	c #DAA82F",
"q+	c #D5A82E",
"r+	c #D1A230",
"s+	c #D9AB3E",
"t+	c #DAAC3F",
"u+	c #D6A735",
"v+	c #D1A53C",
"w+	c #A13026",
"x+	c #9F2F26",
"y+	c #962E24",
"z+	c #571B15",
"A+	c #020303",
"B+	c #EE321B",
"C+	c #E0B234",
"D+	c #DFB135",
"E+	c #D3A332",
"F+	c #D0A131",
"G+	c #D5A533",
"H+	c #D8AC40",
"I+	c #C79D37",
"J+	c #C59C39",
"K+	c #C49C3A",
"L+	c #A13027",
"M+	c #9E3026",
"N+	c #942D25",
"O+	c #581B16",
"P+	c #010202",
"Q+	c #E4311B",
"R+	c #B12617",
"S+	c #DFAD36",
"T+	c #DFB036",
"U+	c #D3A433",
"V+	c #CC9F32",
"W+	c #D2A435",
"X+	c #D6AB42",
"Y+	c #D5AB43",
"Z+	c #D0A53D",
"`+	c #D0A53F",
" @	c #A03127",
".@	c #9E3027",
"+@	c #912D25",
"@@	c #4E1814",
"#@	c #000101",
"$@	c #DF301C",
"%@	c #B12718",
"&@	c #CC9D30",
"*@	c #D1A436",
"=@	c #CA9E34",
"-@	c #CFA337",
";@	c #D4AA44",
">@	c #D3AA47",
",@	c #CFA53E",
"'@	c #CFA540",
")@	c #A03128",
"!@	c #9E3128",
"~@	c #892B24",
"{@	c #3D130F",
"]@	c #D02E1B",
"^@	c #B62819",
"/@	c #CD8622",
"(@	c #DCB03B",
"_@	c #CB9D31",
":@	c #D1A437",
"<@	c #CBA037",
"[@	c #CFA338",
"}@	c #D2AA48",
"|@	c #C18138",
"1@	c #A03229",
"2@	c #9A3029",
"3@	c #7F2821",
"4@	c #240B0A",
"5@	c #B72819",
"6@	c #BA2B1A",
"7@	c #A32618",
"8@	c #9C271B",
"9@	c #9A261B",
"0@	c #A9372C",
"a@	c #9A2B1F",
"b@	c #992B20",
"c@	c #A22E23",
"d@	c #992C21",
"e@	c #992C22",
"f@	c #A02E24",
"g@	c #9C2D23",
"h@	c #A53D34",
"i@	c #9D3129",
"j@	c #953028",
"k@	c #6C221D",
"l@	c #0D0404",
"m@	c #C72E1D",
"n@	c #AB281A",
"o@	c #98271B",
"p@	c #95261B",
"q@	c #9F291E",
"r@	c #A6362B",
"s@	c #A32D21",
"t@	c #902A1F",
"u@	c #A22F24",
"v@	c #982D23",
"w@	c #A02F25",
"x@	c #9D2F26",
"y@	c #9F3026",
"z@	c #A53E35",
"A@	c #9F332A",
"B@	c #9D322A",
"C@	c #8B2C26",
"D@	c #4E1915",
"E@	c #010101",
"F@	c #AE281A",
"G@	c #AD291B",
"H@	c #A2271B",
"I@	c #99281C",
"J@	c #9E291F",
"K@	c #9A291E",
"L@	c #A2362C",
"M@	c #A22E24",
"N@	c #87281E",
"O@	c #8A291F",
"P@	c #982D24",
"Q@	c #9C2F26",
"R@	c #9F3128",
"S@	c #A23E36",
"T@	c #983129",
"U@	c #752620",
"V@	c #1D0908",
"W@	c #020202",
"X@	c #6B1B12",
"Y@	c #B42C1D",
"Z@	c #A8291C",
"`@	c #9A2A1E",
" #	c #A22B20",
".#	c #A3382E",
"+#	c #A1372D",
"@#	c #9C2C21",
"##	c #9F2D23",
"$#	c #A12F24",
"%#	c #9A2C23",
"&#	c #9D2F25",
"*#	c #972D25",
"=#	c #9D3027",
"-#	c #9E3129",
";#	c #9F332B",
">#	c #9F3E36",
",#	c #8F3832",
"'#	c #4E1A16",
")#	c #8A2216",
"!#	c #AD2B1D",
"~#	c #A4291D",
"{#	c #A73A2F",
"]#	c #A02D23",
"^#	c #9D2E23",
"/#	c #972E26",
"(#	c #9F322A",
"_#	c #9E3229",
":#	c #9D332B",
"<#	c #8F2F28",
"[#	c #66221D",
"}#	c #100605",
"|#	c #A12A1F",
"1#	c #A63B31",
"2#	c #972F27",
"3#	c #9C322A",
"4#	c #94302A",
"5#	c #722620",
"6#	c #270D0B",
"7#	c #3A0F0B",
"8#	c #9C281C",
"9#	c #9F3930",
"0#	c #8F2A22",
"a#	c #982E25",
"b#	c #963028",
"c#	c #963029",
"d#	c #772822",
"e#	c #361210",
"f#	c #030303",
"g#	c #330D09",
"h#	c #8B251C",
"i#	c #9B2A1F",
"j#	c #A23B32",
"k#	c #90362F",
"l#	c #982E26",
"m#	c #A0322A",
"n#	c #9D332A",
"o#	c #9A322A",
"p#	c #8D2E28",
"q#	c #6D241F",
"r#	c #33100E",
"s#	c #1D0907",
"t#	c #6E1E16",
"u#	c #96291F",
"v#	c #9D2B21",
"w#	c #9F2E23",
"x#	c #9D3A32",
"y#	c #943029",
"z#	c #832C25",
"A#	c #5C1F1B",
"B#	c #1E0A08",
"C#	c #000000",
"D#	c #41130E",
"E#	c #85251C",
"F#	c #912920",
"G#	c #972C22",
"H#	c #9C2D24",
"I#	c #9E3127",
"J#	c #A23D35",
"K#	c #9D3229",
"L#	c #9A312A",
"M#	c #933028",
"N#	c #832B24",
"O#	c #6B241E",
"P#	c #401512",
"Q#	c #070302",
"R#	c #0C0403",
"S#	c #37100D",
"T#	c #681E17",
"U#	c #81261E",
"V#	c #8B2921",
"W#	c #8F2B23",
"X#	c #942E26",
"Y#	c #902D26",
"Z#	c #842A24",
"`#	c #5C1E1A",
" $	c #36120F",
".$	c #0D0504",
"+$	c #170706",
"@$	c #2D0E0B",
"#$	c #401310",
"$$	c #4E1813",
"%$	c #581C17",
"&$	c #401411",
"*$	c #2B0E0C",
"=$	c #140706",
"-$	c #030202",
"                                                                                                ",
"                                                                                                ",
"                                                                                                ",
"                                                                                                ",
"                                                                                                ",
"                                                                                                ",
"                                                                                                ",
"                                                                                                ",
"                                      . + @ # $ % & * =                                         ",
"                                - ; > , ' ) ! ~ ~ { ] ^ / ( _                                   ",
"                              : < [ } | 1 2 3 4 5 6 7 7 8 9 0 a b                               ",
"                          c d e f g h 2 i j k l m 7 7 n o p q r s t                             ",
"                        u v w g x h 2 y j z A m 7 B n C q q D E F G H                           ",
"                      I J K L x M 2 N N O P O 7 Q n C R R S E F T U U V                         ",
"                    W X f L h 2 2 N Y Z m `  ...+.C q @.#.$.F %.&.*.=.-.;.                      ",
"                  >.,.'.L h 2 i N Y ).!.7 7 +.~.{.].^.S E /.(._.:.<.[.}.|.1.                    ",
"                  2.3.g h 2 i N 4.5.m 6.6.n C p 7.8.9.E 0.%.U a.b.c.d.e.f.g.                    ",
"                h., i.M 2 N N j.k.l.6.B m.n.q q S o.p.q.r.U :.s.t.u.v.w.x.y.z.                  ",
"                A.B.M 2 C.D.Z m E.7 Q m.n.R F.S E F G.H.I.J.s.c.d.K.L.M.N.O.P.                  ",
"                Q.R.y N S.T.m 7 7 n C C R U.V.$.0.%.U W.X.Y.Z.d.v.`. +.+++@+#+$+                ",
"              %+&+*+=+-+-+;+>+>+,+'+'+)+!+~+{+]+^+/+(+_+:+<+[+}+|+|+1+2+3+4+5+6+                ",
"              7+8+N -+;+;+>+>+,+'+'+)+~+~+9+0+a+b+c+_+:+d+d+e+f+|+1+g+h+i+j+k+l+                ",
"              m+n+Z ;+;+>+o+,+'+)+)+~+9+9+0+p+q+r+s+t+d+u+u+|+1+1+g+v+v+w+x+y+z+A+              ",
"              B+{ m ;+>+,+,+C+D+)+~+9+9+0+/+/+(+E+F+G+H+H+|+1+1+I+J+J+K+L+M+N+O+P+              ",
"              Q+R+7 >+,+'+'+)+S+T+9+0+0+/+(+_+:+d+U+V+W+X+Y+Y+g+v+v+Z+`+ @.@+@@@#@              ",
"              $@%@7 ,+'+'+)+~+~+{+^+0+/+(+_+&@d+d+u+*@=@-@g+;@>@Z+Z+,@'@)@!@~@{@#@              ",
"              ]@^@n /@)+)+~+~+9+0+^+(@(+_+:+_@_@u+|+|+:@<@[@v+}@}@,@'@|@1@2@3@4@#@              ",
"              5@6@C 7@q S E F 8@9@U a.0@c.d.v.a@b@c@d@e@f@g@j+L+ @h@1@1@i@j@k@l@P+              ",
"                m@n@@.S E F %.U o@p@q@r@d.v.s@M.t@t@u@v@i+w@x@y@)@1@z@A@B@C@D@E@A+              ",
"                F@G@S H@0.%.U :.<.I@J@K@L@x.M.c@M@N@O@P@P@L+y@Q@R@1@A@S@T@U@V@W@                ",
"                X@Y@Z@0.%.U :.<.c.d.`@ #.#+#@###$#%#&#w+*#)@)@=#-#A@;#>#,#'#E@A+                ",
"                  )#!#~#*.:.<.c.d.d.a@b@M.{#]#^#f@w+w+ @/#/#1@(#_#;#:#<#[#}#W@A+                ",
"                    8@U =.|#c.d.v.s@M.d@d@M@1#i+w+L+ @)@1@2#(#;#;#3#4#5#6#E@A+                  ",
"                    7#8#[.[.e.v.s@M.c@c@u@i+1#9#0#a#)@1@1@b#c#;#:#4#d#e#E@W@f#                  ",
"                      g#h#i#e.x.x.c@M@$#i+w+P@j#k#l#1@m#A@;#n#o#p#q#r#E@W@A+                    ",
"                        s#t#u#v#N.]#w#i+w+w+ @/#x#z@(#A@B@o#y#z#A#B#E@W@A+                      ",
"                          C#D#E#F#G#H#j+j+M+.@I#!@J#K#L#M#N#O#P#Q#W@W@A+                        ",
"                            C#R#S#T#U#V#W#N+X#X#Y#C@Z#U@`# $.$E@W@W@f#                          ",
"                                f#W@+$@$#$$$O+%$D@&$*$=$-$W@W@W@A+                              ",
"                                  f#f#W@W@W@W@W@W@W@W@W@W@W@A+f#                                ",
"                                        f#f#E@E@A+#@f#f#f#                                      ",
"                                                                                                ",
"                                                                                                ",
"                                                                                                ",
"                                                                                                ",
"                                                                                                ",
"                                                                                                ",
"                                                                                                "};
