/* XPM */
static char * info_xpm[] = {
"48 48 423 2",
"  	c None",
". 	c #FEFEFE",
"+ 	c #FFFFFF",
"@ 	c #F1F1F1",
"# 	c #CACACA",
"$ 	c #CBCBCB",
"% 	c #EDEDED",
"& 	c #999999",
"* 	c #4B4B4B",
"= 	c #131313",
"- 	c #2E2E2E",
"; 	c #393732",
"> 	c #423F36",
", 	c #242119",
"' 	c #282828",
") 	c #626262",
"! 	c #C2C2C2",
"~ 	c #FAFAFA",
"{ 	c #2D2D2D",
"] 	c #736F61",
"^ 	c #E0CE8A",
"/ 	c #EFDD8F",
"( 	c #F4E298",
"_ 	c #F4E191",
": 	c #F3E093",
"< 	c #ECD78C",
"[ 	c #D8C78E",
"} 	c #B7AA7C",
"| 	c #9B8C5A",
"1 	c #5F5C4F",
"2 	c #B6B6B6",
"3 	c #FEFEFD",
"4 	c #A1A1A1",
"5 	c #1E1E1E",
"6 	c #C2BEAF",
"7 	c #F1DC92",
"8 	c #F5E190",
"9 	c #F7E7A5",
"0 	c #F8EAAE",
"a 	c #F9E9A7",
"b 	c #F8E795",
"c 	c #F8E796",
"d 	c #F5E49C",
"e 	c #EBDB99",
"f 	c #E2CD7F",
"g 	c #D7C480",
"h 	c #21201E",
"i 	c #838383",
"j 	c #F9F9F9",
"k 	c #DDD9CA",
"l 	c #EFD986",
"m 	c #EFDA8E",
"n 	c #F8EAAF",
"o 	c #F9F0C7",
"p 	c #FAF5DE",
"q 	c #FAF3D0",
"r 	c #FAEAA6",
"s 	c #F9E89E",
"t 	c #F8E793",
"u 	c #F7E493",
"v 	c #EFDD93",
"w 	c #E5D187",
"x 	c #DFD2A9",
"y 	c #595958",
"z 	c #939393",
"A 	c #474747",
"B 	c #BAB6A9",
"C 	c #F5E4A3",
"D 	c #F4DE87",
"E 	c #F4E7B2",
"F 	c #F9F5E3",
"G 	c #FAF6E6",
"H 	c #FBF8ED",
"I 	c #FBF9EF",
"J 	c #FAF8EC",
"K 	c #FAF3DA",
"L 	c #F9E99B",
"M 	c #F8E791",
"N 	c #F6E38F",
"O 	c #EFDD92",
"P 	c #DFCB80",
"Q 	c #D7C896",
"R 	c #333333",
"S 	c #C9C9C9",
"T 	c #B4B4B4",
"U 	c #545454",
"V 	c #F0DD9C",
"W 	c #F3DF8D",
"X 	c #F7E69F",
"Y 	c #F8EFCF",
"Z 	c #FAF5E5",
"` 	c #F9F4E2",
" .	c #FBF6E7",
"..	c #FAF5E7",
"+.	c #FAF6E9",
"@.	c #FAEDB7",
"#.	c #F9E89B",
"$.	c #F8E691",
"%.	c #F5E391",
"&.	c #E8D68B",
"*.	c #D1BC70",
"=.	c #A29C84",
"-.	c #525252",
";.	c #848484",
">.	c #989585",
",.	c #EED681",
"'.	c #F5E293",
").	c #F8E8A9",
"!.	c #FAF4E1",
"~.	c #FAF6E7",
"{.	c #F9F5E4",
"].	c #F9F5E6",
"^.	c #F7EEC3",
"/.	c #F7E7A0",
"(.	c #F7E691",
"_.	c #F7E58F",
":.	c #F1E08E",
"<.	c #DBC878",
"[.	c #C6B677",
"}.	c #2A2A27",
"|.	c #DADADA",
"1.	c #646464",
"2.	c #C1B999",
"3.	c #EFD882",
"4.	c #F6E499",
"5.	c #F8EDBA",
"6.	c #FAF5E4",
"7.	c #FBF5E6",
"8.	c #FAF5E6",
"9.	c #F9F1DB",
"0.	c #F9F4E3",
"a.	c #F8F2DB",
"b.	c #F6EBBE",
"c.	c #F6E6A0",
"d.	c #F3E290",
"e.	c #E4D07E",
"f.	c #C1AE67",
"g.	c #646159",
"h.	c #A0A0A0",
"i.	c #EFD881",
"j.	c #F6E498",
"k.	c #FAF6E8",
"l.	c #F9F5E5",
"m.	c #F8F2DE",
"n.	c #F7EFD0",
"o.	c #F5E9C2",
"p.	c #F4E5A0",
"q.	c #F7E695",
"r.	c #F3E295",
"s.	c #E6D27E",
"t.	c #C6B36A",
"u.	c #79766C",
"v.	c #7B7B7B",
"w.	c #636363",
"x.	c #B8B095",
"y.	c #FBF8EE",
"z.	c #FAF7EB",
"A.	c #F9F6E5",
"B.	c #F9F6EA",
"C.	c #F9F4E0",
"D.	c #F4EAC9",
"E.	c #F7EBB1",
"F.	c #F5E7A2",
"G.	c #F6E697",
"H.	c #F6E59B",
"I.	c #F2E093",
"J.	c #E7D480",
"K.	c #CCB96E",
"L.	c #797157",
"M.	c #949494",
"N.	c #818181",
"O.	c #898782",
"P.	c #F0DC91",
"Q.	c #F6E496",
"R.	c #F7EAAF",
"S.	c #FBF7EC",
"T.	c #F9F6E7",
"U.	c #FAF5E8",
"V.	c #FBF7ED",
"W.	c #FAEEBB",
"X.	c #F8ECB8",
"Y.	c #F4EACA",
"Z.	c #F3E6A3",
"`.	c #F6E593",
" +	c #F6E493",
".+	c #F2E090",
"++	c #E4D17E",
"@+	c #C4B269",
"#+	c #6D664D",
"$+	c #A5A5A5",
"%+	c #BFBFBF",
"&+	c #464646",
"*+	c #EDD990",
"=+	c #F2DC8A",
"-+	c #F7E8A6",
";+	c #FAF4D9",
">+	c #F8F1DB",
",+	c #F9F4E7",
"'+	c #F9EFCB",
")+	c #FAECAF",
"!+	c #F5E7B2",
"~+	c #EDE7BA",
"{+	c #F2E29A",
"]+	c #F6E591",
"^+	c #F5E393",
"/+	c #EFDC8B",
"(+	c #D9C677",
"_+	c #AB9B5B",
":+	c #201D13",
"<+	c #D5D5D5",
"[+	c #FCFCFC",
"}+	c #FDFDFC",
"|+	c #6F6F6F",
"1+	c #9B9584",
"2+	c #F1DC86",
"3+	c #F6E59D",
"4+	c #FAF2D3",
"5+	c #FBF7EA",
"6+	c #F9F4E5",
"7+	c #FAF3E5",
"8+	c #F8ECB9",
"9+	c #F6E7A7",
"0+	c #F3E7AD",
"a+	c #F1E3A4",
"b+	c #F4E395",
"c+	c #EADA91",
"d+	c #E4D07F",
"e+	c #CDBC70",
"f+	c #817959",
"g+	c #4E4E4E",
"h+	c #DEDEDD",
"i+	c #3E3E3E",
"j+	c #EEDA8D",
"k+	c #F7E8A7",
"l+	c #FAF2D2",
"m+	c #FAF7EA",
"n+	c #F9F4E6",
"o+	c #F7EED9",
"p+	c #F1E6AD",
"q+	c #F4E49D",
"r+	c #F2E4A1",
"s+	c #F1E19B",
"t+	c #F0DF92",
"u+	c #E5D48D",
"v+	c #DBC97E",
"w+	c #D9C577",
"x+	c #B9A964",
"y+	c #4F4938",
"z+	c #A7A7A7",
"A+	c #FDFDFD",
"B+	c #262626",
"C+	c #F2E097",
"D+	c #F9EBB1",
"E+	c #FAF3DB",
"F+	c #F8F1DC",
"G+	c #F7EFD8",
"H+	c #F4E9C4",
"I+	c #F3E4A1",
"J+	c #F3E296",
"K+	c #F1E195",
"L+	c #E9DA96",
"M+	c #E6D68C",
"N+	c #DAC87E",
"O+	c #DAC777",
"P+	c #C4B36B",
"Q+	c #958857",
"R+	c #353535",
"S+	c #F4F4F4",
"T+	c #E4E4E4",
"U+	c #434032",
"V+	c #F3DE87",
"W+	c #F8EBB1",
"X+	c #F9F2DB",
"Y+	c #F3EAC1",
"Z+	c #F4E9C1",
"`+	c #F3E6AD",
" @	c #EEDB8B",
".@	c #DCCB84",
"+@	c #D1C076",
"@@	c #D1BF73",
"#@	c #C9B76D",
"$@	c #9D9164",
"%@	c #43433D",
"&@	c #C2C2C1",
"*@	c #4D493C",
"=@	c #EFD782",
"-@	c #F4E9BB",
";@	c #F4E7BB",
">@	c #F1DFA1",
",@	c #F3E3A7",
"'@	c #E3D186",
")@	c #D9C679",
"!@	c #CAB871",
"~@	c #C1B372",
"{@	c #AEA475",
"]@	c #7F7A64",
"^@	c #0B0B0B",
"/@	c #7D7D7D",
"(@	c #6D6D64",
"_@	c #121211",
":@	c #383526",
"<@	c #5F5E59",
"[@	c #5A594C",
"}@	c #A9A077",
"|@	c #E8D48D",
"1@	c #E7D180",
"2@	c #DBC77C",
"3@	c #DBC97C",
"4@	c #BAA864",
"5@	c #8F8255",
"6@	c #3B3724",
"7@	c #0F0E0C",
"8@	c #494949",
"9@	c #BBBBBB",
"0@	c #35352E",
"a@	c #9D9D99",
"b@	c #B4B4B2",
"c@	c #EFEFEE",
"d@	c #DADAD8",
"e@	c #696964",
"f@	c #1D1D16",
"g@	c #928963",
"h@	c #C2B071",
"i@	c #B3A05E",
"j@	c #A99959",
"k@	c #474439",
"l@	c #DCDCDC",
"m@	c #F5F5F5",
"n@	c #050504",
"o@	c #161614",
"p@	c #55554E",
"q@	c #8D8D85",
"r@	c #D4D4D1",
"s@	c #F6F6F6",
"t@	c #CACAC4",
"u@	c #585851",
"v@	c #4D4C47",
"w@	c #80795F",
"x@	c #716D5B",
"y@	c #2A2A2A",
"z@	c #D9D9D9",
"A@	c #585858",
"B@	c #23231F",
"C@	c #C7C7C5",
"D@	c #A9A9A4",
"E@	c #3D3D35",
"F@	c #131311",
"G@	c #8D8D87",
"H@	c #C3C3C1",
"I@	c #7B7B7A",
"J@	c #5C5C5B",
"K@	c #0D0D0A",
"L@	c #3B3B3B",
"M@	c #BABABA",
"N@	c #191919",
"O@	c #525248",
"P@	c #D7D7D3",
"Q@	c #F7F7F7",
"R@	c #CFCFC8",
"S@	c #2F2F29",
"T@	c #474742",
"U@	c #71716F",
"V@	c #757571",
"W@	c #0F0F0F",
"X@	c #ECECEC",
"Y@	c #000000",
"Z@	c #080807",
"`@	c #96968E",
" #	c #DFDFDE",
".#	c #FBFBFB",
"+#	c #B3B3B1",
"@#	c #70706B",
"##	c #4F4F4E",
"$#	c #42423A",
"%#	c #434343",
"&#	c #BCBCB9",
"*#	c #AEAEA9",
"=#	c #4B4B44",
"-#	c #0F0F0E",
";#	c #92928D",
">#	c #929292",
",#	c #696968",
"'#	c #141412",
")#	c #878787",
"!#	c #75756C",
"~#	c #C3C3C2",
"{#	c #F0F0F0",
"]#	c #B9B9B1",
"^#	c #525249",
"/#	c #464644",
"(#	c #7F7F7B",
"_#	c #6D6D6D",
":#	c #050505",
"<#	c #44443B",
"[#	c #333331",
"}#	c #B3B3B0",
"|#	c #EFEFEF",
"1#	c #CFCFCE",
"2#	c #434342",
"3#	c #56564F",
"4#	c #272727",
"5#	c #161613",
"6#	c #12120F",
"7#	c #2C2C2A",
"8#	c #9E9E9A",
"9#	c #6B6B6A",
"0#	c #10100E",
"a#	c #21211D",
"b#	c #20201C",
"c#	c #383837",
"d#	c #737373",
"e#	c #141411",
"f#	c #090908",
"g#	c #0B0B09",
"h#	c #31312B",
"i#	c #33332F",
"j#	c #30302F",
"k#	c #101010",
"l#	c #4E4E45",
"m#	c #010101",
"n#	c #1A1A17",
"o#	c #0C0C0B",
"p#	c #020202",
"                                                                                                ",
"                                                                                                ",
"                                                                                                ",
"                                                                                                ",
"                                                                                                ",
"                                                                                                ",
"                                                                                                ",
"                                                  . . + + . . .                                 ",
"                                              . . . . . . . . . . . .                           ",
"                                          + . . . . . . . . . . . . . . .                       ",
"                                        . . . . . . @ # $ $ % . . . . . . .                     ",
"                                      . . . . % & * = - ; > , ' ) ! ~ . . . .                   ",
"                                    . . . . ! { ] ^ / ( _ : < [ } | 1 2 . . . .                 ",
"                                  3 . . . 4 5 6 7 8 9 0 a b c d e f g h i j . . +               ",
"                                  . . . ! 5 k l m n o p q r s t u v w x y z . . . .             ",
"                                  . . ~ A B C D E F G H I J K L M N O P Q R S . . .             ",
"                                . . . T U V W X Y Z `  ...+.G @.#.$.%.&.*.=.-.. . .             ",
"                                . . . ;.>.,.'.).!.~.` {.` ]...^./.(._.:.<.[.}.|.. . .           ",
"                                . . . 1.2.3.4.5.6.Z 7.8.9.0.a.b.c.$.$.d.e.f.g.h.. . .           ",
"                                . . . 1.2.i.j.5.{.k.k.l.` m.n.o.p.q.q.r.s.t.u.v.. . +           ",
"                                . . . w.x.i.'.5...y.z.A.B.C.D.E.F.G.H.I.J.K.L.M.. + +           ",
"                                . . . N.O.P.Q.R.Z S.T.U.V.W.X.Y.Z.`. +.+++@+#+$+. . +           ",
"                                  . . %+&+*+=+-+;+y.>+,+'+)+!+~+{+]+^+/+(+_+:+<+. . .           ",
"                                  [+}+j |+1+2+3+4+5+6+7+8+9+0+a+b+%.c+d+e+f+g+j . .             ",
"                                  [+}+}+h+i+j+k+l+m+n+o+p+q+r+s+t+u+v+w+x+y+z+. . .             ",
"                                    }+}+A+B+C+D+E+F+G+H+I+J+K+L+M+N+O+P+Q+R+S+. . .             ",
"                                    [+}+T+U+V+W+X+Y+Z+`+s+/  @.@+@@@#@$@%@4 . . .               ",
"                                      [+&@*@=@-@;@>@,@C+/ '@)@!@~@{@]@^@/@~ . . .               ",
"                                        (@_@:@<@[@}@|@1@2@3@4@5@6@7@8@9@. . + +                 ",
"                                        0@a@b@c@d@e@f@g@h@i@j@k@) l@m@. . . +                   ",
"                                        n@o@p@q@r@s@t@u@v@w@x@y@z@}+}+. . .                     ",
"                                      A@B@C@D@E@F@G@H@I@J@K@L@M@}+}+}+.                         ",
"                                      N@O@P@A+Q@R@S@T@U@V@W@X@[+[+[+                            ",
"                                      Y@Z@S@`@ #.#+#@###$#%#                                    ",
"                                    N@Y@&#*#=#-#;#>#|+,#'#)#                                    ",
"                                    Y@!#~#{#{#]#^#/#(#_#:#                                      ",
"                                    Y@Y@<#[#}#|#1#,#2#3#4#                                      ",
"                                      Y@5#6#S@7#8#|+9#Y@                                        ",
"                                      Y@Y@0#a#b#c#,#d#Y@                                        ",
"                                      e#f#5#F@g#h#i#j#k#                                        ",
"                                      l#m#e#n#o#0#Y@                                            ",
"                                            m#p#                                                ",
"                                                                                                ",
"                                                                                                ",
"                                                                                                ",
"                                                                                                ",
"                                                                                                ",
"                                                                                                "};
