/* XPM */
static char * question_xpm[] = {
"48 48 74 1",
" 	c None",
".	c #000000",
"+	c #A27F3B",
"@	c #B89243",
"#	c #D8AB4E",
"$	c #9D7D3A",
"%	c #A6823C",
"&	c #7C622D",
"*	c #F7D899",
"=	c #F7E2B8",
"-	c #D8BA7B",
";	c #BE9B53",
">	c #F7C35A",
",	c #F7DFAF",
"'	c #F7E5C0",
")	c #F7D48C",
"!	c #F7CF7E",
"~	c #D8B15F",
"{	c #6E5526",
"]	c #F7DCA5",
"^	c #A8843D",
"/	c #937435",
"(	c #AA863E",
"_	c #D8B66E",
":	c #BEA363",
"<	c #947536",
"[	c #927335",
"}	c #F7C96D",
"|	c #80632D",
"1	c #C39F57",
"2	c #A38E55",
"3	c #A48B5A",
"4	c #D2A64D",
"5	c #82662F",
"6	c #654F24",
"7	c #DCB463",
"8	c #BE9544",
"9	c #C3A466",
"0	c #8C6D31",
"a	c #D2B06C",
"b	c #D8BE86",
"c	c #715929",
"d	c #B99344",
"e	c #B38D40",
"f	c #D8B56E",
"g	c #D8AC58",
"h	c #997A3B",
"i	c #000001",
"j	c #6B5527",
"k	c #C39F55",
"l	c #DCC494",
"m	c #DAB872",
"n	c #C9AC73",
"o	c #BFA16A",
"p	c #19150D",
"q	c #876A31",
"r	c #C9A45B",
"s	c #C6A76A",
"t	c #7F6941",
"u	c #977737",
"v	c #D8B165",
"w	c #D8AC5B",
"x	c #BEA272",
"y	c #C09745",
"z	c #D8B163",
"A	c #927C52",
"B	c #735F3B",
"C	c #A68748",
"D	c #1A1A1A",
"E	c #393939",
"F	c #221C12",
"G	c #DDBC74",
"H	c #D2A64C",
"I	c #705627",
"                                                ",
"                                                ",
"                                                ",
"                                                ",
"                                                ",
"                                                ",
"                                                ",
"                                                ",
"                   ........                     ",
"                 ...+@#$%&...                   ",
"                ..#**=*---;%...                 ",
"               ..>,'*)>>>!-~%{..                ",
"               .>,]>^//(>>!_~%..                ",
"              .:*=><....[>>}~~|..               ",
"              .}'!<..   .1>!#~%..               ",
"             .2),#..    .3>}~#%..               ",
"             .4!>%..    .3}}_#5..               ",
"             .>!>%..    .3>__#6..               ",
"             .7~85..    .9}-#%...               ",
"             .......    0ab~#c..                ",
"              .....    .d)b#8...                ",
"                      .e}b##...                 ",
"                     ..>)fgh..i                 ",
"                     jklmnop..                  ",
"                    .qafrst..                   ",
"                    .u-vwx..                    ",
"                    .y-zwA..                    ",
"                    .#b~#B..                    ",
"                    .;-#8..                     ",
"                    .CC%|..                     ",
"                    .DE...                      ",
"                     ....                       ",
"                                                ",
"                     F....                      ",
"                    .G!)8..                     ",
"                    .!**#..                     ",
"                    .))~8..                     ",
"                    .)_#8..                     ",
"                    .H~8I..                     ",
"                     ......                     ",
"                      ....                      ",
"                                                ",
"                                                ",
"                                                ",
"                                                ",
"                                                ",
"                                                ",
"                                                "};
