/* XPM */
static char *cut_xpm[] = {
/* columns rows colors chars-per-pixel */
"24 23 3 1",
". c Black",
"X c #000080",
"  c None",
/* pixels */
"                        ",
"        .     .         ",
"        .     .         ",
"        .     .         ",
"        ..   ..         ",
"        ..   ..         ",
"         .   .          ",
"         .. ..          ",
"         .. ..          ",
"          ...           ",
"           .            ",
"           .            ",
"          X.X           ",
"          X X           ",
"          X XXXX        ",
"       XXXX X  .X       ",
"      X.  X X   X       ",
"      X   X X   X       ",
"      X   X X   X       ",
"      X   X X   X       ",
"      X   X  XXX        ",
"       XXX              ",
"                        "
};
