/* XPM */
static char * deffile_xpm[] = {
"16 16 56 1",
" 	c None",
".	c #C6C6D5",
"+	c #9494AD",
"@	c #FBFBFC",
"#	c #F8F8FA",
"$	c #F4F4F7",
"%	c #EEEEF2",
"&	c #EAEAF0",
"*	c #DEDEE7",
"=	c #E0E0E9",
"-	c #F5F5F8",
";	c #F0F0F4",
">	c #EDEDF2",
",	c #E1E1E9",
"'	c #B8B8C4",
")	c #A6A6BB",
"!	c #E4E4EB",
"~	c #8E8EA2",
"{	c #AFAFC2",
"]	c #F7F7F9",
"^	c #F1F1F5",
"/	c #E6E6ED",
"(	c #DBDBE5",
"_	c #C0C0CC",
":	c #F2F2F6",
"<	c #E7E7EE",
"[	c #E3E3EA",
"}	c #D0D0DC",
"|	c #9898A0",
"1	c #E7E7ED",
"2	c #FAFAFB",
"3	c #F3F3F6",
"4	c #E8E8EE",
"5	c #CBCBD9",
"6	c #B3B3BD",
"7	c #D6D6E1",
"8	c #F9F9FA",
"9	c #DCDCE5",
"0	c #D2D2DE",
"a	c #95959C",
"b	c #EAEAEF",
"c	c #EBEBF1",
"d	c #DADAE4",
"e	c #B0B0B3",
"f	c #E5E5EC",
"g	c #DFDFE8",
"h	c #DDDDE6",
"i	c #B0B0B8",
"j	c #E9E9EF",
"k	c #868688",
"l	c #FFFFFF",
"m	c #EFEFF3",
"n	c #BBBBC0",
"o	c #85858A",
"p	c #BEBEC0",
"q	c #D7D7E2",
"  ........+     ",
"  .@#$%&*=.+    ",
"  .@#-;>,=.')   ",
"  .@#-;%!=+~{+  ",
"  .@]-^%/=(_.+  ",
"  .@]-:;<[}|1+  ",
"  .2]-3;4=567+  ",
"  .8$:%&970ab+  ",
"  .-:^c[(d7e]+  ",
"  .-$%f[ghdi!+  ",
"  .]^j/!=g(kl+  ",
"  .]m4/!=g9nj+  ",
"  .$&4/f[g9o$+  ",
"  .34<f!,g(p@+  ",
"  .;44/!=g9dq+  ",
"  ++++++++++++  "};
