/* XPM */
static char *dir_up_xpm[] = {
/* columns rows colors chars-per-pixel */
"20 20 30 1",
"X c #4E7FD0",
"= c #AAC1E8",
"o c #9AEA53",
"@ c #295193",
": c #C6D6F0",
"6 c #779DDB",
"1 c #EAF0FA",
"& c #2D59A3",
"O c #6E96D8",
"$ c #356AC1",
"9 c #214279",
"; c #BED0EE",
"5 c #85A7DF",
"2 c #F0F5FC",
", c #DAE5F6",
"  c None",
". c #274D8B",
"* c #9FB9E5",
"q c #5584D1",
"0 c #3A70CA",
"% c #305FAC",
"8 c #5D89D3",
"> c #D2DFF4",
"7 c #3366B9",
"3 c #F5F8FD",
"+ c #4075CC",
"# c #638ED5",
"4 c #90AFE2",
"- c #B3C8EB",
"< c #E5EDF9",
/* pixels */
"                    ",
"                    ",
"                    ",
"           ..       ",
"          X.o.      ",
"  ....   X.ooo.     ",
"  .OO+....ooooo.    ",
"  .OOOOOO@@ooo..    ",
"  .OOOO#OO@ooo.$    ",
"  .OOOOOOO@ooo.$    ",
"  .O%............&  ",
"  .O&*=-;:>,<1231.  ",
"  .+.4*=-;:>,<12$.  ",
"  ..#54*=-;:>,<1.   ",
"  .@O654*=-;:>,<.   ",
"  .78O654*=-;:>$$   ",
"  90q8O654*=-;:.    ",
"  9.............    ",
"                    ",
"                    "
};
