/* XPM */
static char *dir_up_xpm[] = {
/* columns rows colors chars-per-pixel */
"16 16 4 1",
"@ c #000000",
"  c None",
"* c Yellow",
": c Gray100",
/* pixels */
"                ",
"   @@@@@        ",
"  @*:*:*@       ",
" @@@@@@@@@@@@@@ ",
" @:*:*:*:*:*:*:@",
" @*:*:@:*:*:*:*@",
" @:*:@@@:*:*:*:@",
" @*:@@@@@:*:*:*@",
" @:*:*@*:*:*:*:@",
" @*:*:@:*:*:*:*@",
" @:*:*@@@@@@:*:@",
" @*:*:*:*:*:*:*@",
" @:*:*:*:*:*:*:@",
" @@@@@@@@@@@@@@@",
"                ",
"                ",
};
