/* XPM */
static char *findrepl_xpm[] = {
/* columns rows colors chars-per-pixel */
"32 32 2 1",
". c Black",
"  c None",
/* pixels */
"                                ",
"                                ",
"                                ",
"                                ",
"                                ",
"                                ",
"           ....   ...           ",
"           .   . .   .          ",
"           .   . .   .          ",
"           .   . .   .          ",
"           .   . .   .          ",
"           .   .  ...           ",
"                                ",
"                                ",
"                                ",
"                                ",
"                                ",
"       .                        ",
"                                ",
"       .  ...  ...  ....        ",
"       . .    .   . .   .       ",
"       . .    .   . .   .       ",
"       . .    .   . .   .       ",
"       . .    .   . .   .       ",
"       .  ...  ...  .   .       ",
"                                ",
"                                ",
"                                ",
"                                ",
"                                ",
"                                ",
"                                "
};
