/* XPM */
static char *floppy_xpm[] = {
/* columns rows colors chars-per-pixel */
"16 15 18 1",
": c #DCE6F6",
", c #244780",
"+ c #FFFFFF",
"= c #C6D6F0",
"> c #2C58A0",
". c #2D59A3",
"- c #284F90",
"; c #2B569D",
"O c #214279",
"$ c #1C3866",
"# c #BED0EE",
"  c None",
"X c #162C50",
"@ c #638ED5",
"o c #3467BC",
"& c #D6E1F4",
"% c #3C72CA",
"* c #87A8DF",
/* pixels */
"   .XoooooooXO  ",
"   .o+++++++.O  ",
"   .o+OOOOO+.O  ",
"   .o+++++++.O  ",
"   .o@@@@@@@.O  ",
"   ..........O  ",
"   ..#+++++#.O  ",
"   ..+$O+++#.O  ",
"   ..+$O+++#.O  ",
"  %&.........*% ",
" %=+++++++++++&%",
" --------------;",
" -:::::::::::::-",
" -:X:XXXXXXXXX:>",
" -*************,"
};
