/* XPM */
static char * home_xpm[] = {
"16 16 3 1",
" 	c None",
".	c #000000000000",
"X	c #FFFFFFFFFFFF",
"                ",
"       ..       ",
"  .   .XX.      ",
"  .  .XXXX.     ",
"  . .XXXXXX.    ",
"  ..XXXXXXXX.   ",
"  .XXXXXXXXXX.  ",
" .XXXXXXXXXXXX. ",
"...XXXXXXXXXX...",
"  .XXXXXXXXXX.  ",
"  .XXX...XXXX.  ",
"  .XXX. .XXXX.  ",
"  .XXX. .XXXX.  ",
"  .XXX. .XXXX.  ",
"  .XXX. .XXXX.  ",
"  ..... ......  "};
