/* XPM */
static char *home_xpm[] = {
/* columns rows colors chars-per-pixel */
"20 20 68 1",
". c Black",
"8 c #AFC5EA",
"< c #B4C9EB",
"= c #B9CDED",
"O c #BED1EE",
"e c #99B5E4",
"4 c #9EB9E5",
"Z c #A3BDE7",
"B c #A8C1E8",
"5 c #C1D2EF",
"% c #C6D6F0",
"A c #88A9E0",
"V c #8DADE1",
"M c #92B1E2",
"- c #B0C6EA",
"# c #B5CAEC",
"S c #7299DA",
"C c #779DDB",
"N c #7CA1DC",
"D c #9AB6E4",
"& c #C2D3EF",
"@ c #C7D7F0",
"; c #ACC3E9",
"$ c #B1C7EA",
"j c #A0BBE6",
"p c #A5BFE7",
", c #B9CCED",
"* c #BED0EE",
"o c #C3D4EF",
"x c #8AABE0",
"s c #8FAFE1",
"m c #ADC4E9",
"3 c #A3BCE7",
": c #A8C0E8",
"f c #B2C8EB",
"b c #97B4E4",
"k c #9CB8E5",
"  c None",
"+ c #BACDED",
"n c #81A4DE",
"c c #86A8DF",
"g c #AEC5EA",
"l c #98B5E4",
"h c #A5BEE7",
"9 c #AAC2E9",
"X c #C8D7F1",
"z c #8FAEE1",
"r c #94B2E3",
"v c #B2C7EB",
"u c #B7CBEC",
"y c #BCCFED",
"6 c #BCCFEE",
"J c #83A6DE",
"a c #A1BBE6",
"0 c #A6BFE8",
"1 c #ABC3E9",
"K c #6D96D8",
"d c #8BABE0",
"F c #95B3E3",
"t c #90AFE2",
"i c #B3C8EB",
"7 c #B8CCEC",
"> c #BDD0EE",
"w c #9DB8E5",
"q c #A2BCE6",
"2 c #A7C0E8",
"H c #8CACE1",
"G c #91B0E2",
/* pixels */
"                    ",
"                    ",
"                    ",
"        ....        ",
"       .XoO+.       ",
"      .@oO+#$.      ",
"     .%&*=#-;:.     ",
"    .%&>,<-1234.    ",
"   ..............   ",
"   .567<890qwert.   ",
"   .yui89pawersd.   ",
"   .ufg9hjklrzxc.   ",
"   .v.....b....n.   ",
"   .m.   .M.  .N.   ",
"   .B.   .V.  .C.   ",
"   .Z.....A.  .S.   ",
"   .4DFGHAJ.  .K.   ",
"   .........  ...   ",
"                    ",
"                    "
};
