/* XPM */
static char *listview_xpm[] = {
/* columns rows colors chars-per-pixel */
"20 20 5 1",
". c Black",
"X c #FFFFFF",
"o c #000084",
"  c None",
"O c #848484",
/* pixels */
"                    ",
"                    ",
"  ................  ",
"  .XXXXXXXXXXXXXX.  ",
"  .XoooXXXXXXXXXX.  ",
"  .XoooX..O...O.X.  ",
"  .XoooXXXXXXXXXX.  ",
"  .XXXXXXXXXXXXXX.  ",
"  .XXXXXXXXXXXXXX.  ",
"  .XoooXXXXXXXXXX.  ",
"  .XoooX...O....X.  ",
"  .XoooXXXXXXXXXX.  ",
"  .XXXXXXXXXXXXXX.  ",
"  .XXXXXXXXXXXXXX.  ",
"  .XoooXXXXXXXXXX.  ",
"  .XoooX.O....O.X.  ",
"  .XoooXXXXXXXXXX.  ",
"  ................  ",
"                    ",
"                    "
};
