/* XPM */
static char * missimg_xpm[] = {
"29 31 7 1",
"   c None",
".  c #808080",
"+  c #FFFFFF",
"@  c #C0C0C0",
"#  c #000000",
"$  c #333366",
"%  c #B2B2B2",
".....................        ",
".+++++++++++++++++++..       ",
".+++++++++++++++++++.@.      ",
".++@@@@@@@@@@@@@@@@@.+@.     ",
".++@@@@@@@@@@@@@@@@@.++@.    ",
".++@@@@@.@@@@.@@@@@@.+++@.   ",
".++@@@@@@@@@@@@@@@@@.++++@.  ",
".++@@@@@@@@@@@@@@@@@.+++++@. ",
".++@@.@@@@@@@@@@.@@@######## ",
".++@@@@@@@@@@@@@@@@@@$$$$$$#.",
".######@@@@@@@@@@@@@@@.....#.",
"       ###@@@@@@@@@@@@@@@++#.",
"          #####@@@@@@@@@@++#.",
"              #@.@@@@@@@@++#.",
"..             ###@@@@@@@++#.",
".+....            #@@@@@@++#.",
".++@@@...          ####@@++#.",
".++@@@@@@..            #####.",
".++@@@@@@@@...               ",
".++@@@@@@%%%%@.              ",
".++@@@@@@%%%%@@....          ",
".++@@@@@@%%%%@@@@@@....      ",
".++@@@@@@%%%%@@@@@@@@@@....  ",
".++@@@@@@@@@@@@@@@@@@@@@@++#.",
".++@@@@@@@@@@@@@@@@@@@@@@++#.",
".++@@@@@@@@@@@@@@@@@@@@@@++#.",
".++@@@@@@@@@@@@@@@@@@@@@@++#.",
".++@@@@@@@@@@@@@@@@@@@@@@++#.",
".++++++++++++++++++++++++++#.",
".++++++++++++++++++++++++++#.",
"############################."};
