/* XPM */
static char *new_dir_xpm[] = {
/* columns rows colors chars-per-pixel */
"16 15 100 2",
"X  c Black",
"{  c #3562AF",
" . c #3F6AB2",
":  c #4975BE",
"_  c #A5BDE6",
"y  c #446EB4",
"e  c #B9CDEC",
"2  c #AFC5EA",
"$  c #6790D4",
"/  c #769CDA",
"d  c #6787BD",
"x  c #CDDAF1",
"c  c #D7E2F5",
"E  c #99B5E4",
"*  c #4772B8",
"X. c #476FB3",
"O. c #4C73B5",
"'  c #5B7FBA",
"T  c #4F80CF",
"|  c #3B67B0",
"@  c #406BB2",
"f  c #406BB3",
"D  c #6891D6",
"I  c #D8E3F5",
"&  c #3460A9",
"=  c #4873BA",
"R  c #5C89D3",
".. c #436CB2",
"8  c #4870B4",
"W  c #B8CBEC",
"4  c #C2D3EF",
"n  c #3C68B1",
"q  c #A2BBE6",
"#  c #6E96D8",
",  c #698FCE",
"6  c #D4E0F4",
"o. c #4971B4",
"<  c #4E75B6",
"3  c #B9CCEC",
"a  c #C3D4EF",
"u  c #80A3DD",
"~  c #4276CC",
"]  c #2E5AA6",
"p  c #A3BCE6",
"w  c #ADC4E9",
".  c #FFFF00",
"g  c #749BDA",
"#. c #567AB7",
"%  c #6589C5",
"b  c #6586BD",
"5  c #CBD9F1",
"t  c #D5E1F4",
"i  c #8DACE0",
"0  c #97B4E3",
"   c None",
"-  c #4A75BC",
"`  c #C4D5EF",
"h  c #81A4DD",
"v  c #E7EEF9",
"A  c #3966B1",
"k  c #A4BDE6",
"l  c #AEC5E9",
"+  c #436BAD",
"S  c #5C88D2",
"m  c #6690D5",
"@. c #5277B6",
"U  c #6183BC",
"r  c #CCDAF1",
"C  c #D6E2F5",
")  c #98B5E3",
"H  c #8EADE1",
"^  c #5080CF",
";  c #4B76BE",
"V  c #B6CAEC",
"z  c #BBCEED",
"Y  c #3563AF",
"J  c #A5BEE6",
"P  c #CDDBF2",
"(  c #8FAEE1",
"7  c #DFE8F7",
"[  c #3160AE",
"!  c #3160AF",
"1  c #A1BBE5",
"Q  c #5E81BB",
"Z  c #6385BC",
"L  c #C4D4EF",
"M  c #81A3DD",
"9  c #8BABE0",
"}  c #3965B0",
"O  c #3E69B1",
"B  c #AEC4E9",
"K  c #B8CCEC",
">  c #5C84C6",
"F  c #759BDA",
"s  c #E0E9F7",
"j  c #98B4E3",
"o  c #325EA7",
"+. c #5076B6",
"G  c #82A4DD",
"N  c #8CACE0",
/* pixels */
"                                ",
"                  . X   . X X . ",
"  o O O O +         . X . X .   ",
"  @ # # # $ %     X X . . . X X ",
"  & * = - ; : > , . . . . . . . ",
"  < 1 2 3 4 5 6 7 X X . . . X X ",
"  8 9 0 q w e 4 r t . X . X .   ",
"  y u i 0 p 2 3 a . X s . X d . ",
"  f g h i j k l z a x c s v b   ",
"  n m g M N j p B V a r C s Z   ",
"  A S D F G H j J B K L P I U   ",
"  Y T R D F G i E k B W L P Q   ",
"  ! ~ ^ R D / h ( ) _ B W ` '   ",
"  ] [ { } |  ...X.o.O.+.@.#.|   ",
"                                "
};
