/* XPM */
static char *new_dir_xpm[] = {
/* columns rows colors chars-per-pixel */
"16 15 4 1",
"@ c Gray0",
"  c None",
"* c Yellow",
": c Gray100",
/* pixels */
"           @    ",
"                ",
"           @    ",
"        @     @ ",
"   @@@@  @ @ @  ",
"  @*:*:@  @ @   ",
" @@@@@@@@@@  @ @",
" @:*:*:*:*:@@   ",
" @*:*:*:*:*@ @  ",
" @:*:*:*:*:@  @ ",
" @*:*:*:*:*@    ",
" @:*:*:*:*:@    ",
" @*:*:*:*:*@    ",
" @@@@@@@@@@@    ",
"                "};
