/* XPM */
static const char *prev_screen_xpm[] = {
/* columns rows colors chars-per-pixel */
"16 24 91 1 ",
"  c None",
". c #277FD6",
"X c #207DDB",
"o c #2B7EDF",
"O c #007DEF",
"+ c #077DEC",
"@ c #077FED",
"# c #067FEF",
"$ c #0A7FEA",
"% c #0D7AEC",
"& c #127DEC",
"* c #157DEC",
"= c #177FEE",
"- c #077EF2",
"; c #077BF4",
": c #067BF5",
"> c #037FF7",
", c #067EF5",
"< c #0B7CF2",
"1 c #087FF3",
"2 c #087CF4",
"3 c #087FF5",
"4 c #0A7EF4",
"5 c #097EF6",
"6 c #057DF9",
"7 c #047EFA",
"8 c #107FF3",
"9 c #267FE3",
"0 c #277DE4",
"q c #1680DE",
"w c #2984DE",
"e c #0C80EB",
"r c #1E84EE",
"t c #0083F0",
"y c #0280F7",
"u c #0580F4",
"i c #0780F4",
"p c #0480F8",
"a c #0182FC",
"s c #0282FE",
"d c #1280F1",
"f c #2580E3",
"g c #2681E2",
"h c #2B81E1",
"j c #2586E8",
"k c #2C85EB",
"l c #2E84EA",
"z c #2B80ED",
"x c #3085E5",
"c c #3186E4",
"v c #3B89E0",
"b c #2D93F1",
"n c #6598D0",
"m c #72A8DB",
"M c #72A9DD",
"N c #639AE1",
"B c #6CA4E4",
"V c #6CA5E5",
"C c #6EA9E5",
"Z c #69ADE6",
"A c #6DA5EC",
"S c #6AA8EE",
"D c #71A5E1",
"F c #71AAE6",
"G c #74ABE4",
"H c #79ACE7",
"J c #7CACE5",
"K c #70ABEF",
"L c #76ADEC",
"P c #78AEEF",
"I c #A9B3C5",
"U c #9DC9EE",
"Y c #A9CCED",
"T c #A9CEEF",
"R c #A9D2EC",
"E c #A9D0EF",
"W c #A3C9F3",
"Q c #A6CAF0",
"! c #A5CBF3",
"~ c #A5CDF6",
"^ c #A9CCF2",
"/ c #A9CFF4",
"( c #A9CCF6",
") c #A9D1F3",
"_ c #A9D3F6",
"` c #A9D7F5",
"' c #A9D7F7",
"] c #A9D3FA",
"[ c #A9D9FA",
"{ c #A9DBFB",
"} c #A9E8FF",
/* pixels */
"                ",
"                ",
"           I    ",
"          PXQ   ",
"         C&iv   ",
"        G@y.E   ",
"       M27kY    ",
"      J*,fQ     ",
"     mOs0(      ",
"    L%srW       ",
"   V8<9~        ",
"  K:@qU         ",
" Yxi7b}         ",
"  )w-2S         ",
"   `o<eV        ",
"    `k>$A       ",
"     {z7dD      ",
"      (fp@F     ",
"       _x2tZ    ",
"        ]j2*H   ",
"         {h:N   ",
"          ^nE   ",
"                ",
"                "
};
