/* XPM */
static char *print_xpm[] = {
/* columns rows colors chars-per-pixel */
"16 15 36 1",
"u c #EDF2FB",
"0 c #4E7FD0",
", c #B9CDED",
"$ c #3365B7",
"t c #FFFFFF",
"9 c #2C58A0",
"X c #779DDB",
"8 c #7FA2DD",
"y c #3263B4",
"w c #6E96D8",
"- c #6992D7",
"= c #D9E4F5",
"q c #356AC1",
"@ c #ADC4E9",
"* c #CBD9F1",
": c #97B4E3",
"r c #3161B1",
"  c None",
"2 c #B5C9EB",
"< c #7CA0DC",
"5 c #487BCE",
"; c #4377CD",
". c #5584D1",
"7 c #3A70CA",
"3 c #305FAC",
"1 c #5685D2",
"e c #4075CC",
"6 c #638ED5",
"4 c #3467BC",
"& c #2F5DA9",
"o c #ECF1FA",
"> c #D6E1F4",
"# c #376EC9",
"% c #2D5AA5",
"+ c #A2BCE6",
"O c #CFDDF3",
/* pixels */
"    .XXXXXXXX   ",
"    .oooooooX   ",
"    .OOOOOOOX   ",
"    .+++++++X   ",
" @##$%&&&&&%&##@",
" $*=-;-:>,<1$=*$",
" .22.3456.74$22.",
" 5:::::::::::::5",
" 788699999990887",
" qww7qeeeeeerwwq",
" 4664ttttttt%664",
" 411yutttttt%114",
" XXX&ttttttt%XXX",
"    4ttttttt%   ",
"    $XXXXXXX#   "
};
