/* XPM */
static const char * icon_expanded[] = {
"16 16 3 1",
" 	c #00FFFF",
".	c None",
"+	c #000000",
"................",
"................",
"..+++++++++++...",
"..+++++++++++...",
"...+++++++++....",
"...+++++++++....",
"....+++++++.....",
"....+++++++.....",
".....+++++......",
".....+++++......",
"......+++.......",
"......+++.......",
".......+........",
".......+........",
"................",
"................"};
