/* XPM */
static const char * icon_theresmore[] = {
"7 10 16 2",
"00 c black",
"01 c none",
"02 c gray100",
"03 c gray100",
"04 c gray100",
"05 c gray100",
"06 c gray100",
"07 c gray100",
"08 c gray100",
"09 c gray100",
"10 c gray100",
"11 c gray100",
"12 c gray100",
"13 c gray100",
"14 c gray100",
"15 c gray100",
"01010101010101",
"01010100010101",
"01010000000101",
"01000001000001",
"00000101010000",
"00010100010100",
"01010000000101",
"01000001000001",
"00000101010000",
"00010101010100"
};
