/* XPM */
static const char * plot_dwn_xpm[] = {
/* columns rows colors chars-per-pixel */
"20 18 8 1",
"  c Gray0",
". c #000084",
"X c Blue",
"o c Green",
"O c #848484",
"+ c #c6c6c6",
"@ c None",
"# c Gray100",
/* pixels */
"@@.@@@@@@@@@@@@@@@@@",
"@...@@@@@@@@@@@@@@@@",
".@.@.@@@@@@@@@@@@@@@",
"@@.@@@@@@@@  @@@@@@@",
"@@.@@@@++++o +++@@@@",
"@@.@@@@@   o   @@@@@",
"@@.@@@@@+ ooo +@@@@@",
"@@.@@@@@@+ o +@@@@@@",
"@@.@@@@@@@+ +@@@@@@@",
"@@.@@@@@@@@+@@@@@@@@",
"@@.@@....@@@@@@@@@@@",
"@@.@.O@@@.O@@@@@@@@@",
"@@.O.@@@@@.@@@@@@@.@",
"@@..@@@@@@@.@@@@@.O@",
"@@.@@@@@@@@O.@@@.O@@",
"@@.@@@@@@@@@O...O@@@",
"@@.@@@@@@@@@@@@@@@@@",
"@@@@@@@@@@@@@@@@@@@@",
};
