/* XPM */
static const char *const aui_style_xpm[] = {
"32 32 17 1",
"  c None",
". c Gray63",
"i c #B7B7B7",
"j c Gray74",
"k c Gray75",
"l c Gray76",
"h c Gray77",
"m c Gray78",
"n c #CACACA",
"o c Gray80",
"g c #D7D7D7",
"f c Gray86",
"e c Gray88",
"d c #E4E4E4",
"c c #ECECEC",
"b c #F1F1F1",
"a c #F3F3F3",
"   ..........................   ",
"  .aaaaaaaaaaaaaaaaaaaaaaaaaa.  ",
"  .aaaaaaaaaaaaaaaaaaaaaaaaaa.  ",
"  .aaaaaaaaaaaaaaaaaaaaaaaaaa.  ",
"  .aaaaaaaaaaaaaaaaaaaaaaaaaa.  ",
"  .bbbbbbbbbbbbbbbbbbbbbbbbbb.  ",
"  .cccccccccccccccccccccccccc.  ",
"  .dddddddddddddddddddddddddd.  ",
"  .eeeeeeeeeeeeeeeeeeeeeeeeee.  ",
"  .ffffffffffffffffffffffffff.  ",
"...gggggggggggggggggggggggggg...",
".hhhhhhhhhhhhhhhhhhhhhhhhhhhhhh.",
"................................",
".iiiiiiiiiiiiiiiiiiiiiiiiiiiiii.",
".jjjjjjjjjjjjjjjjjjjjjjjjjjjjjj.",
".kkkkkkkkkkkkkkkkkkkkkkkkkkkkkk.",
".llllllllllllllllllllllllllllll.",
".mmmmmmmmmmmmmmmmmmmmmmmmmmmmmm.",
".nnnnnnnnnnnnnnnnnnnnnnnnnnnnnn.",
".oooooooooooooooooooooooooooooo.",
"................................",
".gggggggggggggggggggggggggggggg.",
".gggggggggggggggggggggggggggggg.",
".gggggggggggggggggggggggggggggg.",
".gggggggggggggggggggggggggggggg.",
".gggggggggggggggggggggggggggggg.",
".gggggggggggggggggggggggggggggg.",
".gggggggggggggggggggggggggggggg.",
".gggggggggggggggggggggggggggggg.",
".gggggggggggggggggggggggggggggg.",
".gggggggggggggggggggggggggggggg.",
"................................"
};
