/* XPM */
static const char *const circle_small_xpm[] = {
"16 16 2 1",
". c red",
"  c None",
"      ....      ",
"    ........    ",
"   ....  ....   ",
"  ...      ...  ",
" ...        ... ",
" ..          .. ",
"...          ...",
"..            ..",
"..            ..",
"...          ...",
" ..          .. ",
" ...        ... ",
"  ...      ...  ",
"   ....  ....   ",
"    ........    ",
"      ....      "
};
