/* XPM */
static char * toolbrai_xpm[] = {
/* width height ncolors chars_per_pixel */
"32 32 4 1",
/* colors */
" 	s None	c None",
".	c #000080",
"+	c #ff0000",
"@	c #00ffff",
/* pixels */
"                                ",
"                                ",
"                       .....    ",
"     .....            .+++++.   ",
"    .+++++.           .+++++.   ",
"   .+++++++.          .+++++.   ",
"    .+++++.            .....    ",
"     .....            @         ",
"        @            @          ",
"         @          @           ",
"          @        @            ",
"           @  .....             ",
"            ..+++++..           ",
"           .+++++++++.          ",
"           .+++++++++.          ",
"           .+++++++++.          ",
"           @..+++++..           ",
"          @   .....@            ",
"         @       @  @           ",
"        @        @   @  ......  ",
"       @         @    @.++++++. ",
"      @          @     .++++++. ",
"     @           @     .++++++. ",
"  ......         @     .++++++. ",
" .++++++.        @      ......  ",
" .++++++.       ....            ",
" .++++++.      .++++.           ",
" .++++++.      .++++.           ",
"  ......       .++++.           ",
"               .++++.           ",
"                ....            ",
"                                "};
