#define wxwin.xbm_width 64
#define wxwin.xbm_height 64
static char wxwin.xbm_bits[] = {
   0x00, 0x00, 0x00, 0x00, 0x00, 0x00, 0x00, 0x00, 0xc0, 0xff, 0xff, 0xff,
   0xff, 0xff, 0x1f, 0x00, 0x40, 0x00, 0x00, 0x00, 0x00, 0x00, 0x10, 0x00,
   0x40, 0x00, 0x00, 0x00, 0x00, 0x00, 0x30, 0x00, 0x40, 0x80, 0xc7, 0x19,
   0x8e, 0x01, 0x50, 0x00, 0x40, 0x00, 0xc7, 0x39, 0xcf, 0x01, 0x70, 0x00,
   0x40, 0x00, 0xc7, 0x31, 0x3c, 0x00, 0x50, 0x00, 0x40, 0x00, 0xc7, 0x21,
   0x1c, 0x00, 0x70, 0x00, 0x40, 0x80, 0xe3, 0x20, 0x38, 0x00, 0x50, 0x00,
   0x40, 0x80, 0xe3, 0x30, 0x3c, 0x00, 0x70, 0x00, 0x40, 0x80, 0xe3, 0x78,
   0x76, 0x01, 0x50, 0x00, 0x40, 0x00, 0xdf, 0xff, 0xf3, 0x20, 0x70, 0x00,
   0x40, 0x00, 0x8e, 0xff, 0x61, 0x70, 0x50, 0x00, 0x40, 0x00, 0x00, 0xfc,
   0x01, 0xf8, 0x70, 0x00, 0x40, 0x00, 0x00, 0xfc, 0x01, 0xfc, 0x51, 0x00,
   0x40, 0x00, 0x00, 0xfe, 0x03, 0xfc, 0x73, 0x00, 0x40, 0x00, 0x00, 0xff,
   0x03, 0xf8, 0x51, 0x00, 0x40, 0x00, 0x00, 0xff, 0x07, 0xf0, 0x70, 0x00,
   0x40, 0x00, 0x80, 0xff, 0x07, 0x60, 0x50, 0x00, 0x40, 0x00, 0x80, 0xff,
   0x0f, 0xfc, 0x70, 0x00, 0x40, 0x00, 0xc0, 0xff, 0x1f, 0xfc, 0x50, 0x00,
   0x40, 0x00, 0xe0, 0xff, 0x1f, 0xfc, 0x70, 0x00, 0x40, 0x00, 0xf0, 0x0f,
   0x00, 0xfc, 0x50, 0x00, 0x40, 0x00, 0xf0, 0x07, 0x00, 0xfc, 0x70, 0x00,
   0x40, 0x00, 0xf8, 0x07, 0x00, 0xfc, 0x50, 0x00, 0x40, 0x00, 0xfc, 0x03,
   0x00, 0xfc, 0x70, 0x00, 0x40, 0x00, 0xfc, 0x01, 0x00, 0xfc, 0x50, 0x00,
   0x40, 0x00, 0xfe, 0x00, 0x00, 0xfc, 0x70, 0x00, 0x40, 0x00, 0xfe, 0x00,
   0x00, 0xfc, 0x50, 0x00, 0x40, 0x00, 0x7f, 0x00, 0x00, 0xfc, 0x70, 0x00,
   0x40, 0x80, 0x7f, 0x00, 0x00, 0xfc, 0x50, 0x00, 0x40, 0x80, 0x3f, 0x00,
   0x00, 0xfc, 0x70, 0x00, 0x40, 0xc0, 0xff, 0xff, 0xff, 0xff, 0x50, 0x00,
   0x40, 0xe0, 0xff, 0xff, 0xff, 0xff, 0x70, 0x00, 0x40, 0xe0, 0xff, 0xff,
   0xff, 0xff, 0x50, 0x00, 0x40, 0xf0, 0xff, 0xff, 0xff, 0xff, 0x70, 0x00,
   0x40, 0xf0, 0xff, 0xff, 0xff, 0xff, 0x50, 0x00, 0x40, 0xf0, 0xff, 0xff,
   0xff, 0xff, 0x70, 0x00, 0x40, 0x00, 0x00, 0x00, 0x00, 0x00, 0x50, 0x00,
   0x40, 0x00, 0x00, 0x00, 0x00, 0x00, 0x70, 0x00, 0x40, 0x00, 0x00, 0x00,
   0x00, 0x00, 0x50, 0x00, 0x40, 0x00, 0x00, 0x00, 0x00, 0x00, 0x70, 0x00,
   0xc0, 0xff, 0xff, 0xff, 0xff, 0xff, 0x5f, 0x00, 0x80, 0xaa, 0xaa, 0xaa,
   0xaa, 0xaa, 0x6a, 0x00, 0x00, 0xff, 0xff, 0xff, 0xff, 0xff, 0x7f, 0x00,
   0x00, 0x00, 0x00, 0x00, 0x00, 0x00, 0x00, 0x00, 0x00, 0x00, 0x00, 0x00,
   0x00, 0x00, 0x00, 0x00, 0x00, 0x00, 0x00, 0x00, 0x00, 0x00, 0x00, 0x00,
   0x00, 0x00, 0x00, 0x00, 0x00, 0x00, 0x00, 0x00, 0x00, 0x00, 0x00, 0x00,
   0x00, 0x00, 0x00, 0x00, 0x00, 0x00, 0x00, 0x00, 0x00, 0x00, 0x00, 0x00,
   0x00, 0x00, 0x00, 0x00, 0x00, 0x00, 0x00, 0x00, 0x00, 0x00, 0x00, 0x00,
   0x00, 0x00, 0x00, 0x00, 0x00, 0x00, 0x00, 0x00, 0x00, 0x00, 0x00, 0x00,
   0x00, 0x00, 0x00, 0x00, 0x00, 0x00, 0x00, 0x00, 0x00, 0x00, 0x00, 0x00,
   0x00, 0x00, 0x00, 0x00, 0x00, 0x00, 0x00, 0x00, 0x00, 0x00, 0x00, 0x00,
   0x00, 0x00, 0x00, 0x00, 0x00, 0x00, 0x00, 0x00, 0x00, 0x00, 0x00, 0x00,
   0x00, 0x00, 0x00, 0x00, 0x00, 0x00, 0x00, 0x00, 0x00, 0x00, 0x00, 0x00,
   0x00, 0x00, 0x00, 0x00, 0x00, 0x00, 0x00, 0x00, 0x00, 0x00, 0x00, 0x00,
   0x00, 0x00, 0x00, 0x00, 0x00, 0x00, 0x00, 0x00, 0x00, 0x00, 0x00, 0x00,
   0x00, 0x00, 0x00, 0x00, 0x00, 0x00, 0x00, 0x00};
