/* XPM */
static char * class_icon1_xpm[] = {
"16 16 6 1",
" 	c None",
".	c #000000",
"@	c #0000FF",
"#	c #FF00FF",
"$	c #848284",
"%	c #00FFFF",
".......         ",
".@@@@@.    .... ",
".@@@@@.    .##. ",
".@@@@@.$$$$.##. ",
".@@@@@. $  .... ",
".@@@@@. $       ",
"....... $       ",
"        $       ",
"        $  .... ",
"        $  .%%. ",
"        $$$.%%. ",
"           .... ",
"                ",
"                ",
"                ",
"                "};
