/* XPM */
static char * copy_xpm[] = {
"23 21 4 1",
" 	c None",
"+	c #000000",
"@	c #FFFFFF",
"#	c #000084",
"                       ",
"                       ",
"                       ",
"                       ",
"  ++++++               ",
"  +@@@@++              ",
"  +@@@@+@+             ",
"  +@++@+######         ",
"  +@@@@@#@@@@##        ",
"  +@++++#@@@@#@#       ",
"  +@@@@@#@++@####      ",
"  +@++++#@@@@@@@#      ",
"  +@@@@@#@+++++@#      ",
"  ++++++#@@@@@@@#      ",
"        #@+++++@#      ",
"        #@@@@@@@#      ",
"        #########      ",
"                       ",
"                       ",
"                       ",
"                       "};
