/* XPM */
static char * nextmark_xpm[] = {
"26 21 6 1",
" 	c None",
"+	c #848284",
"@	c #000084",
"#	c #000000",
"$	c #FFFF00",
"%	c #0000FF",
"                          ",
"                          ",
"                          ",
"      +@@@@               ",
"     +@   +@  @           ",
"     @      @@@           ",
"     @      @@@  #        ",
"     +@    @@@@ #         ",
"      +@       ##         ",
"       +$$$$  #%%#        ",
"      +$$++$$#%%%#        ",
"      +$$++$$%%%@#        ",
"      ++ +$$#%%@@@##      ",
"        +$$  #@@@@%%#     ",
"        +$$  #@@@%%%#     ",
"        #++  #@@%%%#      ",
"       #+$$   ##%%#       ",
"      # +$$    +##        ",
"                          ",
"                          ",
"                          "};
