/* XPM */
static char * open_xpm[] = {
"20 21 5 1",
" 	c None",
"+	c #000000",
"@	c #FFFFFF",
"#	c #FFFF00",
"$	c #848200",
"                    ",
"                    ",
"                    ",
"           +++      ",
"          +   + +   ",
"               ++   ",
"   +++        +++   ",
"  +@#@+++++++       ",
"  +#@#@#@#@#+       ",
"  +@#@#@#@#@+       ",
"  +#@#@++++++++++   ",
"  +@#@+$$$$$$$$$+   ",
"  +#@+$$$$$$$$$+    ",
"  +@+$$$$$$$$$+     ",
"  ++$$$$$$$$$+      ",
"  +++++++++++       ",
"                    ",
"                    ",
"                    ",
"                    ",
"                    "};
