/* XPM */
static char * search_xpm[] = {
"22 21 6 1",
" 	c None",
".	c #C6C3C6",
"+	c #000000",
"@	c #FFFF00",
"#	c #848284",
"$	c #000084",
"                      ",
"                      ",
"                      ",
"  +++                 ",
" +.@#++++++#          ",
" +@.@.@.@.@+          ",
" +.@$@.@.@.+          ",
" +@.@$@.++@+ ++       ",
" +.@.@$@++.+ ++       ",
" +@+@.@.@+@+ ++       ",
" +.@+@+++++#+++++     ",
" #+++++++++++++++     ",
"      + ++++ ++++     ",
"      + ++++ ++++     ",
"      +++++++++++     ",
"      +++#   #+++     ",
"      + +     + +     ",
"      +++     +++     ",
"                      ",
"                      ",
"                      "};
