/* XPM */
static char *cutpoint_xpm[] = {
/* width height num_colors chars_per_pixel */
"    16    15        3            1",
/* colors */
". c #000000",
"# c #800000",
"a c #c0c0c0",
/* pixels */
"aaaaaaaaaaaaaaaa",
"aaaaaaaaaaaaaaaa",
"aa#aaaaaaaaa#aaa",
"aaa#aaaaaaa#aaaa",
"aaaa#aaaaa#aaaaa",
"aaaaa#...#aaaaaa",
"aaaaaa#.#.aaaaaa",
".......#........",
"aaaaaa#.#.aaaaaa",
"aaaaa#...#aaaaaa",
"aaaa#aaaaa#aaaaa",
"aaa#aaaaaaa#aaaa",
"aa#aaaaaaaaa#aaa",
"aaaaaaaaaaaaaaaa",
"aaaaaaaaaaaaaaaa"
};
