/* XPM */
static const char *  null_xpm[] = {
"16 16 11 1",
" 	c None",
".	c #000000",
"+	c #FFFFFF",
"@	c #FDE4E4",
"#	c #F45C5C",
"$	c #EF0B0B",
"%	c #F12727",
"&	c #F67878",
"*	c #FAAEAE",
"=	c #FBC9C9",
"-	c #F89393",
"................",
".++++++++++++++.",
".++++++++++++++.",
".++++@#$$%&++++.",
".+++@%$$$$$&+++.",
".+++&$$#*%$$+++.",
".+++=-#+@%$%+++.",
".++++++@%$$*+++.",
".++++++%$%@++++.",
".+++++*$$*+++++.",
".+++++@**@+++++.",
".+++++*$$*+++++.",
".+++++*$$*+++++.",
".+++++@**@+++++.",
".++++++++++++++.",
"................"};
