/* XPM */
static char * question_xpm[] = {
"48 48 237 2",
"  	c None",
". 	c #464646",
"+ 	c #3B3B3B",
"@ 	c #373737",
"# 	c #0A0A0A",
"$ 	c #474747",
"% 	c #161616",
"& 	c #3F3F3F",
"* 	c #282828",
"= 	c #1C1C1C",
"- 	c #0D0D0D",
"; 	c #090909",
"> 	c #3D3D3D",
", 	c #454545",
"' 	c #4A4A4A",
") 	c #424242",
"! 	c #535353",
"~ 	c #5C5C5C",
"{ 	c #343434",
"] 	c #666666",
"^ 	c #5E5E5E",
"/ 	c #505050",
"( 	c #4C4C4C",
"_ 	c #111111",
": 	c #0E0E0E",
"< 	c #252525",
"[ 	c #414141",
"} 	c #3A3A3A",
"| 	c #595959",
"1 	c #555555",
"2 	c #242424",
"3 	c #393939",
"4 	c #383838",
"5 	c #6E6E6E",
"6 	c #646464",
"7 	c #686868",
"8 	c #8E8E8E",
"9 	c #828282",
"0 	c #848484",
"a 	c #8A8A8A",
"b 	c #737373",
"c 	c #141414",
"d 	c #181818",
"e 	c #363636",
"f 	c #313131",
"g 	c #494949",
"h 	c #2F2F2F",
"i 	c #4D4D4D",
"j 	c #787878",
"k 	c #7E7E7E",
"l 	c #CBCBCB",
"m 	c #CACACA",
"n 	c #CECECE",
"o 	c #D3D3D3",
"p 	c #D2D2D2",
"q 	c #DBDBDB",
"r 	c #E3E3E3",
"s 	c #C8C8C8",
"t 	c #B3B3B3",
"u 	c #BBBBBB",
"v 	c #C2C2C2",
"w 	c #B9B9B9",
"x 	c #929292",
"y 	c #1A1A1A",
"z 	c #333333",
"A 	c #353535",
"B 	c #636363",
"C 	c #7A7A7A",
"D 	c #C1C1C1",
"E 	c #E8E8E8",
"F 	c #ECECEC",
"G 	c #DCDCDC",
"H 	c #E1E1E1",
"I 	c #E2E2E2",
"J 	c #F0F0F0",
"K 	c #EBEBEB",
"L 	c #EDEDED",
"M 	c #DADADA",
"N 	c #D4D4D4",
"O 	c #DEDEDE",
"P 	c #A5A5A5",
"Q 	c #656565",
"R 	c #0F0F0F",
"S 	c #2C2C2C",
"T 	c #262626",
"U 	c #292929",
"V 	c #6A6A6A",
"W 	c #676767",
"X 	c #818181",
"Y 	c #E9E9E9",
"Z 	c #F1F1F1",
"` 	c #E5E5E5",
" .	c #E4E4E4",
"..	c #EAEAEA",
"+.	c #F2F2F2",
"@.	c #F3F3F3",
"#.	c #E0E0E0",
"$.	c #EEEEEE",
"%.	c #F6F6F6",
"&.	c #DDDDDD",
"*.	c #DFDFDF",
"=.	c #8F8F8F",
"-.	c #222222",
";.	c #101010",
">.	c #4E4E4E",
",.	c #797979",
"'.	c #919191",
").	c #CCCCCC",
"!.	c #F4F4F4",
"~.	c #B4B4B4",
"{.	c #B0B0B0",
"].	c #AFAFAF",
"^.	c #B1B1B1",
"/.	c #D7D7D7",
"(.	c #212121",
"_.	c #151515",
":.	c #232323",
"<.	c #4B4B4B",
"[.	c #888888",
"}.	c #C4C4C4",
"|.	c #BABABA",
"1.	c #9E9E9E",
"2.	c #696969",
"3.	c #565656",
"4.	c #626262",
"5.	c #5B5B5B",
"6.	c #545454",
"7.	c #6D6D6D",
"8.	c #9A9A9A",
"9.	c #ADADAD",
"0.	c #C5C5C5",
"a.	c #E7E7E7",
"b.	c #959595",
"c.	c #404040",
"d.	c #080808",
"e.	c #272727",
"f.	c #323232",
"g.	c #C6C6C6",
"h.	c #A6A6A6",
"i.	c #878787",
"j.	c #434343",
"k.	c #2E2E2E",
"l.	c #5A5A5A",
"m.	c #ACACAC",
"n.	c #E6E6E6",
"o.	c #BCBCBC",
"p.	c #767676",
"q.	c #1F1F1F",
"r.	c #202020",
"s.	c #070707",
"t.	c #1E1E1E",
"u.	c #D5D5D5",
"v.	c #949494",
"w.	c #5D5D5D",
"x.	c #3C3C3C",
"y.	c #3E3E3E",
"z.	c #868686",
"A.	c #757575",
"B.	c #0C0C0C",
"C.	c #2A2A2A",
"D.	c #BEBEBE",
"E.	c #D9D9D9",
"F.	c #0B0B0B",
"G.	c #060606",
"H.	c #050505",
"I.	c #2D2D2D",
"J.	c #CDCDCD",
"K.	c #D6D6D6",
"L.	c #D8D8D8",
"M.	c #BFBFBF",
"N.	c #707070",
"O.	c #7B7B7B",
"P.	c #A0A0A0",
"Q.	c #BDBDBD",
"R.	c #717171",
"S.	c #030303",
"T.	c #B6B6B6",
"U.	c #191919",
"V.	c #444444",
"W.	c #B5B5B5",
"X.	c #EFEFEF",
"Y.	c #5F5F5F",
"Z.	c #606060",
"`.	c #484848",
" +	c #ABABAB",
".+	c #1B1B1B",
"++	c #4F4F4F",
"@+	c #727272",
"#+	c #989898",
"$+	c #9D9D9D",
"%+	c #020202",
"&+	c #6C6C6C",
"*+	c #838383",
"=+	c #777777",
"-+	c #040404",
";+	c #747474",
">+	c #8C8C8C",
",+	c #D0D0D0",
"'+	c #585858",
")+	c #171717",
"!+	c #515151",
"~+	c #C0C0C0",
"{+	c #010101",
"]+	c #575757",
"^+	c #303030",
"/+	c #F5F5F5",
"(+	c #B7B7B7",
"_+	c #808080",
":+	c #A3A3A3",
"<+	c #7C7C7C",
"[+	c #C3C3C3",
"}+	c #1D1D1D",
"|+	c #CFCFCF",
"1+	c #525252",
"2+	c #909090",
"3+	c #898989",
"4+	c #A4A4A4",
"5+	c #D1D1D1",
"6+	c #2B2B2B",
"7+	c #A2A2A2",
"8+	c #8B8B8B",
"9+	c #7D7D7D",
"0+	c #000000",
"a+	c #121212",
"b+	c #B8B8B8",
"c+	c #B2B2B2",
"d+	c #C7C7C7",
"e+	c #6B6B6B",
"f+	c #A8A8A8",
"g+	c #A9A9A9",
"h+	c #999999",
"i+	c #C9C9C9",
"j+	c #969696",
"k+	c #9C9C9C",
"l+	c #AAAAAA",
"m+	c #6F6F6F",
"n+	c #858585",
"                                                                                                ",
"                                                                                                ",
"                                                                                                ",
"                                                                                                ",
"                                    .                   + @ #                                   ",
"                                  $ %                 & * = - ; *                               ",
"                            > , ' > ) ! ~ ' { { > ] ^ / ( , { _ : <                             ",
"                    [ } [ | 1 . 2 3 4 5 6 7 8 9 0 a b ~ ( / ( { c d e f                         ",
"                > g 2 h . g & i j k l m n o p q r s t u v w x 5 ) y d : 2 z                     ",
"          @ > A { + e / B 1 C D E F G H I J K F L E M p N n p p O P Q } R _ f * S T             ",
"        U A , < , e V W X H Y Z ` E  .Z ..+.@.#. .L $.%.@.+.$.` &.*.O v =.h # -.= ;.            ",
"    }   y > >.. 4 ,.'.).F !.E L &.J Y r N s u t ~.{.].^.w l K H /.I  .r M u V (.- y _.          ",
"    :.' < ' <.4 [.}.O F $...).!.}.p |.{.1.0 2.3.4.~ 5.6.7.8.9.0.l  .#.Y a.&.o b.c._.d.=         ",
"  % e.| f.h / j l N !.L L E  .F g.h.i.7 3.( ! ^ ] b j.@ U k.l.0 m.v  . .L n.M o.p.q.r.< s.    @ ",
"  t.h / -.6.p.m u.n.n.O $.a.K L }.v.w.x.y.B Q z.^.n A.2 B.C.x.> z.m.D.E.` E I q ).p.:.F.G.H.  { ",
"  I.@ ' j.7 J.K.a...E K !.L.K K.M.N.<./ 6.O.P.Q.H o R.y.# S.k.j.V u T.K L ..+.K  .u 7.y B.s.U.U ",
"H.> l.V.1 W.E #.X.#.F $.L Z H #.M.7.Y.5.Z.x T.&.K O j / C.y `.% .  +0.#. .K E J X.G P ^ .+G.B._ ",
";.e.++( @+E &.E Y G E I Y J K $.p x #+#+'.m.p n...T.1 > e <.d } { $+m J O J r F E !.M 8.c.%+C.S.",
"V.) e &+u...*.X.Y M L @...#.J F &.X.o.8.M E F a.D.*+! = 1 $ ++V.4.^.0.N X.O L &.` *...).=+q.# -+",
". V.i #+*.r O ..a.@.K ` $.X.n.a.q  .#...F +.r 9.;+Z.y.[ 3.V.) >+o.s M  .O L n...L #.q r ,+>.d.;.",
"'+)+6 a o $.#.r ..E ..J F $.Z Y a.n.n.K  .L.P ^ } V.!+V.S ;+~+T.N L  . .Z n.K r q X.L.F G 7 c {+",
"} = ]+1.J.J X.J L I @.#.E $.J Y  .a.!. .|.W <.>.q.) x.C W.).N Y $.#.n.J  .Y ..` J  .a. .K.| S d ",
"4 z !+~.K.K I I ..Z M Y a.#.J a. .J I 0.j y.^+c.:.j.i.M.,+$.Z F ` O E  .L +. .!.E n.E r u.=.-.;.",
"^+2 $ Q.*.X.$.J ` q O K +.$.F ..$.` ` h.<.: h < _., x r /+a.n.E O X...L $. .` n. .F a.r N p.V.S ",
"_.c $ (+ .I Y +.Y $.q ` a.F J L. . .O >+V.e * c r.t.^ _+P.l a.M E.K ..L ..+.L E Z n.E M m 6 <.# ",
"* G.f :+&.` a...$.+.*.Z K r K @.J &.L [.V.* T C.* C.^+' 7.<+t N L.$.+.` n.E ..X...L.!.l [+6., # ",
"}+k.G.$+N O n.X...F #.*.G E ..#.K M F J.#+5.' x.c.r.e t.'+^.}.#.#.L.F E E J n. .Y I @.|+^.1+. _.",
"; R S.j.}.Z n...@.F q J J F r !.n.E X.Y r }.#+<+8 2+b.P n u.G a.I ..#.X.r &.I $.E #.K u.3+4 , B.",
"s._ - G.4+K.n.G X.X.@.*. .H !.` E H &.K.*.F 5+*.&.q K.O /.*.n.L.q E ..I +.Y G #.$.F $.s 7.6+' B.",
"%+- % s.t.7+ . .H a.$.+.a. .a.@.J $.@.*.J D 1.8+#+4+P ^.M L.I +.#.L  .Y $.Y !.E F J K.9+6.k.' 0+",
"  F.G.a+- ^ b+Z  .E #.E I +... ...Z ` $.m m.6 $ >.| B 5 |+E.n.M @.K n...Y K ` +.I X.8.'++ { d > ",
"    ; G.- .+`.c+K a.K H  .@.F +.r  .Y n.N P ]+3 3 + y.<+1.L.a.*.n. .!. .n...G n.p ^.A.@ 3 T -.  ",
"      ;.# - t.[ >+I X.q *.r H +.a.K.E q d+C @ 4 & 3 k.l.D n. .X.r +.G X.#.+.I E w Y.& . { -+    ",
"      c -+F.B.d ) [.).Z  .Y @.L.*.X.L.r L.*+B ^ 1 | e+=.K.F I ..+.Y @.Y I G ].f+=.W ! 4.' S     ",
"          C.= * 4 4 j g+` n.F n.+.L $.G E M 0 6 7.2.P.J.` ` r ..$.E ..F /+#.0 &+g ^+S (.        ",
"        & < = : )+;.T g =+n F E.n...$.`  .E H u.s h.~+E X.u.E Z E !.$.Y r Z L.1.7.~ ^+s.        ",
"            r.}+a+- U.U.C.;+h+i+&.L.N X.a.r `  .$.n.I +.G Z J ` E.0.d+).L.I u m 8 7 + _   k.    ",
"            t.}+a+%+# _.# % } @+=.j+k+l+p L i+M K.N ,+s d+u 7+8+z.k 8+v.h.u 0.r /.z.w.6+- z     ",
"                    y T k.^+f.3 y.[ / 6 A.p.j ;+p.V <+Q ~ ]+'+6.i ( @ & 6.m+k $+m.P n+i f e ) > ",
"                    f.y (.e.^+T d.2 I.! , i z T 2 )+* @ >.V.3 < 2 S A = }+2 I.k.]+4.R.A.V.6 z r.",
"                        -.- d.B.T & k.z h S S A c.++& { f f [ -.# ; ;.2 h I.{ y.[ x.4 k.<.6+j.@ ",
"                              1+e c ;.R # H.S.F.S._ {+0+0+G._ (.U & j.q.h a+F.%+{+d 3 ( f.y -.r.",
"                            y.-.                                              & 3 k._.G.d._.a+d ",
"                                                                                          H.s.G.",
"                                                                                                ",
"                                                                                                ",
"                                                                                                ",
"                                                                                                "};
