/* XPM */
static char * warning_xpm[] = {
"48 48 755 2",
"  	c None",
". 	c #743D3D",
"+ 	c #834343",
"@ 	c #973A3A",
"# 	c #8A4747",
"$ 	c #742222",
"% 	c #7D1A1A",
"& 	c #B63636",
"* 	c #B13131",
"= 	c #A32F2F",
"- 	c #AB3535",
"; 	c #952D2D",
"> 	c #851818",
", 	c #C62727",
"' 	c #B71818",
") 	c #DD4A4A",
"! 	c #9A1010",
"~ 	c #914545",
"{ 	c #903737",
"] 	c #943737",
"^ 	c #AE2626",
"/ 	c #E45252",
"( 	c #DE2F2F",
"_ 	c #BC1F1F",
": 	c #843D3D",
"< 	c #8F3030",
"[ 	c #8F2C2C",
"} 	c #AC3939",
"| 	c #CB4C4C",
"1 	c #E03636",
"2 	c #D23636",
"3 	c #BA1B1B",
"4 	c #840808",
"5 	c #8A3C3C",
"6 	c #A54141",
"7 	c #C63C3C",
"8 	c #E44646",
"9 	c #D55151",
"0 	c #E59E9E",
"a 	c #E08686",
"b 	c #BC2424",
"c 	c #8D2D2D",
"d 	c #CB4F4F",
"e 	c #EB5D5D",
"f 	c #DC3030",
"g 	c #DC9292",
"h 	c #E99B9B",
"i 	c #DD4C4C",
"j 	c #D22323",
"k 	c #A52929",
"l 	c #814444",
"m 	c #7D3636",
"n 	c #974B4B",
"o 	c #AA3232",
"p 	c #CD3737",
"q 	c #EE4343",
"r 	c #D07272",
"s 	c #E69C9C",
"t 	c #D38181",
"u 	c #DB4A4A",
"v 	c #DA3E3E",
"w 	c #C41E1E",
"x 	c #890303",
"y 	c #732C2C",
"z 	c #995050",
"A 	c #B42C2C",
"B 	c #E45555",
"C 	c #E25858",
"D 	c #E69898",
"E 	c #D6B4B4",
"F 	c #E0D0D0",
"G 	c #DF6969",
"H 	c #DE3C3C",
"I 	c #DC0E0E",
"J 	c #AE0909",
"K 	c #660F0F",
"L 	c #B05A5A",
"M 	c #C13535",
"N 	c #ED4F4F",
"O 	c #E08181",
"P 	c #E7C7C7",
"Q 	c #F1EEEE",
"R 	c #DBD9D9",
"S 	c #DCBDBD",
"T 	c #DD5555",
"U 	c #E62020",
"V 	c #CB0C0C",
"W 	c #AA2323",
"X 	c #7D1D1D",
"Y 	c #B65757",
"Z 	c #AC4444",
"` 	c #CE4343",
" .	c #E86565",
"..	c #D4AAAA",
"+.	c #F2EEEE",
"@.	c #E5E2E2",
"#.	c #F2F0F0",
"$.	c #EDEAEA",
"%.	c #D78A8A",
"&.	c #DF4242",
"*.	c #E91010",
"=.	c #BE1111",
"-.	c #7D0404",
";.	c #BE4848",
">.	c #B74C4C",
",.	c #D13838",
"'.	c #E29A9A",
").	c #E2D9D9",
"!.	c #E6E4E4",
"~.	c #D3D2D2",
"{.	c #DAD8D8",
"].	c #DBCACA",
"^.	c #DC7272",
"/.	c #E03E3E",
"(.	c #D81111",
"_.	c #B30E0E",
":.	c #600C0C",
"<.	c #B85757",
"[.	c #C43A3A",
"}.	c #EF4A4A",
"|.	c #DA7E7E",
"1.	c #EADFDF",
"2.	c #E2E0E0",
"3.	c #E0DFDF",
"4.	c #D8D8D8",
"5.	c #C9C8C8",
"6.	c #D6D6D6",
"7.	c #D8D6D6",
"8.	c #DFB8B8",
"9.	c #E63434",
"0.	c #E11E1E",
"a.	c #C72C2C",
"b.	c #7E0303",
"c.	c #8A2A2A",
"d.	c #BD4848",
"e.	c #E55454",
"f.	c #E63838",
"g.	c #D2AAAA",
"h.	c #A9A9A9",
"i.	c #646464",
"j.	c #9D9D9D",
"k.	c #9A9A9A",
"l.	c #989898",
"m.	c #BFBABA",
"n.	c #DA8787",
"o.	c #E52020",
"p.	c #DA1C1C",
"q.	c #A20909",
"r.	c #BA5151",
"s.	c #CB3F3F",
"t.	c #D56666",
"u.	c #D7D6D6",
"v.	c #C4C4C4",
"w.	c #5F5F5F",
"x.	c #242424",
"y.	c #333333",
"z.	c #2E2E2E",
"A.	c #525252",
"B.	c #A6A6A6",
"C.	c #C8C6C6",
"D.	c #DCC6C6",
"E.	c #E45454",
"F.	c #E21D1D",
"G.	c #D20D0D",
"H.	c #820202",
"I.	c #B05050",
"J.	c #E45656",
"K.	c #E33E3E",
"L.	c #E95F5F",
"M.	c #DCC0C0",
"N.	c #D9D9D9",
"O.	c #ACACAC",
"P.	c #767676",
"Q.	c #191919",
"R.	c #202020",
"S.	c #353535",
"T.	c #E4E4E4",
"U.	c #E9DEDE",
"V.	c #E92D2D",
"W.	c #D52020",
"X.	c #B80505",
"Y.	c #814B4B",
"Z.	c #904646",
"`.	c #D35858",
" +	c #EE4646",
".+	c #E39B9B",
"++	c #E8E4E4",
"@+	c #E1E1E1",
"#+	c #BCBCBC",
"$+	c #777878",
"%+	c #282828",
"&+	c #0E0E0E",
"*+	c #222222",
"=+	c #343434",
"-+	c #9C9C9C",
";+	c #F0F0F0",
">+	c #DAD7D7",
",+	c #E3C5C5",
"'+	c #DE6565",
")+	c #E82323",
"!+	c #D91414",
"~+	c #A20707",
"{+	c #852F2F",
"]+	c #A84646",
"^+	c #EA5D5D",
"/+	c #E84040",
"(+	c #E26969",
"_+	c #EBDCDC",
":+	c #E9E7E7",
"<+	c #E0E0E0",
"[+	c #686868",
"}+	c #2B2B2B",
"|+	c #181818",
"1+	c #232323",
"2+	c #8C8C8C",
"3+	c #EEEEEE",
"4+	c #E9E8E8",
"5+	c #D5C8C8",
"6+	c #E28F8F",
"7+	c #DD3939",
"8+	c #D71C1C",
"9+	c #DE1313",
"0+	c #8F4848",
"a+	c #904545",
"b+	c #D65959",
"c+	c #ED4444",
"d+	c #E65252",
"e+	c #E3ACAC",
"f+	c #E5DEDE",
"g+	c #EDEDED",
"h+	c #E8E8E8",
"i+	c #D5D5D5",
"j+	c #727272",
"k+	c #101010",
"l+	c #252525",
"m+	c #3C3C3C",
"n+	c #B0B0B0",
"o+	c #F2F2F2",
"p+	c #DEDCDC",
"q+	c #DBB6B6",
"r+	c #E07171",
"s+	c #DC2F2F",
"t+	c #DC2222",
"u+	c #B30707",
"v+	c #8A3F3F",
"w+	c #8A2D2D",
"x+	c #A73F3F",
"y+	c #E85B5B",
"z+	c #E94242",
"A+	c #E36060",
"B+	c #EBDFDF",
"C+	c #E3E0E0",
"D+	c #F6F6F6",
"E+	c #E7E7E7",
"F+	c #DADADA",
"G+	c #787878",
"H+	c #262626",
"I+	c #303030",
"J+	c #404040",
"K+	c #B1B1B1",
"L+	c #F5F5F5",
"M+	c #DBDBDB",
"N+	c #EAEAEA",
"O+	c #E6DFDF",
"P+	c #DE9F9F",
"Q+	c #E05959",
"R+	c #DF2C2C",
"S+	c #D00808",
"T+	c #930303",
"U+	c #872D2D",
"V+	c #CD5757",
"W+	c #EF4444",
"X+	c #E0AEAE",
"Y+	c #E9E2E2",
"Z+	c #ECEAEA",
"`+	c #7C7C7C",
" @	c #161616",
".@	c #B2B2B2",
"+@	c #F4F4F4",
"@@	c #ECECEC",
"#@	c #E6E6E6",
"$@	c #E8E7E7",
"%@	c #E3D8D8",
"&@	c #DD8787",
"*@	c #DD3D3D",
"=@	c #E11919",
"-@	c #AE0404",
";@	c #7F4A4A",
">@	c #8C4343",
",@	c #953A3A",
"'@	c #CE4444",
")@	c #E74343",
"!@	c #DA7878",
"~@	c #E4E3E3",
"{@	c #ECEBEB",
"]@	c #EFEEEE",
"^@	c #E2E2E2",
"/@	c #AEAEAE",
"(@	c #393939",
"_@	c #121212",
":@	c #2A2A2A",
"<@	c #4D4D4D",
"[@	c #D1D1D1",
"}@	c #EFEFEF",
"|@	c #DCDCDC",
"1@	c #E5E6E6",
"2@	c #F0EFEF",
"3@	c #E2CCCC",
"4@	c #E27474",
"5@	c #DB2B2B",
"6@	c #CE0C0C",
"7@	c #9E0A0A",
"8@	c #7B3232",
"9@	c #5A0808",
"0@	c #8B4343",
"a@	c #B24B4B",
"b@	c #B35454",
"c@	c #EA5C5C",
"d@	c #D8C1C1",
"e@	c #E4DEDE",
"f@	c #DEDEDE",
"g@	c #C5C5C5",
"h@	c #555555",
"i@	c #131313",
"j@	c #A2A2A2",
"k@	c #F3F3F3",
"l@	c #E3E3E3",
"m@	c #EBECEC",
"n@	c #E2DADA",
"o@	c #DDA6A6",
"p@	c #E13434",
"q@	c #DF3838",
"r@	c #BD0C0C",
"s@	c #912A2A",
"t@	c #833737",
"u@	c #A15050",
"v@	c #A83E3E",
"w@	c #CE3333",
"x@	c #DA6F6F",
"y@	c #EAE9E9",
"z@	c #E7E6E6",
"A@	c #E6E5E5",
"B@	c #636363",
"C@	c #1D1D1D",
"D@	c #B6B6B6",
"E@	c #E9E9E9",
"F@	c #EBEBEB",
"G@	c #DDDDDD",
"H@	c #E8E9E9",
"I@	c #E0CECE",
"J@	c #D66D6D",
"K@	c #E41919",
"L@	c #D61414",
"M@	c #AD2A2A",
"N@	c #904D4D",
"O@	c #963737",
"P@	c #C24040",
"Q@	c #E63E3E",
"R@	c #E67676",
"S@	c #DCC1C1",
"T@	c #E5E4E4",
"U@	c #E4E2E2",
"V@	c #EAE8E8",
"W@	c #F2F1F1",
"X@	c #DBDADA",
"Y@	c #C8C8C8",
"Z@	c #6E6E6E",
"`@	c #292929",
" #	c #111111",
".#	c #DFDFDF",
"+#	c #DACFCF",
"@#	c #E09494",
"##	c #EA3333",
"$#	c #CE1818",
"%#	c #9A0D0D",
"&#	c #822323",
"*#	c #7F3131",
"=#	c #D24C4C",
"-#	c #E64C4C",
";#	c #D74A4A",
">#	c #E6ADAD",
",#	c #F1F1F1",
"'#	c #EEEDED",
")#	c #323232",
"!#	c #212121",
"~#	c #B8B8B8",
"{#	c #D4D4D4",
"]#	c #DFBABA",
"^#	c #DE6969",
"/#	c #E62525",
"(#	c #E20D0D",
"_#	c #B80707",
":#	c #821717",
"<#	c #A84545",
"[#	c #EC5353",
"}#	c #DF3D3D",
"|#	c #DC7878",
"1#	c #EBDBDB",
"2#	c #909090",
"3#	c #535353",
"4#	c #2C2C2C",
"5#	c #CBCBCB",
"6#	c #CDCDCD",
"7#	c #E7E4E4",
"8#	c #DB9696",
"9#	c #DB5454",
"0#	c #EB1212",
"a#	c #D60B0B",
"b#	c #8C0303",
"c#	c #580E0E",
"d#	c #8E2727",
"e#	c #D25454",
"f#	c #EC4343",
"g#	c #E27777",
"h#	c #D7A1A1",
"i#	c #F1F2F2",
"j#	c #E2E1E1",
"k#	c #DEDDDD",
"l#	c #606060",
"m#	c #858585",
"n#	c #C1C1C1",
"o#	c #E5E5E5",
"p#	c #F0E7E7",
"q#	c #DE7B7B",
"r#	c #DB3C3C",
"s#	c #E81010",
"t#	c #B60404",
"u#	c #6D1919",
"v#	c #983333",
"w#	c #D64444",
"x#	c #EA5E5E",
"y#	c #D97A7A",
"z#	c #F3F2F2",
"A#	c #F3F0F0",
"B#	c #F1F0F0",
"C#	c #C0C0C0",
"D#	c #737373",
"E#	c #B9B9B9",
"F#	c #D7D7D7",
"G#	c #DCDBDB",
"H#	c #DEBABA",
"I#	c #E06868",
"J#	c #E22525",
"K#	c #D60C0C",
"L#	c #A33838",
"M#	c #CD4444",
"N#	c #E46464",
"O#	c #D4A6A6",
"P#	c #F0EEEE",
"Q#	c #DFDEDE",
"R#	c #CACACA",
"S#	c #696969",
"T#	c #CCCCCC",
"U#	c #DADBDB",
"V#	c #D2D2D2",
"W#	c #DB8F8F",
"X#	c #D64A4A",
"Y#	c #E81616",
"Z#	c #AC0303",
"`#	c #904949",
" $	c #D15656",
".$	c #AE4343",
"+$	c #DA5C5C",
"@$	c #D99090",
"#$	c #E1E0E0",
"$$	c #E3E2E2",
"%$	c #9E9E9E",
"&$	c #8F8F8F",
"*$	c #424242",
"=$	c #404141",
"-$	c #D6C0C0",
";$	c #D57070",
">$	c #E03939",
",$	c #CE1212",
"'$	c #AA1E1E",
")$	c #BA5555",
"!$	c #E85252",
"~$	c #DC5050",
"{$	c #E36464",
"]$	c #DDBDBD",
"^$	c #D6D4D4",
"/$	c #E8E6E6",
"($	c #606161",
"_$	c #717171",
":$	c #373838",
"<$	c #828282",
"[$	c #BEBDBD",
"}$	c #E7E5E5",
"|$	c #D9B3B3",
"1$	c #E23F3F",
"2$	c #E01919",
"3$	c #D41010",
"4$	c #D45656",
"5$	c #E43E3E",
"6$	c #EB6868",
"7$	c #E29696",
"8$	c #E7DCDC",
"9$	c #DAD6D6",
"0$	c #E0E1E1",
"a$	c #C2C0C0",
"b$	c #838383",
"c$	c #666666",
"d$	c #363535",
"e$	c #505151",
"f$	c #646262",
"g$	c #978C8C",
"h$	c #E1D2D2",
"i$	c #D58484",
"j$	c #E82929",
"k$	c #DB1616",
"l$	c #B30808",
"m$	c #B05252",
"n$	c #E55252",
"o$	c #DF4949",
"p$	c #E86363",
"q$	c #E1C8C8",
"r$	c #EDE8E8",
"s$	c #F0E9E9",
"t$	c #EEECEC",
"u$	c #D2CFCF",
"v$	c #7B7676",
"w$	c #4C4C4C",
"x$	c #5A5A5A",
"y$	c #4A4A4A",
"z$	c #857979",
"A$	c #969090",
"B$	c #E6E7E7",
"C$	c #EAD4D4",
"D$	c #DA6565",
"E$	c #E61717",
"F$	c #DA1212",
"G$	c #860404",
"H$	c #8E4040",
"I$	c #843737",
"J$	c #843333",
"K$	c #D04D4D",
"L$	c #E64E4E",
"M$	c #E3A9A9",
"N$	c #E3D5D5",
"O$	c #F1EDED",
"P$	c #ECEDED",
"Q$	c #E2E3E3",
"R$	c #E1E2E2",
"S$	c #EFF0F0",
"T$	c #C4C1C1",
"U$	c #867F7F",
"V$	c #504E4E",
"W$	c #414141",
"X$	c #4C4A4A",
"Y$	c #959393",
"Z$	c #F2F3F3",
"`$	c #E9E5E5",
" %	c #E28888",
".%	c #D83939",
"+%	c #D91212",
"@%	c #BE0C0C",
"#%	c #962E2E",
"$%	c #D23B3B",
"%%	c #E65555",
"&%	c #E25A5A",
"*%	c #E58E8E",
"=%	c #EBD6D6",
"-%	c #E8E1E1",
";%	c #DFD7D7",
">%	c #E8E0E0",
",%	c #DFD6D6",
"'%	c #E1DEDE",
")%	c #E6E8E8",
"!%	c #E8EAEA",
"~%	c #E7E9E9",
"{%	c #ECEEEE",
"]%	c #E4E7E7",
"^%	c #DEDFDF",
"/%	c #E7E8E8",
"(%	c #B3B1B1",
"_%	c #948D8D",
":%	c #7E7777",
"<%	c #918888",
"[%	c #A09F9F",
"}%	c #E0DEDE",
"|%	c #E2E4E4",
"1%	c #DEE0E0",
"2%	c #EAECEC",
"3%	c #EEEFEF",
"4%	c #E09B9B",
"5%	c #DA6161",
"6%	c #E61E1E",
"7%	c #981212",
"8%	c #823131",
"9%	c #C84646",
"0%	c #E93D3D",
"a%	c #EB8787",
"b%	c #E4B8B8",
"c%	c #CFBDBD",
"d%	c #DACDCD",
"e%	c #ECE5E5",
"f%	c #D8C7C7",
"g%	c #E1CACA",
"h%	c #E9D5D5",
"i%	c #EBD9D9",
"j%	c #E6D3D3",
"k%	c #DAC1C1",
"l%	c #DEBEBE",
"m%	c #E2BDBD",
"n%	c #E6CDCD",
"o%	c #D5C0C0",
"p%	c #D8D4D4",
"q%	c #D8D5D5",
"r%	c #CAC6C6",
"s%	c #C6C4C4",
"t%	c #DBCDCD",
"u%	c #ECDDDD",
"v%	c #EEDEDE",
"w%	c #EAD9D9",
"x%	c #E5CFCF",
"y%	c #E4CACA",
"z%	c #E4C7C7",
"A%	c #DAD9D9",
"B%	c #E9E3E3",
"C%	c #E1D3D3",
"D%	c #DBC2C2",
"E%	c #ECE6E6",
"F%	c #E2CBCB",
"G%	c #D98282",
"H%	c #D47474",
"I%	c #CB5656",
"J%	c #9E1313",
"K%	c #811717",
"L%	c #E04E4E",
"M%	c #CA2A2A",
"N%	c #E24D4D",
"O%	c #E45858",
"P%	c #DC5858",
"Q%	c #DB6D6D",
"R%	c #E26C6C",
"S%	c #E6A2A2",
"T%	c #DE9696",
"U%	c #D98888",
"V%	c #DB7C7C",
"W%	c #E37676",
"X%	c #DF8080",
"Y%	c #E07D7D",
"Z%	c #E98484",
"`%	c #E58181",
" &	c #D96E6E",
".&	c #DA6C6C",
"+&	c #DB8181",
"@&	c #C26C6C",
"#&	c #C17474",
"$&	c #E25F5F",
"%&	c #E79898",
"&&	c #DE8A8A",
"*&	c #E68484",
"=&	c #E88181",
"-&	c #E98080",
";&	c #DE6A6A",
">&	c #E06060",
",&	c #E66666",
"'&	c #DE7777",
")&	c #E67272",
"!&	c #E85D5D",
"~&	c #D85A5A",
"{&	c #D96C6C",
"]&	c #C46666",
"^&	c #D45858",
"/&	c #DE5757",
"(&	c #CD4343",
"_&	c #C03434",
":&	c #981A1A",
"<&	c #862B2B",
"[&	c #C44B4B",
"}&	c #DA5656",
"|&	c #CF2D2D",
"1&	c #DF3434",
"2&	c #D62121",
"3&	c #E02121",
"4&	c #EA1B1B",
"5&	c #E42828",
"6&	c #E02727",
"7&	c #DC3232",
"8&	c #E63535",
"9&	c #E93737",
"0&	c #E73C3C",
"a&	c #DD3C3C",
"b&	c #EA4949",
"c&	c #E63131",
"d&	c #E02A2A",
"e&	c #DF2626",
"f&	c #E33C3C",
"g&	c #E53030",
"h&	c #E02525",
"i&	c #D72626",
"j&	c #E52E2E",
"k&	c #E63232",
"l&	c #E93B3B",
"m&	c #E83C3C",
"n&	c #E94848",
"o&	c #E43535",
"p&	c #E22F2F",
"q&	c #E43636",
"r&	c #E73636",
"s&	c #EE3B3B",
"t&	c #EC4949",
"u&	c #EE4040",
"v&	c #CE4646",
"w&	c #C03333",
"x&	c #B11818",
"y&	c #B12B2B",
"z&	c #9B1919",
"A&	c #C54E4E",
"B&	c #C52323",
"C&	c #D43D3D",
"D&	c #BF1E1E",
"E&	c #B23232",
"F&	c #B21616",
"G&	c #B90909",
"H&	c #B20B0B",
"I&	c #AF0B0B",
"J&	c #B40C0C",
"K&	c #C22929",
"L&	c #C12121",
"M&	c #B81212",
"N&	c #B71414",
"O&	c #BA0F0F",
"P&	c #BA0D0D",
"Q&	c #B10909",
"R&	c #B00A0A",
"S&	c #B20707",
"T&	c #B70F0F",
"U&	c #B50C0C",
"V&	c #B30909",
"W&	c #BA2626",
"X&	c #BB1F1F",
"Y&	c #B81616",
"Z&	c #BA0E0E",
"`&	c #B80C0C",
" *	c #C03131",
".*	c #B91616",
"+*	c #BD1414",
"@*	c #BB0D0D",
"#*	c #B90A0A",
"$*	c #BB2525",
"%*	c #BD1717",
"&*	c #B70E0E",
"**	c #B31515",
"=*	c #A10404",
"-*	c #A51616",
";*	c #A61E1E",
">*	c #C32B2B",
",*	c #940303",
"'*	c #9C0606",
")*	c #A21616",
"!*	c #A32323",
"~*	c #8F2525",
"{*	c #7D0202",
"                                                                                                ",
"                                                                                                ",
"                                                                                                ",
"                                                                                                ",
"                                      . +       @ # $                                           ",
"                                        % & * = - ;                                             ",
"                                          > , ' ) !                                             ",
"                                      ~ { ] ^ / ( _                                             ",
"                                    : < [ } | 1 2 3 4                                           ",
"                                      5 6 7 8 9 0 a b                                           ",
"                                      c d e f g h i j k                                         ",
"                                l m n o p q r s t u v w x   y                                   ",
"                                    z A B C D E F G H I J   K                                   ",
"                                    L M N O P Q R S T U V W X                                   ",
"                                  Y Z `  ...+.@.#.$.%.&.*.=.-.                                  ",
"                                  ;.>.,.'.).#.!.~.{.].^./.(._.                                  ",
"                              :.<.[.}.|.1.2.3.4.5.6.7.8.9.0.a.b.                                ",
"                              c.d.e.f.g.h.i.j.k.k.l.k.m.n.o.p.q.                                ",
"                              r.s.8 t.u.v.w.x.y.z.A.B.C.D.E.F.G.H.                              ",
"                            I.J.K.L.M.N.O.P.Q.R.S.A.j.T.U.n.V.W.X.                              ",
"                        Y.Z.`. +B .+++@+#+$+%+&+*+=+-+;+>+,+'+)+!+~+                            ",
"                      {+  ]+^+/+(+_+:+<+6.[+}+|+=+1+2+3+4+5+6+7+8+9+                            ",
"                      0+a+b+c+d+e+f+g+h+i+j+k+l+y.m+n+o+<+p+q+r+s+t+u+                          ",
"                    v+w+x+y+z+A+B+C+D+E+F+G+H+l+I+J+K+L+M+N+O+P+Q+R+S+T+                        ",
"                      U+V+W+/ X+Y+Z+4+o+<+`+Q. @z.S..@+@@@#@$@%@&@*@=@-@                        ",
"                  ;@>@,@'@)@!@1.~@{@]@{@^@/@(@_@:@<@[@}@|@N+1@2@3@4@5@6@7@                      ",
"                8@9@0@a@b@c@d@e@f@$@$@{@|@g@h@i@z.j@4.k@l@T.^@m@n@o@p@q@r@s@                    ",
"                  t@u@v@w@x@+@6.]@4+y@z@A@[@B@C@H+D@E@F@F@l@G@^@H@I@J@K@L@M@                    ",
"                N@O@P@Q@R@S@]@T@U@V@W@T@X@Y@Z@`@ #v.@@L+#@^@;+g+.#+#@#) ##$#%#                  ",
"              &#*#=#-#;#>#;+4+U@,#;+~@'#^@g+`+)#!#~#{#h+^@T.E@E+;+T@]#^#/#(#_#                  ",
"              :#<#[#}#|#1#;+4+#.~@E@o+h+^@E@2#3#4#5#6#F+F+,#@@h+^@o+7#8#9#0#a#b#                ",
"            c#d#e#f#g#h#i#3+j#k#V@W@z@+@F@F+k.l#m#n#[@;+}@#@T.o+@@o#E@p#q#r#s#t#                ",
"            u#v#w#x#y##.|@z#o+T.A#|@B#3.h+,#C#D#j.E#{#F#g+o+3+l@,#g+F@G#H#I#J#K#                ",
"            6 L#M#N#O#P#4+Q#A@o+@@F+f@Y@@@R#~#S#T#U#R#N.V##@+@g+T.E++@~@+#W#X#Y#Z#s@            ",
"          `# $.$+$@$Q #$#.$$@@}@E+,#M+f@E+%$&$*$=$-+.#E@+@<+^@}@L+h+i+Z+y@-$;$>$,$'$            ",
"          )$!$~${$]$^$A@/$#.@@^@@@N+;+E+g@($_$S.:$<$[$3+E+g+3+T.E+E@4.3.y@}$|$1$2$3$            ",
"          4$5$6$7$8$9$z#2.V@P#+@N+0$3+a$b$c$i.d$e$f$g$.#<+o#3+3+.#h+l@o#^@$@h$i$j$k$l$          ",
"        m$n$o$p$q$r$s$t$h+m@#.A@3+T.H@u$v$w$x$y$c$z$A$v.T@}@T.B$}@F@|@}@#@T@/$C$D$E$F$G$        ",
"  H$I$J$K$/+L$M$N$O$z#$@#@^@P$Q$B$R$S$@@T$U$V$W$X$X$Y$5.G@Z$m@E@R$S$}@u.B##@F@`$ %.%+%@%        ",
"    #%$%%%&%*%=%-%;%>%,%'%)%!%~%{%]%^%/%,#(%_%:%<%[%C.}%M+|%1%|%2%]%3%;+k#]@;+E+4%5%6%G.7%      ",
"    8%9%0%a%b%c%d%e%f%g%h%i%j%k%l%m%n%o%d@p%C.q%r%s%G#t%u%v%w%x%y%z%o#A%B%C%D%E%F%G%H%I%J%K%    ",
"    E.L%M%N%O%P%Q%R% .S%T%U%V%W%X%Y%Z%`% &.&+&@&#&Q%$&%&&&*&=&-&W%;&>&,&'&)&!&~&{&]&^&/&(&_&:&  ",
"<&[&}&|&5$1&2&3&4&5&6&7&8&9&0&a&b&c&d&e&f&g&h&i&j&k&l&1$m&n&9.o&8&p&q&r&s&/.t&u&X#v&w&x&y&z&    ",
"O@A&B&C&D&E&F&G&H&I&J&K&L&M&N&O&P&Q&R&S&T&U&V&W&X&Y&Z&`& *.*+*@*#*$*_ %*&***J&=*-*;*>*,*'*)*!*  ",
"  ~*                                                                                        {*  ",
"                                                                                                ",
"                                                                                                ",
"                                                                                                "};
