/* XPM */
static char * combo_xpm[] = {
"64 48 2 1",
" 	c #FFFFFFFFFFFF",
".	c #3B3BFAFA3434",
"                                                                ",
"                                                                ",
"                                                                ",
"                                                                ",
"                             ..                                 ",
"                              .                                 ",
"                              .            .                    ",
"          ..    ..  . .. ..   ...    ..    .                    ",
"         .  .  .  .  .  .  .  .  .  .  .   .                    ",
"         .     .  .  .  .  .  .  .  .  .   .                    ",
"         .     .  .  .  .  .  .  .  .  .   .                    ",
"         .  .  .  .  .  .  .  .  .  .  .   .                    ",
"          ..    ..  ... .. .. ...    ..    .                    ",
"                                                                ",
"                                           .                    ",
"                                                                ",
"                                                                ",
"                                                                ",
"                                                                ",
"                                                                ",
"                                                                ",
"                                                                ",
"                                                                ",
"                                                                ",
"                                                                ",
"         .....  .....  .....  .....  .....  .....               ",
"                                                                ",
"                                                                ",
"                                                                ",
"                                                                ",
"                                                                ",
"                                                                ",
"                                                                ",
"                                                                ",
"                                                                ",
"                                                                ",
"                                                                ",
"                                                                ",
"                                                                ",
"                                                                ",
"                                                                ",
"                                                                ",
"                                                                ",
"                                                                ",
"                                                                ",
"                                                                ",
"                                                                ",
"                                                                "};
