/* XPM */
static char * radio_xpm[] = {
"64 48 2 1",
" 	c #FFFFFFFFFFFF",
".	c #FFFF0000FFFF",
"                                                                ",
"                                                                ",
"                                                                ",
"                                                                ",
"                                                                ",
"                                                                ",
"                                                                ",
"                                                                ",
"                                                                ",
"                                                                ",
"                                                                ",
"                                                                ",
"                                                                ",
"                                                                ",
"                                                                ",
"                                                                ",
"                                                                ",
"            ......           ..  .             .   .   .        ",
"             .   ..           .               .  . . .  .       ",
"             .    .           .               .   ...   .       ",
"             .   ..   ..    ... ..   ..      .   . . .   .      ",
"             .....   .  .  .  .  .  .  .     .     .     .      ",
"             .  .     ...  .  .  .  .  .     .           .      ",
"             .   .   .  .  .  .  .  .  .     .           .      ",
"             .    .  .  .  .  .  .  .  .     .           .      ",
"            ...   ..  .. .  .. ....  ..      .           .      ",
"                                              .         .       ",
"                                              .         .       ",
"                                               .       .        ",
"                                                                ",
"                                                                ",
"                                                                ",
"                                                                ",
"                                                                ",
"                                                                ",
"                                                                ",
"                                                                ",
"                                                                ",
"                                                                ",
"                                                                ",
"                                                                ",
"                                                                ",
"                                                                ",
"                                                                ",
"                                                                ",
"                                                                ",
"                                                                ",
"                                                                "};
