/* XPM */
static char * toolword_xpm[] = {
/* width height ncolors chars_per_pixel */
"32 32 3 1",
/* colors */
" 	s None	c None",
".	c #000000",
"+	c #ffffff",
/* pixels */
"                                ",
"                                ",
" ........           ........    ",
" .++++++. ...........++++++.    ",
" .++++++. .++++++++..++++++.    ",
" ........ .++++++++.........    ",
"          .++++++++.            ",
"          ..........            ",
"                                ",
"                                ",
"                                ",
"                 .....          ",
"...... ......... .+++. .........",
".++++. .+++++++. .+++. .+++++++.",
".++++. .+++++++. .+++. .+++++++.",
".++++. .+++++++. ..... .+++++++.",
"...... .........       .........",
"                                ",
"                                ",
"                                ",
"                                ",
"                   ..........   ",
"              ..   .++++++++.   ",
"             .++.  .++++++++.   ",
"            .++++. .++++++++.   ",
"           .++++.  ..........   ",
" ...........+++.                ",
" .++++++++. .+.                 ",
" .++++++++.  .                  ",
" ..........                     ",
"                                ",
"                                "};
