/* XPM */
static char * toolnote_xpm[] = {
/* width height ncolors chars_per_pixel */
"32 32 8 1",
/* colors */
" 	s None	c None",
".	c #000000",
"+	c #800000",
"@	c #c0c0c0",
"#	c #808080",
"$	c #ffff00",
"%	c #0000ff",
"&	c #ffffff",
/* pixels */
"                                ",
"    ..                          ",
"    .$.                         ",
"     .$.                        ",
"      .$.                       ",
"       .$.                      ",
"        .$.                     ",
"         .$....                 ",
"        ...$.&&.     #..        ",
"       .&&&.$.&&.  ...&&#       ",
"     ..&&&&&.$.@&..$&..&.       ",
" ....&&&&&&&@.$.@&.&&.&..  #..  ",
".%%.&&&&&&&&@..$.@.&#.##&...&&# ",
".%+.&&&&&&&&@. .$..&&&&&&&&..&. ",
".%%.&&&&&&&&&......##&&&&&&.&.. ",
".%%.@&&&&&&&&&&@@@..&##&&&#.##&.",
".%%..@@..&&&&&&....+.&&##&&&&&..",
".%.%...  ......&&&#..&&&&##&&.&.",
" .%.%..   .$&@&&&&&$#.&&&&&$.&.%",
"  ....   .&&&&@@&&&&&&##&&&.&.% ",
"        .&&&&&&$@@&&&&&$&&.&.%  ",
"       .&&&@@&&&&&@@&&&&&.&.%   ",
"      .&&&&$&@@&&&&$@@&&.&.%    ",
"      ...&&&&&&@@&&&&&&.&.%     ",
"      .&&..&&&&$&@@&&&.&.%      ",
"      %..&&..&&&&&&&&.&.%       ",
"        %..&&..&&&&$.&.%        ",
"          %..&&..&&.&.%         ",
"            %..&&..&.%          ",
"              %..&&.%           ",
"                %..%            ",
"                                "};
