/* XPM */
static const char *const toolgame_xpm[] = {
/* columns rows colors chars-per-pixel */
"32 32 3 1",
"X c #808080",
"  c None",
". c #FF0000",
/* pixels */
"                                ",
"                                ",
"                                ",
"                                ",
"               ..               ",
"              ....              ",
"             ......             ",
"            ........            ",
"           ..........           ",
"          ............          ",
"         ..............         ",
"        ................        ",
"       ..................       ",
"      ....................      ",
"     ......................     ",
"    ........................    ",
"   ..........................   ",
"    ........................X   ",
"     ......................X    ",
"      ....................X     ",
"       ..................X      ",
"        ................X       ",
"         ..............X        ",
"          ............X         ",
"           ..........X          ",
"            ........X           ",
"             ......X            ",
"              ....X             ",
"               ..X              ",
"                                ",
"                                ",
"                                "
};
