/* XPM */
static const char *const toolchec_xpm[] = {
/* columns rows colors chars-per-pixel */
"32 32 16 1",
"X c Black",
". c #4B4B4B",
"% c #696969",
": c #353535",
"o c #181818",
"O c #CCCCCC",
"@ c #0B0B0B",
"  c None",
"+ c #292929",
"= c #383838",
"; c #747474",
"# c #8B8B8B",
"& c #A9A9A9",
"- c #575757",
"* c #B2B2B2",
"$ c #959595",
/* pixels */
"                                ",
"                                ",
"                            .XX ",
"                           oXXO ",
"                         .XX+   ",
"                        oXX@#   ",
"                       oXX@     ",
"                      oXX#      ",
"                     @XX$       ",
"                    oXX$        ",
"                   oXX.         ",
"                  +XXX          ",
"                 %XXX           ",
"                &XXX*           ",
"               .XXX=            ",
"               XXXo             ",
"     .        @XXX              ",
"   -XXo      +XXX.              ",
"  XXXXX;    $XXXX               ",
" .+XXXXX    XXXX.               ",
"   +XXXX=  XXXX=                ",
"    @XXXX *XXXX                 ",
"     XXXX$XXXX$                 ",
"     +XXXXXXXX                  ",
"      XXXXXXX.                  ",
"      oXXXXX:                   ",
"      ;XXXXX.                   ",
"       XXXX#                    ",
"       @XX                      ",
"        =                       ",
"                                ",
"                                "
};
