/* XPM */
static const char * tooltime_xpm[] = {
/* columns rows colors chars-per-pixel */
"32 32 4 1",
". c Black",
"o c #FFFFFF",
"  c None",
"X c #C0C0C0",
/* pixels */
"                                ",
"                                ",
"                                ",
"                                ",
"             .....              ",
"          ...XX.oo...           ",
"         .XXXoo.ooooo.          ",
"       ..Xoooooooooooo..        ",
"       .Xoooooo.ooooooo.        ",
"      .Xooooooo.Xooooooo.       ",
"     .Xoooooooo.Xoooooooo.      ",
"     .Xoooooooo.Xoooooooo.      ",
"     .Xoooooooo.Xoooooooo.      ",
"    .Xooooooooo.Xooooooooo.     ",
"    .Xooooooooo.Xooooooooo.X    ",
"    ...oo.......Xooooooo...X    ",
"    .oooooXXXXXXXooooooooo.X    ",
"    .ooooooooooooooooooooo.X    ",
"     .ooooooooooooooooooo.XX    ",
"     .ooooooooooooooooooo.XX    ",
"     .ooooooooooooooooooo.X     ",
"      .ooooooooooooooooo.XX     ",
"       .ooooooooooooooo.XX      ",
"       ..ooooooooooooo..X       ",
"         .ooooo.ooooo.XX        ",
"          ...oo.oo...XX         ",
"           XX.....XXXX          ",
"             XXXXXXX            ",
"                                ",
"                                ",
"                                ",
"                                "
};
