/* XPM */
static const char * tooltodo_xpm[] = {
/* columns rows colors chars-per-pixel */
"32 32 156 2",
"0  c #A08020",
"+. c #D0C066",
"q  c #A08022",
"T  c #98752D",
"6. c #D0C072",
"w  c #A88B28",
"@. c #987540",
"l  c #A08037",
"~  c #A0803F",
"4. c #A08048",
"7  c #808080",
"m  c #704012",
"P  c #704013",
"]  c #704014",
"B  c #704016",
"{  c #704017",
":. c #704019",
"k  c #70401B",
"A  c #70401C",
"W  c #70401D",
".. c #70401E",
"F  c #70401F",
"1. c #704020",
"H  c #704022",
"s  c #EFEA37",
")  c #704024",
"5. c #704025",
"}  c #784B1E",
"z  c #784B22",
"2. c #784B26",
"/  c #784B28",
"Y  c #EFEA55",
"N  c #E0D547",
"D  c #EFEA6C",
"X. c #EFEA70",
"o. c #EFEA74",
"R  c #E0D554",
"|  c #E0D558",
"#. c #EFEA83",
"y  c #E8E05D",
"3. c #E0D570",
"x  c #E8E069",
"G  c #BFAA57",
"J  c #BFAA5D",
">. c #B0953D",
"   c None",
"<. c #B8A04D",
"^  c #B8A052",
"X  c #FFFF30",
"o  c #FFFF34",
"O  c #FFFF38",
"+  c #FFFF3C",
"b  c #FFFF40",
"@  c #FFFF41",
"'  c #FFFF43",
"n  c #FFFF44",
"#  c #FFFF45",
"*. c #FFFF47",
"L  c #FFFF48",
"$  c #FFFF49",
"8. c #FFFF4B",
"M  c #FFFF4C",
"V  c #906B27",
"%  c #FFFF4D",
"p. c #FFFF4F",
"I  c #FFFF50",
"&  c #FFFF51",
"a. c #FFFF53",
"U  c #FFFF54",
"e  c #FFFF55",
"*  c #FFFF56",
"g. c #FFFF57",
"[  c #FFFF58",
"r  c #FFFF59",
"=  c #FFFF5A",
"l. c #FFFF5B",
".  c #C0C0C0",
"-. c #FFFF5C",
"j  c #FFFF5D",
"-  c #FFFF5E",
"b. c #FFFF5F",
"9. c #FFFF60",
"C  c #FFFF61",
";  c #FFFF62",
"n. c #FFFF63",
"0. c #FFFF64",
":  c #FFFF66",
"N. c #FFFF67",
"s. c #FFFF68",
"E  c #FFFF69",
"Z  c #FFFF6A",
">  c #FFFF6B",
"h. c #FFFF6C",
" . c #FFFF6D",
"u  c #FFFF6E",
",  c #FFFF6F",
"z. c #FFFF70",
",. c #FFFF71",
"S  c #FFFF72",
"<  c #FFFF73",
"x. c #FFFF74",
"q. c #FFFF75",
"Q  c #FFFF76",
"f  c #602B0B",
"1  c #FFFF77",
"m. c #FFFF78",
"w. c #FFFF79",
"!  c #FFFF7A",
"2  c #FFFF7B",
"B. c #FFFF7C",
"d. c #FFFF7D",
"e. c #FFFF7E",
"i  c #FFFF7F",
"3  c #FFFF80",
"j. c #FFFF81",
"r. c #FFFF82",
"p  c #FFFF83",
"4  c #FFFF84",
"c. c #FFFF85",
"k. c #FFFF86",
"c  c #FFFF87",
"5  c #FFFF88",
"v. c #FFFF89",
"y. c #FFFF8A",
"(  c #FFFF8B",
"6  c #FFFF8C",
"t. c #FFFF8D",
"u. c #FFFF8E",
"O. c #68361C",
"a  c #FFFF90",
"V. c #FFFF91",
"f. c #FFFF92",
"$. c #68361F",
"_  c #FFFF93",
"v  c #FFFF94",
"Z. c #FFFF95",
"M. c #FFFF96",
"%. c #FFFF97",
"K  c #FFFF98",
"A. c #FFFF99",
"C. c #FFFF9A",
"7. c #FFFF9B",
"`  c #FFFF9C",
"D. c #FFFF9D",
"S. c #FFFF9E",
"i. c #FFFF9F",
"&. c #FFFFA0",
"F. c #FFFFA1",
"8  c #D0C02A",
"d  c #D0C030",
"g  c #D0C036",
"h  c #D0C03A",
";. c #C8B545",
"t  c #C8B548",
"=. c #987527",
"9  c #A0801E",
/* pixels */
"                                                                ",
"                                                                ",
"                                                                ",
"                                                                ",
"                                                                ",
"                                                                ",
"      . . . . . . . . . . . . . . . . . . . . . . . . .         ",
"      . X o O + @ # $ % & * = - ; : > , < 1 2 3 4 5 6 . 7       ",
"      . o 8 9 0 q w % & e r - ; t y u < 1 2 i p 5 6 a . 7       ",
"      . O s d f g h & e r j ; : k l z x 2 i p c 6 a v . 7       ",
"      . + b n m M & N B V C : Z A S D F i G H J a v K . 7       ",
"      . b n L P I U B Y T R E u W Q ! ~ ^ / ( ) _ K ` . 7       ",
"      . ' L M ] U [ { C } |  .S ..X.o.O.+.@.#.$.%.` &.. 7       ",
"      . *.M I =.[ -.;.:.>. .,.Q <.1.2.3.( 4.5.6.7.&.. . 7       ",
"      . 8.I U [ -.9.0.E  .,.q.w.e.r.t.y.u._ %.7.i.. . . 7       ",
"      . p.a.[ -.9.0.s. .,.q.w.d.r.t.t.u.f.%.7.. . . o . 7       ",
"      . a.g.-.9.0.s.h.,.q.w.d.j.k.y.t.. . . . . o o . 7         ",
"      . g.l.9.0.s.h.z.x.w.d.j.c.v.u.f.. o o o o o . 7           ",
"      . l.b.n.s.h.z.x.m.d.j.c.v.t.f.M.. o o o o . 7             ",
"      . b.n.N.h.z.x.m.B.j.c.v.t.V.M.C.. o o o . 7               ",
"      . n.N.> z.x.m.B.3 4 v.t.V.Z.A.S.. o o . 7                 ",
"      . N.> , < m.B.3 4 5 t.V.Z.A.D.. o o . 7                   ",
"      . > , < 1 B.3 4 5 6 V.Z.A.D.. . o . 7                     ",
"      . , < 1 2 3 4 5 6 a v A.D.F.. o . 7                       ",
"      . < 1 2 i p 5 6 a v K D.F.. o . 7                         ",
"      . . . . . . . . . . . . . . . 7                           ",
"        7 7 7 7 7 7 7 7 7 7 7 7 7 7                             ",
"                                                                ",
"                                                                ",
"                                                                ",
"                                                                ",
"                                                                "
};
