/* XPM */
static const char * smile_xpm[] = {
/* columns rows colors chars-per-pixel */
"32 32 4 1",
". c Black",
"X c #FFFF00",
"  c None",
"o c #C00000",
/* pixels */
"                                ",
"             .....              ",
"          ...XXXXX...           ",
"        ..XXXXXXXXXXX..         ",
"       .XXXXXXXXXXXXXXX.        ",
"     ..XXXXXXXXXXXXXXXXX..      ",
"     .XXXXXXXXXXXXXXXXXXXX.     ",
"    .XXXXXX.XXXXXXX.XXXXXX.     ",
"   .XXXXXX.X.XXXXX.X.XXXXXX.    ",
"   .XXXXX.XXX.XXX.XXX.XXXXXX.   ",
"  .XXXXX.XXXXXXXXXXXXX.XXXXX.   ",
"  .XXXXXXXX.XXXXXXX.XXXXXXXX.   ",
"  .XXXXXXXX.XXXXXXX.XXXXXXXX.   ",
" .XXXXXXXXXXXXXXXXXXXXXXXXXXX.  ",
" .XXXXXXXXXXXXXXXXXXXXXXXXXXX.  ",
" .XXXXXXXXXXXXXXXXXXXXXXXXXXX.  ",
" .XXXXXXXXXXXXXXXXXXXXXXXXXXX.  ",
" .XXXXXXX.XXXXXXXXXXX.XXXXXXX.  ",
"  .XXXXXX...XXXXXXX...XXXXXX.   ",
"  .XXXXXX.oo..XXX..oo.XXXXXX.   ",
"  .XXXXXXX.ooo...ooo.XXXXXXX.   ",
"   .XXXXXXX.ooooooo.XXXXXXXX.   ",
"   .XXXXXXXX..ooo..XXXXXXXX.    ",
"    .XXXXXXXXX...XXXXXXXXX.     ",
"     .XXXXXXXXXXXXXXXXXXXX.     ",
"     ..XXXXXXXXXXXXXXXXX..      ",
"       .XXXXXXXXXXXXXXX.        ",
"        ..XXXXXXXXXXX..         ",
"          ...XXXXX...           ",
"             .....              ",
"                                ",
"                                "
};
