#define smile_width 32
#define smile_height 32
static unsigned char smile_bits[] = {
   0x00, 0x00, 0x00, 0x00, 0x00, 0xe0, 0x03, 0x00, 0x00, 0x1c, 0x1c, 0x00,
   0x00, 0x03, 0x60, 0x00, 0x80, 0x00, 0x80, 0x00, 0x60, 0x00, 0x00, 0x03,
   0x20, 0x00, 0x00, 0x04, 0x10, 0x08, 0x08, 0x04, 0x08, 0x14, 0x14, 0x08,
   0x08, 0x22, 0x22, 0x10, 0x04, 0x01, 0x40, 0x10, 0x04, 0x08, 0x08, 0x10,
   0x04, 0x08, 0x08, 0x10, 0x02, 0x00, 0x00, 0x20, 0x02, 0x00, 0x00, 0x20,
   0x02, 0x00, 0x00, 0x20, 0x02, 0x00, 0x00, 0x20, 0x02, 0x02, 0x20, 0x20,
   0x04, 0x0e, 0x38, 0x10, 0x04, 0x3e, 0x3e, 0x10, 0x04, 0xf4, 0x1b, 0x10,
   0x08, 0xd8, 0x0a, 0x10, 0x08, 0xb0, 0x07, 0x08, 0x10, 0xc0, 0x01, 0x04,
   0x20, 0x00, 0x00, 0x04, 0x60, 0x00, 0x00, 0x03, 0x80, 0x00, 0x80, 0x00,
   0x00, 0x03, 0x60, 0x00, 0x00, 0x1c, 0x1c, 0x00, 0x00, 0xe0, 0x03, 0x00,
   0x00, 0x00, 0x00, 0x00, 0x00, 0x00, 0x00, 0x00 };

