<svg xmlns="http://www.w3.org/2000/svg" xmlns:xlink="http://www.w3.org/1999/xlink" version="1.1" style="" xml:space="preserve" width="17.525999069213867" height="17.525999069213867"><rect id="backgroundrect" width="100%" height="100%" x="0" y="0" fill="none" stroke="none" style="" class=""/>
<g class="currentLayer" style=""><title>Layer 1</title><g id="svg_1" class="selected" fill="#6767e7" fill-opacity="1">
<g id="svg_2" fill="#6767e7" fill-opacity="1">
    <path style="" d="M8.417,17.279c0,0,0.444,0.518,0.909,0.053c0.639-0.64,6.547-6.742,6.547-6.742    s0.818-0.813-0.266-0.813c-1.086,0-2.811,0-2.811,0s0-0.471,0-1.19c0-2.221,0-6.543,0-8.199c0,0,0.012-0.388-0.488-0.388    C11.806,0,6.1,0,5.397,0c-0.702,0-0.58,0.464-0.58,0.464c0,1.7,0,5.88,0,8.181c0,0.803,0,1.326,0,1.326s-2.155,0-3.045,0    c-0.891,0-0.071,0.776-0.071,0.776L8.417,17.279z" id="svg_3" fill="#6767e7" fill-opacity="1"/>
</g>
</g><g id="svg_4">
</g><g id="svg_5">
</g><g id="svg_6">
</g><g id="svg_7">
</g><g id="svg_8">
</g><g id="svg_9">
</g><g id="svg_10">
</g><g id="svg_11">
</g><g id="svg_12">
</g><g id="svg_13">
</g><g id="svg_14">
</g><g id="svg_15">
</g><g id="svg_16">
</g><g id="svg_17">
</g><g id="svg_18">
</g></g></svg>