<?xml version="1.0" encoding="UTF-8"?>
<svg id="Capa_1" enable-background="new 0 0 32.055 32.055" version="1.1" viewBox="0 0 32.055 32.055" xml:space="preserve" xmlns="http://www.w3.org/2000/svg">
    <path d="m3.968 12.061c-2.193 0-3.968 1.774-3.968 3.966s1.773 3.967 3.968 3.967c2.189 0 3.966-1.772 3.966-3.967 0-2.192-1.777-3.966-3.966-3.966zm12.265 0c-2.188 0-3.968 1.773-3.968 3.965s1.778 3.967 3.968 3.967 3.97-1.772 3.97-3.967c-2e-3 -2.191-1.78-3.965-3.97-3.965zm11.857 0c-2.192 0-3.969 1.774-3.969 3.967 0 2.19 1.774 3.965 3.969 3.965 2.188 0 3.965-1.772 3.965-3.965s-1.777-3.967-3.965-3.967z"/>
</svg>
