/* XPM */
static char * delete_xpm[] = {
"22 22 6 1",
" 	s None	c None",
".	c black",
"X	c red2",
"o	c white",
"O	c #DEF6DEF6DEF6",
"+	c grey70",
"                      ",
"                      ",
"                      ",
"      ........        ",
"  XXX .ooooooO.       ",
"   XXXXOoooooOo.   X  ",
"     XXXOoooo Oo. XX  ",
"      .XXXOoo ...XX   ",
"      .+XXXOo OOXX    ",
"      .O++XXXOXXX.    ",
"      .ooO+XXXXX+.    ",
"      .oooOXXXX+o.    ",
"      .ooXXXX+XXo.    ",
"      .XXXX++OXXO.    ",
"     XXXX++Ooo+XX.    ",
"   XXXX++OooooO+XX    ",
"  XXX .OoooooooOXX    ",
"      .ooooooooo+XX   ",
"      ...........XX   ",
"                  X   ",
"                      ",
"                      "};
