/* XPM */
static char * fileopen_xpm[] = {
"22 22 5 1",
" 	c None",
".	c #000000000000",
"X	c #D75CD75CD75C",
"o	c #FFFFFFFFFFFF",
"O	c #6DB66DB66DB6",
"                      ",
"                      ",
"            ....      ",
"               .. .   ",
"                ...   ",
"                ...   ",
"               ....   ",
"   ....               ",
"   .XoX.......        ",
"   .oXoXoXoXo.        ",
"   .XoXoXoXoX.        ",
"   .oXoXo ..........  ",
"   .XoXo . O O O OO.  ",
"   .oXo . O O OOOO.   ",
"   .Xo .OO OOOOOO.    ",
"   .o . O OOOOOO.     ",
"   ... O OOOOOO.      ",
"   ..OOOOOOOOO.       ",
"   ...........        ",
"                      ",
"                      ",
"                      "};
