/* XPM */
static char * find_xpm[] = {
"32 32 64 1",
" 	s background	c None",
".	c black",
"X	c #FFFFFBEEFFFF",
"o	c #AEBAAAAAAEBA",
"O	c #4924618579E7",
"+	c #AEBA8A286185",
"@	c #BEFB8A2871C6",
"#	c #71C682078617",
"$	c #4924410330C2",
"%	c #492451446185",
"&	c #49243CF338E3",
"*	c #EFBEAAAA8E38",
"=	c #AEBA71C66185",
"-	c #9E79820769A6",
";	c #5144410338E3",
":	c #514434D338E3",
">	c #D75CA28971C6",
",	c #514430C230C2",
"<	c #618541034103",
"1	c #BEFB8A286185",
"2	c #B6DA7DF75965",
"3	c #410338E330C2",
"4	c #514441034103",
"5	c #AEBA9A696185",
"6	c #9E7971C65144",
"7	c #9E7971C66185",
"8	c #DF7DAEBA9E79",
"9	c #38E338E330C2",
"0	c #410330C22081",
"q	c #A69961855144",
"w	c #618549244924",
"e	c #30C230C22081",
"r	c #38E32CB230C2",
"t	c #8E3851445144",
"y	c #28A228A230C2",
"u	c #79E759654924",
"i	c #A69969A65965",
"p	c #8E3861855144",
"a	c #71C661854103",
"s	c #208120812081",
"d	c #596538E330C2",
"f	c #8E3871C65144",
"g	c #71C651445144",
"h	c #186118611861",
"j	c #8E3861854103",
"k	c #71C651444103",
"l	c #71C641034103",
"z	c #514451445144",
"x	c #5144514430C2",
"c	c #104010401040",
"v	c #410330C230C2",
"b	c #30C220812081",
"n	c #618551444103",
"m	c #79E779E779E7",
"M	c #6185410330C2",
"N	c #38E330C22081",
"B	c #6185514430C2",
"V	c #38E324922081",
"C	c #514400000000",
"Z	c #E79DD34CD75C",
"A	c #C71BC71BBEFB",
"S	c #8E387DF769A6",
"D	c #208128A228A2",
"F	c #30C238E34103",
"       ........   XXXo          ",
"     ..O......O..Xoo+@          ",
"    .#..$.###%..&.@+*X=-        ",
"   ...;;;.%$:;;;...XX>XXXo      ",
"  ...$$,$+XXX.##<#..o111@2      ",
" .&.34&+XXoo5.XX#%.$.@@5*X=6    ",
" ..3378X+@@++@@++@@..XX>XXoo+2  ",
".9.0qXXX2++12+XXX.X.w.XXo11@@1  ",
"..erX66==66=11111.o1..1111*XX>>t",
"..yuXi76678X+@2++@@+..:+XXX>+ppa",
"..sdXpppXX=++@=++=8X..w+fqppupge",
"..h<XajtX67==67=*XX*..&qqpjttak.",
"..h<XkwlXfqqiXX*=66=..9qqjjtukd.",
"..h0Xz<xXpppX*i6-==6..yfpppaak,.",
".c.vXz4dXzguXi=&-=7.9.rputgawk.z",
"X..bX,d<XwklX+2==66..rettakkln.m",
"X.c.Xb0,XkM<X$i=q6.v.NjtulkllB. ",
"X4..XbVvXz:hX==66...Nytaakknn<. ",
"X<c...bnX,v0>=76.....pganknwBMz ",
"XM.w.h..Xb0,*6..v..CC.kklkB<<;m ",
"ZMzX#..;......9..N.rC...lBM<dem ",
" =zXXsc........9eNN..CCC.<M:dVm ",
" =oXA<.##hc$9vNryrye.VCCC.4de.z ",
" SoXZMzXXyc;vrNttaVV..VCCC.V.z  ",
" -Xk82zXXM.*qjjtukkbb..sCCC.z   ",
" SXlA=oXZM.Xpptaakknss..VCCC.   ",
"  ..z-oXA=zXatganknBx.D..FCCC.  ",
"   zmSXk82zXtakllBB<.zDD..FCCC. ",
"      Xl.SoXuknl<.zz   FF..%CCC.",
"      ..z-oXakkn.zz     %%..OCC.",
"         SXkn.zzz        %O..OO.",
"          Xk.z            OO... "};
