/* XPM */
static char * help_xpm[] = {
"22 22 4 1",
" 	c None",
".	c #000000000000",
"X	c #000000008617",
"o	c #861782078617",
"                      ",
"                      ",
"                      ",
"                      ",
"   .        XXXXXo    ",
"   ..      XX  oXXo   ",
"   ...    XXo   XXX   ",
"   ....   XXo   XXX   ",
"   .....  oXX  oXXo   ",
"   ......      XXo    ",
"   .......    XX      ",
"   ........  XXo      ",
"   .....     XXo      ",
"   .. ..              ",
"   .   ..    XXX      ",
"       ..    XXX      ",
"        ..            ",
"        ..            ",
"                      ",
"                      ",
"                      ",
"                      "};
