/* XPM */
static char * save_xpm[] = {
"22 22 5 1",
" 	c None",
".	c #000000000000",
"X	c #FFFFFFFFFFFF",
"o	c #CB2BCB2BCB2B",
"O	c #82077DF77DF7",
"                      ",
"                      ",
"                      ",
"                      ",
"    ..............    ",
"    . XXXXXXXXXo .O   ",
"    . X.....XXXo .O   ",
"    . XXXXXXXXXo .O   ",
"    . X...XXXXXo .O   ",
"    . XXXXXXXXXo .O   ",
"    . XXXXXXXXXo .O   ",
"    . oooooooooo .O   ",
"    . OOOOOOOOOO .O   ",
"    . OOOOOOOOOO .O   ",
"    . OO     OOo .O   ",
"    . OO  OO OOo .O   ",
"    . OO  OO OOo .O   ",
"    . OO     OOo .O   ",
"    ..............O   ",
"     OOOOOOOOOOOOOO   ",
"                      ",
"                      "};
