/* XPM */
static char * txt_xpm[] = {
"32 32 18 1",
" 	c None",
".	c #D75CA69979E7",
"X	c #BEFBBEFBBEFB",
"o	c #208120812081",
"O	c #F7DE28A22081",
"+	c #AEBAAEBAAEBA",
"@	c #FFFFD75C0000",
"#	c #8E38596530C2",
"$	c #FFFFFFFFFFFF",
"%	c #B6DA79E74924",
"&	c #9E799E79A699",
"*	c #514451445144",
"=	c #492479E769A6",
"-	c #410341034103",
";	c #000000000000",
":	c #596559655965",
">	c #8E3886178617",
",	c #410341038E38",
"                                ",
"                      .X        ",
"                     Xoo.       ",
"                     O.Xo       ",
"             ++    +X@O#o       ",
"            +$$++ +$$%%#o       ",
"           +$$$$$+$$$@%#o&      ",
"          +$$$$$+$$$$O%#o$&&    ",
"         +$$$$$+$$$$$@##o$$$&+  ",
"        +$$**$+$$$$$$%O#o$$$$$& ",
"       +$$$$$+$$**$$+@%#o$$$$$$=",
"      +$$**$+$$$$$*&$O%-o$$$$$-+",
"     +$$$$$+$$**$$+$$@%o;+$$$*+;",
"    +$$**$+$$$$$*+$$$O##o$+$*+;+",
"   +$$$$$+$$**$$+$$$$@#oo$$++;+ ",
"  +$$**$+$$$$$*+$$$$$%%#;$$$$++ ",
" +$$$$$+$$**$$+$$*-$$%#oo$$$$$$*",
"+$$$$$+$$$$$*+$$$$$*-O##;$$$$$-+",
"*:X$$+oo+$$$+$$**$$$$%%;o$$$$*+;",
"+;-:X$$+oo:&$$$$$**$$ooo;$$$*+;+",
"  +;*:X$$*+$$**$$$$*-X%o$$$*+;+ ",
"    +;**++$$$$$**$$$$.#o$$*+;+  ",
"      +*+$$=:$$$$*-$$$##$>Xo+   ",
"       +$$$$$:*$$$$-*$;X-+-+    ",
"      *+$$$$$$$:*$$$$$;,+;&     ",
"      +*:+$$$$$$$*:$$$=+;+      ",
"       +;o:+$$$$$$$$$*+;+       ",
"         +;o:+$$$$$$*+;+        ",
"           +;o:+$$$*+;+         ",
"             +;o:+*+;+          ",
"               +;-+;+           ",
"                 +;+            "};
