/* XPM */
static char * folder_xpm[] = {
"33 33 12 1",
" 	c None",
".	c #D75CA69979E7",
"X	c #208120812081",
"o	c #FFFFFFFFFFFF",
"O	c #B6DA79E74924",
"+	c #596559655965",
"@	c #410341034103",
"#	c #514451445144",
"$	c #000000000820",
"%	c #8E38596530C2",
"&	c #8E3886178617",
"*	c #492479E769A6",
"                                 ",
"     ..   XXX                    ",
"     .o.. X.XXX                  ",
"     .ooo..OOOXXX                ",
"     .ooooo..OOOXXX    ++        ",
"XXX  .ooooooo..OOOXXX  @#++@     ",
"XOX@X.ooooooooo...OOO@XX+X#+++   ",
"X...@@$.oooooooooo...OOXXX@X@+   ",
"O.....@XXOooooooooooo..OOOX@@X   ",
"XO......@%X.ooooooooooo..%%OX@   ",
".O........@XX.oooooooooo.X%XX    ",
" %O.........@@$.oooooooo.XX%X    ",
" %O...........@@$.oooooo.X%X#    ",
" %O.............@@X.oooo.XX%&    ",
" .@...............@XX.oo.@XX     ",
"  %.................@X.o.XXX     ",
"  OO................O%X..XX@     ",
"  +OO.......O..OOOOOOO@..@X&     ",
"  .%O....OOOOOOOOOOOOOX.+XX      ",
"   XOOOOOOOOOOOOOOOOOOX+*XX      ",
"   @OOOOO.OOOOOOOOOOOOX*+XX      ",
"   .%OOOOOOOOOOOOOOO%OXX#XX      ",
"    XOOOOOOOOOOO%O%O%%OX++&      ",
"    @O%O%OO%O%%O%%%%%%%XXX       ",
"     XXXO%%%%%%%%%%%%%%XXX       ",
"      OXXX%%%%%%%%%%%%@XX#       ",
"        OX@X%%%%%%%%%%%XXX       ",
"          OXXX%%%O%%%%%XXX       ",
"            OXXX%%%%%%%XX*       ",
"              OX@X%%%%X%X&       ",
"                OXXX%%%XX        ",
"                  OXXX%%@        ",
"                    OXXX         "};
