<?xml version="1.0" encoding="UTF-8" standalone="no"?>
<!-- Created with Inkscape (http://www.inkscape.org/) -->

<svg
   xmlns:dc="http://purl.org/dc/elements/1.1/"
   xmlns:cc="http://creativecommons.org/ns#"
   xmlns:rdf="http://www.w3.org/1999/02/22-rdf-syntax-ns#"
   xmlns:svg="http://www.w3.org/2000/svg"
   xmlns="http://www.w3.org/2000/svg"
   version="1.1"
   width="27"
   height="27"
   id="svg2">
  <defs
     id="defs4" />
  <metadata
     id="metadata7">
    <rdf:RDF>
      <cc:Work
         rdf:about="">
        <dc:format>image/svg+xml</dc:format>
        <dc:type
           rdf:resource="http://purl.org/dc/dcmitype/StillImage" />
        <dc:title></dc:title>
      </cc:Work>
    </rdf:RDF>
  </metadata>
  <g
     transform="translate(0,-1025.3622)"
     id="layer1">
    <g
       transform="translate(-61.377237,36.87584)"
       id="g3855">
      <path
         d="m -14.106866,-16.063061 a 15.09682,15.09682 0 1 1 -30.19364,0 15.09682,15.09682 0 1 1 30.19364,0 z"
         transform="matrix(0.70888914,0,0,0.70888914,95.938789,1013.7563)"
         id="path3844"
         style="fill:#ffffff;fill-opacity:1;stroke:#969696;stroke-width:1.52351046;stroke-miterlimit:4;stroke-opacity:1;stroke-dasharray:none" />
      <path
         d="m -14.106866,-16.063061 a 15.09682,15.09682 0 1 1 -30.19364,0 15.09682,15.09682 0 1 1 30.19364,0 z"
         transform="matrix(0.57524708,0,0,0.57524708,92.035948,1011.6095)"
         id="path3846"
         style="fill:#32d330;fill-opacity:1;stroke:none" />
      <path
         d="m 68.554415,1003.6069 0,-2.9699 13.859376,0 0,2.9699 z m 5.197267,-8.41465 2.969866,0 0,13.85935 -2.969866,0 z"
         id="rect3850"
         style="fill:#ffffff;fill-opacity:1;stroke:none" />
    </g>
  </g>
</svg>
