<?xml version="1.0" encoding="UTF-8" standalone="no"?>
<!-- Created with Inkscape (http://www.inkscape.org/) -->

<svg
   xmlns:dc="http://purl.org/dc/elements/1.1/"
   xmlns:cc="http://creativecommons.org/ns#"
   xmlns:rdf="http://www.w3.org/1999/02/22-rdf-syntax-ns#"
   xmlns:svg="http://www.w3.org/2000/svg"
   xmlns="http://www.w3.org/2000/svg"
   version="1.1"
   width="20"
   height="20"
   id="svg12669">
  <defs
     id="defs12671" />
  <metadata
     id="metadata12674">
    <rdf:RDF>
      <cc:Work
         rdf:about="">
        <dc:format>image/svg+xml</dc:format>
        <dc:type
           rdf:resource="http://purl.org/dc/dcmitype/StillImage" />
        <dc:title></dc:title>
      </cc:Work>
    </rdf:RDF>
  </metadata>
  <g
     transform="translate(0,-1032.3622)"
     id="layer1">
    <path
       d="m 4.4354844,13.516128 a 4.7379031,5.6451612 0 0 1 9.4758066,0"
       transform="matrix(0.87254778,0,0,0.56495423,-2.4673373,1042.0157)"
       id="path12733"
       style="fill:none;stroke:#ffffff;stroke-width:1.86414301;stroke-miterlimit:4;stroke-opacity:1;stroke-dasharray:none" />
    <path
       d="m 4.4354844,13.516128 a 4.7379031,5.6451612 0 0 1 9.4758066,0"
       transform="matrix(0.87254778,0,0,0.56495423,5.8007562,1041.8398)"
       id="path13265"
       style="fill:none;stroke:#ffffff;stroke-width:1.86414301;stroke-miterlimit:4;stroke-opacity:1;stroke-dasharray:none" />
    <path
       d="m 4.4354844,13.516128 a 4.7379031,5.6451612 0 0 1 9.4758066,0"
       transform="matrix(0.87254778,0,0,0.56495423,-2.2914203,1031.2848)"
       id="path13273"
       style="fill:none;stroke:#ffffff;stroke-width:1.86414301;stroke-miterlimit:4;stroke-opacity:1;stroke-dasharray:none" />
    <path
       d="m 4.4354844,13.516128 a 4.7379031,5.6451612 0 0 1 9.4758066,0"
       transform="matrix(0.87254778,0,0,0.56495423,5.9766732,1031.1088)"
       id="path13275"
       style="fill:none;stroke:#ffffff;stroke-width:1.86414301;stroke-miterlimit:4;stroke-opacity:1;stroke-dasharray:none" />
    <path
       d="m 1.508582,1038.7652 0,9.8575"
       id="path13281"
       style="fill:none;stroke:#ffffff;stroke-width:1.26483524;stroke-linecap:butt;stroke-linejoin:miter;stroke-miterlimit:4;stroke-opacity:1;stroke-dasharray:none" />
    <path
       d="m 9.793493,1038.4371 0,9.8575"
       id="path13283"
       style="fill:none;stroke:#ffffff;stroke-width:1.26483524;stroke-linecap:butt;stroke-linejoin:miter;stroke-miterlimit:4;stroke-opacity:1;stroke-dasharray:none" />
    <path
       d="m 18.078404,1038.4884 0,10.7085"
       id="path13285"
       style="fill:none;stroke:#ffffff;stroke-width:1.31830251;stroke-linecap:butt;stroke-linejoin:miter;stroke-miterlimit:4;stroke-opacity:1;stroke-dasharray:none" />
  </g>
</svg>
