#define alignl_width 24
#define alignl_height 24
static char alignl_bits[] = {
   0x00, 0x00, 0x00, 0x00, 0x00, 0x00, 0x00, 0x00, 0x00, 0x00, 0x00, 0x00,
   0xc0, 0x0f, 0x00, 0x40, 0x08, 0x00, 0x40, 0x08, 0x00, 0x40, 0x08, 0x00,
   0xc0, 0x0f, 0x00, 0x00, 0x00, 0x00, 0x00, 0x00, 0x00, 0xc0, 0xff, 0x01,
   0x40, 0x00, 0x01, 0x40, 0x00, 0x01, 0x40, 0x00, 0x01, 0x40, 0x00, 0x01,
   0xc0, 0xff, 0x01, 0x00, 0x00, 0x00, 0x00, 0x00, 0x00, 0x00, 0x00, 0x00,
   0x00, 0x00, 0x00, 0x00, 0x00, 0x00, 0x00, 0x00, 0x00, 0x00, 0x00, 0x00};
