/* XPM */
static char *alignl_xpm[] = {
/* columns rows colors chars-per-pixel */
"16 15 3 1",
"  c None",
". c Black",
"X c Yellow",
/* pixels */
"                ",
"   ......       ",
"   .XXXX.       ",
"   .XXXX.       ",
"   .XXXX.       ",
"   ......       ",
"                ",
"                ",
"   ...........  ",
"   .XXXXXXXXX.  ",
"   .XXXXXXXXX.  ",
"   .XXXXXXXXX.  ",
"   .XXXXXXXXX.  ",
"   ...........  ",
"                "
};
