/* XPM */
static char * bmpbuttn_xpm[] = {
/* width height ncolors chars_per_pixel */
"16 16 8 1",
/* colors */
" 	s None	c None",
".	c #000000",
"+	c #c0c0c0",
"@	c #ff0000",
"#	c #00ff00",
"$	c #ffff00",
"%	c #0000ff",
"&	c #ffffff",
/* pixels */
"                ",
"                ",
"                ",
"+++++++++++++++.",
"+@@.&&&&&&&&&&&.",
"+@@.&&&&&&&&&&&.",
"+@@.&&&&&&&&&&&.",
"+...............",
"+&&.&&&&&&&.%%%.",
"+&&.&&&&&&&.%%%.",
"+&&.........%%%.",
"+&&.$$$$.##.%%%.",
"+&&.$$$$.##.%%%.",
"+...............",
"                ",
"                "};
