#define button_width 28
#define button_height 28
static char button_bits[] = {
   0x00, 0x00, 0x00, 0x00, 0x00, 0x00, 0x00, 0x00, 0x00, 0x00, 0x00, 0x00,
   0x00, 0x00, 0x00, 0x00, 0x00, 0x00, 0x00, 0x00, 0x00, 0x00, 0x00, 0x00,
   0x00, 0x00, 0x00, 0x00, 0x00, 0x00, 0x00, 0x00, 0x80, 0xff, 0x0f, 0x00,
   0x40, 0x00, 0x10, 0x00, 0x40, 0x00, 0x30, 0x00, 0x40, 0x00, 0x30, 0x00,
   0x40, 0x00, 0x30, 0x00, 0x40, 0x00, 0x30, 0x00, 0x40, 0x00, 0x30, 0x00,
   0x40, 0x00, 0x30, 0x00, 0x40, 0x00, 0x30, 0x00, 0x40, 0x00, 0x30, 0x00,
   0x80, 0xff, 0x3f, 0x00, 0x00, 0xff, 0x1f, 0x00, 0x00, 0x00, 0x00, 0x00,
   0x00, 0x00, 0x00, 0x00, 0x00, 0x00, 0x00, 0x00, 0x00, 0x00, 0x00, 0x00,
   0x00, 0x00, 0x00, 0x00, 0x00, 0x00, 0x00, 0x00, 0x00, 0x00, 0x00, 0x00,
   0x00, 0x00, 0x00, 0x00};
