#define check_width 28
#define check_height 28
static char check_bits[] = {
   0x00, 0x00, 0x00, 0x00, 0x00, 0x00, 0x00, 0x00, 0x00, 0x00, 0x00, 0x00,
   0x00, 0x00, 0x00, 0x00, 0x00, 0x00, 0x00, 0x00, 0x00, 0x00, 0x00, 0x00,
   0x00, 0x00, 0x00, 0x00, 0x80, 0xff, 0x0f, 0x00, 0x80, 0x01, 0x0c, 0x00,
   0x80, 0x02, 0x0a, 0x00, 0x80, 0x04, 0x09, 0x00, 0x80, 0x88, 0x08, 0x00,
   0x80, 0x50, 0x08, 0x00, 0x80, 0x20, 0x08, 0x00, 0x80, 0x50, 0x08, 0x00,
   0x80, 0x88, 0x08, 0x00, 0x80, 0x04, 0x09, 0x00, 0x80, 0x02, 0x0a, 0x00,
   0x80, 0x01, 0x0c, 0x00, 0x80, 0xff, 0x0f, 0x00, 0x00, 0x00, 0x00, 0x00,
   0x00, 0x00, 0x00, 0x00, 0x00, 0x00, 0x00, 0x00, 0x00, 0x00, 0x00, 0x00,
   0x00, 0x00, 0x00, 0x00, 0x00, 0x00, 0x00, 0x00, 0x00, 0x00, 0x00, 0x00,
   0x00, 0x00, 0x00, 0x00};
