/* XPM */
static char * copywdth_xpm[] = {
"16 15 3 1",
" 	c #c0c0c0",
".	c Black",
"X	c Yellow",
"                ",
"  . ........ .  ",
"  . .XXXXXX. .  ",
"  . .XXXXXX. .  ",
"  . .XXXXXX. .  ",
"  . .XXXXXX. .  ",
"  . ........ .  ",
" ..          .. ",
"  . ........ .  ",
"  . .XXXXXX. .  ",
"  . .XXXXXX. .  ",
"  . .XXXXXX. .  ",
"  . .XXXXXX. .  ",
"  . ........ .  ",
"                "};
