#define copysize_width 24
#define copysize_height 24
static char copysize_bits[] = {
 0x00,0x00,0x00,0x00,0x00,0x00,0x00,0x00,0x00,0x00,0x00,0x00,0x00,0x00,0x00,
 0xf0,0xbf,0x03,0x10,0x20,0x02,0x10,0x20,0x02,0x10,0xa0,0x0f,0x10,0x20,0x07,
 0xf0,0x3f,0x02,0x00,0x00,0x00,0x00,0x55,0x05,0x00,0x00,0x00,0x00,0xf9,0x05,
 0x00,0x08,0x01,0x00,0xf9,0x05,0x00,0x00,0x00,0x00,0x55,0x05,0x00,0x00,0x00,
 0x00,0x00,0x00,0x00,0x00,0x00,0x00,0x00,0x00,0x00,0x00,0x00};
