#define cpp_width 24
#define cpp_height 24
static char cpp_bits[] = {
   0x00, 0x00, 0x00, 0x00, 0x00, 0x00, 0x00, 0x00, 0x00, 0x00, 0x00, 0x00,
   0x00, 0x00, 0x00, 0x00, 0x00, 0x00, 0xe0, 0x03, 0x00, 0x30, 0x34, 0x06,
   0x18, 0x30, 0x06, 0x18, 0x78, 0x0f, 0x18, 0x78, 0x0f, 0x18, 0x30, 0x06,
   0x30, 0x34, 0x06, 0xe0, 0x03, 0x00, 0x00, 0x40, 0x00, 0x00, 0xc0, 0x00,
   0x00, 0xff, 0x01, 0x00, 0xc0, 0x00, 0x00, 0x40, 0x00, 0x00, 0x00, 0x00,
   0x00, 0x00, 0x00, 0x00, 0x00, 0x00, 0x00, 0x00, 0x00, 0x00, 0x00, 0x00};
