/* XPM */
static char * dialoged_xpm[] = {
/* width height ncolors chars_per_pixel */
"32 32 6 1",
/* colors */
" 	s None	c None",
".	c #000000",
"+	c #800000",
"@	c #c0c0c0",
"#	c #808080",
"$	c #ffffff",
/* pixels */
"              ..                ",
"              ..                ",
"  @@@@@@@@@@@@@@@@@@@@@@@@@@@.  ",
"  @++++++++++++++++++++++++++.  ",
"  @++++++++++++++++++++++++++.  ",
"  @++++++++++++++++++++++++++.  ",
"  @##########################.  ",
"  @##########################.  ",
"  @#.............##@@@@@@@@.#.  ",
"  @#.$$$$$$$$$$$.##@@@@@@@@.#.  ",
"  @#.$$$$$$$$$$$.##@@@@@@@@.#.  ",
"  @#.............##.........#.  ",
"  @##########################.  ",
"  @##########################.  ",
"  @#.............##@@@@@@@@.#.  ",
"  @#.$$$$$$$$$$$.##@@@@@@@@.#.  ",
"  @#.............##@@@@@@@@.#.  ",
"  @#.$$$$$$$$$$$.##.........#.  ",
"  @#.............############.  ",
"  @#.$$$$$$$$$$$.############.  ",
"  @#.............############.  ",
"  @#.$$$$$$$$$$$.############.  ",
"  @#.............############.  ",
"  @##########################.  ",
"  @##########################.  ",
"  ............................  ",
"       ..             ..        ",
"      ..               ..       ",
"      ..               ..       ",
"     ..                 ..      ",
"     ..                 ..      ",
"    ..                   ..     "};
