/* XPM */
static char * distvert_xpm[] = {
"16 15 3 1",
" 	c #c0c0c0",
".	c Black",
"X	c Yellow",
"                ",
" .............. ",
" .XXXXXXXXXXXX. ",
" .............. ",
"                ",
"                ",
" .............. ",
" .XXXXXXXXXXXX. ",
" .............. ",
"                ",
"                ",
" .............. ",
" .XXXXXXXXXXXX. ",
" .............. ",
"                "};
