#define frame_width 28
#define frame_height 28
static char frame_bits[] = {
   0x00, 0x00, 0x00, 0x00, 0x00, 0x00, 0x00, 0x00, 0x00, 0x00, 0x00, 0x00,
   0xf0, 0xff, 0x7f, 0x00, 0xf0, 0xff, 0x7f, 0x00, 0x10, 0x00, 0x40, 0x00,
   0xd0, 0x36, 0x40, 0x00, 0xf0, 0xff, 0x7f, 0x00, 0x10, 0x00, 0x40, 0x00,
   0x10, 0x00, 0x40, 0x00, 0x10, 0x00, 0x40, 0x00, 0x10, 0x00, 0x40, 0x00,
   0x10, 0x00, 0x40, 0x00, 0x10, 0x00, 0x40, 0x00, 0x10, 0x00, 0x40, 0x00,
   0x10, 0x00, 0x40, 0x00, 0x10, 0x00, 0x40, 0x00, 0x10, 0x00, 0x40, 0x00,
   0x10, 0x00, 0x40, 0x00, 0xf0, 0xff, 0x7f, 0x00, 0x10, 0x00, 0x40, 0x00,
   0x10, 0x00, 0x40, 0x00, 0xf0, 0xff, 0x7f, 0x00, 0x00, 0x00, 0x00, 0x00,
   0x00, 0x00, 0x00, 0x00, 0x00, 0x00, 0x00, 0x00, 0x00, 0x00, 0x00, 0x00,
   0x00, 0x00, 0x00, 0x00};
