#define group_width 28
#define group_height 28
static char group_bits[] = {
   0x00, 0x00, 0x00, 0x00, 0x00, 0x00, 0x00, 0x00, 0x00, 0x00, 0x00, 0x00,
   0x00, 0x00, 0x00, 0x00, 0x80, 0xaa, 0x03, 0x00, 0x00, 0x29, 0x01, 0x00,
   0x30, 0x91, 0x78, 0x00, 0x90, 0x92, 0x43, 0x00, 0x10, 0x00, 0x40, 0x00,
   0x10, 0x00, 0x40, 0x00, 0x10, 0x00, 0x40, 0x00, 0x10, 0x00, 0x40, 0x00,
   0x10, 0x00, 0x40, 0x00, 0x10, 0x00, 0x40, 0x00, 0x10, 0x00, 0x40, 0x00,
   0x10, 0x00, 0x40, 0x00, 0x10, 0x00, 0x40, 0x00, 0x10, 0x00, 0x40, 0x00,
   0x10, 0x00, 0x40, 0x00, 0x10, 0x00, 0x40, 0x00, 0x10, 0x00, 0x40, 0x00,
   0x10, 0x00, 0x40, 0x00, 0xf0, 0xff, 0x7f, 0x00, 0x00, 0x00, 0x00, 0x00,
   0x00, 0x00, 0x00, 0x00, 0x00, 0x00, 0x00, 0x00, 0x00, 0x00, 0x00, 0x00,
   0x00, 0x00, 0x00, 0x00};
