#define help_width 24
#define help_height 24
static char help_bits[] = {
   0x00, 0x00, 0x00, 0x00, 0x00, 0x00, 0x00, 0x00, 0x00, 0x00, 0x00, 0x00,
   0x10, 0xe0, 0x07, 0x30, 0x30, 0x0f, 0x70, 0x38, 0x0e, 0xf0, 0x38, 0x0e,
   0xf0, 0x39, 0x0f, 0xf0, 0x03, 0x07, 0xf0, 0x87, 0x01, 0xf0, 0xcf, 0x01,
   0xf0, 0xc1, 0x01, 0xb0, 0x01, 0x00, 0x10, 0xc3, 0x01, 0x00, 0xc3, 0x01,
   0x00, 0x06, 0x00, 0x00, 0x06, 0x00, 0x00, 0x00, 0x00, 0x00, 0x00, 0x00,
   0x00, 0x00, 0x00, 0x00, 0x00, 0x00, 0x00, 0x00, 0x00, 0x00, 0x00, 0x00};
