#define listbox_width 28
#define listbox_height 28
static char listbox_bits[] = {
   0x00, 0x00, 0x00, 0x00, 0x00, 0x00, 0x00, 0x00, 0x00, 0x00, 0x00, 0x00,
   0x00, 0x00, 0x00, 0x00, 0x00, 0x00, 0x00, 0x00, 0x00, 0x00, 0x00, 0x00,
   0x00, 0x00, 0x00, 0x00, 0x00, 0x00, 0x00, 0x00, 0xf0, 0xff, 0x7f, 0x00,
   0x10, 0x00, 0x41, 0x00, 0x10, 0x00, 0x49, 0x00, 0xd0, 0x1f, 0x5d, 0x00,
   0x10, 0x00, 0x41, 0x00, 0x10, 0x00, 0x41, 0x00, 0xd0, 0x7f, 0x7f, 0x00,
   0x10, 0x00, 0x41, 0x00, 0x10, 0x00, 0x41, 0x00, 0xd0, 0x3f, 0x5d, 0x00,
   0x10, 0x00, 0x49, 0x00, 0x10, 0x00, 0x41, 0x00, 0xf0, 0xff, 0x7f, 0x00,
   0x00, 0x00, 0x00, 0x00, 0x00, 0x00, 0x00, 0x00, 0x00, 0x00, 0x00, 0x00,
   0x00, 0x00, 0x00, 0x00, 0x00, 0x00, 0x00, 0x00, 0x00, 0x00, 0x00, 0x00,
   0x00, 0x00, 0x00, 0x00};
