#define load_width 24
#define load_height 24
static char load_bits[] = {
   0x00, 0x00, 0x00, 0x00, 0x00, 0x00, 0x00, 0x00, 0x00, 0x00, 0x00, 0x00,
   0x00, 0xe0, 0x00, 0x00, 0x10, 0x05, 0x00, 0x00, 0x06, 0xe0, 0x00, 0x07,
   0x10, 0x7f, 0x00, 0x10, 0x40, 0x00, 0x10, 0x40, 0x00, 0x10, 0xfe, 0x0f,
   0x10, 0x01, 0x04, 0x90, 0x00, 0x02, 0x50, 0x00, 0x01, 0x30, 0x80, 0x00,
   0xf0, 0x7f, 0x00, 0x00, 0x00, 0x00, 0x00, 0x00, 0x00, 0x00, 0x00, 0x00,
   0x00, 0x00, 0x00, 0x00, 0x00, 0x00, 0x00, 0x00, 0x00, 0x00, 0x00, 0x00};
