#define message_width 28
#define message_height 28
static char message_bits[] = {
   0x00, 0x00, 0x00, 0x00, 0x00, 0x00, 0x00, 0x00, 0x00, 0x00, 0x00, 0x00,
   0x00, 0x00, 0x00, 0x00, 0x00, 0x00, 0x00, 0x00, 0x00, 0x00, 0x00, 0x00,
   0x00, 0x20, 0x00, 0x00, 0x00, 0x70, 0x00, 0x00, 0x00, 0x70, 0x00, 0x00,
   0x00, 0xe8, 0x00, 0x00, 0x00, 0xe8, 0x00, 0x00, 0x00, 0xc4, 0x01, 0x00,
   0x00, 0xc4, 0x01, 0x00, 0x00, 0x82, 0x03, 0x00, 0x00, 0xfe, 0x03, 0x00,
   0x00, 0x01, 0x07, 0x00, 0x00, 0x01, 0x07, 0x00, 0x80, 0x00, 0x0e, 0x00,
   0xc0, 0x00, 0x1e, 0x00, 0xe0, 0x01, 0x3f, 0x00, 0x00, 0x00, 0x00, 0x00,
   0x00, 0x00, 0x00, 0x00, 0x00, 0x00, 0x00, 0x00, 0x00, 0x00, 0x00, 0x00,
   0x00, 0x00, 0x00, 0x00, 0x00, 0x00, 0x00, 0x00, 0x00, 0x00, 0x00, 0x00,
   0x00, 0x00, 0x00, 0x00};
