#define mtext_width 28
#define mtext_height 28
static char mtext_bits[] = {
   0x00, 0x00, 0x00, 0x00, 0x00, 0x00, 0x00, 0x00, 0x00, 0x00, 0x00, 0x00,
   0x00, 0x00, 0x00, 0x00, 0x00, 0x00, 0x00, 0x00, 0x00, 0x00, 0x00, 0x00,
   0xf0, 0xff, 0xff, 0x00, 0x10, 0x10, 0x90, 0x00, 0x10, 0x13, 0x90, 0x00,
   0x10, 0xf2, 0xf0, 0x00, 0x90, 0x93, 0xf0, 0x00, 0x90, 0x92, 0xf0, 0x00,
   0x90, 0xfb, 0xf0, 0x00, 0x10, 0x00, 0xf0, 0x00, 0x10, 0x80, 0xf0, 0x00,
   0x10, 0x80, 0xf0, 0x00, 0x90, 0xf3, 0xf0, 0x00, 0x90, 0x90, 0xf0, 0x00,
   0x90, 0x90, 0xf0, 0x00, 0x90, 0xf3, 0x91, 0x00, 0x10, 0x00, 0x90, 0x00,
   0xf0, 0xff, 0xff, 0x00, 0x00, 0x00, 0x00, 0x00, 0x00, 0x00, 0x00, 0x00,
   0x00, 0x00, 0x00, 0x00, 0x00, 0x00, 0x00, 0x00, 0x00, 0x00, 0x00, 0x00,
   0x00, 0x00, 0x00, 0x00};
