#define new_width 24
#define new_height 24
static char new_bits[] = {
 0x00,0x00,0x00,0x00,0x00,0x00,0x00,0x00,0x00,0x00,0x00,0x00,0x00,0x00,0x00,
 0x80,0x7f,0x00,0x80,0xc0,0x00,0x80,0x40,0x01,0x80,0xc0,0x03,0x80,0x00,0x02,
 0x80,0x00,0x02,0x80,0x00,0x02,0x80,0x00,0x02,0x80,0x00,0x02,0x80,0x00,0x02,
 0x80,0x00,0x02,0x80,0x00,0x02,0x80,0xff,0x03,0x00,0x00,0x00,0x00,0x00,0x00,
 0x00,0x00,0x00,0x00,0x00,0x00,0x00,0x00,0x00,0x00,0x00,0x00};
