#define radio_width 28
#define radio_height 28
static char radio_bits[] = {
   0x00, 0x00, 0x00, 0x00, 0x00, 0x00, 0x00, 0x00, 0x00, 0x00, 0x00, 0x00,
   0x00, 0x00, 0x00, 0x00, 0x00, 0x00, 0x00, 0x00, 0x00, 0x00, 0x00, 0x00,
   0x00, 0xf8, 0x00, 0x00, 0x00, 0x06, 0x03, 0x00, 0x00, 0x01, 0x04, 0x00,
   0x80, 0x00, 0x08, 0x00, 0x80, 0x70, 0x08, 0x00, 0x40, 0xf8, 0x10, 0x00,
   0x40, 0xfc, 0x11, 0x00, 0x40, 0xfc, 0x11, 0x00, 0x40, 0xfc, 0x11, 0x00,
   0x40, 0xf8, 0x10, 0x00, 0x80, 0x70, 0x08, 0x00, 0x80, 0x00, 0x08, 0x00,
   0x00, 0x01, 0x04, 0x00, 0x00, 0x06, 0x03, 0x00, 0x00, 0xf8, 0x00, 0x00,
   0x00, 0x00, 0x00, 0x00, 0x00, 0x00, 0x00, 0x00, 0x00, 0x00, 0x00, 0x00,
   0x00, 0x00, 0x00, 0x00, 0x00, 0x00, 0x00, 0x00, 0x00, 0x00, 0x00, 0x00,
   0x00, 0x00, 0x00, 0x00};
