#define report_width 24
#define report_height 24
static char report_bits[] = {
   0x00, 0x00, 0x00, 0x00, 0x00, 0x00, 0x00, 0x00, 0x00, 0xf0, 0xff, 0x03,
   0x10, 0x00, 0x02, 0x90, 0x77, 0x02, 0x90, 0x7d, 0x02, 0x10, 0x00, 0x02,
   0x10, 0x37, 0x02, 0x10, 0x00, 0x02, 0x10, 0x00, 0x02, 0xd0, 0x03, 0x02,
   0x10, 0x00, 0x02, 0xd0, 0xbc, 0x02, 0x10, 0x00, 0x02, 0xd0, 0xbb, 0x02,
   0x10, 0x00, 0x02, 0xf0, 0xff, 0x03, 0x00, 0x00, 0x00, 0x00, 0x00, 0x00,
   0x00, 0x00, 0x00, 0x00, 0x00, 0x00, 0x00, 0x00, 0x00, 0x00, 0x00, 0x00};
