#define save_width 24
#define save_height 24
static char save_bits[] = {
   0x00, 0x00, 0x00, 0x00, 0x00, 0x00, 0x00, 0x00, 0x00, 0x00, 0x00, 0x00,
   0xe0, 0xff, 0x07, 0xa0, 0x00, 0x05, 0xa0, 0x00, 0x07, 0xa0, 0x00, 0x05,
   0xa0, 0x00, 0x05, 0xa0, 0x00, 0x05, 0xa0, 0x00, 0x05, 0x20, 0xff, 0x04,
   0x20, 0x00, 0x04, 0x20, 0xff, 0x05, 0x20, 0x3f, 0x05, 0x20, 0x3f, 0x05,
   0x20, 0x3f, 0x05, 0xc0, 0xff, 0x07, 0x00, 0x00, 0x00, 0x00, 0x00, 0x00,
   0x00, 0x00, 0x00, 0x00, 0x00, 0x00, 0x00, 0x00, 0x00, 0x00, 0x00, 0x00};
