/* XPM */
static char * textmult_xpm[] = {
/* width height ncolors chars_per_pixel */
"16 16 5 1",
/* colors */
" 	s None	c None",
".	c #000000",
"+	c #c0c0c0",
"@	c #808080",
"#	c #ffffff",
/* pixels */
"@@@@@@@@@@@@@@@@",
"@..............@",
"@.##########+++@",
"@.#.#####.##+.+@",
"@.#.###.#.##...@",
"@.#.#.#.#.##+++@",
"@.##########+++@",
"@.##########+++@",
"@.#.#.######+++@",
"@.###.#.####+++@",
"@.#.#.#.####+++@",
"@.##########+++@",
"@.##########...@",
"@.##########+.+@",
"@.+++++++++++++@",
"@@@@@@@@@@@@@@@@"};
