#define textsw_width 28
#define textsw_height 28
static char textsw_bits[] = {
   0x00, 0x00, 0x00, 0x00, 0x00, 0x00, 0x00, 0x00, 0x00, 0x00, 0x00, 0x00,
   0x00, 0x00, 0x00, 0x00, 0x00, 0x00, 0x00, 0x00, 0x00, 0x00, 0x00, 0x00,
   0xc0, 0xff, 0x1f, 0x00, 0x40, 0x00, 0x10, 0x00, 0x40, 0x00, 0x10, 0x00,
   0x40, 0x9f, 0x11, 0x00, 0x40, 0x00, 0x10, 0x00, 0x40, 0x00, 0x10, 0x00,
   0x40, 0x7f, 0x13, 0x00, 0x40, 0x00, 0x10, 0x00, 0x40, 0x00, 0x10, 0x00,
   0x40, 0xeb, 0x13, 0x00, 0x40, 0x00, 0x10, 0x00, 0x40, 0x00, 0x10, 0x00,
   0x40, 0xdf, 0x11, 0x00, 0x40, 0x00, 0x10, 0x00, 0xc0, 0xff, 0x1f, 0x00,
   0x00, 0x00, 0x00, 0x00, 0x00, 0x00, 0x00, 0x00, 0x00, 0x00, 0x00, 0x00,
   0x00, 0x00, 0x00, 0x00, 0x00, 0x00, 0x00, 0x00, 0x00, 0x00, 0x00, 0x00,
   0x00, 0x00, 0x00, 0x00};
