/* XPM */
static char *toback_xpm[] = {
/* columns rows colors chars-per-pixel */
"16 15 4 1",
"  c None",
". c Black",
"X c #808080",
"o c Yellow",
/* pixels */
" .......        ",
" .XXXXX.        ",
" .XXXXX......   ",
" .XXXXX.oooo.   ",
" .XXXXX.oooo.   ",
" .XXXXX.oooo.   ",
" .......oooo.   ",
"    .oooo.......",
"    .oooo.XXXXX.",
"    .oooo.XXXXX.",
"    ......XXXXX.",
"         .XXXXX.",
"         .XXXXX.",
"         .......",
"                "
};
