#define tofront_width 24
#define tofront_height 24
static char tofront_bits[] = {
 0x00,0x00,0x00,0x00,0x00,0x00,0x00,0x00,0x00,0x00,0x00,0x00,0xe0,0x0f,0x00,
 0x20,0x08,0x00,0x20,0xff,0x01,0x20,0xff,0x01,0x20,0xff,0x01,0x20,0xff,0x01,
 0xe0,0xff,0x01,0x00,0xff,0x0f,0x00,0xff,0x09,0x00,0xff,0x09,0x00,0xff,0x09,
 0x00,0x20,0x08,0x00,0x20,0x08,0x00,0xe0,0x0f,0x00,0x00,0x00,0x00,0x00,0x00,
 0x00,0x00,0x00,0x00,0x00,0x00,0x00,0x00,0x00,0x00,0x00,0x00};
