#define tree_width 24
#define tree_height 24
static char tree_bits[] = {
   0x00, 0x00, 0x00, 0x00, 0x00, 0x00, 0x00, 0x00, 0x00, 0x00, 0x00, 0x00,
   0x00, 0x00, 0x00, 0x00, 0x3c, 0x00, 0x00, 0x02, 0x00, 0x00, 0x01, 0x07,
   0xc0, 0xff, 0x00, 0x20, 0x01, 0x07, 0x10, 0x02, 0x00, 0x08, 0x3c, 0x00,
   0x04, 0x00, 0x00, 0x18, 0x00, 0x00, 0x60, 0x1c, 0x00, 0x80, 0x83, 0x03,
   0x00, 0x7c, 0x00, 0x00, 0x80, 0x03, 0x00, 0x00, 0x00, 0x00, 0x00, 0x00,
   0x00, 0x00, 0x00, 0x00, 0x00, 0x00, 0x00, 0x00, 0x00, 0x00, 0x00, 0x00};
