#define treeicn_width 64
#define treeicn_height 64
static char treeicn_bits[] = {
   0x00, 0x00, 0x00, 0x00, 0x00, 0x00, 0x00, 0x00, 0x00, 0x00, 0x00, 0x00,
   0x00, 0x00, 0x00, 0x00, 0x00, 0x00, 0x00, 0x00, 0x00, 0x00, 0x00, 0x00,
   0x00, 0x00, 0x00, 0x00, 0x00, 0x00, 0x00, 0x00, 0x00, 0x00, 0x00, 0x00,
   0x00, 0x7f, 0x00, 0x00, 0x00, 0x00, 0x00, 0x00, 0x80, 0x7f, 0x00, 0x00,
   0x00, 0x00, 0x00, 0x00, 0xc0, 0x01, 0x00, 0x00, 0x00, 0x00, 0x00, 0x00,
   0xe0, 0x00, 0x00, 0x00, 0x00, 0x00, 0x00, 0x00, 0x70, 0x00, 0x00, 0x00,
   0x00, 0x00, 0x00, 0x00, 0x38, 0x00, 0x00, 0x00, 0x00, 0x00, 0x00, 0x00,
   0x1c, 0x00, 0x00, 0x00, 0x00, 0x00, 0x00, 0x00, 0x0e, 0x00, 0x00, 0x00,
   0x00, 0x00, 0x00, 0x00, 0xff, 0x7f, 0x00, 0x00, 0x00, 0x00, 0x00, 0x80,
   0xff, 0x7f, 0x00, 0x00, 0x00, 0x00, 0x00, 0xc0, 0x0f, 0x00, 0x00, 0x00,
   0x00, 0x00, 0x00, 0xe0, 0x1c, 0x00, 0x00, 0x00, 0x00, 0x00, 0x00, 0x70,
   0x38, 0x00, 0x00, 0x00, 0x00, 0x00, 0x00, 0x38, 0x70, 0x00, 0x00, 0x00,
   0x00, 0x00, 0x00, 0x1c, 0xe0, 0x00, 0x00, 0x00, 0x00, 0x00, 0x00, 0x0f,
   0xc0, 0x01, 0x00, 0x00, 0x00, 0x00, 0xc0, 0x07, 0x80, 0x7f, 0x00, 0x00,
   0x00, 0x00, 0xf0, 0x07, 0x00, 0x7f, 0x00, 0x00, 0x00, 0x00, 0xfc, 0x0f,
   0x00, 0x00, 0x00, 0x00, 0x00, 0x00, 0x3f, 0x1c, 0x00, 0x00, 0x00, 0x00,
   0x00, 0xc0, 0x0f, 0x38, 0x00, 0xff, 0x00, 0x00, 0x00, 0xf0, 0x03, 0x70,
   0x80, 0xff, 0x00, 0x00, 0x00, 0xfc, 0x00, 0xe0, 0xc0, 0x00, 0x00, 0x00,
   0x00, 0x3f, 0x00, 0xc0, 0xe1, 0x00, 0x00, 0x00, 0xfc, 0x0f, 0x00, 0x80,
   0xf3, 0xff, 0x00, 0x00, 0xfc, 0x03, 0x00, 0x00, 0xbf, 0xff, 0x00, 0x00,
   0xfc, 0x01, 0x00, 0x00, 0x1e, 0x00, 0x00, 0x00, 0xfc, 0x03, 0x00, 0x00,
   0x1c, 0x00, 0x00, 0x00, 0x80, 0x03, 0x00, 0x00, 0xfc, 0xff, 0x00, 0x00,
   0x00, 0x07, 0x00, 0x00, 0xfc, 0xff, 0x00, 0x00, 0x00, 0x0e, 0x00, 0x00,
   0x38, 0x00, 0x00, 0x00, 0x00, 0x0e, 0x00, 0x00, 0x70, 0x00, 0x00, 0x00,
   0x00, 0x1c, 0xff, 0x03, 0xe0, 0x00, 0x00, 0x00, 0x00, 0x9c, 0xff, 0x03,
   0xc0, 0x01, 0x00, 0x00, 0x00, 0xf8, 0x00, 0x00, 0x80, 0x3f, 0x00, 0x00,
   0x00, 0xf8, 0x00, 0x00, 0x00, 0x3f, 0x00, 0x00, 0x00, 0xf0, 0x00, 0x00,
   0x00, 0x00, 0x00, 0x00, 0x00, 0xf0, 0xff, 0x03, 0x00, 0x00, 0x00, 0x00,
   0x00, 0xe0, 0xff, 0x03, 0xff, 0x00, 0x00, 0x00, 0x00, 0xe0, 0x00, 0x80,
   0xff, 0x00, 0x00, 0x00, 0x00, 0xc0, 0x00, 0xc0, 0x01, 0x00, 0x00, 0x00,
   0x00, 0xc0, 0x01, 0xe0, 0x00, 0x00, 0x00, 0x00, 0x00, 0x80, 0x03, 0x70,
   0x00, 0x00, 0x00, 0x00, 0x00, 0x00, 0xff, 0x3f, 0x00, 0x00, 0x00, 0x00,
   0x00, 0x00, 0xfe, 0x1f, 0xfc, 0x03, 0x00, 0x00, 0x00, 0x00, 0x00, 0x1c,
   0xfe, 0x03, 0x00, 0x00, 0x00, 0x00, 0x00, 0x38, 0x07, 0x00, 0x00, 0x00,
   0x00, 0x00, 0x00, 0xf0, 0x03, 0x00, 0x00, 0x00, 0x00, 0x00, 0x00, 0xe0,
   0x01, 0x00, 0x00, 0x00, 0x00, 0x00, 0x00, 0xc0, 0x01, 0x00, 0x00, 0x00,
   0x00, 0x00, 0x00, 0x80, 0x03, 0x00, 0x00, 0x00, 0x00, 0x00, 0x00, 0x00,
   0x07, 0x00, 0x00, 0x00, 0x00, 0x00, 0x00, 0x00, 0xfe, 0x03, 0x00, 0x00,
   0x00, 0x00, 0x00, 0x00, 0xfc, 0x03, 0x00, 0x00, 0x00, 0x00, 0x00, 0x00,
   0x00, 0x00, 0x00, 0x00, 0x00, 0x00, 0x00, 0x00, 0x00, 0x00, 0x00, 0x00,
   0x00, 0x00, 0x00, 0x00, 0x00, 0x00, 0x00, 0x00, 0x00, 0x00, 0x00, 0x00,
   0x00, 0x00, 0x00, 0x00, 0x00, 0x00, 0x00, 0x00, 0x00, 0x00, 0x00, 0x00,
   0x00, 0x00, 0x00, 0x00, 0x00, 0x00, 0x00, 0x00};
