#define vert_width 24
#define vert_height 24
static char vert_bits[] = {
   0x00, 0x00, 0x00, 0x00, 0x00, 0x00, 0x00, 0x00, 0x00, 0x00, 0x00, 0x00,
   0x00, 0xf8, 0x07, 0x00, 0x08, 0x04, 0x00, 0x08, 0x04, 0xf0, 0x09, 0x04,
   0x10, 0x09, 0x04, 0x10, 0x09, 0x04, 0x10, 0x09, 0x04, 0x10, 0x09, 0x04,
   0xf0, 0x09, 0x04, 0x00, 0x08, 0x04, 0x00, 0x08, 0x04, 0x00, 0xf8, 0x07,
   0x00, 0x00, 0x00, 0x00, 0x00, 0x00, 0x00, 0x00, 0x00, 0x00, 0x00, 0x00,
   0x00, 0x00, 0x00, 0x00, 0x00, 0x00, 0x00, 0x00, 0x00, 0x00, 0x00, 0x00};
