/* XPM */
static char *wxwin_xpm[] = {
/* columns rows colors chars-per-pixel */
"32 32 8 1",
"  c Gray100",
". c Black",
"X c Green",
"o c Blue",
"O c Red",
"+ c #c0c0c0",
"@ c Yellow",
"# c Cyan",
/* pixels */
"               ..XXXXXXXXXXXXXXX",
"o      .....   ..X...XXXXXXXXX..",
"o o   ..O.X..  ..X.++.XXXXXXX.+.",
"  o o .OO.XX.  ..XX.++.XXXXX.+.X",
"O   o .OO.XX.  ..XXX.++.XXX.+.XX",
"O O   .......  ..XXXX.++.X.+.XXX",
"  O O ..o.@..  ..XXXXX.++.+.XXXX",
"o   O ..o.@@.  ..XXXXXX.++.XXXXX",
"o o   .oo.@@.  ..XXXXX.+.++.XXXX",
"  o o .o..@@.  ..XXXX.+.X.++.XXX",
".   o .o.....  ..XXX.+.XXX.++.XX",
". .   ...  ..  ..XX.+.XXXXX.++.X",
"  . . .        ..X.+.XXXXXXX.++.",
"    .          ..X..XXXXXXXXX...",
"               ..XXXXXXXXXXXXXXX",
"................................",
"................................",
"###############..@@@@@@@@@@@@@@@",
"########OO#####..@@@@@@@@@@@@@@@",
"#######OO######..@@@@@@@@@@.@@@@",
"#######O#######..@@@@@@@@@@..@@@",
"###OOO##OOO####..@@@..@@@@@@..@@",
"##OOOOOOOOOO###..@@@..@@@@@@@.@@",
"##OOOOOOOO#####..@@@@@@@@@@@@.@@",
"##OOOOOOOO#####..@@@@@@...@@@.@@",
"##OOOOOOOO#####..@@@@@@@@@@@@.@@",
"##OOOOOOOOOO###..@@@@@@@@@@@@.@@",
"##OOOOOOOOOO###..@@@..@@@@@@..@@",
"###OOOOOOOOO###..@@@..@@@@@..@@@",
"####OOO#OOO####..@@@@@@@@@@.@@@@",
"###############..@@@@@@@@@@@@@@@",
"###############..@@@@@@@@@@@@@@@"
};
