/* XPM */
static const char *notepad_xpm[] = {
/* columns rows colors chars-per-pixel */
"32 32 5 1",
"  c black",
". c #808080",
"X c #C0C0C0",
"o c gray100",
"O c None",
/* pixels */
"OOOOOOOOOOOOOOOOOOOOOOOOOOOOOOOO",
"OOOOOOOOOOOOOOOOOOOOOOOOOOOOOOOO",
"OOOOOOOOOOOOOOOOOOOOOOOOOOOOOOOO",
"OOOOOOOOO.OO.OO.OO.OO.OOOOOOOOOO",
"OOOOOOXXX.XX.XX.XX.XX.XXXOOOOOOO",
"OOOOOOXoo.oo.oo.oo.oo.ooXOOOOOOO",
"OOOOOOXoooooooooooooooooX.OOOOOO",
"OOOOOOXoo   ..    .   ooX.OOOOOO",
"OOOOOOXoooooooooooooooooX.OOOOOO",
"OOOOOOXoooooooooooooooooX.OOOOOO",
"OOOOOOXoo      oooooooooX.OOOOOO",
"OOOOOOXoooooooooooooooooX.OOOOOO",
"OOOOOOXoooooooooooooooooX.OOOOOO",
"OOOOOOXoo   .       ooooX.OOOOOO",
"OOOOOOXoooooooooooooooooX.OOOOOO",
"OOOOOOXoooooooooooooooooX.OOOOOO",
"OOOOOOXoo      .   oooooX.OOOOOO",
"OOOOOOXoooooooooooooooooX.OOOOOO",
"OOOOOOXoooooooooooooooooX.OOOOOO",
"OOOOOOXoo  .    .     ooX.OOOOOO",
"OOOOOOXoooooooooooooooooX.OOOOOO",
"OOOOOOXoooooooooooooooooX.OOOOOO",
"OOOOOOXoo   .     .    oX.OOOOOO",
"OOOOOOXoooooooooooooooooX.OOOOOO",
"OOOOOOXoooooooooooooooooX.OOOOOO",
"OOOOOOXoooooooooooooooooX.OOOOOO",
"OOOOOOXXXXXXXXXXXXXXXXXXX.OOOOOO",
"OOOOOOOO..................OOOOOO",
"OOOOOOOOOOOOOOOOOOOOOOOOOOOOOOOO",
"OOOOOOOOOOOOOOOOOOOOOOOOOOOOOOOO",
"OOOOOOOOOOOOOOOOOOOOOOOOOOOOOOOO",
"OOOOOOOOOOOOOOOOOOOOOOOOOOOOOOOO"
};
