/* XPM */
static const char * alignleft_xpm[] = {
/* columns rows colors chars-per-pixel */
"16 16 2 1",
". c #4D4D4D",
"  c None",
/* pixels */
"                ",
"                ",
" .............. ",
"                ",
" ..........     ",
"                ",
" .............. ",
"                ",
" ..........     ",
"                ",
" .............. ",
"                ",
" ..........     ",
"                ",
"                ",
"                "
};
