/* XPM */
static const char * font_xpm[] = {
/* columns rows colors chars-per-pixel */
"16 16 3 1",
"X c #A6A6A6",
"  c None",
". c #4D4DA6",
/* pixels */
"                ",
"                ",
"        .       ",
"       X.X      ",
"       ...      ",
"      X...X     ",
"      .. ..     ",
"     X.  ..X    ",
"     .......    ",
"    X.    ..X   ",
"    ..    X..   ",
"   X.     X..X  ",
"  ....   ...... ",
"                ",
"                ",
"                "
};
