/* XPM */
static char *Pictures[] = {
/* width height num_colors chars_per_pixel */
"   120    45        8            1",
/* colors */
". c #000000",
"# c #c0c0c0",
"a c #808080",
"b c #ff0000",
"c c #ffff00",
"d c #0000ff",
"e c #00ffff",
"f c #ffffff",
/* pixels */
"........................................................................................................................",
".fff.fffffff.bb.bb.bb.b.fffffffffffffff..fffffffffff..f..bbc.cc..ffffffffffffff..fff.ffffff.bbccccbcccccbb.ffffffffffff.",
".ff.c.fffffff.bbbbbbbb.ffffffffffffffff..fff.ffffff..f.ff.bbc..c.ffffffffffffff..ff.a.ffffff.bbccbbbcccbb.fffffffffffff.",
".f.cbc.fffffff........fffffffffffffffff..ff.b.fffff.f.ffff.bb..c..fffffffffffff..f.#af.ffffff.bbbbbbbbbb.ffffffffffffff.",
".f.cbc.ffffff.fff.c.c.fffffffffffffffff..ff.b.fffff..f.ff.f.bbc.c.fffffffffffff..f.#af.ffffff............ffffffffffffff.",
".ff.c.fffffff.f..f.c.c.ffffffffffffffff..fff.ffffff.f..ff..f.bb..ffffffffffffff..f.#af.ffffff.a..f.fff.f.ffffffffffffff.",
".f.cbc.ffffff.f.ff.c.c.ffffffffffffffff..ff.c.fffff.fff.ffff..b.fffffffffffffff..f.#af.ffffff.a.f..fff..f.fffffffffffff.",
".f.cbc.fffff.fffff.c.c.ffffffffffffffff..ff.c.fffff.fff.ffff....fffffffffffffff..f.#af.ffffff.a.ffff.ffff.fffffffffffff.",
".ff.c.fffff.ffffff.c.c.ffffffffffffffff..ff.c.fffff.fff..fff.b..fffffffffffffff..f.#af.ffffff.a.fffff.fff.fffffffffffff.",
".f.cbc.ffff..###ff.c.c.ffffffffffffffff..ff.c.fffff.ffffffff..b.fffffffffffffff..f.#af.ffffff.a.ffff..fff.fffffffffffff.",
".f.cbc.ffffff...ff.c.c.ffffffffffffffff..fff.ffffff.ffbbbbff.f...ffffffffffffff..f.#af.fff..f.a..ffffffff.fffffffffffff.",
".ff....ffffff.ffff.c.c.ffffffffffffffff..ff....fffff.ffffff.f.f...fffffffffffff..f.#af.fff....a...f....f..fffffffffffff.",
".f.ffff.fffff.fffff.c.c.fffffffffffffff..f.ffff.ffff..ffff.f.f.f..fffffffffffff..f.#af.ffff.aaa.a..f.f.f...ffffffffffff.",
".f....ff.f.................ffffffffffff..f....ff.f.................ffffffffffff..f.#af.fff...................ffffffffff.",
".ff.fff....eddddddddddddddd.....fffffff..f.fffff...ffffffffff.cdbb......fffffff..f.#af.....c.cc..bbbbbb..c......fffffff.",
".ff....bbbd.dbcbbbbbbbbbcbdedbbb....fff..f....f.bc.fdddddddf.cdbb.d..f.....ffff..f.#af..cbbcc.cc..bbbb..c......b....fff.",
"...bbbb...deedbbcbbcbbcbbbd.dbb.bbbb.....f.fff.fbbc.fffffff.cdbb.d..f..dd.c..ff..........cbbcc.cc......c.....bbbdfff....",
".bb....c.ccdeedbbbcccbbbbdedbb.bbb..cc...ff...c.fbbc.fdddf.cdbb.d..f..dd.cccd.f...ffff...dcbbcc.cc....cc...ddbbbdfddddf.",
"...cc.c....bd.dbcbbcbbcbbd.db.bb..cbc.b..ff.dccc.bbc.ffff.cdbb.dd..ff...cdcdfd.........f.dcbbacc.cccccc..fdcbdbbdffddff.",
"..c....bbbbbdeddddddddddddedbb..cccc.bb..f..fdcdc.bbc.ff.cdbb.dddd..ff.cccdffdc...ffff.f.dcbbcacc.c...c.fdccccdbdffddff.",
"...bb.bb....bbbbbbbbbbbbbbbb..ccbbc.bb....ffdfdccc.bbc..cdbb..........cccdfdfbc........f.dcbbccacc.ccb.fdddbdbdbddffffd.",
".bbb.b..ccc.d.d.d.d.dd.d.d.d.cccbb.bb.b..cbdfffdccc.fdfdfdfdfdfdfdfd.cccdfffbbc...ffff.f.dcbbacca.bcdcc.caddddcddff..ff.",
".bb.bb.ccbcd.d.d.d.ff.d.d.d.dcbcc.bb.bb..cbbddddcdc.dbdbdbdbdbdbdbdb.cdcddddbbc.........ddcddaacc.cdddc.ccaddcdd........",
".b.bb.bbccc.d.d.d.dd.d.d.d.d.ccc.bb.bbb..cbbfffdccc.fdfdfdfdfdfdfdfd.cccdfffdbc..ff..ffddcddddaac.ccdcb.accbbcd.f.ffff..",
"..bb.cbbcc..bbbbbbbbbbbbbbbb....b..bb....cbfdfdccc..........bbdc..cbb.cccdfdff...dffffddcdbdbddaac.bcc.ccacbbcd.f.......",
".bb.cccc..bbdeddddddddddddedbbbbb....c...cdffdccc.ff..dddd.bbdc.ff.cbb.cdcdff.f..ffddffdbdccccdfa.c...c.ccabbcd.f.ffff..",
".b.cbc..bb.bd.dbbcbbcbbcbd.db....c.cc.....dfdcdc...ff..dd.bbdc.ffff.cbb.cccd.ff..ffddffdbbdbcdff..cccccc.ccbbcd.f.......",
"..cc..bbb.bbdedbbbbcccbbbdeedcc.c....bb..f.dccc.dd..f..d.bbdc.fdddf.cbbf.c...ff..fddddfdbbbddf...cc....cc.cbbcd...ffff..",
"....bbbb.bbd.dbbbcbbcbbcbbdeed...bbbb....ff..c.dd..f..d.bbdc.fffffff.cbbf.fff.f.....fffdbbb......c......cc.cbbc.........",
".fff....bbbdedbcbbbbbbbbbcbd.dbbb....ff..ffff.....f..d.bbdc.fdddddddf.cb.f....f..fff....bb......c..bbbb..cc.cbbc..fa#.f.",
".fffffff.....ddddddddddddddde....fff.ff..fffffff......bbdc.ffffffffff...fffff.f..fffffff.......c..bbbbbb..cc......fa#.f.",
".ffffffffffff.................f.ff....f..ffffffffffff.................f.ff....f..ffffffffff...................fff.fa#.f.",
".fffffffffffffff.c.c.fffff.fffff.ffff.f..fffffffffffff..f.f.f.ffff..ffff.ffff.f..ffffffffffff...f.f.f..a.aaa.ffff.fa#.f.",
".ffffffffffffffff.c.c.ffff.ffffff....ff..fffffffffffff...f.f.ffffff.fffff....ff..fffffffffffff..f....f...a....fff.fa#.f.",
".ffffffffffffffff.c.c.ff...ffffff.cbc.f..ffffffffffffff...f.ffbbbbff.ffffff.fff..fffffffffffff.ffffffff..a.f..fff.fa#.f.",
".ffffffffffffffff.c.c.ff###..ffff.cbc.f..fffffffffffffff.b..ffffffff.fffff.c.ff..fffffffffffff.fff..ffff.a.ffffff.fa#.f.",
".ffffffffffffffff.c.c.ffffff.fffff.c.ff..fffffffffffffff..b.fff..fff.fffff.c.ff..fffffffffffff.fff.fffff.a.ffffff.fa#.f.",
".ffffffffffffffff.c.c.fffff.fffff.cbc.f..fffffffffffffff....ffff.fff.fffff.c.ff..fffffffffffff.ffff.ffff.a.ffffff.fa#.f.",
".ffffffffffffffff.c.c.ff.f.ffffff.cbc.f..fffffffffffffff.b..ffff.fff.fffff.c.ff..fffffffffffff.f..fff..f.a.ffffff.fa#.f.",
".ffffffffffffffff.c.c.f..f.fffffff.c.ff..ffffffffffffff..bb.f..ff..f.ffffff.fff..ffffffffffffff.f.fff.ff.a.ffffff.fa#.f.",
".fffffffffffffffff.c.c.fff.ffffff.cbc.f..fffffffffffff.c.cbb.f.ff.f..fffff.b.ff..ffffffffffffff............ffffff.fa#.f.",
".fffffffffffffffff........fffffff.cbc.f..fffffffffffff..c..bb.ffff.f.fffff.b.ff..ffffffffffffff.bbbbbbbbbb.ffffff.fa#.f.",
".ffffffffffffffff.bbbbbbbb.fffffff.c.ff..ffffffffffffff.c..cbb.ff.f..ffffff.fff..fffffffffffff.bbcccbbbccbb.ffffff.a.ff.",
".fffffffffffffff.b.bb.bb.bb.fffffff.fff..ffffffffffffff..cc.cbb..f..fffffffffff..ffffffffffff.bbcccccbccccbb.ffffff.fff.",
"........................................................................................................................"
};
