<?xml version="1.0" encoding="UTF-8"?>
<svg id="svg36" width="10" height="10" version="1.1" viewBox="0 0 10 10" xmlns="http://www.w3.org/2000/svg">
 <g id="g13426" transform="translate(-.0056677 -.048661)">
  <path id="path9461" d="m0.0056677 5.0487a5 5 0 0 1 2.5-4.3301 5 5 0 0 1 5 2.2e-7l-2.5 4.3301z" fill="#00f"/>
  <path id="path11400" d="m7.5057 0.71853a5 5 0 0 1 2.5 4.3301 5 5 0 0 1-2.5 4.3301l-2.5-4.3301z" fill="#ff0"/>
  <path id="path13261" d="m7.5057 9.3788a5 5 0 0 1-5-3e-7 5 5 0 0 1-2.5-4.3301h5z" fill="#f00"/>
 </g>
 <g id="g4" transform="matrix(.15754 0 0 .16471 1.6521 1.5)">
  <path id="path2" d="m27.598 3.5v19c0 1.934-1.567 3.5-3.5 3.5h-5.695c-1.933 0-3.5-1.566-3.5-3.5v-19c0-1.934 1.567-3.5 3.5-3.5h5.695c1.931 0 3.5 1.566 3.5 3.5zm-3.5 26.002h-5.695c-1.933 0-3.5 1.566-3.5 3.5v5.998c0 1.934 1.567 3.5 3.5 3.5h5.695c1.933 0 3.5-1.566 3.5-3.5v-5.998c0-1.934-1.569-3.5-3.5-3.5z"/>
 </g>
</svg>
