/* XPM */
static const char *const colours_xpm[] = {
"16 16 5 1",
"  c black",
"c c #0759FF",
"b c #2AD802",
". c #D21A02",
"a c #FEFB00",
"                ",
" .......aaaaaaa ",
" .......aaaaaaa ",
" .......aaaaaaa ",
" .......aaaaaaa ",
" .......aaaaaaa ",
" .......aaaaaaa ",
" .......aaaaaaa ",
" bbbbbbbccccccc ",
" bbbbbbbccccccc ",
" bbbbbbbccccccc ",
" bbbbbbbccccccc ",
" bbbbbbbccccccc ",
" bbbbbbbccccccc ",
" bbbbbbbccccccc ",
"                "
};
