/* XPM */
static char * info[] = {
"48 48 159 2",
"  	c None",
". 	c #12165C",
"+ 	c #9E9EC4",
"@ 	c #565294",
"# 	c #2E3274",
"$ 	c #1A227C",
"% 	c #16229C",
"& 	c #262274",
"* 	c #362E8C",
"= 	c #262A9C",
"- 	c #121E7C",
"; 	c #1A2AAC",
"> 	c #162284",
", 	c #262EA4",
"' 	c #2A2A84",
") 	c #1E1E6C",
"! 	c #3E3A84",
"~ 	c #7A72B4",
"{ 	c #121E74",
"] 	c #1E2284",
"^ 	c #2A2E9C",
"/ 	c #362E9C",
"( 	c #D2D2E4",
"_ 	c #62669C",
": 	c #1E269C",
"< 	c #1A2AB4",
"[ 	c #6A6EAC",
"} 	c #121A6C",
"| 	c #2E2A84",
"1 	c #26268C",
"2 	c #3E328C",
"3 	c #322E9C",
"4 	c #B6B6CC",
"5 	c #1626AC",
"6 	c #1E268C",
"7 	c #2E267C",
"8 	c #363294",
"9 	c #1A2694",
"0 	c #22226C",
"a 	c #26267C",
"b 	c #2E2A9C",
"c 	c #1A1E7C",
"d 	c #222A9C",
"e 	c #162294",
"f 	c #1E2EBC",
"g 	c #2A2EAC",
"h 	c #6A6A9C",
"i 	c #2E2A94",
"j 	c #CACADC",
"k 	c #1A1A64",
"l 	c #16269C",
"m 	c #262AAC",
"n 	c #161E8C",
"o 	c #464294",
"p 	c #8286C4",
"q 	c #1A1E64",
"r 	c #222AB4",
"s 	c #6A6EB4",
"t 	c #1A1A6C",
"u 	c #BABAD4",
"v 	c #1E2694",
"w 	c #121A64",
"x 	c #2E2E94",
"y 	c #3A2E8C",
"z 	c #2A2A9C",
"A 	c #161E7C",
"B 	c #1A2284",
"C 	c #262A94",
"D 	c #2E2E9C",
"E 	c #36329C",
"F 	c #FEFEFC",
"G 	c #666AA4",
"H 	c #1E2AB4",
"I 	c #161A6C",
"J 	c #322A84",
"K 	c #2A267C",
"L 	c #262EB4",
"M 	c #1A269C",
"N 	c #1E2274",
"O 	c #1E2AA4",
"P 	c #221E6C",
"Q 	c #423E8C",
"R 	c #222284",
"S 	c #E6E6EC",
"T 	c #22269C",
"U 	c #6E6EA4",
"V 	c #3232A4",
"W 	c #BAB6D4",
"X 	c #1A26AC",
"Y 	c #222684",
"Z 	c #3A328C",
"` 	c #22227C",
" .	c #222AAC",
"..	c #222EB4",
"+.	c #8A86BC",
"@.	c #1A1E74",
"#.	c #161A5C",
"$.	c #322E8C",
"%.	c #3A329C",
"&.	c #A29ECC",
"*.	c #26227C",
"=.	c #362E94",
"-.	c #262AA4",
";.	c #121E84",
">.	c #16228C",
",.	c #262EAC",
"'.	c #2A2A8C",
").	c #1E1E74",
"!.	c #7A76B4",
"~.	c #161E74",
"{.	c #1E228C",
"].	c #2A2EA4",
"^.	c #6266A4",
"/.	c #1E26A4",
"(.	c #1A2ABC",
"_.	c #121A74",
":.	c #2E2A8C",
"<.	c #262694",
"[.	c #3E3294",
"}.	c #322EA4",
"|.	c #B6B6D4",
"1.	c #222274",
"2.	c #262684",
"3.	c #222AA4",
"4.	c #1A2294",
"5.	c #2E2EAC",
"6.	c #6E6AA4",
"7.	c #322A94",
"8.	c #1626A4",
"9.	c #8E8ABC",
"0.	c #4A429C",
"a.	c #6E6EBC",
"b.	c #222694",
"c.	c #2A2A94",
"d.	c #1A1E6C",
"e.	c #BABADC",
"f.	c #3A2E94",
"g.	c #2A2AA4",
"h.	c #161E84",
"i.	c #1A228C",
"j.	c #2E2EA4",
"k.	c #3632A4",
"l.	c #666AAC",
"m.	c #1E2ABC",
"n.	c #161A74",
"o.	c #322A8C",
"p.	c #2A2684",
"q.	c #1A26A4",
"r.	c #1E227C",
"s.	c #1E2AAC",
"t.	c #423E94",
"u.	c #E6E6F4",
"v.	c #6E6EAC",
"w.	c #1A26B4",
"x.	c #22268C",
"y.	c #3A3294",
"z.	c #222EBC",
"A.	c #161A64",
"B.	c #322E94",
"                                                                                                ",
"                                                                                                ",
"                                                                                                ",
"                                                                                                ",
"                                      7 7 7 7 7 7 7 7 &                                         ",
"                                2 2 2 2 2 2 y y y f.f.[.y 7 *.                                  ",
"                            J y 2 2 2 2 2 [.[.[.[.y.=.=.f.=./ B.p.                              ",
"                        2 2 2 2 [.2 [.[.f.y y y * * =.=.B./ B.3 o.*.*.                          ",
"                      y 2 2 [.2 [.2 2 y [.[.f.f.o.* $.$.B.B.7.D 3 D }.D                         ",
"                    2 2 [.[.2 [.2 [.f.[.y ~ ( F F W 0.$.:.i x 7.3 D D <.R                       ",
"                  y 2 [.[.[.2 [.2 2 y y ~ F F F F F u.o :.:.c.c.b b D }.}.g.                    ",
"                2 [.[.2 [.2 [.2 [.y 2 Z ( F F F F F F +.7 '.:.:.i D b ].].z R                   ",
"              y 2 2 [.[.[.[.[.2 f.y y y F F F F F F F |.p.p.'.'.<.z z g.].].5.m                 ",
"            2 2 [.t.[.[.2 2 2 f.2 f.* * u.F F F F F F + *.2.2.C '.c.z ^ ].g m = n               ",
"            y 2 [.2 [.[.[.[.2 f.2 f.* * &.F F F F F F @ a *.2.2.C C z = g.].,.g. .              ",
"          2 2 [.[.[.[.[.2 [.[.[.f.* o.J $.u F F F u.U 1.0 Y *.2.1 <.C ^ -.m g.L = n             ",
"          2 2 2 [.2 t.[.[.f.[.Z y.* $.J 7 | Q U 6.P 1.P P ` ` 2.1 <.= = , ,.,.m m  .            ",
"        2 [.[.[.[.[.[.2 f.2 f.f.* =.o.:.| K & & 0 0 P N 1.1.` R 2.d <.= -.-.m ..../.n           ",
"        2 2 [.2 [.2 [.[.[.[.y.=.=.* o.:.p.K ! 6.h 4 4 ) ) ).r.6 Y b.= = , ,.,.m ..r r           ",
"        [.2 t.[.[.[.[.[.f.y.8 y.* B.9.W S F F F F F F ) ) N 1.R R x.b.= 3.m m ..m ..s.          ",
"      7 [.2 [.2 [.[.[.[.[.f.=.=.=.o.e.F F F F F F F F ) ) ).N R x.b.T 3.3. .m ..r H m.H         ",
"      2 [.[.[.[.[.[.[.[.f.%.=.=.$.B.:.o W F F F F F F k q N r.] R b.d T ,  . .r ....s.n         ",
"      y 2 2 [.[.[.[.[.%.f.%.=.=.B.$.:.'.v.F F F F F F t k ) N ] 6 x.d T 3... .H r H m.<         ",
"      2 [.[.[.[.[.[.%.y.%.=.E / 7.7.p.p.v.F F F F F F q d.t @.r.R v T O  . .....f r X n         ",
"      y 2 2 [.[.[.[.%.=.%.=.B.B.x B.:.| v.F F F F F F k d.d.c $ {.6 T d O  .r r f f m.(.        ",
"      2 [.[.[.[.[.%.%.%./ E / 3 7.i '.2.v.F F F F F F A.A.t @.r.] b.: /. .s.H H H m.5 ;.        ",
"      J 2 [.[.[.[.f.%.8 / E 8 3 i i :.p.v.F F F F F F k A.d.~.$ B 6 : : /.s.H m.m.f (.(.        ",
"      [.[.[.%.[.%.%./ f.E / 3 3 B.i p.1 v.F F F F F F . A.I @.c {.{.: O s. .H H m.(.w.;.        ",
"      7 [.[.%.f.%.%.E / V =.3 D D ^ '.1 v.F F F F F F #.A.I @.A i.9 : O s.s.H f m.(.(.w.        ",
"      [.[.[.[.%.%.E E E / 3 3 7.i i c.2.v.F F F F F F . . A.~.c B {.M /.X H H (.(.(.w.;.        ",
"        [.%.%./ %.f./ V 3 3 D D c.c.<.Y v.F F F F F F #.A.A.~.A B 4.9 /.X ; < f f (.(.          ",
"        %.f.E %./ k.k./ V }.}.D D c.'.1 [ F F F F F F . . } I c >.i.M q.; H < (.(.(.5           ",
"        J f.k.E E E / / 3 V 3 D b z 1 x.v.F F F F F F #.. A.} c B 4.M /.X < (.(.(.(.(.          ",
"          %.%.%.E / V }.V D j.z z c.C 1 [ F F F F F F . A.} ~.A h.4.4.q.; w.(.(.(.5             ",
"          7 k./ V / V D }.j.j.^ z z <.x.[ F F F F F F . . . _.A h.4.% q.; 5 w.w.(.(.            ",
"            / k./ V }.}.j.j.j.b z C C R l.F F F F F F . } I ~.A >.e M 5 5 (.(.(.5               ",
"            7 V 3 V V V }.j.].].g.= C <.s F F F F F F # w } n.A >.e 4.X 5 < (.w.(.              ",
"              / k.}.}.j.j.j.j.g.z = a.p u.F F F F F F j _ _ - - n e 8.5 5 w.w.5                 ",
"                V V j.j.j.].].].z = F F F F F F F F F F F F n.;.n e % X 5 (.(.                  ",
"                  j.V j.j.j.].-.-.<.a.a.s [ l.G G _ _ _ ^.^.- h.e % 8.5 < 5                     ",
"                    5.].g j.]., , d T b.{.{.c A ~._.} } _.n.;.;.e % % 5 5                       ",
"                      5.j.].g g.-.-.d : v i.> A A ~._.- - - >.e e % 5 %                         ",
"                        g g.g -., 3.d : v v i.B h.A n.h.;.;.;.n % 8.%                           ",
"                            -.,. .-.3.T : 4.{.>.>.>.>.;.>.n % % %                               ",
"                                3.-.3.3.O M 4.4.i.n e n e e e                                   ",
"                                      : : : /.4.% e n ;.                                        ",
"                                                                                                ",
"                                                                                                "};
