/* XPM */
static char * listview_xpm[] = {
"20 20 5 1",
" 	c None",
".	c #000000",
"+	c #FFFFFF",
"@	c #000083",
"#	c #838183",
"                    ",
"                    ",
"  ................  ",
"  .+@@+++++@@++++.  ",
"  .+@+@+.#+@+@+.+.  ",
"  .+@@@++++@@@+++.  ",
"  .++++++++++++++.  ",
"  .++++++++++++++.  ",
"  .+@@+++++@@++++.  ",
"  .+@+@+.#+@+@+.+.  ",
"  .+@@@++++@@@+++.  ",
"  .++++++++++++++.  ",
"  .++++++++++++++.  ",
"  .+@@+++++@@++++.  ",
"  .+@+@+.#+@+@+.+.  ",
"  .+@@@++++@@@+++.  ",
"  .++++++++++++++.  ",
"  ................  ",
"                    ",
"                    "};
