/* XPM */
static char *question[] = {
/* columns rows colors chars-per-pixel */
"48 48 101 2",
"   c Gray0",
".  c Transparent",
"X  c #010101010101",
"o  c #000000000202",
"O  c #000001010202",
"+  c #010101010202",
"@  c #010102020303",
"#  c #020202020202",
"$  c #020202020303",
"%  c Gray1",
"&  c #030305050707",
"*  c #040404040404",
"=  c #040404040606",
"-  c #070707070707",
";  c #060607070808",
":  c #060608080a0a",
">  c #060608080b0b",
",  c Gray3",
"<  c #0d0d0d0d0c0c",
"1  c Gray6",
"2  c #191915150d0d",
"3  c Gray8",
"4  c Gray10",
"5  c #22221c1c1212",
"6  c #393939393939",
"7  c #2b2b3d3d6161",
"8  c #353545456464",
"9  c #65654f4f2424",
"0  c #6b6b55552727",
"q  c #6e6e55552626",
"w  c #707056562727",
"e  c #717159592929",
"r  c #73735f5f3b3b",
"t  c #7c7c62622d2d",
"y  c #7f7f69694141",
"u  c Gray39",
"i  c #727272727272",
"p  c #737375757979",
"a  c Gray50",
"s  c #808063632d2d",
"d  c #828266662f2f",
"f  c #87876a6a3131",
"g  c #8c8c6d6d3131",
"h  c #929273733535",
"j  c #939374743535",
"k  c #949475753636",
"l  c #979777773737",
"z  c #99997a7a3b3b",
"x  c #9d9d7d7d3a3a",
"c  c #a2a27f7f3b3b",
"v  c #92927c7c5252",
"b  c #a6a682823c3c",
"n  c #a8a884843d3d",
"m  c #aaaa86863e3e",
"M  c #a6a687874848",
"N  c #a3a38e8e5555",
"B  c #a4a48b8b5a5a",
"V  c #b3b38d8d4040",
"C  c #b8b892924343",
"Z  c #b9b993934444",
"A  c #bebe95954444",
"S  c #bebe9b9b5353",
"D  c #bebea3a36363",
"F  c #bfbfa1a16a6a",
"G  c #bebea2a27272",
"H  c #c0c097974545",
"J  c #c3c39f9f5555",
"K  c #c3c39f9f5757",
"L  c #c9c9a4a45b5b",
"P  c #d2d2a6a64c4c",
"I  c #d2d2a6a64d4d",
"U  c #d8d8abab4e4e",
"Y  c #d8d8acac5858",
"T  c #d8d8acac5b5b",
"R  c #d8d8b1b15f5f",
"E  c #c3c3a4a46666",
"W  c #c6c6a7a76a6a",
"Q  c #c9c9acac7373",
"!  c #d2d2b0b06c6c",
"~  c #d8d8b1b16363",
"^  c #d8d8b1b16565",
"/  c #dcdcb4b46363",
"(  c #d8d8b5b56e6e",
")  c #d8d8b6b66e6e",
"_  c #dadab8b87272",
"`  c #ddddbcbc7474",
"'  c #d8d8baba7b7b",
"]  c #f7f7c3c35a5a",
"[  c #f7f7c9c96d6d",
"{  c #f7f7cfcf7e7e",
"}  c #aaaaaaaaaaaa",
"|  c #d8d8bebe8686",
" . c #dcdcc4c49494",
".. c #f7f7d4d48c8c",
"X. c #f7f7d8d89999",
"o. c #f7f7dcdca5a5",
"O. c #f7f7dfdfafaf",
"+. c #f7f7e2e2b8b8",
"@. c #f7f7e5e5c0c0",
"#. c Gray100",
"$. c None",
/* pixels */
"$.$.$.$.$.$.$.$.$.$.$.$.$.$.$.$.$.$.$.$.$.$.$.$.$.$.$.$.$.$.$.$.$.$.$.$.$.$.$.$.$.$.$.$.$.$.$.$.",
"$.$.$.$.$.$.$.$.$.$.$.$.$.$.$.$.$.$.$.$.$.$.$.$.$.$.$.$.$.$.$.$.$.$.$.$.$.$.$.$.$.$.$.$.$.$.$.$.",
"$.$.$.$.$.$.$.$.$.$.$.$.$.$.$.$.$.$.$.$.$.$.$.$.$.$.$.$.$.$.$.$.$.$.$.$.$.$.$.$.$.$.$.$.$.$.$.$.",
"$.$.$.$.$.$.$.$.$.$.$.$.$.$.$.$.$.$.$.$.$.$.$.$.$.$.$.$.$.$.$.$.$.$.$.$.$.$.$.$.$.$.$.$.$.$.$.$.",
"$.$.$.$.$.$.$.$.$.$.$.$.$.$.$.$.$.$.$.$.$.$.$.$.$.$.$.$.$.$.$.$.$.$.$.$.$.$.$.$.$.$.$.$.$.$.$.$.",
"$.$.$.$.$.$.$.$.$.$.$.$.$.$.$.$.$.$.$.$.$.$.$.$.$.$.$.$.$.$.$.$.$.$.$.$.$.$.$.$.$.$.$.$.$.$.$.$.",
"$.$.$.$.$.$.$.$.$.$.$.$.$.$.$.$.$.$.$.$.$.$.$.$.$.$.$.$.$.$.$.$.$.$.$.$.$.$.$.$.$.$.$.$.$.$.$.$.",
"$.$.$.$.$.$.$.$.$.$.$.$.$.$.$.$.$.$.$.$.$.$.$.$.$.$.$.$.$.$.$.$.$.$.$.$.$.$.$.$.$.$.$.$.$.$.$.$.",
"$.$.$.$.$.$.$.$.$.$.$.$.$.$.$.$.$.$.<                   $.$.$.$.$.$.$.$.$.$.$.$.$.$.$.$.$.$.$.$.",
"$.$.$.$.$.$.$.$.$.$.$.$.$.$.$.$.$.      c C U x b t         $.$.$.$.$.$.$.$.$.$.$.$.$.$.$.$.$.$.",
"$.$.$.$.$.$.$.$.$.$.$.$.$.$.$.$.    U X.X.+.X.' ' ' S b       $.$.$.$.$.$.$.$.$.$.$.$.$.$.$.$.$.",
"$.$.$.$.$.$.$.$.$.$.$.$.$.$.$.    ] O.@.X...] ] ] { ' R b q     $.$.$.$.$.$.$.$.$.$.$.$.$.$.$.$.",
"$.$.$.$.$.$.$.$.$.$.$.$.$.$.<   ] O.o.] n j j m ] ] { ) R b     * $.$.$.$.$.$.$.$.$.$.$.$.$.$.$.",
"$.$.$.$.$.$.$.$.$.$.$.$.$.$.  D X.+.] k         h ] ] [ R R s     1 $.$.$.$.$.$.$.$.$.$.$.$.$.$.",
"$.$.$.$.$.$.$.$.$.$.$.$.$.<   [ @.{ k     o 7 @   K ] { U R b     % $.$.$.$.$.$.$.$.$.$.$.$.$.$.",
"$.$.$.$.$.$.$.$.$.$.$.$.$.  N ..O.U     o 8 a a   B ] [ R U b     # #.$.$.$.$.$.$.$.$.$.$.$.$.$.",
"$.$.$.$.$.$.$.$.$.$.$.$.$.  I { ] b     8 a #.#.  B [ [ ) U d     # } #.$.$.$.$.$.$.$.$.$.$.$.$.",
"$.$.$.$.$.$.$.$.$.$.$.$.$.  ] { ] b     a #.#.$.  B ] ) ) U 9     % } #.$.$.$.$.$.$.$.$.$.$.$.$.",
"$.$.$.$.$.$.$.$.$.$.$.$.$.  / R A d     a #.$.    E [ ' U b       a } #.$.$.$.$.$.$.$.$.$.$.$.$.",
"$.$.$.$.$.$.$.$.$.$.$.$.$.              a #.$.  g ! | R U e     + a } #.$.$.$.$.$.$.$.$.$.$.$.$.",
"$.$.$.$.$.$.$.$.$.$.$.$.$.            : a #.    Z ..| U A       3 a #.$.$.$.$.$.$.$.$.$.$.$.$.$.",
"$.$.$.$.$.$.$.$.$.$.$.$.$.$.  a a a a a a -   V [ | U U       $ a } #.$.$.$.$.$.$.$.$.$.$.$.$.$.",
"$.$.$.$.$.$.$.$.$.$.$.$.$.$.$.  a a a a #.    ] ..( Y z     . 3 a #.$.$.$.$.$.$.$.$.$.$.$.$.$.$.",
"$.$.$.$.$.$.$.$.$.$.$.$.$.$.$.$.$.$.$.$.  0 J  ._ Q F 2     3 a } #.$.$.$.$.$.$.$.$.$.$.$.$.$.$.",
"$.$.$.$.$.$.$.$.$.$.$.$.$.$.$.$.$.$.$.$.  f ! ( L W y     & a } #.$.$.$.$.$.$.$.$.$.$.$.$.$.$.$.",
"$.$.$.$.$.$.$.$.$.$.$.$.$.$.$.$.$.$.$.$.  l ' ^ T G     . p } #.$.$.$.$.$.$.$.$.$.$.$.$.$.$.$.$.",
"$.$.$.$.$.$.$.$.$.$.$.$.$.$.$.$.$.$.$.$.  H ' ~ T v     = a #.$.$.$.$.$.$.$.$.$.$.$.$.$.$.$.$.$.",
"$.$.$.$.$.$.$.$.$.$.$.$.$.$.$.$.$.$.$.$.  U | R U r     a } #.$.$.$.$.$.$.$.$.$.$.$.$.$.$.$.$.$.",
"$.$.$.$.$.$.$.$.$.$.$.$.$.$.$.$.$.$.$.$.  S ' U A     X a #.$.$.$.$.$.$.$.$.$.$.$.$.$.$.$.$.$.$.",
"$.$.$.$.$.$.$.$.$.$.$.$.$.$.$.$.$.$.$.$.  M M b s     ; } #.$.$.$.$.$.$.$.$.$.$.$.$.$.$.$.$.$.$.",
"$.$.$.$.$.$.$.$.$.$.$.$.$.$.$.$.$.$.$.$.  4 6       O a } #.$.$.$.$.$.$.$.$.$.$.$.$.$.$.$.$.$.$.",
"$.$.$.$.$.$.$.$.$.$.$.$.$.$.$.$.$.$.$.$.          O > a #.$.$.$.$.$.$.$.$.$.$.$.$.$.$.$.$.$.$.$.",
"$.$.$.$.$.$.$.$.$.$.$.$.$.$.$.$.$.$.$.$.$.  a i u a a } #.$.$.$.$.$.$.$.$.$.$.$.$.$.$.$.$.$.$.$.",
"$.$.$.$.$.$.$.$.$.$.$.$.$.$.$.$.$.$.$.$.$.5         , #.$.$.$.$.$.$.$.$.$.$.$.$.$.$.$.$.$.$.$.$.",
"$.$.$.$.$.$.$.$.$.$.$.$.$.$.$.$.$.$.$.$.  ` { ..A       $.$.$.$.$.$.$.$.$.$.$.$.$.$.$.$.$.$.$.$.",
"$.$.$.$.$.$.$.$.$.$.$.$.$.$.$.$.$.$.$.$.  { X.X.U     # $.$.$.$.$.$.$.$.$.$.$.$.$.$.$.$.$.$.$.$.",
"$.$.$.$.$.$.$.$.$.$.$.$.$.$.$.$.$.$.$.$.  ....R A     # } #.$.$.$.$.$.$.$.$.$.$.$.$.$.$.$.$.$.$.",
"$.$.$.$.$.$.$.$.$.$.$.$.$.$.$.$.$.$.$.$.  ..) U A     # } #.$.$.$.$.$.$.$.$.$.$.$.$.$.$.$.$.$.$.",
"$.$.$.$.$.$.$.$.$.$.$.$.$.$.$.$.$.$.$.$.  P R A w     # } #.$.$.$.$.$.$.$.$.$.$.$.$.$.$.$.$.$.$.",
"$.$.$.$.$.$.$.$.$.$.$.$.$.$.$.$.$.$.$.$.$.            # } #.$.$.$.$.$.$.$.$.$.$.$.$.$.$.$.$.$.$.",
"$.$.$.$.$.$.$.$.$.$.$.$.$.$.$.$.$.$.$.$.$.          + a } #.$.$.$.$.$.$.$.$.$.$.$.$.$.$.$.$.$.$.",
"$.$.$.$.$.$.$.$.$.$.$.$.$.$.$.$.$.$.$.$.$.$.  , , , a a } #.$.$.$.$.$.$.$.$.$.$.$.$.$.$.$.$.$.$.",
"$.$.$.$.$.$.$.$.$.$.$.$.$.$.$.$.$.$.$.$.$.$.$.  a a a } #.$.$.$.$.$.$.$.$.$.$.$.$.$.$.$.$.$.$.$.",
"$.$.$.$.$.$.$.$.$.$.$.$.$.$.$.$.$.$.$.$.$.$.$.$.$.$.$.$.$.$.$.$.$.$.$.$.$.$.$.$.$.$.$.$.$.$.$.$.",
"$.$.$.$.$.$.$.$.$.$.$.$.$.$.$.$.$.$.$.$.$.$.$.$.$.$.$.$.$.$.$.$.$.$.$.$.$.$.$.$.$.$.$.$.$.$.$.$.",
"$.$.$.$.$.$.$.$.$.$.$.$.$.$.$.$.$.$.$.$.$.$.$.$.$.$.$.$.$.$.$.$.$.$.$.$.$.$.$.$.$.$.$.$.$.$.$.$.",
"$.$.$.$.$.$.$.$.$.$.$.$.$.$.$.$.$.$.$.$.$.$.$.$.$.$.$.$.$.$.$.$.$.$.$.$.$.$.$.$.$.$.$.$.$.$.$.$.",
"$.$.$.$.$.$.$.$.$.$.$.$.$.$.$.$.$.$.$.$.$.$.$.$.$.$.$.$.$.$.$.$.$.$.$.$.$.$.$.$.$.$.$.$.$.$.$.$."
};
