/* XPM */
static char * repview_xpm[] = {
"20 20 3 1",
" 	c None",
".	c #000000000000",
"X	c #FFFFFFFFFFFF",
"                    ",
"                    ",
"                    ",
" .................  ",
" .XXXXXXXXXXXXXXX.  ",
" .................  ",
" .XXXXXXXXXXXXXXX.  ",
" .XX..XXXX.XX..XX.  ",
" .XXXXXXXXXXXXXXX.  ",
" .XX...XXX.XX..XX.  ",
" .XXXXXXXXXXXXXXX.  ",
" .XX...XXX.XX..XX.  ",
" .XXXXXXXXXXXXXXX.  ",
" .XX...XXX.XX..XX.  ",
" .XXXXXXXXXXXXXXX.  ",
" .................  ",
"                    ",
"                    ",
"                    ",
"                    "};



