/* XPM */
static char *warning[] = {
/* columns rows colors chars-per-pixel */
"48 48 270 2",
"   c Gray0",
".  c #010100000000",
"X  c #010101010000",
"o  c #010101010101",
"O  c #020201010000",
"+  c #030301010000",
"@  c #020202020000",
"#  c #020202020202",
"$  c Gray1",
"%  c #040403030000",
"&  c #050504040000",
"*  c #070704040000",
"=  c #040404040404",
"-  c Gray2",
";  c #060606060606",
":  c #090907070000",
">  c #090907070101",
",  c #0e0e03030202",
"<  c #0d0d04040303",
"1  c #0a0a08080000",
"2  c #0b0b09090000",
"3  c #0e0e0b0b0000",
"4  c Gray3",
"5  c #090909090909",
"6  c Gray4",
"7  c #0b0b0b0b0b0b",
"8  c Gray6",
"9  c #171704040202",
"0  c #10100d0d0101",
"q  c #13130f0f0000",
"w  c #13130f0f0101",
"e  c #1c1c07070505",
"r  c #151510100101",
"t  c #191913130000",
"y  c #1d1d16160202",
"u  c #1e1e17170202",
"i  c #111111111111",
"p  c #161616161616",
"a  c #212107070505",
"s  c #222207070505",
"d  c #232307070404",
"f  c #232307070505",
"g  c #262608080606",
"h  c #2b2b0a0a0707",
"j  c #2c2c08080505",
"k  c #2e2e08080505",
"l  c #2e2e09090606",
"z  c #2e2e0a0a0808",
"x  c #24241c1c0303",
"c  c #25251d1d0202",
"v  c #25251d1d0303",
"b  c #27271e1e0202",
"n  c #3b3b0b0b0707",
"m  c #3b3b0c0c0909",
"M  c #3c3c0c0c0909",
"N  c #3d3d0c0c0909",
"B  c #3e3e0c0c0808",
"V  c #292920200303",
"C  c #2c2c23230303",
"Z  c #313126260404",
"A  c #313126260505",
"S  c #333327270404",
"D  c #38382c2c0505",
"F  c #3c3c2e2e0505",
"G  c Gray17",
"H  c #41410c0c0707",
"J  c #42420c0c0606",
"K  c #42420c0c0707",
"L  c #42420d0d0808",
"P  c #44440e0e0909",
"I  c #44440e0e0a0a",
"U  c #47470e0e0909",
"Y  c #46460e0e0a0a",
"T  c #49490d0d0707",
"R  c #4d4d0d0d0707",
"E  c #49490e0e0909",
"W  c #49490e0e0a0a",
"Q  c #4d4d10100c0c",
"!  c #52520e0e0707",
"~  c #575711110909",
"^  c #5a5a12120d0d",
"/  c #5d5d11110b0b",
"(  c #5e5e11110a0a",
")  c #5c5c12120d0d",
"_  c #5e5e12120c0c",
"`  c #404031310404",
"'  c #404031310505",
"]  c #414132320606",
"[  c #424233330505",
"{  c #454535350606",
"}  c #4b4b3a3a0707",
"|  c #4e4e3d3d0606",
" . c #51513f3f0707",
".. c #606012120b0b",
"X. c #636311110909",
"o. c #616113130e0e",
"O. c #646412120909",
"+. c #6a6a13130b0b",
"@. c #6e6e13130a0a",
"#. c #6e6e14140a0a",
"$. c #6f6f14140b0b",
"%. c #6d6d16160e0e",
"&. c #6e6e15150c0c",
"*. c #717115150d0d",
"=. c #727215150d0d",
"-. c #737315150c0c",
";. c #737316160e0e",
":. c #777715150c0c",
">. c #787815150b0b",
",. c #787815150c0c",
"<. c #737317171111",
"1. c #7a7a17171010",
"2. c #787818181212",
"3. c #7b7b19191212",
"4. c #525240400707",
"5. c #676750500909",
"6. c #696952520a0a",
"7. c #717157570a0a",
"8. c #74745a5a0c0c",
"9. c #7a7a61610909",
"0. c #7c7c61610c0c",
"q. c #858517170c0c",
"w. c #868618180d0d",
"e. c #8a8a18180c0c",
"r. c #8a8a19190f0f",
"t. c #808018181010",
"y. c #80801a1a1313",
"u. c #868619191010",
"i. c #86861b1b1313",
"p. c #87871b1b1212",
"a. c #85851b1b1414",
"s. c #88881a1a1111",
"d. c #89891a1a1111",
"f. c #8b8b1c1c1515",
"g. c #8d8d1b1b1212",
"h. c #8f8f1b1b1010",
"j. c #8c8c1c1c1414",
"k. c #90901a1a0f0f",
"l. c #91911a1a0f0f",
"z. c #92921a1a0e0e",
"x. c #9b9b1b1b0e0e",
"c. c #9a9a1c1c0f0f",
"v. c #93931b1b1010",
"b. c #90901e1e1212",
"n. c #97971e1e1515",
"m. c #99991d1d1313",
"M. c #98981d1d1414",
"N. c #98981f1f1717",
"B. c #99991f1f1616",
"V. c #9a9a1f1f1515",
"C. c #9b9b1e1e1414",
"Z. c #9b9b1f1f1717",
"A. c #9c9c1e1e1313",
"S. c #9d9d1e1e1212",
"D. c #9e9e1d1d1111",
"F. c #9f9f1d1d1010",
"G. c #9f9f1e1e1313",
"H. c #9d9d1f1f1515",
"J. c #9c9c1f1f1616",
"K. c #9e9e1e1e1414",
"L. c #a0a01d1d0f0f",
"P. c #a1a11c1c0e0e",
"I. c #a2a21d1d0f0f",
"U. c #a3a31c1c0e0e",
"Y. c #a3a31d1d0f0f",
"T. c #a4a41c1c0e0e",
"R. c #a6a61d1d0f0f",
"E. c #a7a71d1d0e0e",
"W. c #a9a91d1d0f0f",
"Q. c #a1a11d1d1010",
"!. c #a1a11d1d1111",
"~. c #a0a01e1e1212",
"^. c #a2a21d1d1010",
"/. c #b3b31f1f0f0f",
"(. c #b2b21f1f1010",
"). c #b9b920200f0f",
"_. c #b6b621211111",
"`. c #b7b720201010",
"'. c #baba20201010",
"]. c #bdbd21211111",
"[. c #bfbf22221212",
"{. c #abab42421616",
"}. c #b1b140401010",
"|. c #b9b95b5b1313",
" X c #bbbb5b5b1111",
".X c #bfbf6f6f1616",
"XX c #92924f4f4848",
"oX c #c6c622221010",
"OX c #c8c823231212",
"+X c #caca23231010",
"@X c #cdcd25251313",
"#X c #d1d124241212",
"$X c #d2d224241111",
"%X c #d2d226261414",
"&X c #d5d525251111",
"*X c #d4d425251313",
"=X c #d9d926261313",
"-X c #dbdb26261212",
";X c #d8d827271515",
":X c #dcdc26261313",
">X c #dede26261212",
",X c #e0e027271212",
"<X c #e3e327271313",
"1X c #e6e627271212",
"2X c #e4e42e2e1a1a",
"3X c #ebeb27271313",
"4X c #ebeb28281212",
"5X c #e8e828281414",
"6X c #eaea29291515",
"7X c #eaea2a2a1616",
"8X c #ecec29291313",
"9X c #eeee29291313",
"0X c #eded29291414",
"qX c #ecec2a2a1616",
"wX c #efef29291414",
"eX c #f1f129291212",
"rX c #f3f329291212",
"tX c #f4f429291313",
"yX c #f5f529291313",
"uX c #f5f52a2a1313",
"iX c #f6f629291313",
"pX c #f7f729291313",
"aX c #f4f429291414",
"sX c #f4f42a2a1414",
"dX c #f6f62b2b1414",
"fX c #c1c169691616",
"gX c #c2c26f6f1212",
"hX c #c1c16f6f1414",
"jX c #c5c56b6b1212",
"kX c #c5c57e7e1616",
"lX c #c7c77e7e1414",
"zX c #c8c87e7e1414",
"xX c #b9b993930e0e",
"cX c #bdbd93931212",
"vX c #c9c985851717",
"bX c #cbcb86861717",
"nX c #cdcd87871313",
"mX c #cccc86861414",
"MX c #cccc86861515",
"NX c #cbcb89891414",
"BX c #cfcf88881212",
"VX c #cfcf8c8c1212",
"CX c #c3c39b9b0f0f",
"ZX c #c4c498981313",
"AX c #c7c79a9a1414",
"SX c #cbcb9e9e1313",
"DX c #d1d189891212",
"FX c #d2d288881414",
"GX c #d0d08c8c1313",
"HX c #d7d7a8a81616",
"JX c #d7d7a8a81a1a",
"KX c #d8d8a5a51c1c",
"LX c #dadaaaaa1616",
"PX c #dadaaaaa1717",
"IX c #dbdbaaaa1616",
"UX c #dbdbabab1717",
"YX c #dcdcabab1515",
"TX c #dcdcaeae1111",
"RX c #dedeacac1313",
"EX c #dfdfadad1313",
"WX c #d8d8a9a91919",
"QX c #d8d8a9a91a1a",
"!X c #d9d9aaaa1919",
"~X c #dfdfb1b11212",
"^X c #e0e0adad1111",
"/X c #e1e1aeae1212",
"(X c #e0e0aeae1414",
")X c #e0e0b2b21313",
"_X c #808080808080",
"`X c None",
/* pixels */
"`X`X`X`X`X`X`X`X`X`X`X`X`X`X`X`X`X`X`X`X`X`X`X`X`X`X`X`X`X`X`X`X`X`X`X`X`X`X`X`X`X`X`X`X`X`X`X`X",
"`X`X`X`X`X`X`X`X`X`X`X`X`X`X`X`X`X`X`X`X`X`X`X`X`X`X`X`X`X`X`X`X`X`X`X`X`X`X`X`X`X`X`X`X`X`X`X`X",
"`X`X`X`X`X`X`X`X`X`X`X`X`X`X`X`X`X`X`X`X`X`X`X`X`X`X`X`X`X`X`X`X`X`X`X`X`X`X`X`X`X`X`X`X`X`X`X`X",
"`X`X`X`X`X`X`X`X`X`X`X`X`X`X`X`X`X`X`X`X`X`X`X`X`X`X`X`X`X`X`X`X`X`X`X`X`X`X`X`X`X`X`X`X`X`X`X`X",
"`X`X`X`X`X`X`X`X`X`X`X`X`X`X`X`X`X`X`X`X`X`X`X`X`X`X`X`X`X`X`X`X`X`X`X`X`X`X`X`X`X`X`X`X`X`X`X`X",
"`X`X`X`X`X`X`X`X`X`X`X`X`X`X`X`X`X`X`X`X`X`X`X`X`X`X`X`X`X`X`X`X`X`X`X`X`X`X`X`X`X`X`X`X`X`X`X`X",
"`X`X`X`X`X`X`X`X`X`X`X`X`X`X`X`X`X`X`X`X`X`X`X`X`X`X`X`X`X`X`X`X`X`X`X`X`X`X`X`X`X`X`X`X`X`X`X`X",
"`X`X`X`X`X`X`X`X`X`X`X`X`X`X`X`X`X`X`X`X`X`X`X`X9XsXoXb._X`X`X`X`X`X`X`X`X`X`X`X`X`X`X`X`X`X`X`X",
"`X`X`X`X`X`X`X`X`X`X`X`X`X`X`X`X`X`X`X`X`X`X`X8XdX$XW.q.    `X`X`X`X`X`X`X`X`X`X`X`X`X`X`X`X`X`X",
"`X`X`X`X`X`X`X`X`X`X`X`X`X`X`X`X`X`X`X`X`X`XE.iX&XE.P.x.O.    `X`X`X`X`X`X`X`X`X`X`X`X`X`X`X`X`X",
"`X`X`X`X`X`X`X`X`X`X`X`X`X`X`X`X`X`X`X`X`XE.pX,X/.T.T.P.e.k i   `X`X`X`X`X`X`X`X`X`X`X`X`X`X`X`X",
"`X`X`X`X`X`X`X`X`X`X`X`X`X`X`X`X`X`X`X`X`X4X8X).T.T.}.T.c.X.    `X`X`X`X`X`X`X`X`X`X`X`X`X`X`X`X",
"`X`X`X`X`X`X`X`X`X`X`X`X`X`X`X`X`X`X`X`XE.uX+XT.T. XgXY.L.z.n     `X`X`X`X`X`X`X`X`X`X`X`X`X`X`X",
"`X`X`X`X`X`X`X`X`X`X`X`X`X`X`X`X`X`X`XE.yX-XR.T.T.^X~XY.Y.L.:.      `X`X`X`X`X`X`X`X`X`X`X`X`X`X",
"`X`X`X`X`X`X`X`X`X`X`X`X`X`X`X`X`X`X`X4X8X`.T.U./X~X~XFXY.F.l.R     `X`X`X`X`X`X`X`X`X`X`X`X`X`X",
"`X`X`X`X`X`X`X`X`X`X`X`X`X`X`X`X`X`XE.uX+XT.T.jX~X~X~X~XQ.^.F.-.      `X`X`X`X`X`X`X`X`X`X`X`X`X",
"`X`X`X`X`X`X`X`X`X`X`X`X`X`X`X`X`XE.tX>XR.T.T.^XTXxXTXRXBX^.F.k.T     `X`X`X`X`X`X`X`X`X`X`X`X`X",
"`X`X`X`X`X`X`X`X`X`X`X`X`X`X`X`X`X1XwX'.T.T.DXCXX 3 ' RXRX^.!.D.-.      `X`X`X`X`X`X`X`X`X`X`X`X",
"`X`X`X`X`X`X`X`X`X`X`X`X`X`X`X`XE.rX#XT.T.T.~X9.* q @ RXRXnX!.D.k.E     `X`X`X`X`X`X`X`X`X`X`X`X",
"`X`X`X`X`X`X`X`X`X`X`X`X`X`X`X`X4X5X(.T.T.)X~XC + . t RXRXYX!.!.S.=.      `X`X`X`X`X`X`X`X`X`X`X",
"`X`X`X`X`X`X`X`X`X`X`X`X`X`X`XE.uXOXT.T.FX~X~Xc   % V RXYXYXnX~.S.h.E     `X`X`X`X`X`X`X`X`X`X`X",
"`X`X`X`X`X`X`X`X`X`X`X`X`X`XE.eX:XR.T.Y.~X~X~Xb   y [ YXYXYXYX~.~.S.*.      `X`X`X`X`X`X`X`X`X`X",
"`X`X`X`X`X`X`X`X`X`X`X`X`X`X@.0X].T.T.GX~X~XRX|   ` { YXYXYXIXmX~.S.d.U     `X`X`X`X`X`X`X`X`X`X",
"`X`X`X`X`X`X`X`X`X`X`X`X`XR.aX=XR.T.Y.~X~X~XRXu X v ] YXYXIXIXIX~.G.m.(       `X`X`X`X`X`X`X`X`X",
"`X`X`X`X`X`X`X`X`X`X`X`X`X<X6X`.T.I.)X~X~XRXRX: X 2 v YXIXIXIXIXMXG.A.u.j     `X`X`X`X`X`X`X`X`X",
"`X`X`X`X`X`X`X`X`X`X`X`XR.wX*XT.Y.FX~X~XRXRXRX& 0 1 S IXIXIXIXPXPXG.G.M._   p   `X`X`X`X`X`X`X`X",
"`X`X`X`X`X`X`X`X`X`X`X`X2X6X`.Y.Y.~X~XRXRXRXRX& w % 4.IXIXIXPXPXPXMXK.C.1.e     `X`X`X`X`X`X`X`X",
"`X`X`X`X`X`X`X`X`X`X`XR.wX*XY.Y.GX~XRXRXRXRXYXD  .r 7.IXIXPXPXPXPXWXK.K.g.W     `X`X`X`X`X`X`X`X",
"`X`X`X`X`X`X`X`X`X`X`X2X6X`.Y.Y.~XRXRXRXRXYXYXcX5.Z AXIXIXPXPXPXWXWXbXK.V.%.$     `X`X`X`X`X`X`X",
"`X`X`X`X`X`X`X`X`X`XR.wX*XY.Y.GX~XRXRXRXYXYXYXYXIXIXIXIXPXPXPXPXWXWXWXH.V.p.P     `X`X`X`X`X`X`X",
"`X`X`X`X`X`X`X`X`X`X2X6X_.Y.Y.~XRXRXRXYXYXYXYXSXv x ZXPXPXPXPXWXWXWXJXfXH.n.) =     `X`X`X`X`X`X",
"`X`X`X`X`X`X`X`X`XR.wX%XY.Y.VXRXRXRXRXYXYXYXIX} O O 6.PXPXPXWXWXWXWXJXvXH.B.3.h     `X`X`X`X`X`X",
"`X`X`X`X`X`X`X`X`XXXqX_.Y.Y.RXRXRXRXYXYXYXYXIXF % > 8.PXPXWXWXWXWXJXJXJXH.J.j.Y -   `X`X`X`X`X`X",
"`X`X`X`X`X`X`X`XR.3X;XY.Y.zX(XEXRXYXYXYXYXIXIXcXA 0.HXPXWXWXWXWXJXJXJXJX.XJ.B.o.  7   `X`X`X`X`X",
"`X`X`X`X`X`X`X`X#.7X[.Y.^.^.^.^.!.!.!.|.hXlXNXLXUXUXUX!X!X!X!XQXQXQXQXKXkX{.B.2.g   G `X`X`X`X`X",
"`X`X`X`X`X`X`X`XJ @XY.L.^.^.^.!.!.!.!.~.~.~.~.G.G.G.G.K.K.K.H.H.H.H.J.J.J.J.Z.f.I       `X`X`X`X",
"`X`X`X`X`X`X`X`X9 >.! +.$.,.w.r.v.D.S.~.~.~.G.G.G.G.K.K.K.H.H.H.H.J.J.J.J.Z.Z.N.^ o     `X`X`X`X",
"`X`X`X`X`X`X`X`X  - # # , d l H K ~ / ..&.;.;.;.t.s.s.s.s.p.p.p.i.i.i.i.a.a.y.<.Q # ;   `X`X`X`X",
"`X`X`X`X`X`X`X`X      # # # # # # # # # < s a a f L B B B B B B N N N M M M m z e #     `X`X`X`X",
"`X`X`X`X`X`X`X`X            $ $ # # # # # # # # # # # # # # # # # # # # # # # # #   o   `X`X`X`X",
"`X`X`X`X`X`X`X`X`X        8 6     o o = = $   $     # # # # # # # # # # # # # # $ $     `X`X`X`X",
"`X`X`X`X`X`X`X`X`X`X`X`X`X                    5 5 4                                     `X`X`X`X",
"`X`X`X`X`X`X`X`X`X`X`X`X`X`X`X`X`X`X`X`X`X                                          `X`X`X`X`X`X",
"`X`X`X`X`X`X`X`X`X`X`X`X`X`X`X`X`X`X`X`X`X`X`X`X`X`X`X`X`X`X`X`X`X`X`X`X`X`X`X`X`X`X`X`X`X`X`X`X",
"`X`X`X`X`X`X`X`X`X`X`X`X`X`X`X`X`X`X`X`X`X`X`X`X`X`X`X`X`X`X`X`X`X`X`X`X`X`X`X`X`X`X`X`X`X`X`X`X",
"`X`X`X`X`X`X`X`X`X`X`X`X`X`X`X`X`X`X`X`X`X`X`X`X`X`X`X`X`X`X`X`X`X`X`X`X`X`X`X`X`X`X`X`X`X`X`X`X",
"`X`X`X`X`X`X`X`X`X`X`X`X`X`X`X`X`X`X`X`X`X`X`X`X`X`X`X`X`X`X`X`X`X`X`X`X`X`X`X`X`X`X`X`X`X`X`X`X",
"`X`X`X`X`X`X`X`X`X`X`X`X`X`X`X`X`X`X`X`X`X`X`X`X`X`X`X`X`X`X`X`X`X`X`X`X`X`X`X`X`X`X`X`X`X`X`X`X"
};
