/* XPM */
static char *icon2_xpm[] = {
/* width height num_colors chars_per_pixel */
"    32    32        3            1",
/* colors */
". c #000000",
"# c #ff0000",
"a c None",
/* pixels */
"aaaaaaaaaaaaaaaaaaaaaaaaaaaaaaaa",
"aaaaaaaaaaaaaaaaaaaaaaaaaaaaaaaa",
"aaaa................aaaaaaaaaaaa",
"aaaa................aaaaaaaaaaaa",
"aaaa..############....aaaaaaaaaa",
"aaaa..############....aaaaaaaaaa",
"aaaa..##..##..####..aa..aaaaaaaa",
"aaaa..##..##..####..aa..aaaaaaaa",
"aaaa..############........aaaaaa",
"aaaa..############........aaaaaa",
"aaaa..##..##..##########..aaaaaa",
"aaaa..##..##..##########..aaaaaa",
"aaaa..##################..aaaaaa",
"aaaa..##################..aaaaaa",
"aaaa..##..##..##..##..##..aaaaaa",
"aaaa..##..##..##..##..##..aaaaaa",
"aaaa..##################..aaaaaa",
"aaaa..##################..aaaaaa",
"aaaa..##..##..##..##..##..aaaaaa",
"aaaa..##..##..##..##..##..aaaaaa",
"aaaa..##################..aaaaaa",
"aaaa..##################..aaaaaa",
"aaaa..##..##..##..##..##..aaaaaa",
"aaaa..##..##..##..##..##..aaaaaa",
"aaaa..##################..aaaaaa",
"aaaa..##################..aaaaaa",
"aaaa......................aaaaaa",
"aaaa......................aaaaaa",
"aaaaaaaaaaaaaaaaaaaaaaaaaaaaaaaa",
"aaaaaaaaaaaaaaaaaaaaaaaaaaaaaaaa",
"aaaaaaaaaaaaaaaaaaaaaaaaaaaaaaaa",
"aaaaaaaaaaaaaaaaaaaaaaaaaaaaaaaa"
};
