/* XPM */
static char *icon5_xpm[] = {
/* width height num_colors chars_per_pixel */
"    32    32        4            1",
/* colors */
". c #000000",
"# c #808000",
"a c None",
"b c #ffff00",
/* pixels */
"aaaaaaaaaaaaaaaaaaaaaaaaaaaaaaaa",
"aaaaaaaaaaaaaaaaaaaaaaaaaaaaaaaa",
"aaaaaaaaaaaaaaaaaaaaaaaaaaaaaaaa",
"aaaaaaaaaaaaaaaaaaaaaaaaaaaaaaaa",
"aa..........aaaaaaaaaaaaaaaaaaaa",
"aa..........aaaaaaaaaaaaaaaaaaaa",
"aa..bbbbbb................aaaaaa",
"aa..bbbbbb................aaaaaa",
"aa..bbbbbbbbbbbbbbbbbbbb..aaaaaa",
"aa..bbbbbbbbbbbbbbbbbbbb..aaaaaa",
"aa..bbbbbbbbbbbbbbbbbbbb..aaaaaa",
"aa..bbbbbbbbbbbbbbbbbbbb..aaaaaa",
"aa..bbbb......................aa",
"aa..bbbb......................aa",
"aa..bbb.####################..aa",
"aa..bbb.####################..aa",
"aa..bb..####################.aaa",
"aa..bb..####################.aaa",
"aa..b.####################..aaaa",
"aa..b.####################..aaaa",
"aa....####################.aaaaa",
"aa....####################.aaaaa",
"aa..####################..aaaaaa",
"aa..####################..aaaaaa",
"aa......................aaaaaaaa",
"aa......................aaaaaaaa",
"aaaaaaaaaaaaaaaaaaaaaaaaaaaaaaaa",
"aaaaaaaaaaaaaaaaaaaaaaaaaaaaaaaa",
"aaaaaaaaaaaaaaaaaaaaaaaaaaaaaaaa",
"aaaaaaaaaaaaaaaaaaaaaaaaaaaaaaaa",
"aaaaaaaaaaaaaaaaaaaaaaaaaaaaaaaa",
"aaaaaaaaaaaaaaaaaaaaaaaaaaaaaaaa"
};
