/* XPM */
static char *icon2_xpm[] = {
/* width height num_colors chars_per_pixel */
"    32    32        6            1",
/* colors */
". c #b2c0dc",
"# c #000000",
"a c #c0c0c0",
"b c #808080",
"c c #ffff00",
"d c #ffffff",
/* pixels */
"................................",
"................................",
"......bbbbbbbbbb................",
"......bbbbbbbbbb................",
"....bbccaaccaaccbb..............",
"....bbccaaccaaccbb..............",
"..bbccaaccaaccaaccbbbbbbbbbbbb..",
"..bbccaaccaaccaaccbbbbbbbbbbbb..",
"..bbddddddddddddddddddddddddbb##",
"..bbddddddddddddddddddddddddbb##",
"..bbddccaaccaaccaaccaaccaaccbb##",
"..bbddccaaccaaccaaccaaccaaccbb##",
"..bbddaaccaaccaaccaaccaaccaabb##",
"..bbddaaccaaccaaccaaccaaccaabb##",
"..bbddccaaccaaccaaccaaccaaccbb##",
"..bbddccaaccaaccaaccaaccaaccbb##",
"..bbddaaccaaccaaccaaccaaccaabb##",
"..bbddaaccaaccaaccaaccaaccaabb##",
"..bbddccaaccaaccaaccaaccaaccbb##",
"..bbddccaaccaaccaaccaaccaaccbb##",
"..bbddaaccaaccaaccaaccaaccaabb##",
"..bbddaaccaaccaaccaaccaaccaabb##",
"..bbddccaaccaaccaaccaaccaaccbb##",
"..bbddccaaccaaccaaccaaccaaccbb##",
"..bbbbbbbbbbbbbbbbbbbbbbbbbbbb##",
"..bbbbbbbbbbbbbbbbbbbbbbbbbbbb##",
"....############################",
"....############################",
"................................",
"................................",
"................................",
"................................"
};
