/* XPM */
static const char *state1_xpm[] = {
/* columns rows colors chars-per-pixel */
"16 16 123 2",
"8. c #ADAF01",
"n  c #E5E804",
"2. c #E5E806",
",  c #FCFF00",
"R  c #C4C601",
"J  c #E5E809",
".  c #FCFF05",
"*. c #D6D904",
"X  c #FCFF13",
"6. c #A6A800",
"M  c #EDF00E",
"$. c #A6A802",
"   c None",
"H  c #DEE104",
"0  c #F5F802",
"o  c #FCFF22",
"s  c #EEF101",
"t  c #FAFC24",
"3. c #F3F506",
"_  c #FAFC27",
"f  c #EEF106",
"}  c #C8CB03",
"U  c #FAFC32",
"'  c #BEC000",
"/  c #EEF113",
"E  c #BEC002",
"C  c #FAFC36",
"l  c #FAFC38",
"D  c #D0D301",
"5. c #AFB100",
"e  c #F6F90E",
"[  c #AFB102",
"@. c #A0A200",
"j  c #F6F91C",
"G  c #D8DB03",
">  c #FEFF86",
")  c #F6F91F",
":  c #FEFF8D",
"p  c #FEFF8E",
"1. c #C9CC03",
"8  c #FEFF92",
"v  c #E0E301",
".. c #EFF210",
"y  c #FBFD35",
"4. c #F7FA02",
"P  c #F4F61C",
"F  c #D1D402",
"Z  c #FBFD46",
"o. c #F7FA18",
"r  c #F7FA19",
"!  c #D9DC06",
"%. c #B8BA02",
"g  c #F0F30C",
"4  c #FCFE2F",
"b  c #E1E402",
"N  c #F0F313",
" . c #E1E408",
"Y  c #FCFE3A",
":. c #F8FB0A",
"B  c #F5F71E",
"1  c #F8FB0B",
"5  c #FCFE43",
"m  c #E9EC08",
"&. c #C8CA03",
"u  c #FCFE4A",
"^  c #E9EC0C",
"0. c #DADD01",
"A  c #FCFE54",
"z  c #FCFE5D",
";. c #F1F40D",
"=. c #E2E507",
"~  c #E2E509",
"<  c #F9FC05",
"=  c #FDFF39",
"O  c #FDFF3C",
"T  c #FDFF3F",
"2  c #F9FC13",
"]  c #A3A501",
"-  c #FDFF50",
"3  c #F9FC1F",
"+. c #BABC00",
"L  c #EFF114",
"+  c #FDFF56",
"q  c #F2F504",
"S  c #FDFF59",
"#. c #949601",
"6  c #FDFF5C",
"$  c #FDFF5F",
"9  c #FDFF61",
"@  c #FDFF63",
"#  c #FDFF65",
"c  c #FDFF67",
"a  c #FDFF68",
"9. c #C2C402",
"{  c #BDC003",
";  c #FDFF6C",
"x  c #FDFF70",
"7  c #FDFF76",
"i  c #FDFF77",
"I  c #F7F925",
"V  c #F7F927",
"<. c #8D8F01",
"-. c #EBEE0A",
"K  c #EBEE0C",
"7. c #A4A600",
"w. c #F3F600",
",. c #959700",
"h  c #F3F612",
"X. c #F3F615",
"(  c #F3F619",
"|  c #D5D804",
"%  c #FBFE0B",
"d  c #ECEF03",
"O. c #FBFE13",
"k  c #F8FA27",
"W  c #C6C902",
"&  c #FBFE18",
"`  c #FBFE23",
"*  c #FBFE24",
"w  c #F4F709",
"Q  c #CED103",
"q. c #EAEC01",
">. c #ADAF00",
/* pixels */
"                                ",
"                                ",
"        . X o O + @ # $         ",
"      . % & * = - ; : > ;       ",
"    , < 1 2 3 4 5 6 7 8 > 9     ",
"    0 q w e r t y u $ i p a     ",
"    s d f g h j k l u z x c     ",
"    v b n m M N B V C Z A S     ",
"    D F G H J K L P I U Y T     ",
"    R E W Q ! ~ ^ / ( ) _ `     ",
"    ' ] [ { } |  .^ ..X.o.O.    ",
"    +.@.#.$.%.&.*.=.-.;.:..     ",
"      >.,.<.] %.1.G 2.3.4.      ",
"        5.6.7.8.9.0.q.w.        ",
"                                ",
"                                "
};
