<svg width="32" height="32" viewBox="0 0 32 32" xmlns="http://www.w3.org/2000/svg">
    <path d="m29.96 5.683-1.399 5.163-4.899-1.516-0.5946 2.15 6.946 2.147 1.985-7.328zm-12.02-5.44c-1.767-0.3274-3.615-0.3301-5.466 0.03248-7.406 1.45-12.71 8.361-12.47 16.25 0.2447 7.888 5.961 14.42 13.44 15.36 7.478 0.9444 14.52-3.974 16.55-11.58l0.2879-1.08-2.042-0.5959-0.29 1.076c-1.749 6.545-7.786 10.77-14.25 9.957-6.461-0.8159-11.37-6.429-11.58-13.22-0.2108-6.794 4.334-12.72 10.73-13.97 6.395-1.252 12.69 2.561 14.85 8.978l0.3521 1.05 2.004-0.7523-0.3541-1.054c-1.873-5.583-6.46-9.469-11.76-10.45z" fill="#3366CC"/>
</svg>
