<svg version="1.1" width="32" height="30" viewBox="-5 -5 42 40" xmlns="http://www.w3.org/2000/svg">
  <path
     d="M 29.96182,5.327571 28.562614,10.167445 23.663833,8.7465479 23.069236,10.762237 30.014982,12.774926 32,5.904813 Z M 17.942207,0.22744843 C 16.175139,-0.07949497 14.327191,-0.08198497 12.47576,0.25789823 5.0694277,1.617476 -0.2366256,8.0961058 0.0081316,15.491816 c 0.244727,7.39541 5.9608101,13.514327 13.4392354,14.399623 7.478426,0.88534 14.521863,-3.72598 16.554438,-10.853042 l 0.287893,-1.012375 -2.041815,-0.558702 -0.289967,1.00873 C 26.208567,24.612068 20.17218,28.575796 13.710951,27.8108 7.2497218,27.045864 2.3391268,21.783232 2.1284478,15.413966 1.9176778,9.0447008 6.4627422,3.4921807 12.857632,2.3182871 19.252522,1.1443634 25.550025,4.7190239 27.702859,10.734892 l 0.352081,0.98476 2.003798,-0.705282 -0.35411,-0.988374 C 27.831538,4.7919239 23.244157,1.1484434 17.942799,0.22759843 Z"
     color="#000000" style="stroke-width:1"
  />
</svg>
