<svg width="124.6" height="100" version="1.1" viewBox="0 0 32.967 26.458" xmlns="http://www.w3.org/2000/svg"><path d="m25.702 6.7809-0.92382 3.2266-3.2344-0.94727-0.39258 1.3438 4.5859 1.3418 1.3106-4.5801zm-7.9359-3.4001c-1.1667-0.20463-2.3868-0.20629-3.6092 0.0203-4.89 0.90639-8.3933 5.2255-8.2317 10.156 0.16158 4.9303 3.9356 9.0096 8.8732 9.5998 4.9376 0.59023 9.588-2.484 10.93-7.2354l0.19008-0.67492-1.3481-0.37247-0.19145 0.67249c-1.155 4.0907-5.1405 6.7332-9.4065 6.2232-4.266-0.50996-7.5082-4.0184-7.6473-8.2646-0.13916-4.2462 2.8617-7.9479 7.0839-8.7305 4.2222-0.78262 8.3801 1.6005 9.8015 5.6111l0.23246 0.65651 1.323-0.47019-0.2338-0.65892c-1.2367-3.4894-4.2655-5.9184-7.7657-6.5323z" color="#000000" /></svg>
