/* XPM */
static char const *const cursor_xpm[] = {
"24 24 4 1",
"  c None",
". c #FFFFFF",
"+ c #000000",
"x c #FF0000",
"   ...                  ",
"   .+.                  ",
"   .+.                  ",
"....+....               ",
".+++ +++.               ",
"....+....               ",
"   .+.x                 ",
"   .+. x                ",
"   ...  x               ",
"         x              ",
"          x             ",
"           x            ",
"            x           ",
"             x          ",
"              x         ",
"               x        ",
"                x       ",
"                 x      ",
"                  x     ",
"                   x    ",
"                    x   ",
"                     x  ",
"                      x ",
"                       x"};
