/* XPM */
static char const *const cursor_2x_xpm[] = {
"48 48 4 1",
"  c None",
". c #000000",
"+ c #FFFFFF",
"x c #00FF00",
"                                                ",
"        ++                                      ",
"       +..+                                     ",
"       +..+                                     ",
"       +..+                                     ",
"       +..+                                     ",
"       +..+                                     ",
"  ++++++..++++++                                ",
" +......  ......+                               ",
" +......  ......+                               ",
"  ++++++..++++++                                ",
"       +..+x                                    ",
"       +..+xx                                   ",
"       +..+ xx                                  ",
"       +..+  xx                                 ",
"       +..+   xx                                ",
"        ++     xx                               ",
"                xx                              ",
"                 xx                             ",
"                  xx                            ",
"                   xx                           ",
"                    xx                          ",
"                     xx                         ",
"                      xx                        ",
"                       xx                       ",
"                        xx                      ",
"                         xx                     ",
"                          xx                    ",
"                           xx                   ",
"                            xx                  ",
"                             xx                 ",
"                              xx                ",
"                               xx               ",
"                                xx              ",
"                                 xx             ",
"                                  xx            ",
"                                   xx           ",
"                                    xx          ",
"                                     xx         ",
"                                      xx        ",
"                                       xx       ",
"                                        xx      ",
"                                         xx     ",
"                                          xx    ",
"                                           xx   ",
"                                            xx  ",
"                                             xx ",
"                                              xx"};
