/* XPM */
static char *rt_colour[] = {
/* columns rows colors chars-per-pixel */
"16 16 37 1",
"  c black",
". c #727D329BA5CF",
"X c #4CF6357BDDD0",
"o c #45CE2E66FA02",
"O c #45FF2D19FF52",
"+ c #45452C2FFFFF",
"@ c #47B22F3CFDC3",
"# c #45EF3E00EB43",
"$ c #456C3C9FF054",
"% c #45663A49F28D",
"& c #45B75BB5D2B6",
"* c #4B8899247615",
"= c #5F619039673F",
"- c #476EFFCA362C",
"; c #4747FFFF3633",
": c #4F3EF55734F1",
"> c #4899D8B04EEE",
", c #46F6DED055CF",
"< c #46EEDBB758C1",
"1 c #4720F01B4555",
"2 c #4724F1E8439E",
"3 c #5EEBE9D75212",
"4 c #46338EE4A1F3",
"5 c #ACF030145603",
"6 c #D9A917AD3776",
"7 c #DF82157232D4",
"8 c #FFD3091A193C",
"9 c #FFFF090A191B",
"0 c #FD590DB41D4A",
"q c #E46E13912EEF",
"w c #EC61108728A3",
"e c #C21E1CD652E5",
"r c #A38E1A6E8B66",
"t c #A37584C127AE",
"y c #A59D81DF2756",
"u c #B4A389EF830A",
"i c None",
/* pixels */
"iiiiiiiiiiiiiiii",
"iiiiii999999iiii",
"iiiii999w9999iii",
"iiii9999999999ii",
"iiii9999999999ii",
"iiii9999999999ii",
"iiii9999999999ii",
"iiiituq999909iii",
"iii--*=567e.++++",
"ii--3>-:yrXo++++",
"i-------2$@+++++",
"--------,%@+++++",
"--------<#++++++",
"--------1&++++++",
"---------4++++++",
"i--------i++++++"
};
