/* XPM */
static char * open_xpm[] = {
"24 24 202 2",
"  	c None",
". 	c #020202",
"+ 	c #5A5226",
"@ 	c #9A8A46",
"# 	c #C6AE52",
"$ 	c #EEDE7E",
"% 	c #FEB26A",
"& 	c #06060A",
"* 	c #B6AE7A",
"= 	c #CEA272",
"- 	c #E2D27E",
"; 	c #FEDEA2",
"> 	c #7A6E4E",
", 	c #BEAA56",
"' 	c #1E1E22",
") 	c #826A4E",
"! 	c #FEDEA6",
"~ 	c #F6F6F2",
"{ 	c #9A7E5A",
"] 	c #C2BE86",
"^ 	c #3E3A2A",
"/ 	c #7E5E3A",
"( 	c #EADA82",
"_ 	c #FEDEAE",
": 	c #FEBE7A",
"< 	c #BABAB6",
"[ 	c #7E7E7E",
"} 	c #625A3A",
"| 	c #E2DA9A",
"1 	c #322212",
"2 	c #D2BA5A",
"3 	c #9E9E9E",
"4 	c #9E7A52",
"5 	c #EAEAE6",
"6 	c #969262",
"7 	c #AEAEAA",
"8 	c #826E52",
"9 	c #FED69A",
"0 	c #DEBE8A",
"a 	c #DEB67E",
"b 	c #9E8A66",
"c 	c #6E5A42",
"d 	c #C2C2BE",
"e 	c #32322E",
"f 	c #EEA256",
"g 	c #664226",
"h 	c #BEA67A",
"i 	c #8A8A8A",
"j 	c #969692",
"k 	c #C68246",
"l 	c #CECECA",
"m 	c #7A7256",
"n 	c #DEDEDE",
"o 	c #362E22",
"p 	c #6E563A",
"q 	c #A66A3A",
"r 	c #625E4A",
"s 	c #DADAD6",
"t 	c #4A4A4A",
"u 	c #FEC282",
"v 	c #D2BE6A",
"w 	c #464646",
"x 	c #363636",
"y 	c #A6A6A2",
"z 	c #6E6E72",
"A 	c #666666",
"B 	c #261A12",
"C 	c #B6B6B2",
"D 	c #FECE92",
"E 	c #4E3A2A",
"F 	c #DECA6A",
"G 	c #DEAE76",
"H 	c #2A2A26",
"I 	c #CACAC6",
"J 	c #3E2A1A",
"K 	c #5E4A3A",
"L 	c #F2F2EE",
"M 	c #929292",
"N 	c #767676",
"O 	c #5A5242",
"P 	c #EEE692",
"Q 	c #D2D2CE",
"R 	c #766A3E",
"S 	c #3E2E1A",
"T 	c #E6E6E6",
"U 	c #FAFAFA",
"V 	c #121212",
"W 	c #5A5A56",
"X 	c #EEE69A",
"Y 	c #968A4E",
"Z 	c #3E321E",
"` 	c #867642",
" .	c #FEC686",
"..	c #423626",
"+.	c #3E3E3E",
"@.	c #4E4E52",
"#.	c #A69246",
"$.	c #4A3E36",
"%.	c #6E5E3A",
"&.	c #E2E2E2",
"*.	c #5E5E5A",
"=.	c #565246",
"-.	c #BEBEBA",
";.	c #DAC666",
">.	c #4E422A",
",.	c #E2D272",
"'.	c #8E8E8A",
").	c #D6D6D2",
"!.	c #AAAAA6",
"~.	c #C6C6C6",
"{.	c #FEBA76",
"].	c #868686",
"^.	c #969266",
"/.	c #F6AA62",
"(.	c #9A9A96",
"_.	c #5A523A",
":.	c #5E5236",
"<.	c #525252",
"[.	c #A2A29E",
"}.	c #7A7A76",
"|.	c #FEFEFE",
"1.	c #7E6A4E",
"2.	c #FEDA9E",
"3.	c #EADE8E",
"4.	c #EEEEEA",
"5.	c #42321E",
"6.	c #7E7672",
"7.	c #FED296",
"8.	c #2E2E2E",
"9.	c #F2EA96",
"0.	c #826E56",
"a.	c #7E6A42",
"b.	c #FECA8A",
"c.	c #3E3226",
"d.	c #5E5E5E",
"e.	c #82764E",
"f.	c #4E4236",
"g.	c #626262",
"h.	c #020206",
"i.	c #423A2E",
"j.	c #422E1A",
"k.	c #CEA672",
"l.	c #7E6242",
"m.	c #727272",
"n.	c #6A6A6E",
"o.	c #CACACA",
"p.	c #F2F2F6",
"q.	c #C6C286",
"r.	c #828286",
"s.	c #F2EAA2",
"t.	c #5A564A",
"u.	c #565656",
"v.	c #AEAEAE",
"w.	c #EEE696",
"x.	c #8E8E92",
"y.	c #7A7A7E",
"z.	c #FEDAA6",
"A.	c #423226",
"B.	c #B6B6B6",
"C.	c #AAAAAA",
"D.	c #BABABA",
"E.	c #DADADA",
"F.	c #422A16",
"G.	c #F2E68E",
"H.	c #16120E",
"I.	c #DEC666",
"J.	c #EAEAEA",
"K.	c #969696",
"L.	c #CECECE",
"M.	c #BEBEBE",
"N.	c #F6F6F6",
"O.	c #F2F2F2",
"P.	c #C2C2C2",
"Q.	c #42362A",
"R.	c #FECA8E",
"S.	c #8A8A8E",
"T.	c #D2D2D2",
"U.	c #3E3222",
"V.	c #8E8E8E",
"W.	c #D6D6D6",
"X.	c #A2A2A2",
"Y.	c #423222",
"Z.	c #422E1E",
"`.	c #FED69E",
" +	c #323232",
".+	c #362E26",
"++	c #46464A",
"@+	c #FECE96",
"#+	c #9A9A9A",
"$+	c #7A7A7A",
"%+	c #2E2E32",
"&+	c #5E5E62",
"*+	c #CACACE",
"=+	c #9A8A4A",
"-+	c #DEBE8E",
";+	c #DECA6E",
">+	c #2A2A2A",
",+	c #5A5A5A",
"'+	c #FEDAA2",
")+	c #EEEEEE",
"!+	c #FED29A",
"~+	c #727276",
"        .+i.c.                                  ",
"        0._ -+8 o                               ",
"        1.9 c  .k.{ h.                          ",
"  H     / S ] ^ 4 k.b.a.>.  c.Q.o               ",
">+x.A . g 1 - w.^.m l.G a 1.0 9 h )             ",
"x n T 3 6.8.+ F G.| * :.p b.D ! ; ; h c         ",
" +*+|.L 5 E.g.} Y ,.P X ] ^ 4 = @+2.! b         ",
"  N N.|.N.p.T.C.+.#.;.$ 9.9.6 > l.G `.z.Q.      ",
"  n.O.|.|.N.J.W.K.=.R # , e.v 3.* :. .`.i.      ",
"  W &.U O.O.J.&.T.~.x.u.> $+@.` ;+w.Y.7.Q.      ",
"  . v.U L )+5 &.E.T.*+P.S.< !.W =+( U.@+i.      ",
"  . X.O.J.T &.n W.T.L.~.P.D.v.y.} ;.S D Q.      ",
"    $+4.5 &.E.s T.o.~.P.D.B.7 r._.2 S b.Q.      ",
"    . n &.n s Q l I ~.-.C C 7 S.O =+U. ...      ",
"    . T.E.W.T.l ~.d -.< C v.y K.&+%.Z b.Q.      ",
"    . M v.~.l ~.d D.C B.C.y y M &+%.S u ..      ",
"      V t ,+B.-.M.B.C v.C.y X.M ~+O S {.A.      ",
"             +N y v.C.!.X.X.#+M i ++S {.Y.      ",
"                ' z ].3 #+3 (.j i ++J % Y.      ",
"                  . %+<.M M j j '.d.E /.Z.      ",
"                        >+,+].i '.}.K f j.h.h.  ",
"                            . *.m.}.$.k J . . h.",
"                              & %+w $.q 1 h..   ",
"                                    H.B         "};
