/* XPM */
static char * vsizer_xpm[] = {
"16 16 3 1",
" 	c None",
".	c #000000",
"+	c #FF0000",
"       .        ",
"      ...       ",
"     ..+..      ",
"    ..+++..     ",
"   ..+++++..    ",
"     .+++.      ",
"     .+++.      ",
"     .+++.      ",
"     .+++.      ",
"     .+++.      ",
"     .+++.      ",
"   ..+++++..    ",
"    ..+++..     ",
"     ..+..      ",
"      ...       ",
"       .        "};
